<svg enable-background="new 0 0 557.3 20" viewBox="0 0 557.3 20" xmlns="http://www.w3.org/2000/svg"><path d="m0 14.2c0-.4.1-.8.3-1 .2-.2.5-.3.9-.3s.7.1.9.3c.2.2.3.6.3 1 0 .4-.1.8-.3 1-.2.2-.5.3-.9.3s-.7-.1-.9-.3-.3-.6-.3-1z" fill="#fff"/><path d="m5.2 6.4c0-1.3-.2-2.5-.7-3.8h1.6c.1.1.1.3.2.5s.2.7.3 1.3.2 1.3.2 2v13.6h-1.6z" fill="#fff"/><path d="m9.8 10.9v-8.3h1.6v6.7l-1.3 1.7h-.3z" fill="#fff"/><path d="m19.6 2.4c1.2 0 2.2.4 2.8 1.1s.9 1.8.9 3.1v8.6h-4.3v-1.3h2.7v-7.2c0-1.9-.9-2.9-2.6-2.9-.3 0-.6.1-.9.2s-.5.2-.7.4c-.4.3-.7.6-.9.9l-.1.2-.9 9.9h-1.6l.9-9.7c0 0 0-.1 0-.2s0-.4-.1-.9-.2-.9-.3-1.2l-.5-.8h1.6c.2.3.3.7.4 1.3h.1c.3-.4.7-.7 1.2-1 .2-.1.6-.3 1-.4s.8-.1 1.3-.1z" fill="#fff"/><path d="m31.4 10.9v-8.3h1.6v6.7l-1.3 1.7h-.3z" fill="#fff"/><path d="m36.1 15.3c-.3 0-.6 0-1-.1v-1.3c.5.1.7.1.8.1.9 0 1.4-.6 1.4-1.7v-8.3l-1.4.1v-1.4c1.8-.2 3.4-.3 4.8-.3 1.2 0 2.1.2 2.9.6.8.4 1.4 1 1.7 1.9.2.5.2 1 .2 1.6v8.8h-1.6v-8.9c0-1.7-1.2-2.6-3.5-2.6-.3 0-.8 0-1.5.1v8.2c0 1-.2 1.8-.7 2.4-.5.5-1.2.8-2.1.8z" fill="#fff"/><path d="m50.2 15.2h-1.6v-12.6h1.6z" fill="#fff"/><path d="m52.2 2.5c.9 0 1.7-.1 2.5-.1s1.3 0 1.8.1.9.2 1.3.4.8.4 1.1.8c.6.7.9 1.6.9 2.7v8.8h-1.6v-8.8c0-1.7-1.2-2.6-3.5-2.6-.7 0-1.5 0-2.4.1v-1.4z" fill="#fff"/><path d="m62.7 10.9v-8.3h1.6v6.7l-1.3 1.6z" fill="#fff"/><path d="m72.2 13.9c1.3 0 2.4-.5 3.3-1.4s1.4-2.4 1.6-4.4l.5-5.5h1.6l-.5 5.5c-.1.8-.2 1.6-.4 2.3s-.4 1.2-.6 1.6c-.2.4-.5.8-.9 1.2s-.8.8-1.2 1c-.4.3-1 .5-1.6.7-.6.2-1.3.3-2.1.3h-4.2l-1-12.6h1.6l.6 7 1.3-.4c1-.3 1.6-1.2 1.7-2.7l.4-3.9h1.6l-.3 3.3c0 .4-.1.8-.2 1.2s-.2.7-.4 1.1-.4.7-.6 1-.4.6-.8.8c-.4.2-.8.4-1.3.5l-1.3.4.3 3z" fill="#fff"/><path d="m86.9 15.3c-.3 0-.6 0-1-.1v-1.3c.5.1.7.1.8.1.9 0 1.4-.6 1.4-1.7v-8.3l-1.4.1v-1.4c1.8-.2 3.4-.3 4.8-.3 1.2 0 2.1.2 2.9.6.8.4 1.4 1 1.7 1.9.2.5.2 1 .2 1.6v8.8h-1.6v-8.9c0-1.7-1.2-2.6-3.5-2.6-.3 0-.8 0-1.5.1v8.2c0 1-.2 1.8-.7 2.4-.4.5-1.1.8-2.1.8z" fill="#fff"/><path d="m101.1 15.2h-1.6v-12.6h1.6z" fill="#fff"/><path d="m109.5 2.4c1.2 0 2.2.4 2.8 1.1s.9 1.8.9 3.1v8.6h-4.3v-1.3h2.7v-7.2c0-1.9-.9-2.9-2.6-2.9-.3 0-.6.1-.9.2s-.5.2-.7.4c-.4.3-.7.6-.9.9l-.1.2-.9 9.9h-1.6l.9-9.7c0 0 0-.1 0-.2s0-.4-.1-.9-.2-.9-.3-1.2l-.3-.6h1.6c.2.3.3.7.4 1.3h.1c.3-.4.7-.7 1.2-1 .2-.1.6-.3 1-.4s.6-.3 1.1-.3z" fill="#fff"/><path d="m120.5 2.4c1.5 0 2.7.5 3.6 1.6s1.3 2.7 1.3 4.9c0 .9-.1 1.7-.3 2.4-.2.7-.4 1.3-.7 1.8s-.7.9-1.1 1.3-.9.6-1.3.7-1 .2-1.5.2-1.1-.1-1.5-.2-.9-.4-1.3-.7-.8-.8-1.1-1.3-.5-1.1-.7-1.8c-.2-.7-.3-1.5-.3-2.4 0-1.2.1-2.2.4-3.1s.6-1.5 1-1.9l-1.2.1v-1.4c1.3-.1 2.9-.2 4.7-.2zm-2.9 3.7c-.3 1-.4 1.8-.4 2.7s.1 1.5.2 2.1.3 1.1.5 1.6c.2.5.6.9 1 1.2s1 .4 1.6.4 1.1-.1 1.6-.4.8-.7 1-1.2c.4-.9.7-2.1.7-3.5 0-1.9-.3-3.2-.9-4.1-.2-.3-.5-.6-.9-.8s-.8-.3-1.4-.3h-1.7c-.7.6-1 1.3-1.3 2.3z" fill="#fff"/><path d="m126.7 2.5c.9 0 1.7-.1 2.5-.1s1.3 0 1.8.1.9.2 1.3.4.8.4 1.1.8c.6.7.9 1.6.9 2.7v8.8h-1.6v-8.8c0-1.7-1.2-2.6-3.5-2.6-.7 0-1.5 0-2.4.1v-1.4z" fill="#fff"/><path d="m136.7 6.9c0-.7.1-1.4.4-2s .6-1.1 1.1-1.4 1-.6 1.5-.8 1.1-.3 1.7-.3 1.1.1 1.6.2.9.4 1.3.7.8.8 1.1 1.3.5 1.1.7 1.8.3 1.5.3 2.4-.1 1.7-.3 2.4c-.2.7-.4 1.3-.7 1.8s-.7.9-1.1 1.3c-.8.7-1.8 1-2.9 1-1.1 0-2.2-.1-3.2-.2l-.5-.1v-1.4c0 0 .2 0 .5.1 1 .2 2.1.2 3.2.2.5 0 .9-.1 1.3-.3.4-.2.7-.4.9-.8.2-.3.4-.7.6-1.2.3-.8.4-1.8.4-2.9 0-1.4-.2-2.6-.7-3.5-.2-.5-.6-.9-1-1.2s-.9-.4-1.5-.4-1 .1-1.4.2-.7.3-.9.5-.4.5-.6.7c-.3.5-.4 1.1-.4 1.7 0 .9.2 1.5.6 2s1 .8 1.9.9l.4.1-.3 1.2h-.4c-1.1-.1-2-.6-2.7-1.3-.6-.5-.9-1.5-.9-2.7z" fill="#fff"/><path d="m154 2.4c1.2 0 2.2.4 2.8 1.1s.9 1.8.9 3.1v8.6h-4.3v-1.3h2.7v-7.2c0-1.9-.9-2.9-2.6-2.9-.3 0-.6.1-.9.2s-.5.2-.7.4c-.4.3-.7.6-.9.9l-.1.2-.9 9.9h-1.6l.9-9.7c0 0 0-.1 0-.2s0-.4-.1-.9-.2-.9-.3-1.2l-.3-.6h1.6c.2.3.3.7.4 1.3h.1c.3-.4.7-.7 1.2-1 .2-.1.6-.3 1-.4s.7-.3 1.1-.3z" fill="#fff"/><path d="m167.6 15.2h-1.6v-12.6h1.6z" fill="#fff"/><path d="m179.3 2.6v4.1c0 .5 0 1-.1 1.4s-.1.8-.3 1.2c-.3.9-.9 1.5-1.9 1.9l2.4 4h-1.8l-3.1-5.3-1.5-2.2c-.3.1-.4.2-.6.3-.6.5-.9 1.3-.9 2.5v4.7h-1.5v-4.1c0-1.4.2-2.5.6-3.2.2-.3.4-.5.7-.8s.7-.4 1.1-.6l-2.4-4h1.8l2.9 4.9 1.6 2.5c.3-.2.6-.4.7-.6s.3-.5.4-.8.2-.8.2-1.3v-4.6z" fill="#fff"/><path d="m182.3 15.2h-1.6l5.3-14.3h1.6z" fill="#fff"/><path d="m191 15.2h-1.6v-12.6h1.6z" fill="#fff"/><path d="m199.4 15.3c-.3 0-.6 0-1-.1v-1.3c.5.1.7.1.8.1.9 0 1.4-.6 1.4-1.7v-8.3l-1.4.1v-1.4c1.8-.2 3.4-.3 4.8-.3 1.2 0 2.1.2 2.9.6.8.4 1.4 1 1.7 1.9.2.5.2 1 .2 1.6v8.8h-1.6v-8.9c0-1.7-1.2-2.6-3.5-2.6-.3 0-.8 0-1.5.1v8.2c0 1-.2 1.8-.7 2.4-.4.5-1.2.8-2.1.8z" fill="#fff"/><path d="m213.6 15.2h-1.6v-12.6h1.6z" fill="#fff"/><path d="m223 14.9v.3h-1.6v-.3c0-.5.1-1.1.3-1.9.2-.8.4-1.4.5-1.8.2-.7.4-1.6.7-2.5l1.4-4.8h-7.6v-1.3h9.3v1.2l-1.5 5c-.2.6-.3 1.1-.4 1.5-.1.4-.2.8-.3 1.2s-.2.7-.3 1-.1.6-.2.9c-.2.7-.3 1.2-.3 1.5zm-4.7 5.1h-1.6v-12.3h1.6z" fill="#fff"/><path d="m227.5 6.9c0-.7.1-1.4.4-2s .6-1.1 1.1-1.4 1-.6 1.5-.8 1.1-.3 1.7-.3 1.1.1 1.6.2.9.4 1.3.7.8.8 1.1 1.3.5 1.1.7 1.8.3 1.5.3 2.4-.1 1.7-.3 2.4c-.2.7-.4 1.3-.7 1.8s-.7.9-1.1 1.3c-.8.7-1.8 1-2.9 1-1.1 0-2.2-.1-3.2-.2l-.5-.1v-1.4c0 0 .2 0 .5.1 1 .2 2.1.2 3.2.2.5 0 .9-.1 1.3-.3.4-.2.7-.4.9-.8.2-.3.4-.7.6-1.2.3-.8.4-1.8.4-2.9 0-1.4-.2-2.6-.7-3.5-.2-.5-.6-.9-1-1.2s-.9-.4-1.5-.4-1 .1-1.4.2-.7.3-.9.5-.4.5-.6.7c-.3.5-.4 1.1-.4 1.7 0 .9.2 1.5.6 2s1 .8 1.9.9l.4.1-.3 1.2h-.4c-1.1-.1-2-.6-2.7-1.3-.6-.5-.9-1.5-.9-2.7z" fill="#fff"/><path d="m243.8 2.4c1.5 0 2.7.5 3.6 1.6s1.3 2.7 1.3 4.9c0 .9-.1 1.7-.3 2.4-.2.7-.4 1.3-.7 1.8s-.7.9-1.1 1.3-.9.6-1.3.7-1 .2-1.5.2-1.1-.1-1.5-.2-.9-.4-1.3-.7-.8-.8-1.1-1.3-.5-1.1-.7-1.8c-.2-.7-.3-1.5-.3-2.4 0-1.2.1-2.2.4-3.1s.6-1.5 1-1.9l-1.2.1v-1.4c1.4-.1 3-.2 4.7-.2zm-2.8 3.7c-.3 1-.4 1.8-.4 2.7s.1 1.5.2 2.1.3 1.1.5 1.6c.2.5.6.9 1 1.2s1 .4 1.6.4 1.1-.1 1.6-.4.8-.7 1-1.2c.4-.9.7-2.1.7-3.5 0-1.9-.3-3.2-.9-4.1-.2-.3-.5-.6-.9-.8s-.8-.3-1.4-.3h-1.7c-.7.6-1.1 1.3-1.3 2.3z" fill="#fff"/><path d="m256.4 2.4c1.2 0 2.2.4 2.8 1.1s.9 1.8.9 3.1v8.6h-4.3v-1.3h2.7v-7.2c0-1.9-.9-2.9-2.6-2.9-.3 0-.6.1-.9.2s-.5.2-.7.4c-.4.3-.7.6-.9.9l-.1.2-.9 9.9h-1.6l.9-9.7c0 0 0-.1 0-.2s0-.4-.1-.9-.2-.9-.3-1.2l-.3-.6h1.6c.2.3.3.7.4 1.3h.1c.3-.4.7-.7 1.2-1 .2-.1.6-.3 1-.4s.7-.3 1.1-.3z" fill="#fff"/><path d="m263.4 15.2h-1.6l5.3-14.3h1.6z" fill="#fff"/><path d="m270.6 15.3c-.3 0-.6 0-1-.1v-1.3c.5.1.7.1.8.1.9 0 1.4-.6 1.4-1.7v-8.3l-1.4.1v-1.4c1.8-.2 3.4-.3 4.8-.3 1.2 0 2.1.2 2.9.6.8.4 1.4 1 1.7 1.9.2.5.2 1 .2 1.6v8.8h-1.6v-8.9c0-1.7-1.2-2.6-3.5-2.6-.3 0-.8 0-1.5.1v8.2c0 1-.2 1.8-.7 2.4-.4.5-1.1.8-2.1.8z" fill="#fff"/><path d="m284.8 15.2h-1.6v-12.6h1.6z" fill="#fff"/><path d="m291.9 2.6v1.3c0 0-.1.1-.2.1-.1 0-.2.2-.3.4s-.3.3-.4.6-.2.6-.3 1.1c-.1.5-.2 1-.2 1.6v7.5h-1.6v-7.5c0-.5.1-.9.2-1.3.1-.4.3-.8.4-1.1.3-.6.6-1 .9-1.2l.2-.2v0h-3v-1.3z" fill="#fff"/><path d="m299.2 2.4c1.2 0 2.2.4 2.8 1.1s.9 1.8.9 3.1v8.6h-4.3v-1.3h2.7v-7.2c0-1.9-.9-2.9-2.6-2.9-.3 0-.6.1-.9.2-.3.1-.5.2-.7.4-.4.3-.7.6-.9.9l-.1.2-.9 9.9h-1.6l.9-9.7c0 0 0-.1 0-.2s0-.4-.1-.9c-.1-.5-.2-.9-.3-1.2l-.3-.6h1.6c.2.3.3.7.4 1.3h.1c.3-.4.7-.7 1.2-1 .2-.1.6-.3 1-.4.2-.2.6-.3 1.1-.3z" fill="#fff"/><path d="m304.8 2.5c.9 0 1.7-.1 2.5-.1s1.3 0 1.8.1.9.2 1.3.4c.4.2.8.4 1.1.8.6.7.9 1.6.9 2.7v8.8h-1.6v-8.8c0-1.7-1.2-2.6-3.5-2.6-.7 0-1.5 0-2.4.1v-1.4z" fill="#fff"/><path d="m320.6 2.4c1.2 0 2.2.4 2.8 1.1s.9 1.8.9 3.1v8.6h-4.3v-1.3h2.7v-7.2c0-1.9-.9-2.9-2.6-2.9-.3 0-.6.1-.9.2-.3.1-.5.2-.7.4-.4.3-.7.6-.9.9l-.1.2-.9 9.9h-1.6l.9-9.7c0 0 0-.1 0-.2s0-.4-.1-.9c-.1-.5-.2-.9-.3-1.2l-.5-.8h1.6c.2.3.3.7.4 1.3h.1c.3-.4.7-.7 1.2-1 .2-.1.6-.3 1-.4.5 0 .9-.1 1.3-.1z" fill="#fff"/><path d="m341.2 2.6v4.1c0 .5 0 1-.1 1.4 0 .4-.1.8-.3 1.2-.3.9-.9 1.5-1.9 1.9l2.4 4h-1.8l-3.1-5.3-1.4-2.2c-.3.1-.4.2-.6.3-.6.5-.9 1.3-.9 2.5v4.7h-1.6v-4.1c0-1.4.2-2.5.6-3.2.2-.3.4-.5.7-.8s.7-.4 1.1-.6l-2.4-4h1.8l2.9 4.9 1.6 2.5c.3-.2.6-.4.7-.6.2-.2.3-.5.4-.8s.2-.8.2-1.3v-4.6z" fill="#fff"/><path d="m344.6 2.6h6.6v1.3l-1.7 6.4-1 4.9h-1.6l1-4.9 1.7-6.4h-6.6v-3.9h1.6z" fill="#fff"/><path d="m359.3 2.6h6.6v1.3l-1.7 6.4-1 4.9h-1.6l1-4.9 1.7-6.4h-6.6v-3.9h1.6z" fill="#fff"/><path d="m369.3 6.1h-1l-.4-5.2h1.8zm3.6 0h-1l-.4-5.2h1.8z" fill="#fff"/><path d="m378 3.7c-.4 0-.7.1-1.2.2v-1.3c.5-.1 1.1-.2 1.7-.2 2 0 3 1.1 3 3.3v6.4c0 .5 0 1-.1 1.6-.1.5-.1.9-.2 1.1l-.1.4h-5.8v-1.3h4.4c.1-.5.2-1.1.2-1.8v-6.2c0-.8-.2-1.3-.5-1.7-.2-.3-.7-.5-1.4-.5z" fill="#fff"/><path d="m393.7 4.9c.2.5.2 1 .2 1.6v8.8h-1.6v-8.9c0-1.7-1.2-2.6-3.5-2.6-1 0-2.2 0-3.4.1h-.7v-1.4c1.5-.1 2.9-.1 4.2-.1s2.3.2 3.1.6c.8.4 1.4 1 1.7 1.9zm-7.4 10.3h-1.6v-8h1.6z" fill="#fff"/><path d="m402.3 15.3c-.3 0-.6 0-1-.1v-1.3c.5.1.7.1.8.1.9 0 1.4-.6 1.4-1.7v-8.3l-1.4.1v-1.4c1.8-.2 3.4-.3 4.8-.3 1.2 0 2.1.2 2.9.6.8.4 1.4 1 1.7 1.9.2.5.2 1 .2 1.6v8.8h-1.6v-8.9c0-1.7-1.2-2.6-3.5-2.6-.3 0-.8 0-1.5.1v8.2c0 1-.2 1.8-.7 2.4-.5.5-1.2.8-2.1.8z" fill="#fff"/><path d="m416.5 15.2h-1.6v-12.6h1.6z" fill="#fff"/><path d="m421.2 2.6l1.5 5.7c.2.8.6 2.6 1.2 5.2 1.9-.7 3-2.5 3.3-5.4l.5-5.5h1.6l-.5 5.5c-.1.8-.2 1.6-.4 2.2-.2.6-.4 1.1-.6 1.5s-.5.8-.8 1.2c-.3.4-.7.7-1.1 1-.4.3-1 .6-1.6.8-.6.2-1.3.4-2.1.5l-3.6.5v-1.3l3.8-.6-3-11.2h1.8z" fill="#fff"/><path d="m439.9 2.6v1.1c-1.3.4-2 1.3-2 2.8v8.7h-1.6v-8.7c0-.4 0-.7.1-1.1.1-.3.2-.6.3-.8.3-.4.5-.6.7-.7l.1-.1v0h-6.9v-1.2z" fill="#fff"/><path d="m443.6 15.2h-1.6v-12.6h1.6z" fill="#fff"/><path d="m451.9 2.4c1.2 0 2.2.4 2.8 1.1s.9 1.8.9 3.1v8.6h-4.3v-1.3h2.7v-7.2c0-1.9-.9-2.9-2.6-2.9-.3 0-.6.1-.9.2-.3.1-.5.2-.7.4-.4.3-.7.6-.9.9l-.1.2-.9 9.9h-1.6l.9-9.7c0 0 0-.1 0-.2s0-.4-.1-.9c-.1-.5-.2-.9-.3-1.2l-.3-.6h1.6c.2.3.3.7.4 1.3h.1c.3-.4.7-.7 1.2-1 .2-.1.6-.3 1-.4.2-.2.7-.3 1.1-.3z" fill="#fff"/><path d="m467.6 4.9c.2.5.2 1 .2 1.6v8.8h-1.6v-8.9c0-1.7-1.2-2.6-3.5-2.6-1 0-2.2 0-3.4.1h-.7v-1.4c1.5-.1 2.9-.1 4.2-.1s2.3.2 3.1.6c.9.4 1.4 1 1.7 1.9zm-7.3 10.3h-1.6v-8h1.6z" fill="#fff"/><path d="m480.2 10.6h-4.8v-1.5h4.8z" fill="#fff"/><path d="m487.2 2.5c1-.1 2.3-.1 3.7-.1 1.4 0 2.4.3 3.1.9.7.6 1 1.6 1 3.1v7.5h1.4v1.3h-9.2v-1.3h6.2v-7.5c0-1-.2-1.7-.7-2.1-.5-.4-1.2-.6-2.1-.6-1 0-2 0-2.9.1h-.5z" fill="#fff"/><path d="m499.2 2.6h6.6v1.3l-1.7 6.4-1 4.9h-1.6l1-4.9 1.7-6.4h-6.6v-3.9h1.6z" fill="#fff"/><path d="m514.8 15.2h-1.6v-12.6h1.6z" fill="#fff"/><path d="m523.1 2.4c1.2 0 2.2.4 2.8 1.1s.9 1.8.9 3.1v8.6h-4.3v-1.3h2.7v-7.2c0-1.9-.9-2.9-2.6-2.9-.3 0-.6.1-.9.2-.3.1-.5.2-.7.4-.4.3-.7.6-.9.9l-.1.2-.9 9.9h-1.6l.9-9.7c0 0 0-.1 0-.2s0-.4-.1-.9c-.1-.5-.2-.9-.3-1.2l-.3-.6h1.6c.2.3.3.7.4 1.3h.1c.3-.4.7-.7 1.2-1 .2-.1.6-.3 1-.4.3-.2.7-.3 1.1-.3z" fill="#fff"/><path d="m529.8 10.9v-8.3h1.6v6.7l-1.3 1.7h-.3z" fill="#fff"/><path d="m539.2 13.9c1.3 0 2.4-.5 3.3-1.4.9-1 1.4-2.4 1.6-4.4l.5-5.5h1.6l-.5 5.5c-.1.8-.2 1.6-.4 2.3-.2.7-.4 1.2-.6 1.6-.2.4-.5.8-.9 1.2-.4.4-.8.8-1.2 1-.4.3-1 .5-1.6.7-.6.2-1.3.3-2.1.3h-4.2l-1-12.6h1.6l.6 7 1.3-.4c1-.3 1.6-1.2 1.7-2.7l.4-3.9h1.6l-.3 3.3c0 .4-.1.8-.2 1.2-.1.4-.2.7-.4 1.1-.2.4-.4.7-.6 1-.2.3-.5.6-.9.8-.4.2-.8.4-1.3.5l-1.3.3.3 3h3z" fill="#fff"/><path d="m553.1 3.9l3.9-1.1.3 1.8-3.7.3 2.4 3.1-1.7 1-1.7-3.5-1.6 3.5-1.7-1 2.4-3.2-3.7-.2.3-1.8 3.8 1.1-.4-3.9h1.9z" fill="#fff"/></svg>