<?xml version="1.0" encoding="utf-8"?>
<!-- Generator: Adobe Illustrator 20.0.0, SVG Export Plug-In . SVG Version: 6.00 Build 0)  -->
<svg version="1.1" id="Layer_1" xmlns="http://www.w3.org/2000/svg" xmlns:xlink="http://www.w3.org/1999/xlink" x="0px" y="0px"
	 viewBox="0 0 430.3 16" style="enable-background:new 0 0 430.3 16;" xml:space="preserve">
<style type="text/css">
	.st0{fill:#FFFFFF;}
</style>
<g>
	<path class="st0" d="M0,11.3c0-0.4,0.1-0.6,0.2-0.8c0.2-0.2,0.4-0.3,0.7-0.3c0.3,0,0.5,0.1,0.7,0.3c0.2,0.2,0.3,0.4,0.3,0.8
		c0,0.3-0.1,0.6-0.3,0.8c-0.2,0.2-0.4,0.3-0.7,0.3c-0.3,0-0.5-0.1-0.7-0.3C0.1,12,0,11.7,0,11.3z"/>
	<path class="st0" d="M4.2,5.1c0-1-0.2-2-0.5-3h1.3C5,2.2,5,2.3,5.1,2.5C5.1,2.7,5.2,3,5.3,3.6s0.2,1.1,0.2,1.6V16H4.2V5.1z"/>
	<path class="st0" d="M7.8,8.8V2.1h1.3v5.3l-1,1.3H7.8z"/>
	<path class="st0" d="M15.7,1.9c1,0,1.7,0.3,2.2,0.9s0.7,1.4,0.7,2.5v6.9h-3.4v-1h2.1V5.3c0-1.5-0.7-2.3-2.1-2.3
		c-0.2,0-0.5,0-0.7,0.1c-0.2,0.1-0.4,0.2-0.6,0.3c-0.3,0.3-0.6,0.5-0.7,0.7l-0.1,0.1l-0.7,7.9H11l0.7-7.8c0,0,0-0.1,0-0.2
		s0-0.3-0.1-0.7c-0.1-0.4-0.2-0.7-0.3-1l-0.2-0.5h1.3c0.1,0.2,0.3,0.6,0.4,1.1h0.1c0.3-0.3,0.6-0.6,1-0.8c0.2-0.1,0.5-0.2,0.8-0.3
		C15,2,15.3,1.9,15.7,1.9z"/>
	<path class="st0" d="M25.1,8.8V2.1h1.3v5.3l-1,1.3H25.1z"/>
	<path class="st0" d="M28.8,12.3c-0.2,0-0.5,0-0.8-0.1v-1.1c0.4,0.1,0.6,0.1,0.6,0.1c0.7,0,1.1-0.4,1.1-1.3V3.2l-1.1,0.1V2.2
		c1.5-0.2,2.7-0.2,3.8-0.2c0.9,0,1.7,0.1,2.3,0.4c0.7,0.3,1.1,0.8,1.4,1.5c0.1,0.4,0.2,0.8,0.2,1.2v7h-1.3v-7c0-1.4-0.9-2.1-2.8-2.1
		c-0.2,0-0.6,0-1.2,0v6.6c0,0.8-0.2,1.5-0.6,1.9C30.2,12,29.6,12.3,28.8,12.3z"/>
	<path class="st0" d="M40.2,12.2h-1.3V2.1h1.3V12.2z"/>
	<path class="st0" d="M41.8,2c0.7,0,1.4-0.1,2-0.1s1.1,0,1.4,0.1s0.7,0.2,1.1,0.3c0.3,0.2,0.6,0.4,0.8,0.6c0.5,0.5,0.7,1.2,0.7,2.2
		v7h-1.3v-7c0-1.4-0.9-2.1-2.8-2.1c-0.6,0-1.2,0-2,0.1V2z"/>
	<path class="st0" d="M50.2,8.8V2.1h1.3v5.3l-1,1.3H50.2z"/>
	<path class="st0" d="M57.7,11.1c1.1,0,1.9-0.4,2.7-1.1c0.7-0.8,1.1-1.9,1.3-3.5l0.4-4.4h1.3L63,6.5c-0.1,0.7-0.2,1.3-0.3,1.8
		c-0.2,0.5-0.3,1-0.5,1.3c-0.2,0.3-0.4,0.7-0.7,1c-0.3,0.3-0.6,0.6-1,0.8c-0.4,0.2-0.8,0.4-1.3,0.6c-0.5,0.1-1.1,0.2-1.7,0.2h-3.3
		L53.4,2.1h1.3l0.5,5.6l1-0.3c0.8-0.3,1.3-1,1.4-2.2l0.3-3.1h1.3l-0.3,2.6c0,0.4-0.1,0.7-0.1,1c-0.1,0.3-0.2,0.6-0.3,0.9
		c-0.1,0.3-0.3,0.6-0.5,0.8c-0.2,0.2-0.4,0.4-0.7,0.6c-0.3,0.2-0.7,0.3-1,0.4l-1,0.3l0.2,2.4H57.7z"/>
	<path class="st0" d="M69.5,12.3c-0.2,0-0.5,0-0.8-0.1v-1.1c0.4,0.1,0.6,0.1,0.6,0.1c0.7,0,1.1-0.4,1.1-1.3V3.2l-1.1,0.1V2.2
		c1.5-0.2,2.7-0.2,3.8-0.2c0.9,0,1.7,0.1,2.3,0.4c0.7,0.3,1.1,0.8,1.4,1.5c0.1,0.4,0.2,0.8,0.2,1.2v7h-1.3v-7C75.8,3.7,74.9,3,73,3
		c-0.2,0-0.6,0-1.2,0v6.6c0,0.8-0.2,1.5-0.6,1.9C70.9,12,70.3,12.3,69.5,12.3z"/>
	<path class="st0" d="M83.8,1.9c1,0,1.7,0.3,2.2,0.9s0.7,1.4,0.7,2.5v6.9h-3.4v-1h2.1V5.3c0-1.5-0.7-2.3-2.1-2.3
		c-0.2,0-0.5,0-0.7,0.1c-0.2,0.1-0.4,0.2-0.6,0.3c-0.3,0.3-0.6,0.5-0.7,0.7l-0.1,0.1l-0.7,7.9h-1.3l0.7-7.8c0,0,0-0.1,0-0.2
		s0-0.3-0.1-0.7c-0.1-0.4-0.2-0.7-0.3-1l-0.2-0.5h1.3c0.1,0.2,0.3,0.6,0.4,1.1H81c0.3-0.3,0.6-0.6,1-0.8c0.2-0.1,0.5-0.2,0.8-0.3
		C83.1,2,83.4,1.9,83.8,1.9z"/>
	<path class="st0" d="M92.6,1.9c1.2,0,2.2,0.4,2.9,1.3c0.7,0.9,1.1,2.2,1.1,3.9c0,0.7-0.1,1.4-0.2,1.9c-0.1,0.6-0.3,1.1-0.6,1.5
		c-0.2,0.4-0.5,0.7-0.9,1c-0.3,0.3-0.7,0.5-1.1,0.6c-0.4,0.1-0.8,0.2-1.2,0.2s-0.8-0.1-1.2-0.2c-0.4-0.1-0.7-0.3-1.1-0.6
		c-0.3-0.3-0.6-0.6-0.9-1c-0.2-0.4-0.4-0.9-0.6-1.5c-0.1-0.6-0.2-1.2-0.2-1.9c0-1,0.1-1.8,0.3-2.5c0.2-0.7,0.5-1.2,0.8-1.6l-1,0.1
		V2.1C89.9,2,91.2,1.9,92.6,1.9z M90.3,4.9C90.1,5.6,90,6.3,90,7c0,0.7,0,1.2,0.1,1.7c0.1,0.5,0.2,0.9,0.4,1.3
		c0.2,0.4,0.5,0.7,0.8,0.9c0.3,0.2,0.8,0.3,1.3,0.3c0.5,0,0.9-0.1,1.3-0.3c0.3-0.2,0.6-0.5,0.8-0.9c0.3-0.8,0.5-1.7,0.5-2.8
		c0-1.5-0.2-2.6-0.8-3.2c-0.2-0.2-0.4-0.5-0.8-0.6C93.4,3.1,93,3,92.6,3l-1.4,0C90.8,3.5,90.5,4.1,90.3,4.9z"/>
	<path class="st0" d="M97.6,2c0.7,0,1.4-0.1,2-0.1s1.1,0,1.4,0.1s0.7,0.2,1.1,0.3c0.3,0.2,0.6,0.4,0.8,0.6c0.5,0.5,0.7,1.2,0.7,2.2
		v7h-1.3v-7c0-1.4-0.9-2.1-2.8-2.1c-0.6,0-1.2,0-2,0.1V2z"/>
	<path class="st0" d="M105.5,5.5c0-0.6,0.1-1.1,0.3-1.6c0.2-0.5,0.5-0.8,0.9-1.1c0.4-0.3,0.8-0.5,1.2-0.7s0.9-0.2,1.3-0.2
		s0.9,0.1,1.3,0.2c0.4,0.1,0.7,0.3,1.1,0.6c0.3,0.3,0.6,0.6,0.9,1c0.2,0.4,0.4,0.9,0.6,1.5c0.1,0.6,0.2,1.2,0.2,1.9
		c0,0.7-0.1,1.4-0.2,1.9c-0.1,0.6-0.3,1.1-0.6,1.5c-0.2,0.4-0.5,0.7-0.9,1c-0.6,0.5-1.4,0.8-2.3,0.8c-0.9,0-1.7-0.1-2.5-0.2
		l-0.4-0.1V11c0,0,0.1,0,0.4,0.1c0.8,0.1,1.7,0.2,2.5,0.2c0.4,0,0.7-0.1,1.1-0.2c0.3-0.2,0.6-0.4,0.7-0.6c0.2-0.3,0.3-0.6,0.5-0.9
		c0.2-0.6,0.3-1.4,0.3-2.3c0-1.1-0.2-2.1-0.5-2.8c-0.2-0.4-0.5-0.7-0.8-0.9c-0.3-0.2-0.7-0.3-1.2-0.3c-0.4,0-0.8,0.1-1.1,0.2
		c-0.3,0.1-0.6,0.2-0.7,0.4c-0.2,0.2-0.3,0.4-0.5,0.6c-0.2,0.4-0.4,0.9-0.4,1.4c0,0.7,0.2,1.2,0.5,1.6c0.3,0.4,0.8,0.6,1.5,0.7
		l0.3,0.1l-0.2,1l-0.3,0c-0.9-0.1-1.6-0.5-2.2-1C105.8,7.2,105.5,6.5,105.5,5.5z"/>
	<path class="st0" d="M119.4,1.9c1,0,1.7,0.3,2.2,0.9s0.7,1.4,0.7,2.5v6.9h-3.4v-1h2.1V5.3c0-1.5-0.7-2.3-2.1-2.3
		c-0.2,0-0.5,0-0.7,0.1c-0.2,0.1-0.4,0.2-0.6,0.3c-0.3,0.3-0.6,0.5-0.7,0.7l-0.1,0.1l-0.7,7.9h-1.3l0.7-7.8c0,0,0-0.1,0-0.2
		s0-0.3-0.1-0.7c-0.1-0.4-0.2-0.7-0.3-1l-0.2-0.5h1.3c0.1,0.2,0.3,0.6,0.4,1.1h0.1c0.3-0.3,0.6-0.6,1-0.8c0.2-0.1,0.5-0.2,0.8-0.3
		C118.7,2,119.1,1.9,119.4,1.9z"/>
	<path class="st0" d="M130.3,12.2H129V2.1h1.3V12.2z"/>
	<path class="st0" d="M139.7,2.1v3.3c0,0.4,0,0.8-0.1,1.1c0,0.3-0.1,0.6-0.2,1c-0.2,0.7-0.7,1.2-1.5,1.5l1.9,3.2h-1.5l-2.5-4.2
		l-1.2-1.8c-0.2,0.1-0.4,0.2-0.5,0.2c-0.5,0.4-0.7,1.1-0.7,2v3.7h-1.3V8.9c0-1.1,0.2-2,0.5-2.5c0.1-0.2,0.3-0.4,0.6-0.6
		s0.5-0.4,0.9-0.5l-1.9-3.2h1.5L136,6l1.3,2c0.3-0.2,0.5-0.3,0.6-0.5c0.1-0.2,0.2-0.4,0.3-0.7c0.1-0.3,0.1-0.6,0.1-1V2.1H139.7z"/>
	<path class="st0" d="M142,12.2h-1.3L145,0.7h1.3L142,12.2z"/>
	<path class="st0" d="M149,12.2h-1.3V2.1h1.3V12.2z"/>
	<path class="st0" d="M155.7,12.3c-0.2,0-0.5,0-0.8-0.1v-1.1c0.4,0.1,0.6,0.1,0.6,0.1c0.7,0,1.1-0.4,1.1-1.3V3.2l-1.1,0.1V2.2
		c1.5-0.2,2.7-0.2,3.8-0.2c0.9,0,1.7,0.1,2.3,0.4c0.7,0.3,1.1,0.8,1.4,1.5c0.1,0.4,0.2,0.8,0.2,1.2v7H162v-7c0-1.4-0.9-2.1-2.8-2.1
		c-0.2,0-0.6,0-1.2,0v6.6c0,0.8-0.2,1.5-0.6,1.9C157,12,156.5,12.3,155.7,12.3z"/>
	<path class="st0" d="M170.8,11.9v0.3h-1.3v-0.3c0-0.4,0.1-0.9,0.3-1.6c0.2-0.7,0.3-1.1,0.4-1.4c0.2-0.6,0.3-1.3,0.6-2l1.1-3.8h-6.1
		v-1h7.4v1l-1.2,4c-0.1,0.5-0.2,0.9-0.3,1.2c-0.1,0.3-0.2,0.6-0.3,0.9c-0.1,0.3-0.2,0.6-0.2,0.8c-0.1,0.2-0.1,0.5-0.2,0.7
		C170.9,11.3,170.8,11.6,170.8,11.9z M167.1,16h-1.3V6.1h1.3V16z"/>
	<path class="st0" d="M174.4,5.5c0-0.6,0.1-1.1,0.3-1.6c0.2-0.5,0.5-0.8,0.9-1.1c0.4-0.3,0.8-0.5,1.2-0.7s0.9-0.2,1.3-0.2
		s0.9,0.1,1.3,0.2c0.4,0.1,0.7,0.3,1.1,0.6c0.3,0.3,0.6,0.6,0.9,1c0.2,0.4,0.4,0.9,0.6,1.5c0.1,0.6,0.2,1.2,0.2,1.9
		c0,0.7-0.1,1.4-0.2,1.9c-0.1,0.6-0.3,1.1-0.6,1.5c-0.2,0.4-0.5,0.7-0.9,1c-0.6,0.5-1.4,0.8-2.3,0.8c-0.9,0-1.7-0.1-2.5-0.2
		l-0.4-0.1V11c0,0,0.1,0,0.4,0.1c0.8,0.1,1.7,0.2,2.5,0.2c0.4,0,0.7-0.1,1.1-0.2c0.3-0.2,0.6-0.4,0.7-0.6c0.2-0.3,0.3-0.6,0.5-0.9
		c0.2-0.6,0.3-1.4,0.3-2.3c0-1.1-0.2-2.1-0.5-2.8c-0.2-0.4-0.5-0.7-0.8-0.9c-0.3-0.2-0.7-0.3-1.2-0.3c-0.4,0-0.8,0.1-1.1,0.2
		c-0.3,0.1-0.6,0.2-0.7,0.4c-0.2,0.2-0.3,0.4-0.5,0.6c-0.2,0.4-0.4,0.9-0.4,1.4c0,0.7,0.2,1.2,0.5,1.6c0.3,0.4,0.8,0.6,1.5,0.7
		l0.3,0.1l-0.2,1l-0.3,0c-0.9-0.1-1.6-0.5-2.2-1C174.6,7.2,174.4,6.5,174.4,5.5z"/>
	<path class="st0" d="M187.5,1.9c1.2,0,2.2,0.4,2.9,1.3c0.7,0.9,1.1,2.2,1.1,3.9c0,0.7-0.1,1.4-0.2,1.9c-0.1,0.6-0.3,1.1-0.6,1.5
		c-0.2,0.4-0.5,0.7-0.9,1c-0.3,0.3-0.7,0.5-1.1,0.6c-0.4,0.1-0.8,0.2-1.2,0.2s-0.8-0.1-1.2-0.2c-0.4-0.1-0.7-0.3-1.1-0.6
		c-0.3-0.3-0.6-0.6-0.9-1c-0.2-0.4-0.4-0.9-0.6-1.5c-0.1-0.6-0.2-1.2-0.2-1.9c0-1,0.1-1.8,0.3-2.5c0.2-0.7,0.5-1.2,0.8-1.6l-1,0.1
		V2.1C184.8,2,186.1,1.9,187.5,1.9z M185.2,4.9c-0.2,0.8-0.3,1.5-0.3,2.1c0,0.7,0,1.2,0.1,1.7c0.1,0.5,0.2,0.9,0.4,1.3
		c0.2,0.4,0.5,0.7,0.8,0.9c0.3,0.2,0.8,0.3,1.3,0.3c0.5,0,0.9-0.1,1.3-0.3c0.3-0.2,0.6-0.5,0.8-0.9c0.3-0.8,0.5-1.7,0.5-2.8
		c0-1.5-0.2-2.6-0.8-3.2c-0.2-0.2-0.4-0.5-0.8-0.6c-0.3-0.2-0.7-0.2-1.1-0.2l-1.4,0C185.7,3.5,185.4,4.1,185.2,4.9z"/>
	<path class="st0" d="M197.6,1.9c1,0,1.7,0.3,2.2,0.9s0.7,1.4,0.7,2.5v6.9h-3.4v-1h2.1V5.3c0-1.5-0.7-2.3-2.1-2.3
		c-0.2,0-0.5,0-0.7,0.1c-0.2,0.1-0.4,0.2-0.6,0.3c-0.3,0.3-0.6,0.5-0.7,0.7L195,4.3l-0.7,7.9h-1.3l0.7-7.8c0,0,0-0.1,0-0.2
		s0-0.3-0.1-0.7c-0.1-0.4-0.2-0.7-0.3-1l-0.2-0.5h1.3c0.1,0.2,0.3,0.6,0.4,1.1h0.1c0.3-0.3,0.6-0.6,1-0.8c0.2-0.1,0.5-0.2,0.8-0.3
		C196.9,2,197.2,1.9,197.6,1.9z"/>
	<path class="st0" d="M203.2,12.2h-1.3l4.3-11.4h1.3L203.2,12.2z"/>
	<path class="st0" d="M208.9,12.3c-0.2,0-0.5,0-0.8-0.1v-1.1c0.4,0.1,0.6,0.1,0.6,0.1c0.7,0,1.1-0.4,1.1-1.3V3.2l-1.1,0.1V2.2
		c1.5-0.2,2.7-0.2,3.8-0.2c0.9,0,1.7,0.1,2.3,0.4c0.7,0.3,1.1,0.8,1.4,1.5c0.1,0.4,0.2,0.8,0.2,1.2v7h-1.3v-7c0-1.4-0.9-2.1-2.8-2.1
		c-0.2,0-0.6,0-1.2,0v6.6c0,0.8-0.2,1.5-0.6,1.9C210.2,12,209.7,12.3,208.9,12.3z"/>
	<path class="st0" d="M222.1,2.1v1c0,0-0.1,0-0.1,0.1c-0.1,0-0.1,0.1-0.3,0.3s-0.2,0.3-0.4,0.5c-0.1,0.2-0.2,0.5-0.3,0.9
		C221,5.3,221,5.7,221,6.2v6h-1.3v-6c0-0.4,0-0.7,0.1-1.1c0.1-0.3,0.2-0.6,0.3-0.9c0.3-0.5,0.5-0.8,0.7-1l0.1-0.1v0h-2.4v-1H222.1z"
		/>
	<path class="st0" d="M227.9,1.9c1,0,1.7,0.3,2.2,0.9s0.7,1.4,0.7,2.5v6.9h-3.4v-1h2.1V5.3c0-1.5-0.7-2.3-2.1-2.3
		c-0.2,0-0.5,0-0.7,0.1c-0.2,0.1-0.4,0.2-0.6,0.3c-0.3,0.3-0.6,0.5-0.7,0.7l-0.1,0.1l-0.7,7.9h-1.3l0.7-7.8c0,0,0-0.1,0-0.2
		s0-0.3-0.1-0.7c-0.1-0.4-0.2-0.7-0.3-1l-0.2-0.5h1.3c0.1,0.2,0.3,0.6,0.4,1.1h0.1c0.3-0.3,0.6-0.6,1-0.8c0.2-0.1,0.5-0.2,0.8-0.3
		C227.2,2,227.6,1.9,227.9,1.9z"/>
	<path class="st0" d="M232.4,2c0.7,0,1.4-0.1,2-0.1s1.1,0,1.4,0.1s0.7,0.2,1.1,0.3c0.3,0.2,0.6,0.4,0.8,0.6c0.5,0.5,0.7,1.2,0.7,2.2
		v7h-1.3v-7c0-1.4-0.9-2.1-2.8-2.1c-0.6,0-1.2,0-2,0.1V2z"/>
	<path class="st0" d="M245.1,1.9c1,0,1.7,0.3,2.2,0.9s0.7,1.4,0.7,2.5v6.9h-3.4v-1h2.1V5.3c0-1.5-0.7-2.3-2.1-2.3
		c-0.2,0-0.5,0-0.7,0.1c-0.2,0.1-0.4,0.2-0.6,0.3c-0.3,0.3-0.6,0.5-0.7,0.7l-0.1,0.1l-0.7,7.9h-1.3l0.7-7.8c0,0,0-0.1,0-0.2
		s0-0.3-0.1-0.7c-0.1-0.4-0.2-0.7-0.3-1l-0.2-0.5h1.3c0.1,0.2,0.3,0.6,0.4,1.1h0.1c0.3-0.3,0.6-0.6,1-0.8c0.2-0.1,0.5-0.2,0.8-0.3
		C244.4,2,244.7,1.9,245.1,1.9z"/>
	<path class="st0" d="M261.6,2.1v3.3c0,0.4,0,0.8-0.1,1.1c0,0.3-0.1,0.6-0.2,1c-0.2,0.7-0.7,1.2-1.5,1.5l1.9,3.2h-1.5l-2.5-4.2
		l-1.2-1.8c-0.2,0.1-0.4,0.2-0.5,0.2c-0.5,0.4-0.7,1.1-0.7,2v3.7h-1.3V8.9c0-1.1,0.2-2,0.5-2.5c0.1-0.2,0.3-0.4,0.6-0.6
		s0.5-0.4,0.9-0.5l-1.9-3.2h1.5l2.3,3.9l1.3,2c0.3-0.2,0.5-0.3,0.6-0.5c0.1-0.2,0.2-0.4,0.3-0.7c0.1-0.3,0.1-0.6,0.1-1V2.1H261.6z"
		/>
	<path class="st0" d="M264.3,2.1h5.3v1l-1.4,5.2l-0.8,3.9h-1.3l0.8-3.9l1.4-5.2H263V0h1.3V2.1z"/>
	<path class="st0" d="M276.1,2.1h5.3v1L280,8.2l-0.8,3.9h-1.3l0.8-3.9l1.4-5.2h-5.3V0h1.3V2.1z"/>
	<path class="st0" d="M284,4.9h-0.8l-0.3-4.1h1.5L284,4.9z M286.9,4.9h-0.8l-0.3-4.1h1.5L286.9,4.9z"/>
	<path class="st0" d="M291,3c-0.3,0-0.6,0-1,0.1v-1c0.4-0.1,0.9-0.2,1.4-0.2c1.6,0,2.4,0.9,2.4,2.7v5.1c0,0.4,0,0.8-0.1,1.2
		c0,0.4-0.1,0.7-0.2,0.9l-0.1,0.3H289v-1h3.5c0.1-0.4,0.2-0.9,0.2-1.5v-5c0-0.6-0.1-1.1-0.4-1.4C292,3.1,291.6,3,291,3z"/>
	<path class="st0" d="M303.5,3.9c0.1,0.4,0.2,0.8,0.2,1.2v7h-1.3v-7c0-1.4-0.9-2.1-2.8-2.1c-0.8,0-1.7,0-2.7,0.1l-0.5,0V2
		c1.2-0.1,2.3-0.1,3.3-0.1s1.8,0.2,2.5,0.5C302.8,2.7,303.3,3.2,303.5,3.9z M297.7,12.2h-1.3V5.7h1.3V12.2z"/>
	<path class="st0" d="M317.5,3.9c0.1,0.4,0.2,0.8,0.2,1.2v7h-1.3v-7c0-1.4-0.9-2.1-2.8-2.1c-0.8,0-1.7,0-2.7,0.1l-0.5,0V2
		c1.2-0.1,2.3-0.1,3.3-0.1s1.8,0.2,2.5,0.5C316.8,2.7,317.3,3.2,317.5,3.9z M311.6,12.2h-1.3V5.7h1.3V12.2z"/>
	<path class="st0" d="M321.5,2.1l1.2,4.5c0.1,0.7,0.5,2.1,0.9,4.2c1.5-0.6,2.4-2,2.6-4.3l0.4-4.4h1.3l-0.4,4.4
		c-0.1,0.7-0.2,1.2-0.3,1.7c-0.1,0.5-0.3,0.9-0.4,1.2s-0.4,0.6-0.6,0.9c-0.3,0.3-0.6,0.6-0.9,0.8c-0.3,0.2-0.8,0.4-1.3,0.6
		c-0.5,0.2-1,0.3-1.7,0.4l-2.9,0.4v-1l3.1-0.5l-2.4-9H321.5z"/>
	<path class="st0" d="M336.4,2.1V3c-1.1,0.3-1.6,1.1-1.6,2.2v6.9h-1.3V5.2c0-0.3,0-0.6,0.1-0.8c0.1-0.3,0.2-0.5,0.3-0.6
		c0.2-0.3,0.4-0.5,0.6-0.6l0.1-0.1v0h-5.5v-1H336.4z"/>
	<path class="st0" d="M339.4,12.2h-1.3V2.1h1.3V12.2z"/>
	<path class="st0" d="M346,1.9c1,0,1.7,0.3,2.2,0.9s0.7,1.4,0.7,2.5v6.9h-3.4v-1h2.1V5.3c0-1.5-0.7-2.3-2.1-2.3
		c-0.2,0-0.5,0-0.7,0.1c-0.2,0.1-0.4,0.2-0.6,0.3c-0.3,0.3-0.6,0.5-0.7,0.7l-0.1,0.1l-0.7,7.9h-1.3l0.7-7.8c0,0,0-0.1,0-0.2
		s0-0.3-0.1-0.7c-0.1-0.4-0.2-0.7-0.3-1l-0.2-0.5h1.3c0.1,0.2,0.3,0.6,0.4,1.1h0.1c0.3-0.3,0.6-0.6,1-0.8c0.2-0.1,0.5-0.2,0.8-0.3
		C345.3,2,345.7,1.9,346,1.9z"/>
	<path class="st0" d="M358.6,3.9c0.1,0.4,0.2,0.8,0.2,1.2v7h-1.3v-7c0-1.4-0.9-2.1-2.8-2.1c-0.8,0-1.7,0-2.7,0.1l-0.5,0V2
		c1.2-0.1,2.3-0.1,3.3-0.1s1.8,0.2,2.5,0.5C357.9,2.7,358.4,3.2,358.6,3.9z M352.7,12.2h-1.3V5.7h1.3V12.2z"/>
	<path class="st0" d="M368.7,8.5h-3.8V7.3h3.8V8.5z"/>
	<path class="st0" d="M374.3,2c0.8-0.1,1.8-0.1,2.9-0.1c1.1,0,1.9,0.2,2.5,0.7c0.5,0.5,0.8,1.3,0.8,2.5v6h1.1v1h-7.4v-1h4.9v-6
		c0-0.8-0.2-1.4-0.5-1.6C378.3,3.2,377.7,3,377,3c-0.8,0-1.6,0-2.3,0.1l-0.4,0V2z"/>
	<path class="st0" d="M383.9,2.1h5.3v1l-1.4,5.2l-0.8,3.9h-1.3l0.8-3.9l1.4-5.2h-5.3V0h1.3V2.1z"/>
	<path class="st0" d="M396.3,12.2H395V2.1h1.3V12.2z"/>
	<path class="st0" d="M403,1.9c1,0,1.7,0.3,2.2,0.9s0.7,1.4,0.7,2.5v6.9h-3.4v-1h2.1V5.3c0-1.5-0.7-2.3-2.1-2.3
		c-0.2,0-0.5,0-0.7,0.1c-0.2,0.1-0.4,0.2-0.6,0.3c-0.3,0.3-0.6,0.5-0.7,0.7l-0.1,0.1l-0.7,7.9h-1.3l0.7-7.8c0,0,0-0.1,0-0.2
		s0-0.3-0.1-0.7c-0.1-0.4-0.2-0.7-0.3-1l-0.2-0.5h1.3c0.1,0.2,0.3,0.6,0.4,1.1h0.1c0.3-0.3,0.6-0.6,1-0.8c0.2-0.1,0.5-0.2,0.8-0.3
		C402.3,2,402.7,1.9,403,1.9z"/>
	<path class="st0" d="M408.3,8.8V2.1h1.3v5.3l-1,1.3H408.3z"/>
	<path class="st0" d="M415.9,11.1c1.1,0,1.9-0.4,2.7-1.1c0.7-0.8,1.1-1.9,1.3-3.5l0.4-4.4h1.3l-0.4,4.4c-0.1,0.7-0.2,1.3-0.3,1.8
		c-0.2,0.5-0.3,1-0.5,1.3c-0.2,0.3-0.4,0.7-0.7,1c-0.3,0.3-0.6,0.6-1,0.8c-0.4,0.2-0.8,0.4-1.3,0.6c-0.5,0.1-1.1,0.2-1.7,0.2h-3.3
		l-0.8-10.1h1.3l0.5,5.6l1-0.3c0.8-0.3,1.3-1,1.4-2.2l0.3-3.1h1.3l-0.3,2.6c0,0.4-0.1,0.7-0.1,1c-0.1,0.3-0.2,0.6-0.3,0.9
		c-0.1,0.3-0.3,0.6-0.5,0.8c-0.2,0.2-0.4,0.4-0.7,0.6c-0.3,0.2-0.7,0.3-1,0.4l-1,0.3l0.2,2.4H415.9z"/>
	<path class="st0" d="M427,3.1l3.1-0.9l0.2,1.4l-3,0.2l1.9,2.5L428,7.2l-1.4-2.8l-1.2,2.8L424,6.4l1.9-2.5l-2.9-0.2l0.2-1.4l3.1,0.9
		L425.8,0h1.5L427,3.1z"/>
</g>
</svg>
