<?xml version="1.0" encoding="utf-8"?>
<!-- Generator: Adobe Illustrator 20.1.0, SVG Export Plug-In . SVG Version: 6.00 Build 0)  -->
<svg version="1.1" id="Layer_1" xmlns="http://www.w3.org/2000/svg" xmlns:xlink="http://www.w3.org/1999/xlink" x="0px" y="0px"
	 viewBox="0 0 557.3 20" style="enable-background:new 0 0 557.3 20;" xml:space="preserve">
<style type="text/css">
	.st0{fill:#FFFFFF;}
</style>
<g>
	<path class="st0" d="M0,14.2c0-0.4,0.1-0.8,0.3-1c0.2-0.2,0.5-0.3,0.9-0.3s0.7,0.1,0.9,0.3c0.2,0.2,0.3,0.6,0.3,1
		c0,0.4-0.1,0.8-0.3,1c-0.2,0.2-0.5,0.3-0.9,0.3s-0.7-0.1-0.9-0.3S0,14.6,0,14.2z"/>
	<path class="st0" d="M5.2,6.4c0-1.3-0.2-2.5-0.7-3.8h1.6c0.1,0.1,0.1,0.3,0.2,0.5s0.2,0.7,0.3,1.3s0.2,1.3,0.2,2V20H5.2V6.4z"/>
	<path class="st0" d="M9.8,10.9V2.6h1.6v6.7l-1.3,1.7H9.8z"/>
	<path class="st0" d="M19.6,2.4c1.2,0,2.2,0.4,2.8,1.1s0.9,1.8,0.9,3.1v8.6H19v-1.3h2.7V6.7c0-1.9-0.9-2.9-2.6-2.9
		c-0.3,0-0.6,0.1-0.9,0.2s-0.5,0.2-0.7,0.4c-0.4,0.3-0.7,0.6-0.9,0.9l-0.1,0.2l-0.9,9.9h-1.6l0.9-9.7c0,0,0-0.1,0-0.2s0-0.4-0.1-0.9
		s-0.2-0.9-0.3-1.2L14,2.6h1.6c0.2,0.3,0.3,0.7,0.4,1.3h0.1c0.3-0.4,0.7-0.7,1.2-1c0.2-0.1,0.6-0.3,1-0.4S19.1,2.4,19.6,2.4z"/>
	<path class="st0" d="M31.4,10.9V2.6H33v6.7l-1.3,1.7H31.4z"/>
	<path class="st0" d="M36.1,15.3c-0.3,0-0.6,0-1-0.1v-1.3c0.5,0.1,0.7,0.1,0.8,0.1c0.9,0,1.4-0.6,1.4-1.7V4l-1.4,0.1V2.7
		c1.8-0.2,3.4-0.3,4.8-0.3c1.2,0,2.1,0.2,2.9,0.6c0.8,0.4,1.4,1,1.7,1.9c0.2,0.5,0.2,1,0.2,1.6v8.8h-1.6V6.4c0-1.7-1.2-2.6-3.5-2.6
		c-0.3,0-0.8,0-1.5,0.1v8.2c0,1-0.2,1.8-0.7,2.4C37.7,15,37,15.3,36.1,15.3z"/>
	<path class="st0" d="M50.2,15.2h-1.6V2.6h1.6V15.2z"/>
	<path class="st0" d="M52.2,2.5c0.9,0,1.7-0.1,2.5-0.1s1.3,0,1.8,0.1s0.9,0.2,1.3,0.4s0.8,0.4,1.1,0.8c0.6,0.7,0.9,1.6,0.9,2.7v8.8
		h-1.6V6.4c0-1.7-1.2-2.6-3.5-2.6c-0.7,0-1.5,0-2.4,0.1V2.5z"/>
	<path class="st0" d="M62.7,10.9V2.6h1.6v6.7L63,10.9H62.7z"/>
	<path class="st0" d="M72.2,13.9c1.3,0,2.4-0.5,3.3-1.4s1.4-2.4,1.6-4.4l0.5-5.5h1.6l-0.5,5.5c-0.1,0.8-0.2,1.6-0.4,2.3
		s-0.4,1.2-0.6,1.6c-0.2,0.4-0.5,0.8-0.9,1.2s-0.8,0.8-1.2,1c-0.4,0.3-1,0.5-1.6,0.7c-0.6,0.2-1.3,0.3-2.1,0.3h-4.2l-1-12.6h1.6
		l0.6,7l1.3-0.4c1-0.3,1.6-1.2,1.7-2.7l0.4-3.9h1.6l-0.3,3.3c0,0.4-0.1,0.8-0.2,1.2s-0.2,0.7-0.4,1.1s-0.4,0.7-0.6,1S72,9.8,71.6,10
		c-0.4,0.2-0.8,0.4-1.3,0.5L69,10.9l0.3,3H72.2z"/>
	<path class="st0" d="M86.9,15.3c-0.3,0-0.6,0-1-0.1v-1.3c0.5,0.1,0.7,0.1,0.8,0.1c0.9,0,1.4-0.6,1.4-1.7V4l-1.4,0.1V2.7
		c1.8-0.2,3.4-0.3,4.8-0.3c1.2,0,2.1,0.2,2.9,0.6c0.8,0.4,1.4,1,1.7,1.9c0.2,0.5,0.2,1,0.2,1.6v8.8h-1.6V6.4c0-1.7-1.2-2.6-3.5-2.6
		c-0.3,0-0.8,0-1.5,0.1v8.2c0,1-0.2,1.8-0.7,2.4C88.6,15,87.9,15.3,86.9,15.3z"/>
	<path class="st0" d="M101.1,15.2h-1.6V2.6h1.6V15.2z"/>
	<path class="st0" d="M109.5,2.4c1.2,0,2.2,0.4,2.8,1.1s0.9,1.8,0.9,3.1v8.6h-4.3v-1.3h2.7V6.7c0-1.9-0.9-2.9-2.6-2.9
		c-0.3,0-0.6,0.1-0.9,0.2s-0.5,0.2-0.7,0.4c-0.4,0.3-0.7,0.6-0.9,0.9l-0.1,0.2l-0.9,9.9h-1.6l0.9-9.7c0,0,0-0.1,0-0.2s0-0.4-0.1-0.9
		s-0.2-0.9-0.3-1.2l-0.3-0.6h1.6c0.2,0.3,0.3,0.7,0.4,1.3h0.1c0.3-0.4,0.7-0.7,1.2-1c0.2-0.1,0.6-0.3,1-0.4S109,2.4,109.5,2.4z"/>
	<path class="st0" d="M120.5,2.4c1.5,0,2.7,0.5,3.6,1.6s1.3,2.7,1.3,4.9c0,0.9-0.1,1.7-0.3,2.4c-0.2,0.7-0.4,1.3-0.7,1.8
		s-0.7,0.9-1.1,1.3s-0.9,0.6-1.3,0.7s-1,0.2-1.5,0.2s-1.1-0.1-1.5-0.2s-0.9-0.4-1.3-0.7s-0.8-0.8-1.1-1.3s-0.5-1.1-0.7-1.8
		c-0.2-0.7-0.3-1.5-0.3-2.4c0-1.2,0.1-2.2,0.4-3.1s0.6-1.5,1-1.9l-1.2,0.1V2.6C117.1,2.5,118.7,2.4,120.5,2.4z M117.6,6.1
		c-0.3,1-0.4,1.8-0.4,2.7s0.1,1.5,0.2,2.1s0.3,1.1,0.5,1.6c0.2,0.5,0.6,0.9,1,1.2s1,0.4,1.6,0.4s1.1-0.1,1.6-0.4s0.8-0.7,1-1.2
		c0.4-0.9,0.7-2.1,0.7-3.5c0-1.9-0.3-3.2-0.9-4.1c-0.2-0.3-0.5-0.6-0.9-0.8s-0.8-0.3-1.4-0.3l-1.7,0C118.2,4.4,117.9,5.1,117.6,6.1z
		"/>
	<path class="st0" d="M126.7,2.5c0.9,0,1.7-0.1,2.5-0.1s1.3,0,1.8,0.1s0.9,0.2,1.3,0.4s0.8,0.4,1.1,0.8c0.6,0.7,0.9,1.6,0.9,2.7v8.8
		h-1.6V6.4c0-1.7-1.2-2.6-3.5-2.6c-0.7,0-1.5,0-2.4,0.1V2.5z"/>
	<path class="st0" d="M136.7,6.9c0-0.7,0.1-1.4,0.4-2s0.6-1.1,1.1-1.4s1-0.6,1.5-0.8s1.1-0.3,1.7-0.3s1.1,0.1,1.6,0.2
		s0.9,0.4,1.3,0.7s0.8,0.8,1.1,1.3s0.5,1.1,0.7,1.8s0.3,1.5,0.3,2.4s-0.1,1.7-0.3,2.4c-0.2,0.7-0.4,1.3-0.7,1.8s-0.7,0.9-1.1,1.3
		c-0.8,0.7-1.8,1-2.9,1c-1.1,0-2.2-0.1-3.2-0.2l-0.5-0.1v-1.4c0,0,0.2,0,0.5,0.1c1,0.2,2.1,0.2,3.2,0.2c0.5,0,0.9-0.1,1.3-0.3
		c0.4-0.2,0.7-0.4,0.9-0.8c0.2-0.3,0.4-0.7,0.6-1.2c0.3-0.8,0.4-1.8,0.4-2.9c0-1.4-0.2-2.6-0.7-3.5c-0.2-0.5-0.6-0.9-1-1.2
		s-0.9-0.4-1.5-0.4s-1,0.1-1.4,0.2s-0.7,0.3-0.9,0.5s-0.4,0.5-0.6,0.7c-0.3,0.5-0.4,1.1-0.4,1.7c0,0.9,0.2,1.5,0.6,2s1,0.8,1.9,0.9
		l0.4,0.1l-0.3,1.2l-0.4,0c-1.1-0.1-2-0.6-2.7-1.3C137,9.1,136.7,8.1,136.7,6.9z"/>
	<path class="st0" d="M154,2.4c1.2,0,2.2,0.4,2.8,1.1s0.9,1.8,0.9,3.1v8.6h-4.3v-1.3h2.7V6.7c0-1.9-0.9-2.9-2.6-2.9
		c-0.3,0-0.6,0.1-0.9,0.2s-0.5,0.2-0.7,0.4c-0.4,0.3-0.7,0.6-0.9,0.9l-0.1,0.2l-0.9,9.9h-1.6l0.9-9.7c0,0,0-0.1,0-0.2s0-0.4-0.1-0.9
		s-0.2-0.9-0.3-1.2l-0.3-0.6h1.6c0.2,0.3,0.3,0.7,0.4,1.3h0.1c0.3-0.4,0.7-0.7,1.2-1c0.2-0.1,0.6-0.3,1-0.4S153.6,2.4,154,2.4z"/>
	<path class="st0" d="M167.6,15.2H166V2.6h1.6V15.2z"/>
	<path class="st0" d="M179.3,2.6v4.1c0,0.5,0,1-0.1,1.4s-0.1,0.8-0.3,1.2c-0.3,0.9-0.9,1.5-1.9,1.9l2.4,4h-1.8l-3.1-5.3l-1.5-2.2
		c-0.3,0.1-0.4,0.2-0.6,0.3c-0.6,0.5-0.9,1.3-0.9,2.5v4.7H170v-4.1c0-1.4,0.2-2.5,0.6-3.2c0.2-0.3,0.4-0.5,0.7-0.8s0.7-0.4,1.1-0.6
		l-2.4-4h1.8l2.9,4.9l1.6,2.5c0.3-0.2,0.6-0.4,0.7-0.6s0.3-0.5,0.4-0.8s0.2-0.8,0.2-1.3V2.6H179.3z"/>
	<path class="st0" d="M182.3,15.2h-1.6L186,0.9h1.6L182.3,15.2z"/>
	<path class="st0" d="M191,15.2h-1.6V2.6h1.6V15.2z"/>
	<path class="st0" d="M199.4,15.3c-0.3,0-0.6,0-1-0.1v-1.3c0.5,0.1,0.7,0.1,0.8,0.1c0.9,0,1.4-0.6,1.4-1.7V4l-1.4,0.1V2.7
		c1.8-0.2,3.4-0.3,4.8-0.3c1.2,0,2.1,0.2,2.9,0.6c0.8,0.4,1.4,1,1.7,1.9c0.2,0.5,0.2,1,0.2,1.6v8.8h-1.6V6.4c0-1.7-1.2-2.6-3.5-2.6
		c-0.3,0-0.8,0-1.5,0.1v8.2c0,1-0.2,1.8-0.7,2.4C201.1,15,200.3,15.3,199.4,15.3z"/>
	<path class="st0" d="M213.6,15.2H212V2.6h1.6V15.2z"/>
	<path class="st0" d="M223,14.9v0.3h-1.6v-0.3c0-0.5,0.1-1.1,0.3-1.9c0.2-0.8,0.4-1.4,0.5-1.8c0.2-0.7,0.4-1.6,0.7-2.5l1.4-4.8h-7.6
		V2.6h9.3v1.2l-1.5,5c-0.2,0.6-0.3,1.1-0.4,1.5c-0.1,0.4-0.2,0.8-0.3,1.2s-0.2,0.7-0.3,1s-0.1,0.6-0.2,0.9
		C223.1,14.1,223,14.6,223,14.9z M218.3,20h-1.6V7.7h1.6V20z"/>
	<path class="st0" d="M227.5,6.9c0-0.7,0.1-1.4,0.4-2s0.6-1.1,1.1-1.4s1-0.6,1.5-0.8s1.1-0.3,1.7-0.3s1.1,0.1,1.6,0.2
		s0.9,0.4,1.3,0.7s0.8,0.8,1.1,1.3s0.5,1.1,0.7,1.8s0.3,1.5,0.3,2.4s-0.1,1.7-0.3,2.4c-0.2,0.7-0.4,1.3-0.7,1.8s-0.7,0.9-1.1,1.3
		c-0.8,0.7-1.8,1-2.9,1c-1.1,0-2.2-0.1-3.2-0.2l-0.5-0.1v-1.4c0,0,0.2,0,0.5,0.1c1,0.2,2.1,0.2,3.2,0.2c0.5,0,0.9-0.1,1.3-0.3
		c0.4-0.2,0.7-0.4,0.9-0.8c0.2-0.3,0.4-0.7,0.6-1.2c0.3-0.8,0.4-1.8,0.4-2.9c0-1.4-0.2-2.6-0.7-3.5c-0.2-0.5-0.6-0.9-1-1.2
		s-0.9-0.4-1.5-0.4s-1,0.1-1.4,0.2s-0.7,0.3-0.9,0.5s-0.4,0.5-0.6,0.7c-0.3,0.5-0.4,1.1-0.4,1.7c0,0.9,0.2,1.5,0.6,2s1,0.8,1.9,0.9
		l0.4,0.1l-0.3,1.2l-0.4,0c-1.1-0.1-2-0.6-2.7-1.3C227.8,9.1,227.5,8.1,227.5,6.9z"/>
	<path class="st0" d="M243.8,2.4c1.5,0,2.7,0.5,3.6,1.6s1.3,2.7,1.3,4.9c0,0.9-0.1,1.7-0.3,2.4c-0.2,0.7-0.4,1.3-0.7,1.8
		s-0.7,0.9-1.1,1.3s-0.9,0.6-1.3,0.7s-1,0.2-1.5,0.2s-1.1-0.1-1.5-0.2s-0.9-0.4-1.3-0.7s-0.8-0.8-1.1-1.3s-0.5-1.1-0.7-1.8
		c-0.2-0.7-0.3-1.5-0.3-2.4c0-1.2,0.1-2.2,0.4-3.1s0.6-1.5,1-1.9l-1.2,0.1V2.6C240.5,2.5,242.1,2.4,243.8,2.4z M241,6.1
		c-0.3,1-0.4,1.8-0.4,2.7s0.1,1.5,0.2,2.1s0.3,1.1,0.5,1.6c0.2,0.5,0.6,0.9,1,1.2s1,0.4,1.6,0.4s1.1-0.1,1.6-0.4s0.8-0.7,1-1.2
		c0.4-0.9,0.7-2.1,0.7-3.5c0-1.9-0.3-3.2-0.9-4.1c-0.2-0.3-0.5-0.6-0.9-0.8s-0.8-0.3-1.4-0.3l-1.7,0C241.6,4.4,241.2,5.1,241,6.1z"
		/>
	<path class="st0" d="M256.4,2.4c1.2,0,2.2,0.4,2.8,1.1s0.9,1.8,0.9,3.1v8.6h-4.3v-1.3h2.7V6.7c0-1.9-0.9-2.9-2.6-2.9
		c-0.3,0-0.6,0.1-0.9,0.2s-0.5,0.2-0.7,0.4c-0.4,0.3-0.7,0.6-0.9,0.9l-0.1,0.2l-0.9,9.9h-1.6l0.9-9.7c0,0,0-0.1,0-0.2s0-0.4-0.1-0.9
		s-0.2-0.9-0.3-1.2l-0.3-0.6h1.6c0.2,0.3,0.3,0.7,0.4,1.3h0.1c0.3-0.4,0.7-0.7,1.2-1c0.2-0.1,0.6-0.3,1-0.4S256,2.4,256.4,2.4z"/>
	<path class="st0" d="M263.4,15.2h-1.6l5.3-14.3h1.6L263.4,15.2z"/>
	<path class="st0" d="M270.6,15.3c-0.3,0-0.6,0-1-0.1v-1.3c0.5,0.1,0.7,0.1,0.8,0.1c0.9,0,1.4-0.6,1.4-1.7V4l-1.4,0.1V2.7
		c1.8-0.2,3.4-0.3,4.8-0.3c1.2,0,2.1,0.2,2.9,0.6c0.8,0.4,1.4,1,1.7,1.9c0.2,0.5,0.2,1,0.2,1.6v8.8h-1.6V6.4c0-1.7-1.2-2.6-3.5-2.6
		c-0.3,0-0.8,0-1.5,0.1v8.2c0,1-0.2,1.8-0.7,2.4C272.3,15,271.6,15.3,270.6,15.3z"/>
	<path class="st0" d="M284.8,15.2h-1.6V2.6h1.6V15.2z"/>
	<path class="st0" d="M291.9,2.6v1.3c0,0-0.1,0.1-0.2,0.1c-0.1,0-0.2,0.2-0.3,0.4S291.1,4.7,291,5s-0.2,0.6-0.3,1.1
		c-0.1,0.5-0.2,1-0.2,1.6v7.5h-1.6V7.7c0-0.5,0.1-0.9,0.2-1.3c0.1-0.4,0.3-0.8,0.4-1.1c0.3-0.6,0.6-1,0.9-1.2l0.2-0.2v0h-3V2.6
		H291.9z"/>
	<path class="st0" d="M299.2,2.4c1.2,0,2.2,0.4,2.8,1.1s0.9,1.8,0.9,3.1v8.6h-4.3v-1.3h2.7V6.7c0-1.9-0.9-2.9-2.6-2.9
		c-0.3,0-0.6,0.1-0.9,0.2c-0.3,0.1-0.5,0.2-0.7,0.4c-0.4,0.3-0.7,0.6-0.9,0.9l-0.1,0.2l-0.9,9.9h-1.6l0.9-9.7c0,0,0-0.1,0-0.2
		s0-0.4-0.1-0.9c-0.1-0.5-0.2-0.9-0.3-1.2l-0.3-0.6h1.6c0.2,0.3,0.3,0.7,0.4,1.3h0.1c0.3-0.4,0.7-0.7,1.2-1c0.2-0.1,0.6-0.3,1-0.4
		C298.3,2.5,298.7,2.4,299.2,2.4z"/>
	<path class="st0" d="M304.8,2.5c0.9,0,1.7-0.1,2.5-0.1s1.3,0,1.8,0.1s0.9,0.2,1.3,0.4c0.4,0.2,0.8,0.4,1.1,0.8
		c0.6,0.7,0.9,1.6,0.9,2.7v8.8h-1.6V6.4c0-1.7-1.2-2.6-3.5-2.6c-0.7,0-1.5,0-2.4,0.1V2.5z"/>
	<path class="st0" d="M320.6,2.4c1.2,0,2.2,0.4,2.8,1.1s0.9,1.8,0.9,3.1v8.6H320v-1.3h2.7V6.7c0-1.9-0.9-2.9-2.6-2.9
		c-0.3,0-0.6,0.1-0.9,0.2c-0.3,0.1-0.5,0.2-0.7,0.4c-0.4,0.3-0.7,0.6-0.9,0.9l-0.1,0.2l-0.9,9.9h-1.6l0.9-9.7c0,0,0-0.1,0-0.2
		s0-0.4-0.1-0.9c-0.1-0.5-0.2-0.9-0.3-1.2L315,2.6h1.6c0.2,0.3,0.3,0.7,0.4,1.3h0.1c0.3-0.4,0.7-0.7,1.2-1c0.2-0.1,0.6-0.3,1-0.4
		C319.8,2.5,320.2,2.4,320.6,2.4z"/>
	<path class="st0" d="M341.2,2.6v4.1c0,0.5,0,1-0.1,1.4c0,0.4-0.1,0.8-0.3,1.2c-0.3,0.9-0.9,1.5-1.9,1.9l2.4,4h-1.8l-3.1-5.3
		L335,7.7c-0.3,0.1-0.4,0.2-0.6,0.3c-0.6,0.5-0.9,1.3-0.9,2.5v4.7h-1.6v-4.1c0-1.4,0.2-2.5,0.6-3.2c0.2-0.3,0.4-0.5,0.7-0.8
		s0.7-0.4,1.1-0.6l-2.4-4h1.8l2.9,4.9l1.6,2.5c0.3-0.2,0.6-0.4,0.7-0.6c0.2-0.2,0.3-0.5,0.4-0.8s0.2-0.8,0.2-1.3V2.6H341.2z"/>
	<path class="st0" d="M344.6,2.6h6.6v1.3l-1.7,6.4l-1,4.9h-1.6l1-4.9l1.7-6.4H343V0h1.6V2.6z"/>
	<path class="st0" d="M359.3,2.6h6.6v1.3l-1.7,6.4l-1,4.9h-1.6l1-4.9l1.7-6.4h-6.6V0h1.6V2.6z"/>
	<path class="st0" d="M369.3,6.1h-1l-0.4-5.2h1.8L369.3,6.1z M372.9,6.1h-1l-0.4-5.2h1.8L372.9,6.1z"/>
	<path class="st0" d="M378,3.7c-0.4,0-0.7,0.1-1.2,0.2V2.6c0.5-0.1,1.1-0.2,1.7-0.2c2,0,3,1.1,3,3.3v6.4c0,0.5,0,1-0.1,1.6
		c-0.1,0.5-0.1,0.9-0.2,1.1l-0.1,0.4h-5.8v-1.3h4.4c0.1-0.5,0.2-1.1,0.2-1.8V5.9c0-0.8-0.2-1.3-0.5-1.7C379.2,3.9,378.7,3.7,378,3.7
		z"/>
	<path class="st0" d="M393.7,4.9c0.2,0.5,0.2,1,0.2,1.6v8.8h-1.6V6.4c0-1.7-1.2-2.6-3.5-2.6c-1,0-2.2,0-3.4,0.1l-0.7,0V2.5
		c1.5-0.1,2.9-0.1,4.2-0.1s2.3,0.2,3.1,0.6C392.8,3.4,393.4,4,393.7,4.9z M386.3,15.2h-1.6v-8h1.6V15.2z"/>
	<path class="st0" d="M402.3,15.3c-0.3,0-0.6,0-1-0.1v-1.3c0.5,0.1,0.7,0.1,0.8,0.1c0.9,0,1.4-0.6,1.4-1.7V4l-1.4,0.1V2.7
		c1.8-0.2,3.4-0.3,4.8-0.3c1.2,0,2.1,0.2,2.9,0.6c0.8,0.4,1.4,1,1.7,1.9c0.2,0.5,0.2,1,0.2,1.6v8.8h-1.6V6.4c0-1.7-1.2-2.6-3.5-2.6
		c-0.3,0-0.8,0-1.5,0.1v8.2c0,1-0.2,1.8-0.7,2.4C403.9,15,403.2,15.3,402.3,15.3z"/>
	<path class="st0" d="M416.5,15.2h-1.6V2.6h1.6V15.2z"/>
	<path class="st0" d="M421.2,2.6l1.5,5.7c0.2,0.8,0.6,2.6,1.2,5.2c1.9-0.7,3-2.5,3.3-5.4l0.5-5.5h1.6l-0.5,5.5
		c-0.1,0.8-0.2,1.6-0.4,2.2c-0.2,0.6-0.4,1.1-0.6,1.5s-0.5,0.8-0.8,1.2c-0.3,0.4-0.7,0.7-1.1,1c-0.4,0.3-1,0.6-1.6,0.8
		c-0.6,0.2-1.3,0.4-2.1,0.5l-3.6,0.5v-1.3l3.8-0.6l-3-11.2H421.2z"/>
	<path class="st0" d="M439.9,2.6v1.1c-1.3,0.4-2,1.3-2,2.8v8.7h-1.6V6.5c0-0.4,0-0.7,0.1-1.1c0.1-0.3,0.2-0.6,0.3-0.8
		c0.3-0.4,0.5-0.6,0.7-0.7l0.1-0.1v0h-6.9V2.6H439.9z"/>
	<path class="st0" d="M443.6,15.2h-1.6V2.6h1.6V15.2z"/>
	<path class="st0" d="M451.9,2.4c1.2,0,2.2,0.4,2.8,1.1s0.9,1.8,0.9,3.1v8.6h-4.3v-1.3h2.7V6.7c0-1.9-0.9-2.9-2.6-2.9
		c-0.3,0-0.6,0.1-0.9,0.2c-0.3,0.1-0.5,0.2-0.7,0.4c-0.4,0.3-0.7,0.6-0.9,0.9l-0.1,0.2l-0.9,9.9h-1.6l0.9-9.7c0,0,0-0.1,0-0.2
		s0-0.4-0.1-0.9c-0.1-0.5-0.2-0.9-0.3-1.2l-0.3-0.6h1.6c0.2,0.3,0.3,0.7,0.4,1.3h0.1c0.3-0.4,0.7-0.7,1.2-1c0.2-0.1,0.6-0.3,1-0.4
		C451,2.5,451.5,2.4,451.9,2.4z"/>
	<path class="st0" d="M467.6,4.9c0.2,0.5,0.2,1,0.2,1.6v8.8h-1.6V6.4c0-1.7-1.2-2.6-3.5-2.6c-1,0-2.2,0-3.4,0.1l-0.7,0V2.5
		c1.5-0.1,2.9-0.1,4.2-0.1s2.3,0.2,3.1,0.6C466.8,3.4,467.3,4,467.6,4.9z M460.3,15.2h-1.6v-8h1.6V15.2z"/>
	<path class="st0" d="M480.2,10.6h-4.8V9.1h4.8V10.6z"/>
	<path class="st0" d="M487.2,2.5c1-0.1,2.3-0.1,3.7-0.1c1.4,0,2.4,0.3,3.1,0.9c0.7,0.6,1,1.6,1,3.1v7.5h1.4v1.3h-9.2v-1.3h6.2V6.4
		c0-1-0.2-1.7-0.7-2.1c-0.5-0.4-1.2-0.6-2.1-0.6c-1,0-2,0-2.9,0.1l-0.5,0V2.5z"/>
	<path class="st0" d="M499.2,2.6h6.6v1.3l-1.7,6.4l-1,4.9h-1.6l1-4.9l1.7-6.4h-6.6V0h1.6V2.6z"/>
	<path class="st0" d="M514.8,15.2h-1.6V2.6h1.6V15.2z"/>
	<path class="st0" d="M523.1,2.4c1.2,0,2.2,0.4,2.8,1.1s0.9,1.8,0.9,3.1v8.6h-4.3v-1.3h2.7V6.7c0-1.9-0.9-2.9-2.6-2.9
		c-0.3,0-0.6,0.1-0.9,0.2c-0.3,0.1-0.5,0.2-0.7,0.4c-0.4,0.3-0.7,0.6-0.9,0.9l-0.1,0.2l-0.9,9.9h-1.6l0.9-9.7c0,0,0-0.1,0-0.2
		s0-0.4-0.1-0.9c-0.1-0.5-0.2-0.9-0.3-1.2l-0.3-0.6h1.6c0.2,0.3,0.3,0.7,0.4,1.3h0.1c0.3-0.4,0.7-0.7,1.2-1c0.2-0.1,0.6-0.3,1-0.4
		C522.3,2.5,522.7,2.4,523.1,2.4z"/>
	<path class="st0" d="M529.8,10.9V2.6h1.6v6.7l-1.3,1.7H529.8z"/>
	<path class="st0" d="M539.2,13.9c1.3,0,2.4-0.5,3.3-1.4c0.9-1,1.4-2.4,1.6-4.4l0.5-5.5h1.6l-0.5,5.5c-0.1,0.8-0.2,1.6-0.4,2.3
		c-0.2,0.7-0.4,1.2-0.6,1.6c-0.2,0.4-0.5,0.8-0.9,1.2c-0.4,0.4-0.8,0.8-1.2,1c-0.4,0.3-1,0.5-1.6,0.7c-0.6,0.2-1.3,0.3-2.1,0.3h-4.2
		l-1-12.6h1.6l0.6,7l1.3-0.4c1-0.3,1.6-1.2,1.7-2.7l0.4-3.9h1.6l-0.3,3.3c0,0.4-0.1,0.8-0.2,1.2c-0.1,0.4-0.2,0.7-0.4,1.1
		c-0.2,0.4-0.4,0.7-0.6,1c-0.2,0.3-0.5,0.6-0.9,0.8c-0.4,0.2-0.8,0.4-1.3,0.5l-1.3,0.3l0.3,3H539.2z"/>
	<path class="st0" d="M553.1,3.9l3.9-1.1l0.3,1.8l-3.7,0.3L556,8L554.3,9l-1.7-3.5L551,9L549.3,8l2.4-3.2L548,4.6l0.3-1.8l3.8,1.1
		L551.7,0h1.9L553.1,3.9z"/>
</g>
</svg>
