<?xml version="1.0" encoding="utf-8"?>
<!-- Generator: Adobe Illustrator 20.0.0, SVG Export Plug-In . SVG Version: 6.00 Build 0)  -->
<svg version="1.1" id="Layer_1" xmlns="http://www.w3.org/2000/svg" xmlns:xlink="http://www.w3.org/1999/xlink" x="0px" y="0px"
	 viewBox="0 0 246.7 162.5" style="enable-background:new 0 0 246.7 162.5;" xml:space="preserve">
<style type="text/css">
	.st0{fill:#FFFFFF;}
	.st1{fill:none;stroke:#FFFFFF;stroke-miterlimit:10;}
	.st2{fill:url(#SVGID_3_);}
	.st3{clip-path:url(#SVGID_5_);fill:url(#SVGID_6_);}
</style>
<g>
	<g>
		<g>
			<defs>
				<path id="SVGID_1_" d="M164,86.3c0-3.2,2-4.8,6-4.8c2,0,3.5,0.9,4.7,2.6c1.2,1.7,1.8,3.6,1.8,5.6c0,3.6-1.1,7.2-3.3,10.8
					c-2.2,3.7-5.9,8.3-11.1,13.9l0.9,4.9c0.2,0.9,0.4,1.9,0.6,3c0.8,3.9,2.6,5.9,5.3,5.9c2,0,3.8-0.8,5.5-2.5s2.9-3.8,3.6-6.3h4.2
					c-3.2,9.2-8,15-14.2,17.4c-2.2,0.8-4.2,1.3-5.9,1.3c-1.7,0-3.3-0.3-4.7-0.9c-2.4-1-4.3-3.2-5.7-6.7c-0.7-1.8-1.4-3.9-2-6.5
					c-6.4,6.5-14.1,10.8-23.2,12.9c-2.9,0.7-5.6,1-8.2,1c-5.6,0-10-1.3-13.3-3.9s-4.9-6.8-4.9-12.5c0-7.4,1.9-14.6,5.8-21.8
					c3-5.5,7-9.3,12.2-11.7c2.6-1.2,5.4-1.9,8.2-1.9c4.6,0,7.8,0.9,9.5,2.6c1.7,1.7,2.5,4.1,2.5,7c0,5.8-2.3,10.6-6.9,14.6
					c-4.6,4-10,6.2-16.3,6.6c-0.1,0.5-0.1,1-0.1,1.4v1.3c0,3.7,1,6.3,2.9,7.7c2,1.4,4.1,2.2,6.4,2.2c4.4,0,8.7-1,13-3
					c4.3-2,8.1-4.8,11.3-8.4l-5.7-31.1h14.2l3.9,21.7c6.4-6.8,9.6-12.1,9.6-15.9c0-0.5,0-0.9-0.1-1.2c-0.6,0.1-1.2,0.2-1.8,0.2
					C165.5,91.9,164,90,164,86.3z M130.6,95.2c0-2.4-0.8-3.6-2.5-3.6c-2.4,0-4.8,2.2-7.1,6.5s-4,9.1-5,14.1
					c3.9-0.1,7.3-1.9,10.2-5.2S130.6,99.7,130.6,95.2z"/>
			</defs>
			<clipPath id="SVGID_2_">
				<use xlink:href="#SVGID_1_"  style="overflow:visible;"/>
			</clipPath>
		</g>
	</g>
	<g>
		<g>
			<g>
				<path class="st0" d="M219.3,41.8c-0.4,0.7-1.1,1.2-1.9,1.6c-0.9,0.4-1.6,0.6-2.3,0.7l-0.5,2.1c1.3-0.1,2.4-0.5,3.5-1l-2.1,8.8
					l2.3,0.6l3-12.3L219.3,41.8z"/>
				<path class="st0" d="M228.9,56.2c0.9-0.5,1.5-1.4,1.7-2.5c0.2-0.7,0.1-1.3-0.1-1.9c-0.2-0.6-0.6-1.1-1.3-1.6
					c0.6-0.1,1.1-0.3,1.5-0.7c0.4-0.4,0.7-0.8,0.8-1.4c0.2-0.9,0.1-1.7-0.4-2.5c-0.5-0.7-1.3-1.3-2.5-1.5c-1.2-0.3-2.1-0.2-2.9,0.2
					c-0.8,0.4-1.3,1.1-1.5,2c-0.1,0.5-0.1,1.1,0.1,1.6c0.2,0.5,0.5,1,1.1,1.4c-0.8,0.1-1.4,0.4-1.9,0.9c-0.5,0.5-0.8,1-0.9,1.7
					c-0.3,1.2-0.1,2.3,0.6,3.1c0.6,0.8,1.5,1.3,2.6,1.5C227,56.8,228,56.7,228.9,56.2z M227.1,46c0.3-0.2,0.7-0.2,1.2-0.1
					c0.4,0.1,0.8,0.3,1,0.6c0.2,0.3,0.2,0.7,0.1,1.2c-0.1,0.5-0.3,0.8-0.7,1c-0.3,0.2-0.7,0.2-1.2,0.1c-0.4-0.1-0.8-0.3-1-0.6
					c-0.2-0.3-0.2-0.7-0.1-1.2C226.5,46.5,226.7,46.2,227.1,46z M225.1,53.8c-0.2-0.4-0.3-1-0.1-1.6c0.1-0.5,0.4-0.9,0.7-1.2
					c0.4-0.3,0.8-0.4,1.4-0.3c0.5,0.1,0.9,0.4,1.1,0.8c0.2,0.4,0.3,0.9,0.2,1.5c-0.2,0.7-0.4,1.1-0.8,1.4c-0.4,0.3-0.8,0.3-1.3,0.2
					C225.7,54.5,225.3,54.2,225.1,53.8z"/>
				<polygon class="st0" points="232.4,52.7 235.6,53.5 234.9,56.6 237,57.1 237.8,54 241,54.7 241.5,52.6 238.3,51.8 239.1,48.6 
					236.9,48.1 236.2,51.3 233,50.5 				"/>
				<path class="st0" d="M245.4,58.1c3.9-9.9-1-21.1-10.9-25c-9.9-3.9-21.1,1-25,10.9c-3.9,9.9,1,21.1,10.9,25
					C230.2,72.9,241.5,68,245.4,58.1z M210.3,44.4C214,35,224.6,30.3,234,34s14.1,14.3,10.4,23.7c-3.7,9.4-14.3,14.1-23.7,10.4
					C211.3,64.4,206.6,53.8,210.3,44.4z"/>
			</g>
			<path class="st1" d="M221.2,23.8c0,0,3.5,2.3,3.8,8.4"/>
		</g>
		<linearGradient id="SVGID_3_" gradientUnits="userSpaceOnUse" x1="0" y1="112.2613" x2="224.1445" y2="112.2613">
			<stop  offset="0" style="stop-color:#FF0084"/>
			<stop  offset="1" style="stop-color:#FF7BAC"/>
		</linearGradient>
		<path class="st2" d="M209.6,86.8l-6.8,32.4c-1.8,5.9-4.5,9-8,9c-2,0-3-1.4-3-4.4c0-0.8,0.1-1.9,0.3-2.7l7.2-34.3h-14.5l-6.6,32.6
			v0c-1,2.5-2,4.6-3.7,6.3s-3.6,2.5-5.5,2.5c-2.7,0-4.5-2-5.3-5.9c-0.2-1-0.4-2-0.7-3l-0.9-4.9c5.2-5.6,8.9-10.3,11.1-13.9
			c2.2-3.7,3.3-7.3,3.3-10.8c0-2-0.6-3.9-1.8-5.6c-1.2-1.7-2.7-2.6-4.7-2.6c-4,0-6,1.6-6,4.8c0,3.7,1.5,5.6,4.6,5.6
			c0.7,0,1.3-0.1,1.8-0.2c0.1,0.3,0.1,0.7,0.1,1.2c0,3.8-3.2,9-9.6,15.8l-3.9-21.8h-14.2l5.7,31.3c-3.3,3.6-7.1,6.4-11.3,8.5
			c-4.3,2-8.6,3.1-13,3.1c-2.3,0-4.3-0.7-6.3-2.1c-2-1.4-2.8-4-2.8-7.7v-1.3c0-0.5-0.1-0.9,0-1.4c6.3-0.4,11.7-2.6,16.2-6.6
			c4.6-4,6.9-8.9,6.9-14.6c0-2.9-0.8-5.2-2.5-7c-1.7-1.7-4.8-2.6-9.5-2.6c-2.8,0-5.6,0.6-8.2,1.9c-5.1,2.3-9.2,6.2-12.2,11.7
			c-3.7,6.8-5.6,13.7-5.8,20.6c-1.6,1.3-3.6,2.6-5.9,4c0.3-1.1,0.4-2.5,0.4-4s-0.1-3.1-0.2-4.7l-1.2-15.9c-0.3-4.2-0.5-9.5-0.8-15.7
			l-14.9,2c-3.5,11.4-7.6,21.3-12.4,29.8c-1.3,0.7-2.6,1.8-3.7,3.4c-1.1,1.6-1.7,3.8-1.7,6.7c0,2.9,1.3,5.6,3.8,8.2
			c2.5,2.6,6.2,3.8,10.9,3.8c6.7,0,12-2,15.8-6c3.7-2.1,7-4.5,10-7.2c0.5,4.1,2.1,7.2,4.7,9.3c3.3,2.6,7.7,3.9,13.3,3.9
			c2.6,0,5.4-0.3,8.2-1c9.1-2.1,16.8-6.4,23.2-12.9c0.6,2.5,1.3,4.7,2,6.5c1.4,3.5,3.3,5.7,5.7,6.7c1.4,0.6,2.9,0.9,4.7,0.9
			c1.7,0,3.7-0.4,5.9-1.3c3.6-1.4,6.8-4,9.4-7.7c0.4,2.6,1.4,4.7,2.9,6.1c2.1,1.9,4.6,2.8,7.6,2.8c4.8,0,8.9-1.9,12.3-5.8l-1,4.4
			c-5.9,1.8-9.9,3.3-11.8,4.7c-1.9,1.3-3.3,2.8-4.2,4.4c-0.9,1.6-1.3,3.8-1.3,6.5s1.2,5.1,3.5,7.2c2.4,2,5.4,3,9.1,3
			c3.7,0,6.9-1,9.8-3.1c3.9-2.9,6.5-7.7,7.7-14.1l12.3-58.4H209.6z M120.9,98.1c2.4-4.4,4.7-6.5,7.1-6.5c1.7,0,2.5,1.2,2.5,3.6
			c0,4.5-1.5,8.5-4.4,11.8s-6.4,5.1-10.2,5.2C116.9,107.2,118.6,102.5,120.9,98.1z M70.5,130c-3.5,0-5.2-2.3-5.2-7
			c0.4,0.9,1.3,1.3,2.7,1.3c1.4,0,2.4-0.5,3.2-1.5s1.2-2.3,1.2-3.7c0-1.4-0.8-2.5-2.3-3.2c3.7-7.2,6.4-13.5,8.1-19
			c0.3,4.3,0.6,8.3,0.9,11.9l0.6,5.7c0.3,2.4,0.4,4.4,0.4,6.1C80.1,126.9,76.9,130,70.5,130z M197.2,145.7c-0.6,2.9-1.5,5-2.6,6.1
			c-1.1,1.1-2.2,1.7-3.3,1.7c-1.1,0-2-0.4-2.8-1.1s-1.2-1.5-1.2-2.2c0-2.5,1.2-4.8,3.7-6.9c1.4-1.1,3.9-2.3,7.5-3.6L197.2,145.7z
			 M47.7,94c3.3-1.9,5.8-4.2,7.5-7.1c1.7-2.9,2.5-5.8,2.5-8.8c0-4.5-1.8-8.3-5.4-11.3c-3.6-3.1-8.9-4.6-15.9-4.6
			c-9.4,0-17.9,2.7-25.4,8.1c-3.4,2.5-6,5.3-8,8.5c-2,3.2-3,6.5-3,10c0,1.7,0.2,3.1,0.7,4.3c1.4,3.3,4.7,4.9,10,4.9
			c0-0.2-0.1-0.4-0.2-0.7c-0.8-1.4-1.2-3.5-1.2-6.1c0-5.2,1.2-9.6,3.6-13.3s5.7-6.5,9.8-8.5c1.8-0.9,3.8-1.5,5.8-2s4.1-0.7,6.3-0.7
			s4.1,0.3,5.8,0.9c4.7,1.7,7.1,5,7.1,10c0,3.9-1.4,7.6-4.3,11.1c-2.9,3.5-6.3,5.2-10.1,5.2h-0.6l4.7-22.3l-14.9,1.7L8.8,136.8h14.5
			l8.2-38.2c1.6-0.2,3.1-0.2,4.6-0.2c6.3,0,9.5,4.3,9.5,12.9c0,4.6-0.7,8.6-2.2,11.9c-1.8,4.1-4.5,6.2-8,6.2c-2.1,0-4.2-1.2-6.5-3.6
			c-0.9,2.3-1.3,4.2-1.3,5.8c0,1.6,0.3,2.9,1,3.8c1.6,2.5,4.5,3.7,8.8,3.7c4.3,0,7.9-1,10.7-3.1c5.4-4.1,8.8-9.8,10.4-17.2
			c0.7-3.3,1-6.2,1-8.6c0-4.1-1-7.6-2.9-10.5C54.8,96.7,51.8,94.8,47.7,94z"/>
		<g>
			<path class="st0" d="M65.4,40.6c-4,1.2,2.8,0,3.8-2.3c0.5-1.1,1-1.3,1.4-1.2c0,0.1,0,0.2-0.1,0.3c-0.3,0-0.6,0.2-0.8,0.8
				c-0.5,1.4-2.2,4.2-3.3,3.8c-1.1-0.3-1.2-1-1.2-1s-0.1,0.5,0.7,1c0.8,0.5,3.3-0.6,3.5-1.4c0.2-0.8,0.3,1.2-1.7,1.9
				c-1.9,0.7-1.7,2.6-2.5,2.8c-0.8,0.2-2.5,2.4-1.6,3.8c0.6,1.1,1.7,1.8,2.7,2c-0.1,0.4,0,0.6,0.5,0.6c0.1,0,0.1,0,0.2,0
				c-0.1,0-0.3-0.2-0.3-0.6c0.2,0,0.4,0,0.6,0c0.5-0.2,0.1,0-0.6-0.2c0-0.2,0.1-0.5,0.3-0.8c0.9-2,1.7-5,1.8-2.9
				c0,1-0.6,1.2-1.2,2.4c-0.2,0.5,0,1,0.1,1.5c-0.2,0.2-0.4,0.4-0.6,0.7c0.1,0,0.1,0,0,0c-0.2,0.3-0.4,0.5-0.5,0.8
				c-1.6,0.3-0.8-0.3-0.8-0.3S64.8,53,66,53c0.1,0,0.2,0,0.3,0c-0.2,0.6-0.3,1.2-0.1,1.7c0.8,2.1,2.2,1.3,2.2,1.3s-2.1,0.4-2.2-1.9
				c0-0.4,0.1-0.8,0.3-1.1c0.6-0.1,1.2-0.4,1.4-0.9c0.7-0.2,1.5-0.2,1.8-0.3c-0.6,0.3-2.3,1.2-2,1.8c0.1,0.2,0.1,0.5,0.2,0.8
				c-0.9-0.2-0.7-0.1,0,0.1c0,0.1,0.1,0.3,0.1,0.4c0,0.9,1.4,2,2.5,2.1c0,0,0.1-0.1,0.1-0.1c-0.5-0.2-1.6-0.7-2-1.4
				c0.3,0.1,0.6,0.2,1.1,0.1c1.7-0.2-0.4,0.2-1.2-0.6c0-0.1,0-0.2,0.1-0.3c1.2,0.3,2.7,0.6,3.6,0.6c1.1-1,2.2-2.1,3.3-3
				c1.1,0.6,2.4,0.9,3.8,0.8c1.5-0.2,3.5,1.4,3.5,1.4c0,0.1,0.3,0.7,0.5,0.9c-1,5.4-3.7,10.5-3.9,16.1c-0.3,0.7-1.7,7.1-2.1,9.5
				c-0.4,1.2-1.1,4.4-0.4,5.7c-0.3,1,0.3,2,1.2,2.6c0.2,0.2,1.5,0.6,1.9,0.7c4.7,0.6,15.3,0.9,15.7,0.9c0.1,0,0.3,0,0.3,0
				c0.1,0,13.4-0.4,14.8-0.5c1.7-0.1,3.5,0.2,5.2,0.4l0.2,0.1c0.3,0.2,3.8,1.3,5.5,1.5c0.7,0,1.4,0,2.1,0c0.7-0.1,1.4-0.1,2.2-0.3
				c1.1-0.4,1.7-1.2,2.1-2.1c0.1-0.3,0.1-0.7,0.2-1c0,0,2.1-0.5,2.1-1.5c1.6,0.5,3.1,1.2,4.6,1.9c3.2,3.1,8.4,5.3,14.5,5.7
				c10.2,0.7,18.9-4.1,19.3-10.6c0.1-1.1-0.1-2.2-0.5-3.2c0.3-1.8,0.6-3.8,1.4-5.5c4.6-5.8,7.9-26.6,8.1-26.6
				c-0.2,0.4,0.6,1.7,0.9,2c0.1,1.1,6.6,8.1,8.2,8.9c2.1,1.9,4,4,6.1,5.9c0.8,1,1.7,1.9,2.7,2.7c0.5,0.4,1,1.1,1.4,1.6
				c0.6,0.6,1.1,1.1,1.6,1.7c0.7,0.9,1.8,2.2,1.3,3.4c-0.1,0.4-0.4,0.7-0.6,1c-0.5,0.7-0.8,1.5-1,2.3c-0.2,0.7-0.5,1.4-0.4,2.2
				c0,0.7,0.4,1.5,0.8,2.1c0.6,0.8,1.5,1.4,2.3,2.1c0.8,0.6,1.6,1.3,2.3,2.1c1.4,1.5,2.6,3.2,3.5,5.1c0.2,0.3,0.3,0.7,0.5,0.9
				c0.2,0.3,0.6,0.4,0.9,0.4c0,0,0.1,0,0.1-0.1c0,0,0-0.1,0-0.1c-0.5-1.4-1.2-2.7-1.9-4c-0.4-0.9-0.9-1.8-1-2.8
				c-0.1-0.7-0.2-1.9,0.5-2.3c0.3-0.2,0.7-0.1,1,0c3.7,1.1,6.7,3.6,10.2,5.3c0.7,0.4,1.6,0.3,2.3,0.1c2.3-0.5,10.3-4,9.8-5.5
				c-0.3-0.9-6.7-1.5-9.5-3c-3.2-1.8-8.4-9.3-11.2-12.2c-4.5-5.7-8.3-11.9-11.4-18.4c-3.3-6.6-15.8-21.7-16.7-22.1
				c-0.1-0.1-1.2-1-1.3-1.1l0.3,0c0.6-0.1,14-3.8,20.4-4.7c1.2-0.4,3,0,3.5,0.7c0.2,0.3,0.6,0.6,0.9,0.8c0.3,0.3,0.7,0.6,1.1,0.9
				c0.8,0.6,1.6,1.1,2.5,1.5c0.8,0.4,1.8,0.6,2.7,0.6c0.5,0,0.9-0.1,1.3-0.2c0.2-0.1,0.4-0.1,0.6-0.3c0.2-0.1,3.8-1.7,4.3-1.8
				c1-0.3,7.8-0.6,8-0.6c0.4,0,0.9-0.9,0.8-1c-0.1-0.2-0.3-0.2-0.5-0.2c-0.2,0-5.9,0-6.8-0.2c-1-0.2-1.9-0.3-2.9-0.4
				c-0.5-0.1-1.1-0.4-0.9-1c0.2-0.5,0.8-0.9,1.2-1.3c2.4-2,8-6.1,8.1-6.4c0.4-0.9,0.8-1.9,0.8-2.9c-0.4-3.6-0.1-7.3-1.1-10.9
				c-1-0.6-4.8,7.3-4.9,7.7c-1.1,0.5-2.3,1-3.6,1c-6.7,0.3-12.4,3.6-18.9,4.9c-9.1,3-19.1,2.7-28.6,3.9c-4.5,0.9-9.1,1.3-13.6,2.3
				c-3.6,0.7-8.7,1-10.9,3.9c-0.3,0.1-2.6,5.9-2.7,8.6l0,0.2c-0.1,2.6-1.9,35.1,1.6,36c-0.2,0-6.5-1.4-8.5-1.2
				c-1.2-0.3-3.9-1.3-3.9-1.4c-0.5-0.9-1.5-1.4-2.4-1.9c-1.1-1.5-5.7-4.4-6.6-4.7c-1.1-2.4-1.7-5.2-3.7-7.2c-0.2-0.4-0.5-0.7-0.9-1
				l0.2-0.1l-0.5-0.6l-0.4,0.3c-1.1-0.7-2.4-1-3.7-1.1c-0.1-0.4-9.3-0.4-12-2.1c-0.3-0.4-0.5-0.8-0.8-1.1c0.8-0.1,1.6-0.3,2.1-0.9
				c0,0,0.1-0.1,0.1-0.1l0.1-0.6c0,0.1,0,0.3,0,0.3c0.1-0.2,0.6-3.8,0.6-3.8c0.1-0.1,0.1-0.1,0.2-0.2c0.3-0.1,0.4-0.2,0.4-0.4
				c0-0.3-0.2-0.8-0.2-1.2l0.1-0.4c0,0,0.1,0,0.1,0c0.4-0.1,0.7-0.3,1.1-0.4c0.6-0.2,1.2-0.5,1-1.1c-0.3-0.6-1-1-1.4-1.5
				c0,0-0.1-0.1-0.1-0.1c0,0-0.1,0-0.1,0l0-0.1c-0.5-0.7-1-1.4-1.2-2.1c-0.1-0.4,0.3-0.3,0.7-0.3c0.2,0,0.4-0.1,0.5-0.3
				c0,0,0-0.1-0.1-0.1c-0.4,0-0.8,0-0.9-0.3c-0.1-0.3,0-0.5,0.2-0.7c0,0-0.1-0.2-0.1-0.3c0.1,0.1,0.1,0.1,0.2,0.2
				c0.4-0.4,0.9-0.7,0.8-1.3c0-0.2-0.1-0.4-0.1-0.5c-0.1,0-0.2,0.1-0.2,0.1c-0.1,0-0.1,0-0.2,0.1c0.1-0.1,0.2-0.2,0.3-0.2
				c0,0-0.3-1-0.5-1.7c0.5-0.7,0.7-1.6,0.3-2.5c-0.9-2-2.5-2.9-2.8-4.1c-0.3-1.1-7.1-4.5-11.1-3.9c-4,0.6-7.1-0.7-8.8,0.1
				c-1.7,0.8-2.4,2.7-4.7,3.2c-1.9,0.3-2.9,1.6-2.4,1.3c1.2-0.9,2.7-0.8,3.2-0.9c0,0,0,0,0.1,0c-0.2,0-1.9,0.1-3.7,1.3
				c-2.1,1.4-2.2,2.4-1.8,3.9c0.4,1.4-1,2.7-1.9,2.1c-0.9-0.6-0.3-1.4-0.3-1.4s-0.9,1,0,1.5c0.9,0.5,3.3-0.6,2.7-2.1
				c-0.6-1.5,1.7,2.4-2.3,3.2c-4.1,0.8-2.6,4.8-2.5,5.2c0.1,0.3-1-3.9,2-4.6c1.3-0.3,2.2-0.9,2.9-1.6c-0.1,0.1-0.1,0.3-0.1,0.4
				c-0.3,1.6-4.1,1.6-4.4,4.1c-0.3,2.5,0.8,4.6-1,5.5c-0.8,0.4-1.1,0.4-1.2,0.2c0,0.3,0.2,0.5,1.1,0.1c1.7-0.7,1.6-1.6,1.5-1.9
				c-0.1-0.3,0.8,1.7-2.2,2.6c-2.9,0.9,2.4,0.1,2.8-2.1C68,35.5,69.4,39.4,65.4,40.6z M156.9,33.6c0-0.6,6.7-1.2,9.1-2.2l0.3-0.1
				c0.4,0.3-0.8,1.9-1.1,2.4c-1.9,3.5-4.5,6.6-6.3,10.1C156.7,40.9,156.6,37,156.9,33.6z M87.7,81.6c0.3-2.2,1.7-4,2.2-6.1l0.1,0.2
				c0.9-2.3,1.9-4.5,3.1-6.6c1.5,0.5,2.8,1.6,4,2.6c1.4,1.5,13.6,8,14.1,8.2c0.9,0.1,1.5,1.1,0.2,1.2c-3.5,2.1-18.3,1.9-18.7,1.8
				C91,82.5,89.2,82.4,87.7,81.6z M66.8,49.4c-0.1,0.6-0.2,1.1-0.3,1.5c-0.5-0.2-1-0.6-1.4-1.4c-1-2.2,0.7-3.1,0.7-3.1
				S67,47.9,66.8,49.4z M76.1,23.2c-0.7,0.2-1.7,0.6-2,1.6c-0.4,1.1-1.6,2.1-2.4,3.1c0.3-0.7,0.4-1.4,0.2-2.1
				c-0.3-1.7,3.2-2.6,4.4-2.7C76.2,23.1,76.2,23.2,76.1,23.2z M72.2,52.7c-0.3,0.4-0.7,0.8-1.2,1c0.5,0.1,0.9,0.1,1.8-1.2
				c0.2-0.3,0,0.6-0.2,1.3c-0.3,0.8-0.7,1.5-3.4,0.9c-0.1,0-0.2,0-0.3-0.1c0.1-0.1,0.1-0.2,0.2-0.3c0.1-0.1,0.2-0.2,0.3-0.3
				c-0.4,0.1-0.7,0.2-0.9,0.3c0,0,0-0.1,0-0.1C68.6,52.8,71.1,53.5,72.2,52.7z M67.9,52.2c-0.1,0.2-0.4,0.4-0.9,0.5
				C67.2,52.4,67.5,52.3,67.9,52.2z M71.3,47.7c0.2-0.5,0.4,1.7-0.8,1.9c-0.8,0.2-1.7,0.6-2.5,1.3c-0.3-1.1,0.3-1.6,1.5-1.8
				C70.7,49,70.9,48.7,71.3,47.7z"/>
		</g>
		<g>
			<defs>
				<path id="SVGID_4_" d="M164,86.3c0-3.2,2-4.8,6-4.8c2,0,3.5,0.9,4.7,2.6c1.2,1.7,1.8,3.6,1.8,5.6c0,3.6-1.1,7.2-3.3,10.8
					c-2.2,3.7-5.9,8.3-11.1,13.9l0.9,4.9c0.2,0.9,0.4,1.9,0.6,3c0.8,3.9,2.6,5.9,5.3,5.9c2,0,3.8-0.8,5.5-2.5s2.9-3.8,3.6-6.3h4.2
					c-3.2,9.2-8,15-14.2,17.4c-2.2,0.8-4.2,1.3-5.9,1.3c-1.7,0-3.3-0.3-4.7-0.9c-2.4-1-4.3-3.2-5.7-6.7c-0.7-1.8-1.4-3.9-2-6.5
					c-6.4,6.5-14.1,10.8-23.2,12.9c-2.9,0.7-5.6,1-8.2,1c-5.6,0-10-1.3-13.3-3.9s-4.9-6.8-4.9-12.5c0-7.4,1.9-14.6,5.8-21.8
					c3-5.5,7-9.3,12.2-11.7c2.6-1.2,5.4-1.9,8.2-1.9c4.6,0,7.8,0.9,9.5,2.6c1.7,1.7,2.5,4.1,2.5,7c0,5.8-2.3,10.6-6.9,14.6
					c-4.6,4-10,6.2-16.3,6.6c-0.1,0.5-0.1,1-0.1,1.4v1.3c0,3.7,1,6.3,2.9,7.7c2,1.4,4.1,2.2,6.4,2.2c4.4,0,8.7-1,13-3
					c4.3-2,8.1-4.8,11.3-8.4l-5.7-31.1h14.2l3.9,21.7c6.4-6.8,9.6-12.1,9.6-15.9c0-0.5,0-0.9-0.1-1.2c-0.6,0.1-1.2,0.2-1.8,0.2
					C165.5,91.9,164,90,164,86.3z M130.6,95.2c0-2.4-0.8-3.6-2.5-3.6c-2.4,0-4.8,2.2-7.1,6.5s-4,9.1-5,14.1
					c3.9-0.1,7.3-1.9,10.2-5.2S130.6,99.7,130.6,95.2z"/>
			</defs>
			<clipPath id="SVGID_5_">
				<use xlink:href="#SVGID_4_"  style="overflow:visible;"/>
			</clipPath>
			<linearGradient id="SVGID_6_" gradientUnits="userSpaceOnUse" x1="0" y1="112.2613" x2="224.1445" y2="112.2613">
				<stop  offset="0" style="stop-color:#FF0084"/>
				<stop  offset="1" style="stop-color:#FF7BAC"/>
			</linearGradient>
			<path class="st3" d="M209.6,86.8l-6.8,32.4c-1.8,5.9-4.5,9-8,9c-2,0-3-1.4-3-4.4c0-0.8,0.1-1.9,0.3-2.7l7.2-34.3h-14.5l-6.6,32.6
				v0c-1,2.5-2,4.6-3.7,6.3s-3.6,2.5-5.5,2.5c-2.7,0-4.5-2-5.3-5.9c-0.2-1-0.4-2-0.7-3l-0.9-4.9c5.2-5.6,8.9-10.3,11.1-13.9
				c2.2-3.7,3.3-7.3,3.3-10.8c0-2-0.6-3.9-1.8-5.6c-1.2-1.7-2.7-2.6-4.7-2.6c-4,0-6,1.6-6,4.8c0,3.7,1.5,5.6,4.6,5.6
				c0.7,0,1.3-0.1,1.8-0.2c0.1,0.3,0.1,0.7,0.1,1.2c0,3.8-3.2,9-9.6,15.8l-3.9-21.8h-14.2l5.7,31.3c-3.3,3.6-7.1,6.4-11.3,8.5
				c-4.3,2-8.6,3.1-13,3.1c-2.3,0-4.3-0.7-6.3-2.1c-2-1.4-2.8-4-2.8-7.7v-1.3c0-0.5-0.1-0.9,0-1.4c6.3-0.4,11.7-2.6,16.2-6.6
				c4.6-4,6.9-8.9,6.9-14.6c0-2.9-0.8-5.2-2.5-7c-1.7-1.7-4.8-2.6-9.5-2.6c-2.8,0-5.6,0.6-8.2,1.9c-5.1,2.3-9.2,6.2-12.2,11.7
				c-3.7,6.8-5.6,13.7-5.8,20.6c-1.6,1.3-3.6,2.6-5.9,4c0.3-1.1,0.4-2.5,0.4-4s-0.1-3.1-0.2-4.7l-1.2-15.9
				c-0.3-4.2-0.5-9.5-0.8-15.7l-14.9,2c-3.5,11.4-7.6,21.3-12.4,29.8c-1.3,0.7-2.6,1.8-3.7,3.4c-1.1,1.6-1.7,3.8-1.7,6.7
				c0,2.9,1.3,5.6,3.8,8.2c2.5,2.6,6.2,3.8,10.9,3.8c6.7,0,12-2,15.8-6c3.7-2.1,7-4.5,10-7.2c0.5,4.1,2.1,7.2,4.7,9.3
				c3.3,2.6,7.7,3.9,13.3,3.9c2.6,0,5.4-0.3,8.2-1c9.1-2.1,16.8-6.4,23.2-12.9c0.6,2.5,1.3,4.7,2,6.5c1.4,3.5,3.3,5.7,5.7,6.7
				c1.4,0.6,2.9,0.9,4.7,0.9c1.7,0,3.7-0.4,5.9-1.3c3.6-1.4,6.8-4,9.4-7.7c0.4,2.6,1.4,4.7,2.9,6.1c2.1,1.9,4.6,2.8,7.6,2.8
				c4.8,0,8.9-1.9,12.3-5.8l-1,4.4c-5.9,1.8-9.9,3.3-11.8,4.7c-1.9,1.3-3.3,2.8-4.2,4.4c-0.9,1.6-1.3,3.8-1.3,6.5s1.2,5.1,3.5,7.2
				c2.4,2,5.4,3,9.1,3c3.7,0,6.9-1,9.8-3.1c3.9-2.9,6.5-7.7,7.7-14.1l12.3-58.4H209.6z M120.9,98.1c2.4-4.4,4.7-6.5,7.1-6.5
				c1.7,0,2.5,1.2,2.5,3.6c0,4.5-1.5,8.5-4.4,11.8s-6.4,5.1-10.2,5.2C116.9,107.2,118.6,102.5,120.9,98.1z M70.5,130
				c-3.5,0-5.2-2.3-5.2-7c0.4,0.9,1.3,1.3,2.7,1.3c1.4,0,2.4-0.5,3.2-1.5s1.2-2.3,1.2-3.7c0-1.4-0.8-2.5-2.3-3.2
				c3.7-7.2,6.4-13.5,8.1-19c0.3,4.3,0.6,8.3,0.9,11.9l0.6,5.7c0.3,2.4,0.4,4.4,0.4,6.1C80.1,126.9,76.9,130,70.5,130z M197.2,145.7
				c-0.6,2.9-1.5,5-2.6,6.1c-1.1,1.1-2.2,1.7-3.3,1.7c-1.1,0-2-0.4-2.8-1.1s-1.2-1.5-1.2-2.2c0-2.5,1.2-4.8,3.7-6.9
				c1.4-1.1,3.9-2.3,7.5-3.6L197.2,145.7z M47.7,94c3.3-1.9,5.8-4.2,7.5-7.1c1.7-2.9,2.5-5.8,2.5-8.8c0-4.5-1.8-8.3-5.4-11.3
				c-3.6-3.1-8.9-4.6-15.9-4.6c-9.4,0-17.9,2.7-25.4,8.1c-3.4,2.5-6,5.3-8,8.5c-2,3.2-3,6.5-3,10c0,1.7,0.2,3.1,0.7,4.3
				c1.4,3.3,4.7,4.9,10,4.9c0-0.2-0.1-0.4-0.2-0.7c-0.8-1.4-1.2-3.5-1.2-6.1c0-5.2,1.2-9.6,3.6-13.3s5.7-6.5,9.8-8.5
				c1.8-0.9,3.8-1.5,5.8-2s4.1-0.7,6.3-0.7s4.1,0.3,5.8,0.9c4.7,1.7,7.1,5,7.1,10c0,3.9-1.4,7.6-4.3,11.1c-2.9,3.5-6.3,5.2-10.1,5.2
				h-0.6l4.7-22.3l-14.9,1.7L8.8,136.8h14.5l8.2-38.2c1.6-0.2,3.1-0.2,4.6-0.2c6.3,0,9.5,4.3,9.5,12.9c0,4.6-0.7,8.6-2.2,11.9
				c-1.8,4.1-4.5,6.2-8,6.2c-2.1,0-4.2-1.2-6.5-3.6c-0.9,2.3-1.3,4.2-1.3,5.8c0,1.6,0.3,2.9,1,3.8c1.6,2.5,4.5,3.7,8.8,3.7
				c4.3,0,7.9-1,10.7-3.1c5.4-4.1,8.8-9.8,10.4-17.2c0.7-3.3,1-6.2,1-8.6c0-4.1-1-7.6-2.9-10.5C54.8,96.7,51.8,94.8,47.7,94z"/>
		</g>
	</g>
	<g>
		<g>
			<defs>
				<path id="SVGID_7_" d="M164,86.3c0-3.2,2-4.8,6-4.8c2,0,3.5,0.9,4.7,2.6c1.2,1.7,1.8,3.6,1.8,5.6c0,3.6-1.1,7.2-3.3,10.8
					c-2.2,3.7-5.9,8.3-11.1,13.9l0.9,4.9c0.2,0.9,0.4,1.9,0.6,3c0.8,3.9,2.6,5.9,5.3,5.9c2,0,3.8-0.8,5.5-2.5s2.9-3.8,3.6-6.3h4.2
					c-3.2,9.2-8,15-14.2,17.4c-2.2,0.8-4.2,1.3-5.9,1.3c-1.7,0-3.3-0.3-4.7-0.9c-2.4-1-4.3-3.2-5.7-6.7c-0.7-1.8-1.4-3.9-2-6.5
					c-6.4,6.5-14.1,10.8-23.2,12.9c-2.9,0.7-5.6,1-8.2,1c-5.6,0-10-1.3-13.3-3.9s-4.9-6.8-4.9-12.5c0-7.4,1.9-14.6,5.8-21.8
					c3-5.5,7-9.3,12.2-11.7c2.6-1.2,5.4-1.9,8.2-1.9c4.6,0,7.8,0.9,9.5,2.6c1.7,1.7,2.5,4.1,2.5,7c0,5.8-2.3,10.6-6.9,14.6
					c-4.6,4-10,6.2-16.3,6.6c-0.1,0.5-0.1,1-0.1,1.4v1.3c0,3.7,1,6.3,2.9,7.7c2,1.4,4.1,2.2,6.4,2.2c4.4,0,8.7-1,13-3
					c4.3-2,8.1-4.8,11.3-8.4l-5.7-31.1h14.2l3.9,21.7c6.4-6.8,9.6-12.1,9.6-15.9c0-0.5,0-0.9-0.1-1.2c-0.6,0.1-1.2,0.2-1.8,0.2
					C165.5,91.9,164,90,164,86.3z M130.6,95.2c0-2.4-0.8-3.6-2.5-3.6c-2.4,0-4.8,2.2-7.1,6.5s-4,9.1-5,14.1
					c3.9-0.1,7.3-1.9,10.2-5.2S130.6,99.7,130.6,95.2z"/>
			</defs>
			<clipPath id="SVGID_8_">
				<use xlink:href="#SVGID_7_"  style="overflow:visible;"/>
			</clipPath>
		</g>
	</g>
</g>
</svg>
