<svg enable-background="new 0 0 246.7 162.5" viewBox="0 0 246.7 162.5" xmlns="http://www.w3.org/2000/svg" xmlns:xlink="http://www.w3.org/1999/xlink"><defs><path id="SVGID_1_" d="m164 86.3c0-3.2 2-4.8 6-4.8 2 0 3.5.9 4.7 2.6 1.2 1.7 1.8 3.6 1.8 5.6 0 3.6-1.1 7.2-3.3 10.8-2.2 3.7-5.9 8.3-11.1 13.9l.9 4.9c.2.9.4 1.9.6 3 .8 3.9 2.6 5.9 5.3 5.9 2 0 3.8-.8 5.5-2.5s2.9-3.8 3.6-6.3h4.2c-3.2 9.2-8 15-14.2 17.4-2.2.8-4.2 1.3-5.9 1.3-1.7 0-3.3-.3-4.7-.9-2.4-1-4.3-3.2-5.7-6.7-.7-1.8-1.4-3.9-2-6.5-6.4 6.5-14.1 10.8-23.2 12.9-2.9.7-5.6 1-8.2 1-5.6 0-10-1.3-13.3-3.9s-4.9-6.8-4.9-12.5c0-7.4 1.9-14.6 5.8-21.8 3-5.5 7-9.3 12.2-11.7 2.6-1.2 5.4-1.9 8.2-1.9 4.6 0 7.8.9 9.5 2.6 1.7 1.7 2.5 4.1 2.5 7 0 5.8-2.3 10.6-6.9 14.6-4.6 4-10 6.2-16.3 6.6-.1.5-.1 1-.1 1.4v1.3c0 3.7 1 6.3 2.9 7.7 2 1.4 4.1 2.2 6.4 2.2 4.4 0 8.7-1 13-3 4.3-2 8.1-4.8 11.3-8.4l-5.7-31.1h14.2l3.9 21.7c6.4-6.8 9.6-12.1 9.6-15.9 0-.5 0-.9-.1-1.2-.6.1-1.2.2-1.8.2-3.2.1-4.7-1.8-4.7-5.5zm-33.4 8.9c0-2.4-.8-3.6-2.5-3.6-2.4 0-4.8 2.2-7.1 6.5s-4 9.1-5 14.1c3.9-.1 7.3-1.9 10.2-5.2s4.4-7.3 4.4-11.8z"/><clipPath><use overflow="visible" xlink:href="#SVGID_1_"/></clipPath><linearGradient id="SVGID_3_" gradientUnits="userSpaceOnUse" x1="0" x2="224.1445" y1="112.2613" y2="112.2613"><stop offset="0" stop-color="#ff0084"/><stop offset="1" stop-color="#ff7bac"/></linearGradient><clipPath id="SVGID_5_"><use overflow="visible" xlink:href="#SVGID_4_"/></clipPath><clipPath><use overflow="visible" xlink:href="#SVGID_7_"/></clipPath><path id="SVGID_4_" d="m164 86.3c0-3.2 2-4.8 6-4.8 2 0 3.5.9 4.7 2.6 1.2 1.7 1.8 3.6 1.8 5.6 0 3.6-1.1 7.2-3.3 10.8-2.2 3.7-5.9 8.3-11.1 13.9l.9 4.9c.2.9.4 1.9.6 3 .8 3.9 2.6 5.9 5.3 5.9 2 0 3.8-.8 5.5-2.5s2.9-3.8 3.6-6.3h4.2c-3.2 9.2-8 15-14.2 17.4-2.2.8-4.2 1.3-5.9 1.3-1.7 0-3.3-.3-4.7-.9-2.4-1-4.3-3.2-5.7-6.7-.7-1.8-1.4-3.9-2-6.5-6.4 6.5-14.1 10.8-23.2 12.9-2.9.7-5.6 1-8.2 1-5.6 0-10-1.3-13.3-3.9s-4.9-6.8-4.9-12.5c0-7.4 1.9-14.6 5.8-21.8 3-5.5 7-9.3 12.2-11.7 2.6-1.2 5.4-1.9 8.2-1.9 4.6 0 7.8.9 9.5 2.6 1.7 1.7 2.5 4.1 2.5 7 0 5.8-2.3 10.6-6.9 14.6-4.6 4-10 6.2-16.3 6.6-.1.5-.1 1-.1 1.4v1.3c0 3.7 1 6.3 2.9 7.7 2 1.4 4.1 2.2 6.4 2.2 4.4 0 8.7-1 13-3 4.3-2 8.1-4.8 11.3-8.4l-5.7-31.1h14.2l3.9 21.7c6.4-6.8 9.6-12.1 9.6-15.9 0-.5 0-.9-.1-1.2-.6.1-1.2.2-1.8.2-3.2.1-4.7-1.8-4.7-5.5zm-33.4 8.9c0-2.4-.8-3.6-2.5-3.6-2.4 0-4.8 2.2-7.1 6.5s-4 9.1-5 14.1c3.9-.1 7.3-1.9 10.2-5.2s4.4-7.3 4.4-11.8z"/><path id="SVGID_7_" d="m164 86.3c0-3.2 2-4.8 6-4.8 2 0 3.5.9 4.7 2.6 1.2 1.7 1.8 3.6 1.8 5.6 0 3.6-1.1 7.2-3.3 10.8-2.2 3.7-5.9 8.3-11.1 13.9l.9 4.9c.2.9.4 1.9.6 3 .8 3.9 2.6 5.9 5.3 5.9 2 0 3.8-.8 5.5-2.5s2.9-3.8 3.6-6.3h4.2c-3.2 9.2-8 15-14.2 17.4-2.2.8-4.2 1.3-5.9 1.3-1.7 0-3.3-.3-4.7-.9-2.4-1-4.3-3.2-5.7-6.7-.7-1.8-1.4-3.9-2-6.5-6.4 6.5-14.1 10.8-23.2 12.9-2.9.7-5.6 1-8.2 1-5.6 0-10-1.3-13.3-3.9s-4.9-6.8-4.9-12.5c0-7.4 1.9-14.6 5.8-21.8 3-5.5 7-9.3 12.2-11.7 2.6-1.2 5.4-1.9 8.2-1.9 4.6 0 7.8.9 9.5 2.6 1.7 1.7 2.5 4.1 2.5 7 0 5.8-2.3 10.6-6.9 14.6-4.6 4-10 6.2-16.3 6.6-.1.5-.1 1-.1 1.4v1.3c0 3.7 1 6.3 2.9 7.7 2 1.4 4.1 2.2 6.4 2.2 4.4 0 8.7-1 13-3 4.3-2 8.1-4.8 11.3-8.4l-5.7-31.1h14.2l3.9 21.7c6.4-6.8 9.6-12.1 9.6-15.9 0-.5 0-.9-.1-1.2-.6.1-1.2.2-1.8.2-3.2.1-4.7-1.8-4.7-5.5zm-33.4 8.9c0-2.4-.8-3.6-2.5-3.6-2.4 0-4.8 2.2-7.1 6.5s-4 9.1-5 14.1c3.9-.1 7.3-1.9 10.2-5.2s4.4-7.3 4.4-11.8z"/></defs><path d="m219.3 41.8c-.4.7-1.1 1.2-1.9 1.6-.9.4-1.6.6-2.3.7l-.5 2.1c1.3-.1 2.4-.5 3.5-1l-2.1 8.8 2.3.6 3-12.3z" fill="#fff"/><path d="m228.9 56.2c.9-.5 1.5-1.4 1.7-2.5.2-.7.1-1.3-.1-1.9-.2-.6-.6-1.1-1.3-1.6.6-.1 1.1-.3 1.5-.7.4-.4.7-.8.8-1.4.2-.9.1-1.7-.4-2.5-.5-.7-1.3-1.3-2.5-1.5-1.2-.3-2.1-.2-2.9.2-.8.4-1.3 1.1-1.5 2-.1.5-.1 1.1.1 1.6.2.5.5 1 1.1 1.4-.8.1-1.4.4-1.9.9-.5.5-.8 1-.9 1.7-.3 1.2-.1 2.3.6 3.1.6.8 1.5 1.3 2.6 1.5 1.2.3 2.2.2 3.1-.3zm-1.8-10.2c.3-.2.7-.2 1.2-.1.4.1.8.3 1 .6.2.3.2.7.1 1.2-.1.5-.3.8-.7 1-.3.2-.7.2-1.2.1-.4-.1-.8-.3-1-.6-.2-.3-.2-.7-.1-1.2.1-.5.3-.8.7-1zm-2 7.8c-.2-.4-.3-1-.1-1.6.1-.5.4-.9.7-1.2.4-.3.8-.4 1.4-.3.5.1.9.4 1.1.8.2.4.3.9.2 1.5-.2.7-.4 1.1-.8 1.4-.4.3-.8.3-1.3.2-.6-.1-1-.4-1.2-.8z" fill="#fff"/><path d="m232.4 52.7l3.2.8-.7 3.1 2.1.5.8-3.1 3.2.7.5-2.1-3.2-.8.8-3.2-2.2-.5-.7 3.2-3.2-.8z" fill="#fff"/><path d="m245.4 58.1c3.9-9.9-1-21.1-10.9-25-9.9-3.9-21.1 1-25 10.9-3.9 9.9 1 21.1 10.9 25 9.8 3.9 21.1-1 25-10.9zm-35.1-13.7c3.7-9.4 14.3-14.1 23.7-10.4s14.1 14.3 10.4 23.7c-3.7 9.4-14.3 14.1-23.7 10.4-9.4-3.7-14.1-14.3-10.4-23.7z" fill="#fff"/><path d="m221.2 23.8c0 0 3.5 2.3 3.8 8.4" fill="none" stroke="#fff" stroke-miterlimit="10"/><path d="m209.6 86.8l-6.8 32.4c-1.8 5.9-4.5 9-8 9-2 0-3-1.4-3-4.4 0-.8.1-1.9.3-2.7l7.2-34.3h-14.5l-6.6 32.6v0c-1 2.5-2 4.6-3.7 6.3s-3.6 2.5-5.5 2.5c-2.7 0-4.5-2-5.3-5.9-.2-1-.4-2-.7-3l-.9-4.9c5.2-5.6 8.9-10.3 11.1-13.9 2.2-3.7 3.3-7.3 3.3-10.8 0-2-.6-3.9-1.8-5.6-1.2-1.7-2.7-2.6-4.7-2.6-4 0-6 1.6-6 4.8 0 3.7 1.5 5.6 4.6 5.6.7 0 1.3-.1 1.8-.2.1.3.1.7.1 1.2 0 3.8-3.2 9-9.6 15.8l-3.9-21.8h-14.2l5.7 31.3c-3.3 3.6-7.1 6.4-11.3 8.5-4.3 2-8.6 3.1-13 3.1-2.3 0-4.3-.7-6.3-2.1-2-1.4-2.8-4-2.8-7.7v-1.3c0-.5-.1-.9 0-1.4 6.3-.4 11.7-2.6 16.2-6.6 4.6-4 6.9-8.9 6.9-14.6 0-2.9-.8-5.2-2.5-7-1.7-1.7-4.8-2.6-9.5-2.6-2.8 0-5.6.6-8.2 1.9-5.1 2.3-9.2 6.2-12.2 11.7-3.7 6.8-5.6 13.7-5.8 20.6-1.6 1.3-3.6 2.6-5.9 4 .3-1.1.4-2.5.4-4s-.1-3.1-.2-4.7l-1.2-15.9c-.3-4.2-.5-9.5-.8-15.7l-14.9 2c-3.5 11.4-7.6 21.3-12.4 29.8-1.3.7-2.6 1.8-3.7 3.4-1.1 1.6-1.7 3.8-1.7 6.7 0 2.9 1.3 5.6 3.8 8.2 2.5 2.6 6.2 3.8 10.9 3.8 6.7 0 12-2 15.8-6 3.7-2.1 7-4.5 10-7.2.5 4.1 2.1 7.2 4.7 9.3 3.3 2.6 7.7 3.9 13.3 3.9 2.6 0 5.4-.3 8.2-1 9.1-2.1 16.8-6.4 23.2-12.9.6 2.5 1.3 4.7 2 6.5 1.4 3.5 3.3 5.7 5.7 6.7 1.4.6 2.9.9 4.7.9 1.7 0 3.7-.4 5.9-1.3 3.6-1.4 6.8-4 9.4-7.7.4 2.6 1.4 4.7 2.9 6.1 2.1 1.9 4.6 2.8 7.6 2.8 4.8 0 8.9-1.9 12.3-5.8l-1 4.4c-5.9 1.8-9.9 3.3-11.8 4.7-1.9 1.3-3.3 2.8-4.2 4.4-.9 1.6-1.3 3.8-1.3 6.5s1.2 5.1 3.5 7.2c2.4 2 5.4 3 9.1 3 3.7 0 6.9-1 9.8-3.1 3.9-2.9 6.5-7.7 7.7-14.1l12.3-58.4h-14.5zm-88.7 11.3c2.4-4.4 4.7-6.5 7.1-6.5 1.7 0 2.5 1.2 2.5 3.6 0 4.5-1.5 8.5-4.4 11.8s-6.4 5.1-10.2 5.2c1-5 2.7-9.7 5-14.1zm-50.4 31.9c-3.5 0-5.2-2.3-5.2-7 .4.9 1.3 1.3 2.7 1.3 1.4 0 2.4-.5 3.2-1.5s1.2-2.3 1.2-3.7c0-1.4-.8-2.5-2.3-3.2 3.7-7.2 6.4-13.5 8.1-19 .3 4.3.6 8.3.9 11.9l.6 5.7c.3 2.4.4 4.4.4 6.1 0 6.3-3.2 9.4-9.6 9.4zm126.7 15.7c-.6 2.9-1.5 5-2.6 6.1-1.1 1.1-2.2 1.7-3.3 1.7-1.1 0-2-.4-2.8-1.1s-1.2-1.5-1.2-2.2c0-2.5 1.2-4.8 3.7-6.9 1.4-1.1 3.9-2.3 7.5-3.6zm-149.5-51.7c3.3-1.9 5.8-4.2 7.5-7.1 1.7-2.9 2.5-5.8 2.5-8.8 0-4.5-1.8-8.3-5.4-11.3-3.6-3.1-8.9-4.6-15.9-4.6-9.4 0-17.9 2.7-25.4 8.1-3.4 2.5-6 5.3-8 8.5-2 3.2-3 6.5-3 10 0 1.7.2 3.1.7 4.3 1.4 3.3 4.7 4.9 10 4.9 0-.2-.1-.4-.2-.7-.8-1.4-1.2-3.5-1.2-6.1 0-5.2 1.2-9.6 3.6-13.3s5.7-6.5 9.8-8.5c1.8-.9 3.8-1.5 5.8-2s4.1-.7 6.3-.7 4.1.3 5.8.9c4.7 1.7 7.1 5 7.1 10 0 3.9-1.4 7.6-4.3 11.1-2.9 3.5-6.3 5.2-10.1 5.2h-.6l4.7-22.3-14.9 1.7-13.7 63.5h14.5l8.2-38.2c1.6-.2 3.1-.2 4.6-.2 6.3 0 9.5 4.3 9.5 12.9 0 4.6-.7 8.6-2.2 11.9-1.8 4.1-4.5 6.2-8 6.2-2.1 0-4.2-1.2-6.5-3.6-.9 2.3-1.3 4.2-1.3 5.8 0 1.6.3 2.9 1 3.8 1.6 2.5 4.5 3.7 8.8 3.7 4.3 0 7.9-1 10.7-3.1 5.4-4.1 8.8-9.8 10.4-17.2.7-3.3 1-6.2 1-8.6 0-4.1-1-7.6-2.9-10.5-1.8-3-4.8-4.9-8.9-5.7z" fill="url(#SVGID_3_)"/><path d="m65.4 40.6c-4 1.2 2.8 0 3.8-2.3.5-1.1 1-1.3 1.4-1.2 0 .1 0 .2-.1.3-.3 0-.6.2-.8.8-.5 1.4-2.2 4.2-3.3 3.8-1.1-.3-1.2-1-1.2-1s-.1.5.7 1c .8.5 3.3-.6 3.5-1.4.2-.8.3 1.2-1.7 1.9-1.9.7-1.7 2.6-2.5 2.8-.8.2-2.5 2.4-1.6 3.8.6 1.1 1.7 1.8 2.7 2-.1.4 0 .6.5.6.1 0 .1 0 .2 0-.1 0-.3-.2-.3-.6.2 0 .4 0 .6 0 .5-.2.1 0-.6-.2 0-.2.1-.5.3-.8.9-2 1.7-5 1.8-2.9 0 1-.6 1.2-1.2 2.4-.2.5 0 1 .1 1.5-.2.2-.4.4-.6.7.1 0 .1 0 0 0-.2.3-.4.5-.5.8-1.6.3-.8-.3-.8-.3s-1 .7.2.7c.1 0 .2 0 .3 0-.2.6-.3 1.2-.1 1.7.8 2.1 2.2 1.3 2.2 1.3s-2.1.4-2.2-1.9c0-.4.1-.8.3-1.1.6-.1 1.2-.4 1.4-.9.7-.2 1.5-.2 1.8-.3-.6.3-2.3 1.2-2 1.8.1.2.1.5.2.8-.9-.2-.7-.1 0 .1 0 .1.1.3.1.4 0 .9 1.4 2 2.5 2.1 0 0 .1-.1.1-.1-.5-.2-1.6-.7-2-1.4.3.1.6.2 1.1.1 1.7-.2-.4.2-1.2-.6 0-.1 0-.2.1-.3 1.2.3 2.7.6 3.6.6 1.1-1 2.2-2.1 3.3-3 1.1.6 2.4.9 3.8.8 1.5-.2 3.5 1.4 3.5 1.4 0 .1.3.7.5.9-1 5.4-3.7 10.5-3.9 16.1-.3.7-1.7 7.1-2.1 9.5-.4 1.2-1.1 4.4-.4 5.7-.3 1 .3 2 1.2 2.6.2.2 1.5.6 1.9.7 4.7.6 15.3.9 15.7.9.1 0 .3 0 .3 0 .1 0 13.4-.4 14.8-.5 1.7-.1 3.5.2 5.2.4l.2.1c.3.2 3.8 1.3 5.5 1.5.7 0 1.4 0 2.1 0 .7-.1 1.4-.1 2.2-.3 1.1-.4 1.7-1.2 2.1-2.1.1-.3.1-.7.2-1 0 0 2.1-.5 2.1-1.5 1.6.5 3.1 1.2 4.6 1.9 3.2 3.1 8.4 5.3 14.5 5.7 10.2.7 18.9-4.1 19.3-10.6.1-1.1-.1-2.2-.5-3.2.3-1.8.6-3.8 1.4-5.5 4.6-5.8 7.9-26.6 8.1-26.6-.2.4.6 1.7.9 2 .1 1.1 6.6 8.1 8.2 8.9 2.1 1.9 4 4 6.1 5.9.8 1 1.7 1.9 2.7 2.7.5.4 1 1.1 1.4 1.6.6.6 1.1 1.1 1.6 1.7.7.9 1.8 2.2 1.3 3.4-.1.4-.4.7-.6 1-.5.7-.8 1.5-1 2.3-.2.7-.5 1.4-.4 2.2 0 .7.4 1.5.8 2.1.6.8 1.5 1.4 2.3 2.1.8.6 1.6 1.3 2.3 2.1 1.4 1.5 2.6 3.2 3.5 5.1.2.3.3.7.5.9.2.3.6.4.9.4 0 0 .1 0 .1-.1 0 0 0-.1 0-.1-.5-1.4-1.2-2.7-1.9-4-.4-.9-.9-1.8-1-2.8-.1-.7-.2-1.9.5-2.3.3-.2.7-.1 1 0 3.7 1.1 6.7 3.6 10.2 5.3.7.4 1.6.3 2.3.1 2.3-.5 10.3-4 9.8-5.5-.3-.9-6.7-1.5-9.5-3-3.2-1.8-8.4-9.3-11.2-12.2-4.5-5.7-8.3-11.9-11.4-18.4-3.3-6.6-15.8-21.7-16.7-22.1-.1-.1-1.2-1-1.3-1.1h.3c.6-.1 14-3.8 20.4-4.7 1.2-.4 3 0 3.5.7.2.3.6.6.9.8.3.3.7.6 1.1.9.8.6 1.6 1.1 2.5 1.5.8.4 1.8.6 2.7.6.5 0 .9-.1 1.3-.2.2-.1.4-.1.6-.3.2-.1 3.8-1.7 4.3-1.8 1-.3 7.8-.6 8-.6.4 0 .9-.9.8-1-.1-.2-.3-.2-.5-.2-.2 0-5.9 0-6.8-.2-1-.2-1.9-.3-2.9-.4-.5-.1-1.1-.4-.9-1 .2-.5.8-.9 1.2-1.3 2.4-2 8-6.1 8.1-6.4.4-.9.8-1.9.8-2.9-.4-3.6-.1-7.3-1.1-10.9-1-.6-4.8 7.3-4.9 7.7-1.1.5-2.3 1-3.6 1-6.7.3-12.4 3.6-18.9 4.9-9.1 3-19.1 2.7-28.6 3.9-4.5.9-9.1 1.3-13.6 2.3-3.6.7-8.7 1-10.9 3.9-.3.1-2.6 5.9-2.7 8.6v.2c-.1 2.6-1.9 35.1 1.6 36-.2 0-6.5-1.4-8.5-1.2-1.2-.3-3.9-1.3-3.9-1.4-.5-.9-1.5-1.4-2.4-1.9-1.1-1.5-5.7-4.4-6.6-4.7-1.1-2.4-1.7-5.2-3.7-7.2-.2-.4-.5-.7-.9-1l .2-.1-.5-.6-.4.3c-1.1-.7-2.4-1-3.7-1.1-.1-.4-9.3-.4-12-2.1-.3-.4-.5-.8-.8-1.1.8-.1 1.6-.3 2.1-.9 0 0 .1-.1.1-.1l.1-.6c0 .1 0 .3 0 .3.1-.2.6-3.8.6-3.8.1-.1.1-.1.2-.2.3-.1.4-.2.4-.4 0-.3-.2-.8-.2-1.2l.1-.4c0 0 .1 0 .1 0 .4-.1.7-.3 1.1-.4.6-.2 1.2-.5 1-1.1-.3-.6-1-1-1.4-1.5 0 0-.1-.1-.1-.1 0 0-.1 0-.1 0v-.1c-.5-.7-1-1.4-1.2-2.1-.1-.4.3-.3.7-.3.2 0 .4-.1.5-.3 0 0 0-.1-.1-.1-.4 0-.8 0-.9-.3-.1-.3 0-.5.2-.7 0 0-.1-.2-.1-.3.1.1.1.1.2.2.4-.4.9-.7.8-1.3 0-.2-.1-.4-.1-.5-.1 0-.2.1-.2.1-.1 0-.1 0-.2.1.1-.1.2-.2.3-.2 0 0-.3-1-.5-1.7.5-.7.7-1.6.3-2.5-.9-2-2.5-2.9-2.8-4.1-.3-1.1-7.1-4.5-11.1-3.9-4 .6-7.1-.7-8.8.1-1.7.8-2.4 2.7-4.7 3.2-1.9.3-2.9 1.6-2.4 1.3 1.2-.9 2.7-.8 3.2-.9 0 0 0 0 .1 0-.2 0-1.9.1-3.7 1.3-2.1 1.4-2.2 2.4-1.8 3.9.4 1.4-1 2.7-1.9 2.1-.9-.6-.3-1.4-.3-1.4s-.9 1 0 1.5c.9.5 3.3-.6 2.7-2.1-.6-1.5 1.7 2.4-2.3 3.2-4.1.8-2.6 4.8-2.5 5.2.1.3-1-3.9 2-4.6 1.3-.3 2.2-.9 2.9-1.6-.1.1-.1.3-.1.4-.3 1.6-4.1 1.6-4.4 4.1-.3 2.5.8 4.6-1 5.5-.8.4-1.1.4-1.2.2 0 .3.2.5 1.1.1 1.7-.7 1.6-1.6 1.5-1.9-.1-.3.8 1.7-2.2 2.6-2.9.9 2.4.1 2.8-2.1.5-2.6 1.9 1.3-2.1 2.5zm91.5-7c0-.6 6.7-1.2 9.1-2.2l.3-.1c.4.3-.8 1.9-1.1 2.4-1.9 3.5-4.5 6.6-6.3 10.1-2.2-2.9-2.3-6.8-2-10.2zm-69.2 48c .3-2.2 1.7-4 2.2-6.1l.1.2c.9-2.3 1.9-4.5 3.1-6.6 1.5.5 2.8 1.6 4 2.6 1.4 1.5 13.6 8 14.1 8.2.9.1 1.5 1.1.2 1.2-3.5 2.1-18.3 1.9-18.7 1.8-1.7-.4-3.5-.5-5-1.3zm-20.9-32.2c-.1.6-.2 1.1-.3 1.5-.5-.2-1-.6-1.4-1.4-1-2.2.7-3.1.7-3.1s1.2 1.5 1 3zm9.3-26.2c-.7.2-1.7.6-2 1.6-.4 1.1-1.6 2.1-2.4 3.1.3-.7.4-1.4.2-2.1-.3-1.7 3.2-2.6 4.4-2.7-.1 0-.1.1-.2.1zm-3.9 29.5c-.3.4-.7.8-1.2 1 .5.1.9.1 1.8-1.2.2-.3 0 .6-.2 1.3-.3.8-.7 1.5-3.4.9-.1 0-.2 0-.3-.1.1-.1.1-.2.2-.3.1-.1.2-.2.3-.3-.4.1-.7.2-.9.3 0 0 0-.1 0-.1.1-1.4 2.6-.7 3.7-1.5zm-4.3-.5c-.1.2-.4.4-.9.5.2-.3.5-.4.9-.5zm3.4-4.5c.2-.5.4 1.7-.8 1.9-.8.2-1.7.6-2.5 1.3-.3-1.1.3-1.6 1.5-1.8 1.2-.1 1.4-.4 1.8-1.4z" fill="#fff"/><path clip-path="url(#SVGID_5_)" d="m209.6 86.8l-6.8 32.4c-1.8 5.9-4.5 9-8 9-2 0-3-1.4-3-4.4 0-.8.1-1.9.3-2.7l7.2-34.3h-14.5l-6.6 32.6v0c-1 2.5-2 4.6-3.7 6.3s-3.6 2.5-5.5 2.5c-2.7 0-4.5-2-5.3-5.9-.2-1-.4-2-.7-3l-.9-4.9c5.2-5.6 8.9-10.3 11.1-13.9 2.2-3.7 3.3-7.3 3.3-10.8 0-2-.6-3.9-1.8-5.6-1.2-1.7-2.7-2.6-4.7-2.6-4 0-6 1.6-6 4.8 0 3.7 1.5 5.6 4.6 5.6.7 0 1.3-.1 1.8-.2.1.3.1.7.1 1.2 0 3.8-3.2 9-9.6 15.8l-3.9-21.8h-14.2l5.7 31.3c-3.3 3.6-7.1 6.4-11.3 8.5-4.3 2-8.6 3.1-13 3.1-2.3 0-4.3-.7-6.3-2.1-2-1.4-2.8-4-2.8-7.7v-1.3c0-.5-.1-.9 0-1.4 6.3-.4 11.7-2.6 16.2-6.6 4.6-4 6.9-8.9 6.9-14.6 0-2.9-.8-5.2-2.5-7-1.7-1.7-4.8-2.6-9.5-2.6-2.8 0-5.6.6-8.2 1.9-5.1 2.3-9.2 6.2-12.2 11.7-3.7 6.8-5.6 13.7-5.8 20.6-1.6 1.3-3.6 2.6-5.9 4 .3-1.1.4-2.5.4-4s-.1-3.1-.2-4.7l-1.2-15.9c-.3-4.2-.5-9.5-.8-15.7l-14.9 2c-3.5 11.4-7.6 21.3-12.4 29.8-1.3.7-2.6 1.8-3.7 3.4-1.1 1.6-1.7 3.8-1.7 6.7 0 2.9 1.3 5.6 3.8 8.2 2.5 2.6 6.2 3.8 10.9 3.8 6.7 0 12-2 15.8-6 3.7-2.1 7-4.5 10-7.2.5 4.1 2.1 7.2 4.7 9.3 3.3 2.6 7.7 3.9 13.3 3.9 2.6 0 5.4-.3 8.2-1 9.1-2.1 16.8-6.4 23.2-12.9.6 2.5 1.3 4.7 2 6.5 1.4 3.5 3.3 5.7 5.7 6.7 1.4.6 2.9.9 4.7.9 1.7 0 3.7-.4 5.9-1.3 3.6-1.4 6.8-4 9.4-7.7.4 2.6 1.4 4.7 2.9 6.1 2.1 1.9 4.6 2.8 7.6 2.8 4.8 0 8.9-1.9 12.3-5.8l-1 4.4c-5.9 1.8-9.9 3.3-11.8 4.7-1.9 1.3-3.3 2.8-4.2 4.4-.9 1.6-1.3 3.8-1.3 6.5s1.2 5.1 3.5 7.2c2.4 2 5.4 3 9.1 3 3.7 0 6.9-1 9.8-3.1 3.9-2.9 6.5-7.7 7.7-14.1l12.3-58.4h-14.5zm-88.7 11.3c2.4-4.4 4.7-6.5 7.1-6.5 1.7 0 2.5 1.2 2.5 3.6 0 4.5-1.5 8.5-4.4 11.8s-6.4 5.1-10.2 5.2c1-5 2.7-9.7 5-14.1zm-50.4 31.9c-3.5 0-5.2-2.3-5.2-7 .4.9 1.3 1.3 2.7 1.3 1.4 0 2.4-.5 3.2-1.5s1.2-2.3 1.2-3.7c0-1.4-.8-2.5-2.3-3.2 3.7-7.2 6.4-13.5 8.1-19 .3 4.3.6 8.3.9 11.9l.6 5.7c.3 2.4.4 4.4.4 6.1 0 6.3-3.2 9.4-9.6 9.4zm126.7 15.7c-.6 2.9-1.5 5-2.6 6.1-1.1 1.1-2.2 1.7-3.3 1.7-1.1 0-2-.4-2.8-1.1s-1.2-1.5-1.2-2.2c0-2.5 1.2-4.8 3.7-6.9 1.4-1.1 3.9-2.3 7.5-3.6zm-149.5-51.7c3.3-1.9 5.8-4.2 7.5-7.1 1.7-2.9 2.5-5.8 2.5-8.8 0-4.5-1.8-8.3-5.4-11.3-3.6-3.1-8.9-4.6-15.9-4.6-9.4 0-17.9 2.7-25.4 8.1-3.4 2.5-6 5.3-8 8.5-2 3.2-3 6.5-3 10 0 1.7.2 3.1.7 4.3 1.4 3.3 4.7 4.9 10 4.9 0-.2-.1-.4-.2-.7-.8-1.4-1.2-3.5-1.2-6.1 0-5.2 1.2-9.6 3.6-13.3s5.7-6.5 9.8-8.5c1.8-.9 3.8-1.5 5.8-2s4.1-.7 6.3-.7 4.1.3 5.8.9c4.7 1.7 7.1 5 7.1 10 0 3.9-1.4 7.6-4.3 11.1-2.9 3.5-6.3 5.2-10.1 5.2h-.6l4.7-22.3-14.9 1.7-13.7 63.5h14.5l8.2-38.2c1.6-.2 3.1-.2 4.6-.2 6.3 0 9.5 4.3 9.5 12.9 0 4.6-.7 8.6-2.2 11.9-1.8 4.1-4.5 6.2-8 6.2-2.1 0-4.2-1.2-6.5-3.6-.9 2.3-1.3 4.2-1.3 5.8 0 1.6.3 2.9 1 3.8 1.6 2.5 4.5 3.7 8.8 3.7 4.3 0 7.9-1 10.7-3.1 5.4-4.1 8.8-9.8 10.4-17.2.7-3.3 1-6.2 1-8.6 0-4.1-1-7.6-2.9-10.5-1.8-3-4.8-4.9-8.9-5.7z" fill="url(#SVGID_3_)"/></svg>