<?xml version="1.0" encoding="utf-8"?>
<!-- Generator: Adobe Illustrator 21.0.2, SVG Export Plug-In . SVG Version: 6.00 Build 0)  -->
<svg version="1.1" id="Layer_1" xmlns="http://www.w3.org/2000/svg" xmlns:xlink="http://www.w3.org/1999/xlink" x="0px" y="0px"
	 viewBox="0 0 27 9.4" xml:space="preserve">
<g fill="#ffffff">
	<path d="M0,6.6v-5h1v4l-0.8,1H0z"/>
	<path d="M3.7,9.1h-1V1.5h1V9.1z"/>
	<path d="M8.1,1.4c0.9,0,1.6,0.3,2.2,1s0.8,1.6,0.8,2.9c0,0.5-0.1,1-0.2,1.5s-0.2,0.8-0.4,1.1s-0.4,0.6-0.6,0.8S9.3,9,9.1,9.1
		S8.5,9.2,8.1,9.2s-0.6,0-0.9-0.1S6.6,8.8,6.4,8.6S5.9,8.2,5.8,7.9S5.4,7.2,5.3,6.8S5.2,5.9,5.2,5.3c0-0.7,0.1-1.3,0.2-1.9
		S5.8,2.6,6,2.3l-0.8,0V1.5C6.1,1.5,7.1,1.4,8.1,1.4z M6.4,3.6C6.3,4.2,6.2,4.7,6.2,5.2s0,0.9,0.1,1.3s0.2,0.7,0.3,1S6.9,8,7.2,8.2
		s0.6,0.3,0.9,0.3s0.7-0.1,0.9-0.3s0.5-0.4,0.6-0.7c0.3-0.6,0.4-1.3,0.4-2.1c0-1.1-0.2-1.9-0.6-2.4C9.4,2.7,9.2,2.5,8.9,2.4
		S8.4,2.3,8.1,2.3l-1,0C6.8,2.6,6.6,3.1,6.4,3.6z"/>
	<path d="M12.5,6.6v-5h1v4l-0.8,1H12.5z"/>
	<path d="M16.2,1.5L17.1,5c0.1,0.5,0.3,1.5,0.7,3.1c1.1-0.4,1.8-1.5,2-3.3l0.3-3.3h1l-0.3,3.3c0,0.5-0.1,0.9-0.2,1.3
		S20.3,6.8,20.2,7s-0.3,0.5-0.5,0.7S19.3,8.2,19,8.3s-0.6,0.3-0.9,0.5S17.3,9,16.8,9.1l-2.2,0.3V8.6L17,8.3l-1.8-6.7H16.2z"/>
	<path d="M23,1.5h4v0.8l-1,3.9l-0.6,2.9h-1L25,6.2l1-3.9h-4V0h1V1.5z"/>
</g>
</svg>
