<svg enable-background="new 0 0 36.1 11" fill="#fff" viewBox="0 0 36.1 11" xmlns="http://www.w3.org/2000/svg"><path d="m0 7.7v-5.9h2.1v4.1l-1.4 1.8z"/><path d="m6.2 10.6h-2.1v-8.8h2.1z"/><path d="m11.6 1.7c1.2 0 2.1.4 2.7 1.2s1 1.9 1 3.3-.3 2.5-1 3.3-1.6 1.2-2.7 1.2-2.1-.4-2.7-1.2-1-1.9-1-3.3c0-.6.1-1.1.3-1.6s.5-.9.8-1.2v0l-.9.1v-1.6c1-.2 2.2-.2 3.5-.2zm-1.5 4.5c0 1.9.5 2.9 1.6 2.9s1.6-1 1.6-2.9-.5-2.9-1.6-2.9h-.8c-.6.8-.8 1.7-.8 2.9z"/><path d="m17 7.7v-5.9h2.1v4.1l-1.4 1.8z"/><path d="m24 5.8l.5 2.8c.4-.2.7-.6.9-1s .3-1 .4-1.7l.4-4.1h2.1l-.3 3.8c-.1.8-.2 1.5-.4 2-.7 1.6-2 2.6-4.1 3l-3 .4v-1.6l2.2-.3-1.9-7.3h2.1z"/><path d="m31.5 1.8h4.6v1.4l-1.2 4.2-.7 3.3h-2l .7-3.3 1.1-4h-4.6v-3.4h2.1z"/></svg>