<svg style="display:none;" height="0" overflow="hidden" width="0" xmlns="http://www.w3.org/2000/svg"><defs><symbol id="apartments" viewBox="0 0 42 32"><path d="m20.343 11.006l-2.328 1.486c-.42.185-.72.571-.782 1.032-.099.625.788 1.92.788 1.92-.414.224-1.565.934-2.13 1.262l-.993-.316c-.052-.014-.112-.022-.173-.022-.326 0-.601.222-.68.523l-.152 1.583c-.081.306-.355.528-.681.528-.062 0-.121-.008-.178-.023l-2.842-.755-.914 3.537-3.531-.907-1.276 4.944-3.537-.907-.743 4.326 21.71-12.782-.039-.059c-.907-1.542-1.463-3.386-1.518-5.356z" fill="#3498db"/><path d="m0 30.35c-.001.011-.001.024-.001.037 0 .365.227.677.547.802l4.201.745c.143.043.307.067.477.067.289 0 .562-.071.801-.197l19.577-11.548c-1.293-.824-2.374-1.859-3.224-3.067z" fill="#3498db"/><path d="m34.558.132c-14.044-1.802-18.706 15.589-5.628 21.053 14.024 1.828 18.686-15.589 5.628-21.053zm2.557 16.963c-2.722 1.65-5.194-.329-7.338-1.276-1.972-.868-4.215-1.269-4.911-1.059.513-.546 1.276-2.571 1.368-4.826s-.375-5.451 2.367-7.055c5.004-2.932 9.126 1.709 5.917 6.108 5.188-.677 7.561 5.122 2.597 8.107z" fill="#ea4c89"/></symbol><symbol id="arrow" viewBox="0 0 51 32"><path d="m50.565 8.268h-34.565v-8.268l-16 16 16 16v-9.178h34.565z"/></symbol><symbol id="search" viewBox="0 0 32 32"><path d="m30.992 25.379l-7.388-6.189c-.192-.192-.384-.192-.624-.192-.384 0-.624.192-.816.384-.816 1.199-1.775 2.207-2.974 2.974-.192.192-.384.384-.384.576s0 .576.192.816l6.189 7.436c.384.576 1.008.816 1.583.816.624 0 1.199-.192 1.583-.576l2.591-2.591c.384-.384.624-1.008.624-1.583.24-.864-.192-1.439-.576-1.871zm-7.82-13.769c0-6.429-5.181-11.61-11.562-11.61s-11.61 5.181-11.61 11.61 5.181 11.61 11.61 11.61c3.214 0 5.997-1.199 8.204-3.406 2.159-2.015 3.358-5.037 3.358-8.204zm-6.189 5.565c-1.391 1.391-3.406 2.399-5.613 2.399-4.414 0-7.772-3.598-7.772-8.012s3.598-7.964 7.82-7.964c4.366 0 7.772 3.598 7.772 8.012.192 2.159-.576 4.174-2.207 5.565zm-5.565-12.186c-3.79 0-6.813 2.974-6.813 6.813 0 1.008.816 1.583 1.583 1.583 1.008 0 1.583-.816 1.583-1.583 0-2.015 1.583-3.406 3.406-3.406 1.008 0 1.583-.816 1.583-1.583.432-1.199-.384-1.823-1.343-1.823z"/></symbol><symbol id="discreet" viewBox="0 0 27 32"><path d="m26.933 0h-19.6v4.133l1.2-.267v-2.6h17.2v23.667h-.733l.267 1.267h1.667z" fill="#ff0084"/><path d="m9.733 3.533l4.8-1.067h-4.8z" fill="#fff"/><path d="m24.467 2.467h-4.6l4.267 18.733h.333z" fill="#fff"/><path d="m0 6.467v0l5.867 25.533 19.133-4.4v-.067l-5.867-25.467-19.133 4.4zm6.733 24.066l-5.267-23.133 16.733-3.8 5.333 23.067-16.8 3.867z" fill="#ff0084"/><path d="m16.467 24.133c0-.267 0-.467 0-.667s0-.467 0-.733c-.067-1.867-1-2.867-2.467-3.867-.2-.133-.4-.333-.467-.6s-.067-.6-.067-.867c0-.267 0-.533.067-.8.067-.333.133-.733.2-1.133 0-.133 0-.267 0-.333 0 0 0 0 0-.067 0 0 0 0 .067.133s.2.267.2.267c.333.533.733 1 1.133 1.467.133.133.2.2.333.333.067.133.267.333.4.467.2.267.533.333.8.333.133 0 .267-.067.4-.2.2-.267.267-.6.2-.933 0-.133-.067-.333-.133-.467 0-.133 0-.267-.067-.4-.133-.667-.333-1.333-.6-2-.067-.133-.067-.267-.067-.4 0-.2-.067-.4-.067-.533-.067-.133-.133-.267-.267-.333s-.267-.133-.4-.2c-.133-.067-.267-.067-.333-.133s-.133-.067-.2-.133c-.133 0-.267 0-.4 0-.267 0-.467.067-.733.2l-.267.133-.067.067c0 0-.067 0-.067 0 .067-.133.133-.2.2-.333 0-.067 0-.067.067-.133h.067c.133 0 .333 0 .467-.067s.267-.133.4-.2c.133-.133.2-.267.2-.4 0 .133-.067.267-.2.4-.133.067-.267.133-.4.2-.133 0-.267 0-.467 0h-.067c0-.2 0-.333 0-.533 0 0 0-.067 0-.067.067-.133.133-.267.133-.4v-.067c.067.067.2.067.267.067s.2-.067.267-.067c-.067.067-.2.067-.267.067-.133-.267-.267-.4-.267-.533h-.067c0-.2-.067-.4-.133-.533-.067-.2-.133-.4-.267-.533 0-.067 0-.133 0-.2 0-.2-.133-.4-.267-.533l-.067-.067c-.067-.133-.133-.267-.2-.333-.2-.2-.4-.333-.667-.333-.067 0-.2 0-.333 0-.067-.067-.2-.133-.333-.133-.067 0-.133 0-.2 0s-.067 0-.133 0-.2 0-.267.067h-.133c-.067 0-.067.067-.133.067s-.067 0-.133 0c-.133 0-.267 0-.333.067-.133.067-.267.133-.4.2l-.4.133c-.2.067-.467.067-.667 0s-.4-.267-.533-.533c.067.267.267.467.467.533s.4.133.6.067l-.133.133c-.067.067-.133.133-.133.2l-.133-.067c-.8-.267-1.667-.533-2.267-.667-.2-.067-.333-.067-.533 0-.133.067-.2.067-.333.2-.067.067-.133.133-.133.2-.067.067-.067.2-.067.267s0 .133 0 .267c.267.733.6 1.467 1.067 2.067.267.333.533.667 1.067 1.467.267.4.467.933.533 1.4 0 .133.067.267.067.4s.067.267 0 .4c-.067.267-.133.533-.267.8-.133.333-.133.667-.067.933.067.4.333.8.733.933h.133c.067.067.067.133.067.2.2.467.4.933.6 1.4.133.267.267.467.4.733s.267.533.333.867c.067.2.333.933.4 1.067.133.267.333.6.133.8-.333.467-.533 1-.667 1.6-.133.533-.267 1.133-.333 1.667l3.133-.733c.133-.267.267-.533.4-.8 0-.067.067-.133.133-.133.067.267.133.533.133.867l2.533-.6c.333-.133.267-.2.267-.333zm-2.067-11.266c.067 0 .133 0 .2-.067.067 0 .133 0 .133.067-.133 0-.267.067-.267.133s.2.2.333.2.333-.067.467-.067c.067 0 .067 0 .133.067h.133c.067 0 .133 0 .2 0 0 .067 0 .2 0 .267.067.667.067 1.2.067 1.8-.067 0-.067-.067-.133-.133-.333-.467-.4-.533-.933-1.333-.133-.267-.4-.6-.6-.867v0c .067 0 .133-.067.2-.133h.067zm-.333-.2c.067-.067.2-.133.267-.067 0 0-.067 0-.133.067s-.2.2-.267.2c0 0-.067-.067-.067-.067.067-.067.133-.133.2-.133zm-5.934-2.134c-.067-.2-.133-.333-.133-.533 0 .133 0 .333.133.533-.2-.333-.333-.533-.533-.8.267 0 .467.067.8.067l.4.067h.133c0 .133 0 .267 0 .4-.067.067-.067.133-.133.133-.067.067-.133.2-.133.333-.067 0-.2-.067-.267-.067-.133-.133-.2-.267-.267-.4 0 .2.067.333.2.467.067.067.133.133.267.133v.067l-.067.133h-.067c-.133-.267-.267-.4-.333-.533zm.667.8c-.067.133-.067.067-.133 0l-.133-.2v-.067c.133.067.2.067.333.067 0 .133 0 .2-.067.2zm.133-.333c-.067 0-.2 0-.267 0l .067-.067.067-.133h.2zm.2-1l-.133.133c0-.133 0-.2.067-.333.067 0 .067 0 .133 0s-.067.2-.067.2zm4.734.667c0 .067 0 .067 0 .133 0 .133-.067.267-.067.333 0-.067 0-.133 0-.2 0-.133-.067-.267-.133-.4 0-.067 0-.067 0-.133.067.133.133.2.2.267zm-.134-.534c.067.067.067.2.067.267 0-.067-.067-.133-.067-.267zm-.266 1.467c0-.067-.067-.067-.067-.133-.067-.133-.067-.133-.067-.2v-.067l.067.067v.067c.067.133.067.2.133.333v.067l-.067-.067c0 0 0-.067 0-.067zm0 .267c-.067.133-.133.2-.2.267 0-.133 0-.2.067-.333 0-.067 0-.067 0-.133 0 0 .067.067.067.067l.067.133zm-.934-3.4c-.067-.067-.067-.067-.133-.133.2 0 .4.067.533.133.067.067.133.133.2.2-.2-.067-.333-.2-.6-.2zm.667.466v0c .067.133.133.2.133.333 0-.067 0-.133 0-.2.067.067.133.2.2.333 0 0 0 .067 0 .067l-.2-.2c0 0 0 0 0 0l-.133-.067c-.067-.133-.133-.2-.267-.333.133 0 .2.067.267.067zm.067 3.667v0c0 .067 0-.067 0-.133s0 0 .067 0l .067.067-.133.067zm.066-.4l.133-.067c.067-.067.133-.133.133-.2 0 0 0 .067 0 .067-.067.133-.067.2-.133.267v0zm .134.333l.067-.067c0 0-.067.067-.067.067z" fill="#fff"/></symbol><symbol id="calls" viewBox="0 0 32 32"><path d="m26.56 5.44c-2.672-2.71-6.13-4.639-10.003-5.419-.183-.032-.25-.038-.319-.038-.601 0-1.088.487-1.088 1.088 0 .023.001.046.002.069v-.003c.036.496.399.897.873.991 3.553.705 6.623 2.408 8.998 4.8 2.395 2.377 4.097 5.447 4.783 8.883.113.591.515.954 1.007.99h.004c.02.001.042.002.065.002.601 0 1.088-.487 1.088-1.088 0-.069-.006-.136-.018-.201-.795-3.969-2.707-7.408-5.39-10.072z"/><path d="m15.456 5.664v0c .04.462.362.839.792.958 4.396 1.33 7.783 4.717 9.087 9.01.146.533.523.856.981.895h.004c.021.002.046.002.071.002.601 0 1.088-.487 1.088-1.088 0-.103-.014-.203-.041-.298-1.535-5.113-5.486-9.064-10.495-10.572-.198-.054-.298-.068-.401-.068-.601 0-1.088.487-1.088 1.088 0 .025.001.05.003.075z"/><path d="m15.792 10.4v0c .034.398.277.731.617.893 1.878.938 3.36 2.419 4.27 4.237.189.401.523.644.917.678h.004c.038.005.082.008.127.008.592 0 1.072-.48 1.072-1.072 0-.197-.053-.382-.146-.541-1.148-2.328-2.992-4.172-5.258-5.293-.206-.1-.37-.142-.543-.142-.592 0-1.072.48-1.072 1.072 0 .056.004.112.013.165z"/><path d="m8 24c7.392 7.392 16.528 10.272 20.96 5.84.58-.565 1.062-1.226 1.422-1.958.157-.335.238-.678.238-1.041 0-.127-.01-.252-.029-.374l-.302-1.954c-.15-.924-.82-1.658-1.695-1.9l-5.729-1.604c-.186-.053-.401-.084-.622-.084-.651 0-1.24.264-1.666.692l-1.6 1.6c-.27.272-.644.441-1.057.441-.317 0-.611-.099-.852-.268-1.697-1.203-3.192-2.469-4.57-3.852-1.418-1.367-2.709-2.841-3.87-4.418-.237-.334-.338-.631-.338-.952 0-.409.165-.779.431-1.048l1.6-1.6c.427-.426.692-1.015.692-1.666 0-.221-.031-.436-.088-.639l-1.596-5.695c-.229-.878-.93-1.547-1.809-1.725l-1.983-.323c-.143-.031-.308-.048-.477-.048-.324 0-.633.065-.915.182-.783.362-1.466.84-2.049 1.419-4.432 4.512-1.552 13.632 5.904 20.976z"/></symbol><symbol id="massage" viewBox="0 0 28 32"><path d="m1.057 32h9.463c0 0 .001 0 .001 0 .25 0 .48-.087.662-.233l2.639-2.105c.158-.127.36-.204.581-.205h12.949c.514 0 .931-.417.931-.931v-5.012c0-.514-.417-.931-.931-.931h-13.167c-.239 0-.457.09-.622.238l-5.52 4.965c-.186.168-.434.271-.706.271 0 0 0 0 0 0h-6.28c-.584 0-1.057.473-1.057 1.057 0 0 0 0 0 0v1.829c0 .584.473 1.057 1.057 1.057z" fill="#3498db"/><path d="m9.317 21.969c0 2.086-1.691 3.777-3.777 3.777s-3.777-1.691-3.777-3.777c0-2.086 1.691-3.777 3.777-3.777s3.777 1.691 3.777 3.777z" fill="#3498db"/><path d="m23.026 8.71c-.102-.013-.219-.02-.339-.02-.823 0-1.564.35-2.083.91l-7.265 7.86c-.2.22-.323.513-.323.835s.123.616.324.836l.547.613c.228.256.559.416.928.416.255 0 .491-.077.688-.208l4.129-2.705v3.302h7.482c.517-.002.935-.421.935-.938 0-.049-.004-.097-.011-.144-.422-3.453-1.437-6.593-2.943-9.432-.361-.646-1.139-1.203-2.054-1.324z" fill="#ea4c89"/><path d="m16.812.753c.092-.04 4.253-2.437 7.178 1.565s3.262 9.377 3.262 9.377c-1.004-2.463-2.159-4.741-4.695-5.283l-2.126-.277z" fill="#ea4c89"/><path d="m22.802 4.431c0 2.254-1.827 4.081-4.081 4.081s-4.081-1.827-4.081-4.081c0-2.254 1.827-4.081 4.081-4.081s4.081 1.827 4.081 4.081z" fill="#ea4c89"/></symbol><symbol id="escort" viewBox="0 0 52 32"><path d="m13.607 3.286c1.878-1.865 4.465-3.017 7.322-3.017 2.917 0 5.553 1.201 7.44 3.136 1.925 1.92 3.115 4.573 3.115 7.503 0 2.87-1.141 5.473-2.994 7.38-1.876 1.862-4.463 3.015-7.32 3.015-2.917 0-5.553-1.201-7.44-3.136-1.925-1.92-3.115-4.573-3.115-7.503 0-2.87 1.141-5.473 2.994-7.38zm2.593 2.614c-1.188 1.233-1.919 2.913-1.919 4.763 0 1.911.78 3.64 2.04 4.886 1.228 1.27 2.947 2.058 4.85 2.058 1.843 0 3.513-.739 4.73-1.937 1.187-1.232 1.918-2.912 1.918-4.763 0-1.911-.78-3.64-2.04-4.886-1.228-1.27-2.947-2.058-4.85-2.058-1.843 0-3.513.739-4.73 1.937z" fill="#ff0084"/><path d="m0 17.229l14.657 14.771 3.121-3.143-14.657-14.771z" fill="#ff0084"/><path d="m13.979 14.514l-13.557 13.657 3.379 3.4 13.557-13.664z" fill="#ff0084"/><path d="m37.907 17.857c-1.89 1.937-4.526 3.139-7.442 3.139-2.857 0-5.444-1.152-7.323-3.018-1.85-1.904-2.991-4.508-2.991-7.377 0-2.93 1.19-5.583 3.113-7.501 1.89-1.937 4.526-3.139 7.443-3.139 2.857 0 5.444 1.152 7.323 3.018 1.85 1.904 2.991 4.508 2.991 7.377 0 2.93-1.19 5.583-3.113 7.501zm-12.05-12.143c-1.277 1.249-2.069 2.989-2.069 4.915 0 1.854.734 3.537 1.928 4.773 1.214 1.195 2.884 1.934 4.727 1.934 1.903 0 3.622-.788 4.848-2.056 1.262-1.248 2.042-2.977 2.042-4.888 0-1.851-.731-3.53-1.921-4.766-1.213-1.186-2.877-1.92-4.712-1.92-1.896 0-3.609.782-4.834 2.042z" fill="#3498db"/><path d="m37.657 14.243l12.779 12.879.307 1.257-2.407 2.429-1.179-.2-12.871-12.964 3.371-3.4z" fill="#3498db"/><path d="m51.907 32l-12.15-2.743 9.429-9.5z" fill="#3498db"/><path d="m18.45 4.421c.726-.286 1.566-.452 2.445-.452 1.912 0 3.642.785 4.882 2.051 1.26 1.263 2.039 3.006 2.039 4.93 0 .643-.087 1.265-.25 1.856 1.511-.023 2.742 1.095 2.945 2.542.61-1.284.964-2.806.964-4.412 0-2.936-1.186-5.595-3.106-7.523-1.903-1.934-4.549-3.133-7.476-3.133-1.288 0-2.521.232-3.661.657.828.642 1.303 1.612 1.303 2.693 0 .28-.032.553-.092.815z" fill="#ff0084"/></symbol><symbol id="forum" viewBox="0 0 39 32"><path d="m35.13 31.822c.112-.118.181-.278.181-.455 0-.122-.033-.236-.091-.334l-2.204-4.56h3.09c1.579-.015 2.853-1.298 2.853-2.879 0 0 0 0 0 0v-13.075c0-.002 0-.004 0-.007 0-1.59-1.289-2.879-2.879-2.879-.002 0-.005 0-.007 0h-7.171v8.32c-.004 3.025-2.455 5.477-5.48 5.481h-8.539l-2.219 1.479v.66c0 1.594 1.292 2.886 2.886 2.886h9.331l9.456 5.435c.099.062.219.099.348.099.171 0 .327-.065.445-.172z" fill="#ea4c89"/><path d="m2.886 18.839h3.057l-2.252 4.576c-.049.09-.078.197-.078.311 0 .365.296.66.66.66.129 0 .249-.037.351-.101l9.5-5.446h9.298c1.594 0 2.886-1.292 2.886-2.886v-13.068c0-1.594-1.292-2.886-2.886-2.886h-20.537c-1.594 0-2.886 1.292-2.886 2.886v13.068c0 1.594 1.292 2.886 2.886 2.886s2.886-1.292 2.886-2.886c0-1.594-1.292-2.886-2.886-2.886s-2.886 1.292-2.886 2.886c0 1.594 1.292 2.886 2.886 2.886z" fill="#3498db"/><path d="m21.065 9.416c0 1.193-.967 2.159-2.159 2.159s-2.159-.967-2.159-2.159c0-1.193.967-2.159 2.159-2.159s2.159.967 2.159 2.159z" fill="#fff"/><path d="m15.313 9.416c0 1.193-.967 2.159-2.159 2.159s-2.159-.967-2.159-2.159c0-1.193.967-2.159 2.159-2.159s2.159.967 2.159 2.159z" fill="#fff"/><path d="m7.402 7.264c.002 0 .004 0 .007 0 1.193 0 2.159.967 2.159 2.159s-.967 2.159-2.159 2.159c-1.193 0-2.159-.967-2.159-2.159 0-.002 0-.004 0-.007 0-1.189.964-2.153 2.153-2.153 0 0 0 0 0 0z" fill="#fff"/></symbol><symbol id="gallery" viewBox="0 0 32 32"><path d="m16 32c-8.837 0-16-7.163-16-16s7.163-16 16-16c8.837 0 16 7.163 16 16-.011 8.832-7.168 15.989-15.999 16zm0-31.03c-8.301 0-15.03 6.729-15.03 15.03s6.729 15.03 15.03 15.03c8.301 0 15.03-6.729 15.03-15.03-.011-8.297-6.734-15.019-15.029-15.03z"/><path d="m14.41 8.233h-5.818c-.464.016-.835.396-.835.863 0 .014 0 .028.001.041v5.186c-.001.012-.001.026-.001.041 0 .457.354.83.803.861h5.821c.451-.031.806-.405.806-.861 0-.014 0-.029-.001-.043v-5.186c.001-.013.001-.028.001-.043 0-.446-.339-.813-.773-.858z"/><path d="m23.457 8.233h-5.818c-.451.031-.806.405-.806.861 0 .014 0 .029.001.043v5.186c-.001.012-.001.026-.001.041 0 .457.354.83.803.861h5.821c.451-.031.806-.405.806-.861 0-.014 0-.029-.001-.043v-5.186c.001-.012.001-.026.001-.041 0-.457-.354-.83-.803-.861z"/><path d="m14.41 16.766h-5.818c-.451.031-.806.405-.806.861 0 .014 0 .029.001.043v5.186c-.001.012-.001.026-.001.041 0 .456.354.83.803.861h5.821c.451-.031.806-.405.806-.861 0-.014 0-.029-.001-.043v-5.186c.001-.012.001-.026.001-.041 0-.456-.354-.83-.803-.861z"/><path d="m23.457 16.766h-5.818c-.451.031-.806.405-.806.861 0 .014 0 .029.001.043v5.186c-.001.012-.001.026-.001.041 0 .456.354.83.803.861h5.821c.451-.031.806-.405.806-.861 0-.014 0-.029-.001-.043v-5.186c.001-.012.001-.026.001-.041 0-.456-.354-.83-.803-.861z"/></symbol><symbol id="gays" viewBox="0 0 33 32"><path d="m23.039 20.259l9.014 8.697.165.508-1.935 1.869-.475-.046-9.099-8.782 2.331-2.245z" fill="#3498db"/><path d="m32.872 32l-8.38-1.816 6.504-6.28 1.875 8.096z" fill="#3498db"/><path d="m9.832 11.741l-8.967-8.657-.158-.594 1.974-1.908.317.066 9.165 8.849-2.331 2.245z" fill="#3498db"/><path d="m0 0l8.386 1.816-6.504 6.28z" fill="#3498db"/><path d="m23.297 12.837c-.296-.282-.619-.541-.965-.77.157.595.263 1.297.265 2.024-.003.609-.077 1.198-.215 1.763.28.505.437 1.158.437 1.849 0 1.278-.539 2.43-1.401 3.242-.871.833-2.051 1.345-3.351 1.345-.81 0-1.574-.199-2.245-.55l.027.013-.132-.079c-.331-.194-.617-.412-.873-.661-.136-.133-.263-.275-.381-.425l-.106-.115c-.099-.129-.197-.276-.286-.429l-.011-.02c-.22-.381-.387-.824-.478-1.294l-.163-.747h.092c0-.006 0-.013 0-.021 0-1.29.539-2.454 1.405-3.279.873-.828 2.053-1.336 3.352-1.336.127 0 .253.005.378.014-.179-.725-.54-1.348-1.039-1.829-.196-.187-.412-.352-.645-.494-1.514.277-2.813.98-3.828 1.973-.954.911-1.651 2.088-1.97 3.411-.12.501-.185 1.022-.188 1.558 0 .042 0 .081 0 .121.004.269.023.53.056.786l-.004.138c.063.298.131.546.212.788l.025.084c.356 1.128.964 2.09 1.761 2.857 1.321 1.238 3.099 1.997 5.055 1.997 1.996 0 3.808-.791 5.138-2.076 1.321-1.241 2.146-3.002 2.146-4.955 0-1.915-.792-3.645-2.067-4.88z" fill="#3498db"/><path d="m10.275 17.908c.003-.608.077-1.197.215-1.762-.28-.505-.437-1.158-.437-1.849 0-1.278.539-2.43 1.401-3.242.872-.84 2.057-1.356 3.363-1.356.824 0 1.599.205 2.278.568l.014-.013c.365.201.679.433.959.701.814.8 1.32 1.914 1.32 3.147 0 1.274-.541 2.423-1.405 3.228-.873.829-2.052 1.337-3.35 1.337-.128 0-.255-.005-.38-.015.179.725.54 1.348 1.039 1.829.196.186.412.352.645.493 1.519-.274 2.823-.978 3.842-1.973 1.296-1.238 2.102-2.982 2.102-4.914 0-1.896-.777-3.611-2.03-4.844-1.319-1.237-3.098-1.996-5.054-1.996-1.996 0-3.808.791-5.138 2.076-1.319 1.241-2.142 3-2.142 4.952 0 1.91.788 3.636 2.057 4.87.298.292.622.557.968.791-.159-.597-.265-1.302-.266-2.031z" fill="#3498db"/></symbol><symbol id="phone" viewBox="0 0 32 32"><path d="m6.163 11.955c.07.947.877 5.184 4.851 9.165s8.275 4.864 9.222 4.934c2.912.307 4.851-1.28 5.587-3.84.035-.119.055-.255.055-.396 0-.569-.326-1.062-.802-1.303l-3.208-1.629c-.191-.099-.417-.157-.656-.157-.401 0-.764.163-1.027.425l-1.92 1.92s-1.619-.122-4.723-3.2-3.2-4.723-3.2-4.723l1.958-1.958c.264-.263.428-.627.428-1.03 0-.221-.049-.43-.137-.617l-1.276-2.743c-.232-.508-.735-.856-1.32-.856-.164 0-.322.027-.469.078-2.403.829-3.67 3.056-3.363 5.93zm9.837-11.955c8.837 0 16 7.163 16 16s-7.163 16-16 16c-8.837 0-16-7.163-16-16s7.163-16 16-16z"/></symbol><symbol id="porn" viewBox="0 0 29 32"><path d="m28.903 27.444l-1.922-14.587c-.025-.182-.18-.32-.366-.32-.017 0-.035.001-.052.004l-23.262 3.064c-.182.025-.32.18-.32.366 0 .017.001.035.004.052l1.928 14.578c.105.794.777 1.401 1.592 1.401.074 0 .148-.005.219-.015l20.799-2.739c.791-.108 1.394-.779 1.394-1.591 0-.075-.005-.148-.015-.22zm-19.592-.575l-1.255-1.981-.66 2.265-1.882.258 1.373-3.883-2.166-3.057 2.027-.277 1.03 1.644.555-1.862 1.875-.258-1.248 3.473 2.357 3.361zm8.769-.29l-2.027-2.549h-.053l-1.268 2.998-3.216.442 2.549-5.151-3.454-3.83 3.467-.475 1.664 2.093h.053l1.05-2.463 3.203-.436-2.311 4.622 3.83 4.266zm7.224-1.896l-1.255-1.981-.66 2.265-1.882.258 1.373-3.883-2.126-3.005 2.027-.277.991 1.624.575-1.856 1.875-.258-1.248 3.473 2.364 3.388z" fill="#3498db"/><path d="m21.494 11.358l-.561 3.44 3.084-.409.555-3.44-3.077.409z" fill="#ea4c89"/><path d="m15.333 12.17l-.561 3.44 3.084-.409.555-3.44-3.077.409z" fill="#ea4c89"/><path d="m9.172 12.982l-.555 3.434 3.077-.403.555-3.44z" fill="#ea4c89"/><path d="m27.965 10.506l-.317.04-.575 3.44 1.321-.172c.182-.025.32-.18.32-.366 0-.017-.001-.035-.004-.052l-.317-2.573c-.024-.183-.179-.322-.367-.322-.022 0-.044.002-.065.006z" fill="#ea4c89"/><path d="m1.4 14.006c-.182.025-.32.18-.32.366 0 .017.001.035.004.052l.337 2.573c.025.182.18.32.366.32.017 0 .035-.001.052-.004l3.696-.488.555-3.44z" fill="#ea4c89"/><path d="m6.095 13.385l-.561 3.44 3.084-.409.555-3.434-3.077.403z" fill="#fff"/><path d="m12.249 12.573l-.555 3.44 3.077-.403.561-3.44-3.084.403z" fill="#fff"/><path d="m18.41 11.761l-.555 3.44 3.077-.403.561-3.44-3.084.403z" fill="#fff"/><path d="m24.571 10.948l-.555 3.44 3.077-.403.555-3.44z" fill="#fff"/><path d="m12.091 5.567l2.252 2.661 2.846-1.241-2.252-2.661z" fill="#ea4c89"/><path d="m6.392 8.05l2.252 2.655 2.853-1.235-2.252-2.661z" fill="#ea4c89"/><path d="m .225 10.737c-.147.051-.251.188-.251.35 0 .05.01.097.028.141l1.036 2.375c.058.132.188.223.339.223.054 0 .105-.012.152-.032l4.237-1.848-2.252-2.641z" fill="#ea4c89"/><path d="m24.789 0l-1.241.575 2.252 2.641.324-.139c.132-.058.223-.188.223-.339 0-.054-.012-.105-.032-.152l-1.036-2.362c-.051-.147-.188-.251-.35-.251-.05 0-.097.01-.141.028z" fill="#ea4c89"/><path d="m17.783 3.084l2.252 2.661 2.919-1.274-2.252-2.655z" fill="#ea4c89"/><path d="m20.702 1.816l2.252 2.655 2.846-1.241-2.252-2.655z" fill="#fff"/><path d="m14.937 4.325l2.252 2.661 2.846-1.241-2.252-2.661z" fill="#fff"/><path d="m9.245 6.808l2.252 2.661 2.846-1.241-2.252-2.661z" fill="#fff"/><path d="m3.546 9.284l2.252 2.661 2.846-1.241-2.252-2.655z" fill="#fff"/><path d="m1.644 11.708c-.258.033-.442.211-.416.396l.541 4.12c0 .185.251.31.502.277l2.879-.376c.258-.033.442-.211.416-.396l-.284-2.067-1.981-2.166z"/><path d="m2.699 12.443c.037.282-.161.541-.443.578s-.541-.161-.578-.443c-.037-.282.161-.541.443-.578s.541.161.578.443z" fill="#fff"/><path d="m2.365 12.481c.012.094-.054.18-.148.193s-.18-.054-.193-.148c-.012-.094.054-.18.148-.193s.18.054.193.148z"/><path d="m3.105 15.527c.037.282-.161.541-.443.578s-.541-.161-.578-.443c-.037-.282.161-.541.443-.578s.541.161.578.443z" fill="#fff"/><path d="m2.764 15.565c.012.094-.054.18-.148.193s-.18-.054-.193-.148c-.012-.094.054-.18.148-.193s.18.054.193.148z"/><path d="m5.158 15.254c.037.282-.161.541-.443.578s-.541-.161-.578-.443c-.037-.282.161-.541.443-.578s.541.161.578.443z" fill="#fff"/><path d="m4.818 15.299c.012.094-.054.18-.148.193s-.18-.054-.193-.148c-.012-.094.054-.18.148-.193s.18.054.193.148z"/></symbol><symbol id="private" viewBox="0 0 32 32"><path d="m21.719 9.905c-.271-.508-1.116-2.093-1.4-2.641-.289-.577-.583-1.066-.91-1.529l-.048-.029s0-.066-.053-.099-.145-.132-.218-.205-.277-.284-.429-.423c-.093-.078-.175-.162-.248-.254.055-.111.105-.237.14-.368l.049-.138s0 0 .046 0-.053.079 0 .106l.046-.079c-.046.145-.116.27-.206.378.159-.16.273-.362.323-.588.023-.065.046-.137.065-.212.003.138-.056.296-.089.448.154-.378.26-.815.296-1.272.01-.091.014-.179.014-.268 0-.235-.034-.461-.097-.675-.088-.27-.211-.519-.365-.746-.12-.364-.297-.688-.521-.975-.043-.051-.095-.102-.151-.15-.039-.037-.083-.066-.131-.086-.071-.044-.15-.078-.235-.099-.085-.001-.177-.001-.263-.001h-.132c-.046-.004-.101-.006-.155-.006s-.109.002-.162.006c-.066 0-.145 0-.217 0-.125.012-.237.055-.333.12-.057.045-.13.084-.183.131-.427.48-.716 1.092-.797 1.767-.049.233-.086.495-.106.762-.005.068-.007.125-.007.181s.002.113.006.169 0 .065 0 .111 0 .244.053.357 0 .112.046.172c.049.322.165.61.335.859-.084-.17-.143-.36-.169-.559l.078.096c.025.041.049.075.074.108.06.14.155.258.273.346-.059-.073-.106-.161-.135-.257s.051-.005.051-.038.073.073.125.099c.053.056.12.099.195.125-.047-.032-.089-.074-.121-.123l.058-.002c.046 0 .092 0 .106 0 .001.02.002.043.002.066s-.001.046-.002.069l-.132-.003c-.114.035-.253.065-.395.084-.107.002-.22.002-.286.002h-.132c-.088.008-.169.034-.241.074-.072.034-.134.085-.181.149l-.001.001c-.038.044-.071.094-.097.148-.043.072-.074.153-.087.238-.002.024-.003.047-.003.07s.001.046.002.069c0 .083 0 .169 0 .254s0 .165 0 .244 0 .158 0 .192-.132.145-.191.191c-.434.298-.812.624-1.152.987-.125.168-.197.375-.197.599 0 .075.008.147.023.217.104.378.393.678.763.797s.008.154.008.24c.013.247.036.474.071.698.028.293.068.623.081.874 0 .079 0 .178 0 .244 0 .218 0 .416 0 .66s0 .66 0 .944c.011.121.017.261.017.402 0 .512-.081 1.005-.231 1.467.009.039-.057.112-.09.184-.129.201-.231.435-.294.684-.003.128.043.175.056.168-.044.198-.069.425-.069.658 0 .113.006.224.017.333-.001.132-.001.383-.001.449s0 .218.073.224c-.013.106-.031.2-.056.291-.208 1.036-.367 2.106-.479 3.222 0 .205-.04.409-.066.614-.032.177-.056.389-.066.603.015.218.07.409.155.581.046.107.108.207.182.297.097.121.198.231.307.333l.048.002c.079.073.152.165.225.244.306.311.591.645.853.998.335.488.679.943.989 1.432.172.297.337.601.515.905.066.093.12.2.156.315-.005.126-.023.237-.053.343.003.101.003.214-.05.313s-.053.205-.073.304-.092.324-.119.489 0 .396 0 .594-.059.145 0 .271.059.046.066.132-.066.079-.066.132c0 .264.099.588-.132.819 0 0-.092 0-.125.04s-.04.086-.066.119c-.152.165-.324.244-.423.449-.017.029-.035.063-.05.099-.003.04-.003.079-.003.106s-.092.086-.106.132c-.002.021-.003.045-.003.069s.001.049.003.072c-.004.02-.007.046-.007.073s.002.053.007.079.092.07.158.096c.196.067.421.109.656.119.559 0 1.061 0 1.286-.462 0 0 .046-.152.073-.158s.04 0 .073 0c .145.04.106-.073.106-.185s0-.277 0-.442 0-.304.046-.429c.037-.17.089-.32.157-.461s.034.065.041.078c-.001.011-.001.024-.001.036s0 .025.001.038.04-.002.066-.002l.053.053c.046.033.145.073.178.119s0 .125 0 .185.125.092.125.192c0 .244-.264.462-.35.66 0 .04 0 .092 0 .132s-.079.046-.106.073c-.033.027-.058.063-.072.104 0 .055 0 .114 0 .134s-.053.046-.073.066-.059.04-.066.086c.013.058.036.109.067.153.058.111.098.15.224.157.006 0 .013 0 .021 0 .133 0 .26-.027.375-.075.766-.242 1.314-.698 1.275-1.516 0-.198-.053-.376-.086-.621 0-.099 0-.165-.046-.31s-.046-.297 0-.324 0 0 .053 0 .053.04.086.086c.152.218.291.489.409.7s.304.508.429.766c0 0 0 .046 0 .066s.073.046.132 0 .073-.04.073-.073-.079-.125-.106-.172c-.099-.178-.192-.376-.304-.581-.183-.33-.372-.73-.536-1.142-.063-.168-.097-.283-.122-.402-.016-.149-.047-.272-.092-.387.003-.05-.089-.056-.129-.096s-.046-.092-.073-.132c-.085-.102-.204-.172-.34-.191-.079-.015-.167-.024-.257-.024s-.178.009-.263.025c-.024-.001-.123.051-.15.045s-.132-.244-.172-.33c-.099-.211-.218-.423-.304-.621-.021-.043-.039-.094-.052-.146.014-.067.032-.12.054-.17.116-.384.235-.833.374-1.169.084-.184.16-.404.218-.632.052-.229.085-.464.098-.704.004-.074.006-.147.006-.221 0-.421-.07-.826-.199-1.203-.038-.119-.091-.258-.144-.403-.061-.216-.096-.463-.096-.719 0-.084.004-.167.011-.249.008-.216.032-.43.069-.638.075-.421.161-.843.24-1.293.112-.581.238-1.169.31-1.75.042-.343.095-.639.163-.929.055-.22.134-.491.193-.768.164-.496.259-1.067.259-1.661 0-.043 0-.086-.002-.129-.017-.169-.064-.331-.136-.477l-.043-.137c0-.04-.066-.092-.066-.119s.106-.092.172-.139c.449-.33 2.179-1.321 2.602-1.902.043-.059.082-.126.116-.197.003-.047.003-.1.003-.14.033-.092.052-.199.053-.31-.005-.181-.049-.351-.122-.503zm-5.138 13.715c-.053 0-.073-.106-.106-.158l-.099-.158c-.102-.169-.211-.316-.333-.452l-.097-.096c-.091-.102-.19-.194-.299-.274-.131-.09-.296-.175-.448-.274-.167-.084-.291-.232-.342-.411-.003-.023-.004-.044-.004-.065 0-.103.026-.201.071-.286.329-.532.243-.888.87-2.539 0 0 0 0 0 0s0 0 0 0c0 .01 0 .021 0 .032 0 .89.145 1.747.413 2.547-.016.029.043.115.056.201s.073.35.132.528.053.165.073.244c.073.298.116.64.116.991 0 .06-.001.12-.004.18zm1.823-19.229c.003.037.005.079.005.122s-.002.086-.005.128c-.048-.061-.084-.127-.105-.2.039-.012.075-.028.106-.05zm.548-1.32s0 0 0 .046c-.002-.005-.004-.012-.006-.018zm0 8.841c-.117.106-.244.208-.377.302-.085.055-.171.094-.204.061-.053-.071-.104-.151-.147-.235-.15-.234-.407-.478-.566-.729-.079-.141-.125-.309-.125-.487 0-.04.002-.08.007-.118.012-.082.028-.158.049-.232.117-.507.283-.963.496-1.391.175-.34.433-.624.604-1.06.04-.092.079-.172.132-.258v0c .059 0 .119.112.152.152l.066.073c.163.216.327.462.476.717l.211.392c.27.502.57.934.912 1.33-.463.196-1.143 1.067-1.658 1.51z" fill="#fff"/><path d="m12.467 5.593c-.082.104-.195.179-.326.21-.061.014-.126.021-.192.021s-.132-.008-.194-.022c.01-.04.013-.087.013-.134s-.003-.095-.008-.141c.001-.003.001-.012.001-.022 0-.126-.017-.249-.049-.365l.174-.063-.172.073c-.04-.141-.091-.264-.156-.378-.071-.111-.154-.215-.247-.309l-.086-.125h.053c.257-.104.466-.283.604-.51-.169.172-.396.295-.65.337-.007-.085.046-.171.066-.263.016-.074.026-.159.026-.247 0-.313-.12-.598-.317-.811l-.072-.072-.04-.033-.158-.106c0-.046 0-.099-.046-.145-.099-.299-.276-.55-.506-.737-.082-.08-.174-.146-.274-.198-.054-.053-.106-.099-.161-.139-.232-.234-.54-.387-.883-.418-.061-.011-.125-.018-.19-.018s-.129.006-.191.018c-.034-.009-.081-.014-.129-.014s-.095.005-.14.014c-.194.026-.368.112-.505.238-.084-.026-.18-.041-.281-.041-.013 0-.025 0-.037.001-.088.004-.171.026-.247.061-.073.036-.139.084-.194.143-.094.103-.163.23-.197.371-.089.047-.162.089-.233.136-.157.09-.294.214-.4.362-.107.145-.173.32-.181.51.029-.178.109-.336.225-.461.119-.12.265-.215.427-.274l.114-.003c-.002.031-.003.066-.003.102s.001.072.003.107c-.169.102-.311.234-.426.387-.158.188-.274.41-.337.653-.017.074-.025.146-.025.22s.008.146.023.215c-.069.068-.148.131-.234.182-.104.059-.22.097-.345.108.019.002.045.003.071.003.111 0 .217-.021.315-.058.087-.04.168-.091.24-.151l-.002.067c.058.13.138.24.237.329-.002.036-.004.078-.004.12s.002.083.005.124c0-.005 0-.004 0-.003 0 .098.012.192.035.283-.112.092-.244.169-.391.215.148-.028.286-.088.405-.172.03.118.078.219.138.31-.026.078-.051.146-.08.212-.038.057-.08.115-.124.171-.133-.055-.251-.115-.36-.186-.27-.14-.494-.351-.649-.609.14.268.349.491.603.649.1.066.206.124.318.171-.074.103-.169.19-.273.265-.196.147-.437.234-.698.235.035.004.075.006.116.006.228 0 .441-.063.623-.174.138-.079.261-.173.371-.281l.171.047c.004.131.038.253.095.361.037.072.076.137.12.198l-.413.279c-.357.258-.66.541-1.037.812-.548.429-1.572 1.195-.713 1.895s1.902.872 2.839 1.321c.145.073.396.165.561.258-.142.591-.369 1.111-.672 1.578-.193.251-.952.687-1.309 1.063-1.373 1.605-.224 2.879.33 3.203.017 1.771.184 3.491.49 5.163-.913.199-2.101 1.177-2.821 1.507-.061.035-.131.064-.205.084-.053.002-.079-.084-.112-.117-.155-.183-.356-.322-.585-.4-.041-.01-.078-.014-.115-.014s-.074.004-.109.012-.05.032-.083.032-.066 0-.092 0c-.089.031-.164.081-.224.145-.099.089-.207.174-.32.251-.558.321-1.231.655-1.923.953-.121.114-.101.169-.073.22s1.418-.611 1.57-.664h.059c.053 0 .224-.046.251 0s-.112.192-.139.224c-.152.178-.403.403-.541.541-.258.258-.66.581-.66.957.146.545.373 1.023.67 1.448.027.044.071.094.121.136.105-.013.198-.055.272-.119-.001-.046-.001-.092-.034-.131l-.046-.119c.106-.059.185-.112.178-.238s-.04-.086-.033-.119.092-.192.099-.31c-.009-.05-.014-.107-.014-.165s.005-.115.014-.171c.032-.08.118-.093.164-.159s0-.033 0-.046.178 0 .244-.053 0-.079.066-.106.086 0 .139 0 0-.046 0-.086h.073s.04 0 .059.033c.011.003.023.005.035.005.049 0 .092-.025.116-.063s0-.001 0-.034c.01-.006.023-.01.036-.01s.026.004.037.01 0 0 0 0 .079 0 .119 0v0l .099-.04h.376c.106 0 .145-.086.238-.139s.205-.033.165-.178c0 0-.033 0 0-.046.082-.058.175-.113.272-.16.296-.163.599-.342.883-.48.436-.205.865-.357 1.274-.522-.013.163-.02.353-.02.545s.007.382.021.57c.131.952.56 2.445.586 2.933.011.099.017.214.017.33s-.006.231-.018.344c-.738.072-.765.541-.765.732-.032.02-.054.053-.059.092.019.15.061.286.122.411.158.714.252 1.544.254 2.395.025.01.053.016.083.016s.058-.005.084-.015-.061-1.492-.035-1.763c0-.119.046-.165.152-.073.159.228.305.489.424.763.229.531.295.961.731 1.06.161.025.347.039.537.039.321 0 .632-.041.929-.117.048-.017.112-.053.166-.101.011-.04.018-.087.018-.135s-.007-.095-.019-.139c-.039-.049-.118.004-.177-.029h-.073s0-.079 0-.119-.152-.046-.251-.086-.185-.205-.324-.271c-.115-.038-.214-.096-.298-.172-.065-.092.001-.165.001-.264s-.066-.119-.059-.172.073-.092.079-.165-.04-.053-.04-.079 0-.059 0-.092c-.004-.033-.006-.071-.006-.109s.002-.076.006-.114c.112.005.046-.081.052-.147.018-.179.049-.34.091-.497.002-.019.007-.066.007-.114s-.004-.095-.012-.14c.001-.101.001-.121-.131-.101-.053-.449-.132-.924-.152-1.433-.014-.317-.022-.688-.022-1.061 0-.905.046-1.8.136-2.682-.009-.035-.009-.18.024-.338.002-.111.013-.218.035-.321.049-.018.108-.043.171-.06.151-.001.316-.041.468-.061l.449-.059c.291-.046.594-.079.872-.152.261-.058.485-.186.66-.363.175-.172.294-.4.33-.654.004-.056.005-.115.005-.174 0-.247-.028-.488-.081-.719-.431-1.739-1.015-3.278-1.756-4.723-.079-.196-.218-.463-.375-.718.676-.573 1.132-1.834 1.568-2.766.092-.205.145-.456.225-.66.158-.469.383-.931.522-1.407.032-.099.07-.184.116-.264.528-.075.93-.529.93-1.077 0-.025-.001-.05-.003-.075-.066-.456-.309-.848-.656-1.109.036-.088.064-.186.075-.29.003-.029.004-.059.004-.089 0-.121-.023-.237-.066-.344-.048-.118-.105-.224-.173-.323-.019-.099-.053-.192-.098-.278l.003.006c.091.093.201.167.324.216.094.035.195.053.301.053.05 0 .099-.004.147-.012-.021.002-.04.002-.059.002-.132 0-.256-.03-.368-.083-.122-.06-.228-.147-.31-.253.068-.096.132-.202.185-.314.009-.051.011-.097.011-.144s-.002-.093-.006-.138c.034.01.073.012.113.012.113 0 .222-.019.324-.055.134-.048.25-.14.328-.26.064-.109.101-.238.101-.375 0-.011 0-.021-.001-.032-.011.139-.059.263-.133.367zm-9.568 19.586c0-.053.073-.106.132-.073s-.073.066-.132.073zm3.863-19.15h-.033s0-.053 0-.079v0zm-.31-1.783c.023-.071.046-.128.071-.183-.006.034-.007.061-.007.088s.001.053.003.079 0 .036 0 .049zm.462.555v-.073l.079.04c-.032.004-.061.014-.087.027zm0 .594h-.04l-.059-.112c.025.042.055.077.092.105zm-.106-.112l.059.119v-.112zm-.409-.859v-.066l.04.125-.053.073c.002-.048.007-.094.014-.138zm.059-.092v0 .059zm.198.726v0s0 0 0 .046c-.001.018-.002.039-.002.059s.001.042.002.062v-.003l-.053-.059zm0 .291c0 .046 0 .092 0 .139h-.145c.021-.046.053-.083.092-.112l.067-.04zm1.519-4.253h.053c-.139.059-.258.139-.383.205v0c .098-.099.224-.171.365-.204zm-1.208.377c.094-.095.225-.153.37-.153.014 0 .028.001.042.002.027-.004.06-.006.094-.006s.067.002.1.006l-.004.052h-.119c-.181.011-.337.105-.435.243l-.173.068c.041-.085.094-.157.158-.218zm-.179.508l-.066.152c0-.046 0-.099 0-.145zm-.66 1.321c.074-.214.189-.397.337-.548l.066-.059-.139.337c-.093.198-.192.367-.304.525.005-.033.004-.059.004-.086 0-.06.006-.118.017-.174zm0 .482c-.001-.018-.002-.038-.002-.059s.001-.042.002-.062c.089-.104.172-.223.244-.349l.006-.012v.053c-.037.106-.058.228-.058.354 0 .038.002.076.006.113v.088.112c-.081-.061-.149-.133-.203-.215zm.277.858l.079-.086.04.112c0 .04 0 .086 0 .125s0 .079 0 .125c-.051-.074-.093-.159-.123-.25zm.066.661l.092-.125.04.106v.046c-.046.033-.084.075-.111.124l-.001.035h-.092zm.099.554c-.04-.079-.068-.17-.079-.267l.185-.004c0 .106 0 .218 0 .324s0 .079 0 .119c-.038-.04-.075-.083-.11-.128zm0 2.78c.413-.211.766-.43 1.098-.675.038.451.414 1.963.414 1.963-.357-.284-1.162-.944-1.532-1.248zm4.755-3.024l-.099-.125-.112-.145v-.158h.04c.056.019.121.03.188.03s.132-.011.193-.031c.035.096.063.205.075.32.004.04.007.08.007.12s-.002.081-.007.12c-.093-.037-.174-.077-.248-.126zm-.911-3.256l-.099-.106-.073-.106-.046-.053c.062.044.116.092.164.145.042.049.079.103.11.161zm.369.621l.066.053.053.046c.019.058.033.125.039.195l-.033-.036c-.038-.04-.079-.077-.123-.11l-.003-.002c0-.059 0-.106 0-.145zm0 .317l.046.04.092.092.04.046c.001.015.002.032.002.05s-.001.035-.002.052v-.002c-.034-.101-.088-.187-.159-.258z" fill="#ea4c89"/><path d="m20.887 30.726c.059.244.561.258.839.205.693-.132.858-.376.951-.707.04-.145.073-.277.112-.442.006-.077.032-.147.073-.206.003.058.004.125.004.193s-.002.134-.006.201c.038.013.083.026.131.026.012 0 .024-.001.036-.003.045-.178.098-.535.144-.858.011-.103.032-.197.062-.287.058-.105.12-.202.187-.295-.005-.046.048-.098.074-.158.065-.13.103-.284.103-.446 0-.233-.078-.448-.21-.62-.065-.054-.148-.092-.24-.103-.062 0-.147 0-.154 0-.009-.051-.014-.109-.014-.168s.005-.118.015-.174c-.001-.212.356-2.021.376-2.127.096-.288.151-.619.151-.963 0-.467-.102-.91-.285-1.309-.011-.019-.025-.063-.031-.11 0-.147.271-.326.66-.841.502-.66.964-1.38 1.453-2.047.155-.176.331-.329.525-.456.338-.292.626-.608.877-.954.049-.071.1-.114.161-.141-.044.39-.071.842-.071 1.3 0 1.023.133 2.015.382 2.96.028.124.055.342.107.58.058.172.108.379.142.591.003.472-.056.928-.037 1.344 0 .224 0 .442 0 .66.005.099.008.214.008.33s-.003.232-.009.346c-.017.771-.096 1.528-.231 2.264.013-.041.013.005-.026.044-.092.245-.147.528-.152.823.006.026.01.053.01.081s-.004.055-.011.081c0 .051-.079.077-.066.136s.099.092.119.152 0 .066 0 .139-.04.046 0 .132.073.079.053.158-.099.073-.119.125 0 .139 0 .205-.112.106-.172.231 0 .125 0 .185-.086.053-.112.099c-.065.091-.12.196-.162.307-.017.07-.033.12-.052.169-.044.085-.09.111-.103.23-.003.034-.004.073-.004.112s.002.079.005.117c0 .081.211.107.376.14.073.008.158.013.244.013s.171-.005.255-.014c.505.001.795-.131.934-.461.086-.334.147-.724.171-1.125.04-.242.087-.467.133-.678 0-.106.053-.218.073-.33.039-.141.061-.304.061-.471 0-.025 0-.049-.001-.074-.026-.25-.127-.477-.279-.659l-.078-.058s-.079 0-.092-.053c-.003-.028-.004-.06-.004-.092s.002-.065.005-.096c.237-1.389 1.38-2.703.739-4.843 0-.099-.086-.185-.112-.284s0-.125 0-.185c-.025-.166-.04-.357-.04-.551 0-.02 0-.04 0-.06.005-.269.039-.53.097-.782q.147-.708.305-1.375c.106-.469.205-.938.31-1.4.053-.238.119-.449.185-.66s.119-.449.172-.66c.456-1.829-.185-2.972-1.321-4.332-.16-.175-.262-.404-.277-.657.011-.316.068-.612.165-.889.082-.287.172-.539.275-.785.128-.277.319-.614.465-1.01.042-.133.084-.242.133-.348l-.007-.022c.033 0 0 0 .04.112s.119.284.132.317c.239.672.484 1.23.763 1.767.036.055.122.174.188.299s.152.35.244.515c.123.267.364.463.654.521.023.002.044.003.065.003.134 0 .259-.035.368-.097.239-.195.4-.485.425-.813 0-.143 0-.341 0-.486s.046-.251.059-.376c.007-.192.01-.418.01-.645 0-.5-.018-.996-.054-1.488.004-.079.004-.218.004-.357.038-.158.06-.34.06-.527 0-.01 0-.02 0-.029-.025-.152-.091-.287-.186-.396-.099-.108-.214-.2-.342-.273-.124-.076-.226-.15-.321-.231-.054-.055-.114-.109-.177-.159-.118-.056-.251-.091-.39-.102-.113-.016-.239-.025-.367-.025s-.254.009-.377.026l-.217.005h-.092c-.006.001-.013.002-.02.002s-.014-.001-.021-.002c.102-.083.19-.179.262-.286l.076-.11.079.033c.13.05.281.08.439.08.011 0 .021 0 .032 0 .159-.006.308-.049.439-.121.133-.071.234-.198.271-.35-.048.143-.155.259-.293.319-.112.049-.238.077-.37.077-.024 0-.049-.001-.072-.003-.152-.011-.296-.051-.426-.115l-.059-.037c.073-.146.122-.316.138-.496v-.085c.105-.094.189-.208.248-.337l.003-.053c.066.075.154.129.254.151.047.012.097.018.148.018s.102-.006.15-.018c-.046.011-.094.017-.143.017s-.097-.006-.143-.017c-.082-.032-.152-.089-.2-.163l-.001-.061c.032-.111.05-.239.05-.371 0-.06-.004-.119-.011-.177-.014-.215-.061-.422-.136-.615.032-.042.055-.108.07-.177.01-.048.015-.097.015-.147 0-.161-.052-.309-.141-.43l-.018-.077c-.017-.153-.064-.291-.135-.414-.115-.222-.316-.392-.558-.469-.093-.03-.193-.046-.296-.048-.066-.088-.153-.157-.255-.197-.036-.003-.075-.004-.113-.004s-.076.001-.114.003c-.034 0-.067-.04-.107-.053-.04-.005-.086-.007-.132-.007s-.092.003-.138.008h-.127c-.019.001-.041.002-.063.002s-.044-.001-.066-.002-.083-.04-.129-.053c-.054-.008-.115-.013-.178-.013s-.125.005-.185.014c-.147.007-.291.04-.425.095l-.414-.003c-.015.001-.032.001-.049.001-.225 0-.436-.062-.617-.169-.179-.145-.307-.357-.344-.599.014.255.128.487.303.655.157.125.351.21.562.237l-.113.067c-.071.049-.134.101-.192.159l-.106-.079c-.707-.482-1.459-.938-1.981-1.222-.125-.076-.275-.121-.436-.121-.023 0-.046.001-.068.003-.126.002-.246.036-.351.094-.068.037-.129.085-.18.143-.062.068-.111.146-.144.233-.027.074-.045.155-.054.238.033.822.214 1.589.517 2.291.149.368.308.757.644 1.649.11.315.174.679.174 1.058 0 .153-.01.304-.031.452.002.122.002.273-.038.412-.008.144-.034.279-.076.407-.127.258-.274.49-.445.703-.162.226-.275.51-.311.816-.004.042-.006.081-.006.12 0 .398.193.75.491.969l.102.062c.004.036.006.077.006.119s-.002.083-.007.124c.048.541.132 1.038.252 1.522.045.203.118.467.171.745.059.259.097.558.106.866 0 .217.086 1.016.099 1.122.033.244.145.66-.04.786-.432.368-.791.805-1.064 1.297-.482.876-.993 1.947-1.451 3.046-.146.366-.205.505-.271.656s-.106.284-.165.429-.125.264-.192.396c-.086.16-.137.35-.137.552 0 .038.002.076.005.113 0 .213.059.424.092.656.118.784.204 1.721.237 2.671.001.459.094.869.113 1.285.008.093.013.201.013.31s-.005.217-.014.324c.001.059-.039.125-.045.197s0 .211 0 .317-.132.172-.145.317c0 .033 0 .073 0 .106-.01.037-.016.079-.016.122s.006.086.017.125c.059.142.092.116.045.281 0 .059 0 .132 0 .192-.03.136-.085.256-.16.359-.064.063-.11.037-.19.07s-.073.066-.112.165-.059.086-.119.158c-.13.152-.226.336-.275.539-.038.087-.06.177-.061.273zm9.244-23.423c.066 0 .152-.046.244-.053h.092c.028-.002.06-.004.092-.004s.065.001.097.004c.035 0 .101 0 .088.079-.119 0-.258 0-.277.092s.145.218.258.244.304 0 .442.059c.033 0 .073.046.125.073l.145.059c.075.017.137.035.197.057-.02.096-.034.186-.054.274-.103.647-.268 1.123-.394 1.737-.053 0-.073-.086-.092-.132-.192-.508-.271-.607-.575-1.506-.145-.324-.291-.667-.416-.977zm-.125-.284c.022-.002.047-.003.073-.003s.051.001.076.003c.096 0 .208-.06.261 0s-.059 0-.112 0-.231.145-.277.112c-.029-.027-.046-.064-.046-.106 0-.002 0-.004 0-.006zm-4.821-3.011l-.04-.046.053.066zm.661-1.116l.152.059c-.042.097-.08.214-.109.335-.065.056-.119.098-.17.142-.082.076-.159.156-.233.239-.089-.03-.161-.084-.214-.154-.088-.125-.14-.279-.14-.445 0-.006 0-.013 0-.019-.008.043-.012.091-.012.14 0 .132.031.257.087.367.046.08.113.149.194.199l-.037.048-.079.079-.059-.053c-.115-.129-.197-.291-.23-.469-.016-.088-.025-.183-.025-.28s.009-.192.026-.284c-.033.128-.051.265-.051.405 0 .035.001.07.003.104-.086-.295-.152-.579-.218-.876v0c .238.099.429.152.746.277zm-.093.839l.073-.046v.033zm.086-.053v0 0 .066zm.132-.376c.045-.109.092-.2.144-.287.041.01.074.056.08.069s-.046.092-.079.152zm-.561.726l.059-.066.106-.079h.192l-.086.165c-.001 0-.003 0-.004 0-.096 0-.187-.017-.272-.048zm3.962 2.734v0s .092-.132.059-.185.033 0 .04 0v .112l-.073.053zm.198-.205h.053l-.04.04c-.046-.04-.053-.073-.046-.066zm.779-2.998l-.066-.119c-.038-.136-.095-.254-.168-.361.083.046.152.095.215.15l.039.045c-.009.095-.028.183-.055.266zm-.521 1.909l.059-.079v.185s0 0 0 0v0c .008.052.013.111.013.172s-.005.12-.014.178l.001.02-.04-.053c-.018-.034-.032-.074-.039-.116-.002-.023-.002-.047-.002-.072s.001-.049.002-.073c-.013-.083-.013-.135-.007-.188zm0 .581c-.083.083-.179.154-.284.208.036-.106.081-.197.131-.284-.003-.009-.002-.03-.002-.053s-.001-.044-.004-.065c.015.036.03.064.048.091zm.488-3.097c-.127-.133-.27-.249-.427-.345l-.049-.005c-.034-.073-.076-.136-.126-.192.187.041.344.143.455.283.044.068.08.145.105.226zm.165.871q-.106-.139-.106-.251v0c .004-.041.007-.088.007-.135s-.003-.095-.007-.141c.055.095.088.203.088.318 0 .016-.001.031-.002.046 0 .047-.005.095-.014.142zm.04 1.05c0-.092-.046-.185-.073-.284s0-.158 0-.238c.021.048.044.11.063.172.004.025.004.039.004.053 0 .095-.01.189-.029.279zm-.218.608c.002-.028.003-.06.003-.092s-.001-.065-.003-.097c.007-.056.011-.126.011-.197s-.004-.141-.011-.21c.014-.023.027-.062.039-.103.043.109.092.209.151.302-.003.01-.002.028-.002.047s0 .037-.002.055c-.056.1-.127.188-.21.261zm-.66 1.056v-.04l-.059-.092v-.033l.132-.059c.078-.042.145-.088.206-.14l-.035.087c-.072.094-.155.174-.247.242zm-.047.179l.073-.059c-.013.013-.04.04-.079.026zm-.145.085h.04zm-4.2-2.641h.04c.084.072.183.13.29.17-.014.042-.038.077-.066.108-.085.092-.085.059-.145-.04zm-3.46 24.512c-.04 0 0-.059 0-.073s0-.066.04-.053 0 .125-.04.125z" fill="#3498db"/></symbol><symbol id="images" viewBox="0 0 51 32"><path d="m34.294 9.276h4.243c.257 0 .466.209.466.466v2.824c0 .257-.209.466-.466.466h-4.243c-.257 0-.466-.209-.466-.466v-2.824c0-.257.209-.466.466-.466z" fill="#fff"/><path d="m38.382 31.816c-1.197-.808-2.24-1.635-3.218-2.531l-30.123.018c-1.293-.004-2.34-1.051-2.344-2.343v-17.451c.004-1.293 1.051-2.34 2.343-2.344h9.693l2.435-4.469h9.615l2.435 4.469h9.692c1.293.004 2.34 1.051 2.344 2.343v6.354c.517.23.963.494 1.373.803.371-.306.812-.567 1.28-.779l.044-6.371c-.004-2.782-2.258-5.036-5.04-5.04h-8.097l-1.68-3.064c-.448-.837-1.311-1.399-2.307-1.412h-9.687c-1 .01-1.866.573-2.309 1.398l-1.701 3.071h-8.09c-2.782.004-5.036 2.258-5.04 5.04v17.451c.004 2.782 2.258 5.036 5.04 5.04h33.61z" fill="#ff0084"/><path d="m21.976 8.987c-5.107 0-9.248 4.14-9.248 9.248s4.14 9.248 9.248 9.248c5.107 0 9.248-4.14 9.248-9.248-.008-5.104-4.144-9.24-9.247-9.248zm0 15.805c-3.618 0-6.551-2.933-6.551-6.551s2.933-6.551 6.551-6.551c3.618 0 6.551 2.933 6.551 6.551-.004 3.616-2.935 6.547-6.551 6.551z" fill="#fff"/><path d="m34.866 20.352c-.316.741-.5 1.604-.5 2.51 0 1.42.452 2.734 1.219 3.807 1.398 2.098 6.841 5.331 6.989 5.331s5.647-3.24 7.059-5.351c.754-1.053 1.206-2.367 1.206-3.787 0-.906-.184-1.768-.516-2.553-.58-1.413-1.856-2.482-3.407-2.776-.24-.039-.485-.06-.734-.061-1.681 0-2.895 1.257-3.594 1.998-.706-.706-1.913-1.998-3.593-1.998-.25.001-.495.022-.733.06-1.541.304-2.806 1.37-3.386 2.789z" fill="#ff0084"/><path d="m38.53 19.096c.144-.022.31-.035.479-.035 0 0 .001 0 .001 0 .019-.002.042-.004.065-.004.331 0 .6.269.6.6s-.269.6-.6.6c-.023 0-.045-.001-.068-.004-.001 0-.005 0-.009 0-.824 0-1.521.54-1.757 1.286-.127.287-.215.605-.25.939-.034.315-.287.548-.594.55h-.064c-.304-.032-.539-.287-.539-.597 0-.021.001-.042.003-.062.05-.48.172-.922.357-1.331.4-.984 1.282-1.728 2.355-1.939z" fill="#fff"/></symbol><symbol id="required" viewBox="0 0 42 32"><path d="m5.282 15.159c.634.114 1.303.194 1.998.352.557.139 1.047.35 1.491.629 3.042 1.827 5.173 5.27 7.268 8.148 1.831 2.483 3.037 6.638 6.365 7.43 2.28.546 5.132.141 7.492.114 2.696-.11 5.221-.359 7.701-.744.38-.066 3.954-.242 4.209-1.528 0-.158.141-.704 0-.88-.88.775-3.944 1.4-4.587 1.497-2.103.336-4.628.585-7.19.691-2.493.004-5.346.427-7.626-.11-3.328-.792-4.525-4.939-6.365-7.421-2.095-2.843-4.226-6.55-7.289-8.39-.423-.266-.913-.478-1.435-.609-.748-.148-1.417-.254-2.033-.342z" fill="#fff"/><path d="m38.884 26.841c-1.276-.59-6.585-2.306-7.923-2.773-1.03-.361-1.171.088-2.007.775-1.033.809-2.35 1.297-3.782 1.297-.681 0-1.336-.11-1.949-.315-2.325-.674-3.223-2.47-4.279-4.53-.687-1.329-3.583-7.985-4.631-9.86-1.382-2.474-2.949-4.912-4.507-7.28-.933-1.409-2.553-4.402-4.587-4.155-1.136.123-2.368 1.426-2.914 2.342-1.081 1.459-1.838 3.222-2.131 5.138-.118.526-.181 1.055-.181 1.598 0 .774.128 1.518.363 2.213.195.474.493.919.866 1.289.507.402.876.96 1.035 1.6.224 1.103 1.765 17.724 1.765 17.724h.88s1.144-16.295 1.153-16.418v-.29c.07-.731.625-.572 1.18-.449.557.134 1.047.34 1.493.611 3.041 1.748 5.171 5.41 7.266 8.192 1.831 2.43 3.037 6.488 6.365 7.263 2.28.528 5.132.141 7.492.114 2.696-.107 5.222-.35 7.705-.725.377-.067 4.242-.366 4.206-1.493.009-.836-2.271-1.585-2.879-1.866z" fill="#3498db"/><path d="m18.945 21.295c1.056 2.051 1.954 3.856 4.322 4.543.569.191 1.224.302 1.905.302 1.431 0 2.749-.488 3.795-1.307.279-.284.598-.55.941-.785l.023-.015c-.594.21-1.278.331-1.991.331-.486 0-.959-.056-1.413-.163-2.01-.188-3.845-.987-5.318-2.206-.988-.923-1.922-1.888-2.805-2.899-.268-.275-.541-.689-.849-.803.625 1.391 1.144 2.535 1.391 3.002z" fill="#fff"/><path d="m4.05 2.817s-.07.123-.211.343-.167.238-.264.405l-.343.546c-.123.211-.264.44-.396.687l-.194.405-.106.202-.097.211-.185.44c-.062.15-.106.308-.158.458-.099.27-.184.593-.242.925-.06.323-.092.654-.093.993.004.315.036.619.093.913.056.303.141.599.253.881.107.248.231.486.371.711.234.358.526.683.86.958.104.088.21.166.322.237l.135.086-.167-.053c-.175-.052-.323-.112-.465-.184-.209-.095-.403-.21-.582-.342-.217-.15-.413-.324-.587-.519-.19-.211-.354-.445-.487-.698-.144-.273-.251-.567-.314-.878-.061-.27-.094-.555-.094-.849 0-.053.001-.105.003-.157.014-.365.061-.719.139-1.061.098-.361.218-.701.363-1.028.143-.333.305-.648.487-.951.073-.138.16-.282.255-.421l.297-.38c.176-.255.352-.484.502-.695l.379-.528c.114-.158.22-.264.29-.361z" fill="#fff"/></symbol><symbol id="rooms" viewBox="0 0 32 32"><path d="m17.936 28.656v0c-.583.094-1.254.148-1.938.148-7.069 0-12.8-5.731-12.8-12.8s5.731-12.8 12.8-12.8c3.554 0 6.77 1.449 9.089 3.788l-3.199 3.201c-.128.128-.08.224.096.224h8.416c.177 0 .32-.143.32-.32 0 0 0 0 0 0v-8.496c0-.176-.096-.224-.224-.096l-3.2 3.2c-2.897-2.906-6.904-4.704-11.331-4.704-8.837 0-16 7.163-16 16s7.163 16 16 16c .012 0 .025 0 .037 0h-.002c.005 0 .011 0 .017 0 .835 0 1.655-.064 2.456-.187l-.089.011c.76-.112 1.419-.258 2.062-.443l-.11.027h.864l.384-.144-1.136-3.008c-.736.203-1.595.346-2.477.398z"/><path d="m15.408 6.4h-1.92c0 0 0 0 0 0-.353 0-.64.287-.64.64 0 0 0 0 0 0v11.488c0 .353.287.64.64.64 0 0 0 0 0 0h11.488c.353 0 .64-.287.64-.64 0 0 0 0 0 0v-1.92c0-.353-.287-.64-.64-.64 0 0 0 0 0 0h-8.976v-8.928c0-.001 0-.001 0-.002 0-.337-.26-.612-.59-.638z"/><path d="m26.704 23.008l2.688 1.76c.594-.862 1.131-1.846 1.561-2.886l-2.953-1.258c-.381.913-.815 1.697-1.324 2.426z"/><path d="m32 15.168l-3.2.16q0 .336 0 .656c0 .002 0 .004 0 .006 0 .715-.058 1.417-.17 2.101l3.21.437c.119-.732.187-1.577.187-2.437 0-.325-.01-.647-.029-.967z"/><path d="m22.912 26.768l1.728 2.704.16-.112h.944c.552-.426 1.043-.856 1.505-1.313l-2.257-2.287c-.591.363-1.276.702-1.993.978z"/></symbol><symbol id="sado" viewBox="0 0 42 32"><path d="m9.337 9.846c.759.66 1.757.812 2.219.363l2.172-2.1c.462-.449.225-1.321-.535-1.981s-1.757-.845-2.225-.376l-2.172 2.1c-.462.449-.211 1.347.541 1.994zm2.226-3.593c.264-.258.832-.165 1.268.205s.568.878.304 1.136l-2.172 2.113c-.264.258-.832.165-1.268-.205s-.568-.878-.304-1.136z" fill="#fff"/><path d="m13.636 5.527c.759.66 1.756.812 2.219.363l2.172-2.106c.462-.449.224-1.321-.535-1.981s-1.756-.812-2.219-.363l-2.172 2.087c-.469.436-.231 1.347.535 2.001zm2.212-3.592c.264-.258.832-.165 1.268.205s.581.878.317 1.162l-2.172 2.08c-.264.258-.832.165-1.268-.205s-.568-.878-.304-1.136z" fill="#fff"/><path d="m18.384 1.717c0 .977.548 1.79 1.208 1.816l3.09.119c.66 0 1.195-.746 1.189-1.717s-.541-1.79-1.202-1.809l-3.09-.125c-.667 0-1.195.746-1.195 1.717zm4.285-.839c.376 0 .66.475.66 1.037s-.304.997-.66.977l-3.077-.119c-.376 0-.66-.475-.66-1.037s.304-.997.66-.977z" fill="#fff"/><path d="m14.098 4.167c.112-.112.403 0 .66.178v0c .244.211.35.469.238.574l-2.641 2.542c-.112.112-.403 0-.66-.178v0c-.244-.211-.35-.469-.238-.574z" fill="#fff"/><path d="m20.021 1.281c.158-.033.357.185.442.489v0c .086.304 0 .575-.125.607l-3.658.786c-.158.033-.357-.185-.442-.489v0c-.086-.304 0-.575.125-.607z" fill="#fff"/><path d="m9.476 8.822c.073-.139.37-.152.66 0v0c .304.125.489.337.416.475l-1.631 3.183c-.073.139-.37.152-.66 0v0c-.304-.125-.489-.337-.416-.475z" fill="#fff"/><path d="m32.158 10.315l-1.598-2.529c-.343-.541-1.321-.607-2.245-.139s-1.321 1.281-1.01 1.823l1.598 2.529c.343.541 1.321.607 2.245.139s1.347-1.281 1.01-1.823zm-.699.363c.192.31-.066.773-.575 1.037s-1.09.231-1.281-.079l-1.598-2.529c-.192-.31.066-.773.575-1.037s1.09-.231 1.281.079z" fill="#fff"/><path d="m29.055 5.151l-1.618-2.509c-.343-.541-1.321-.607-2.245-.139s-1.321 1.281-1.01 1.823l1.572 2.509c.343.541 1.321.607 2.245.139s1.38-1.281 1.057-1.823zm-.7.363c.192.31-.066.773-.575 1.037s-1.09.231-1.281-.079l-1.618-2.509c-.192-.31.066-.773.575-1.037s1.09-.231 1.281.079z" fill="#fff"/><path d="m27.899 5.553c-.086-.132-.383-.119-.66 0v0c-.291.152-.456.376-.376.508l1.928 3.057c.086.132.383.119.66 0v0c .291-.152.456-.376.376-.508z" fill="#fff"/><path d="m22.795 1.453c-.139-.079-.396.066-.581.33v0c-.185.258-.218.535-.086.614l3.203 1.856c.139.079.396-.066.581-.33v0c .185-.258.218-.535.079-.614z" fill="#fff"/><path d="m30.904 10.704c-.033-.152-.324-.231-.66-.172v0c-.324.053-.561.218-.522.37l.812 3.487c.033.152.324.231.66.172v0c .324-.053.561-.218.522-.37z" fill="#fff"/><path d="m8.499 13.676c-.048-.001-.104-.002-.16-.002-4.546 0-8.243 3.638-8.338 8.161.099 4.538 3.794 8.172 8.338 8.172.056 0 .113-.001.169-.002.041.001.1.002.159.002 4.544 0 8.239-3.634 8.338-8.154-.095-4.542-3.792-8.179-8.338-8.179-.059 0-.117.001-.176.002zm0 14.606c-.061.002-.134.003-.206.003-3.559 0-6.445-2.885-6.445-6.445s2.885-6.445 6.445-6.445c.073 0 .145.001.217.004.051-.002.123-.004.196-.004 3.559 0 6.445 2.885 6.445 6.445s-2.885 6.445-6.445 6.445c-.073 0-.145-.001-.217-.004z" fill="#ea4c89"/><path d="m12.718 11.807c0 .365-.296.66-.66.66h-7.118c-.365 0-.66-.296-.66-.66v0c0-.365.296-.66.66-.66h7.145c.365 0 .66.296.66.66z" fill="#ea4c89"/><path d="m11.833 14.58c0 .898-.575.429-1.281.429h-4.088c-.707 0-1.281.469-1.281-.429v-2.754l6.65-.066z" fill="#ea4c89"/><path d="m9.172 12.487c0 .336-.296.607-.66.607s-.66-.272-.66-.607c0-.336.296-.607.66-.607s.66.272.66.607z" fill="#fff"/><path d="m8.802 14.376c-.016.132-.127.233-.262.233-.01 0-.02-.001-.03-.002h.001c-.008.001-.018.002-.028.002-.135 0-.246-.101-.262-.231v-2.062c.016-.132.127-.233.262-.233.01 0 .02.001.03.002h-.001c.008-.001.018-.002.028-.002.135 0 .246.101.262.231z" fill="#fff"/><path d="m31.558 15.848c-3.85.79-6.704 4.151-6.704 8.178 0 .576.058 1.139.17 1.682 1.015 3.576 4.297 6.191 8.19 6.191 4.697 0 8.505-3.808 8.505-8.505 0-.496-.042-.982-.124-1.455-.911-3.633-4.19-6.319-8.097-6.319-.688 0-1.357.083-1.997.241zm3.149 14.263c-.376.078-.807.122-1.25.122-3.559 0-6.445-2.885-6.445-6.445s2.885-6.445 6.445-6.445c3.069 0 5.637 2.145 6.286 5.018.094.441.144.897.144 1.365 0 3.127-2.2 5.741-5.137 6.376z" fill="#3498db"/><path d="m35.275 13.108c.007.036.011.078.011.121 0 .305-.207.562-.489.638l-6.978 1.559c-.031.005-.067.008-.103.008-.311 0-.572-.216-.642-.505l-.001-.005c-.009-.041-.014-.087-.014-.135 0-.304.205-.56.485-.637l6.978-1.54c.035-.007.075-.01.116-.01.312 0 .574.217.643.508z" fill="#3498db"/><path d="m34.998 16.007c.191.878-.469.541-1.156.66l-3.962.878c-.66.152-1.149.733-1.321-.145l-.594-2.688 6.478-1.499z" fill="#3498db"/><path d="m31.955 14.539c.072.328-.158.657-.514.736s-.703-.123-.776-.451c-.072-.328.158-.657.514-.736s.703.123.776.451z" fill="#fff"/><path d="m32.007 16.462c.001.009.002.018.002.028 0 .135-.101.246-.231.262h-.001c-.024.008-.052.013-.081.013-.115 0-.213-.073-.249-.176l-.443-1.983c-.001-.008-.002-.018-.002-.028 0-.135.101-.246.231-.262h.001c.024-.008.052-.013.081-.013.115 0 .213.073.249.176z" fill="#fff"/></symbol><symbol id="shop" viewBox="0 0 34 32"><path d="m30.944 14.944h-1.76l-7.904-11.904c.105-.237.166-.514.166-.804 0-.055-.002-.109-.006-.163 0-1.142-.931-2.073-2.08-2.073s-2.08.931-2.08 2.08c.018 1.142.938 2.062 2.078 2.08h.162l7.232 10.784h-19.2l7.296-10.784h.16c1.142-.018 2.062-.938 2.08-2.078 0-.002 0-.002 0-.002 0-1.149-.931-2.08-2.08-2.08s-2.08.931-2.08 2.08c0 0 0 0 0 0 0 .32.16.64.16.96l-7.872 11.904h-1.76c-.065-.005-.141-.007-.217-.007-1.767 0-3.2 1.433-3.2 3.2 0 .417.08.816.225 1.181l4.024 9.578c.8 2.4 3.552 3.04 6.112 3.04h13.824c2.56 0 5.312-.8 6.112-3.04l4.032-9.6c.069-.259.109-.557.109-.864 0-1.926-1.562-3.488-3.488-3.488-.004 0-.009 0-.013 0zm-22.368 11.904c0 .619-.501 1.12-1.12 1.12s-1.12-.501-1.12-1.12v-6.4c0-.619.501-1.12 1.12-1.12s1.12.501 1.12 1.12zm6.4 0c0 0 0 0 0 0 0 .619-.501 1.12-1.12 1.12s-1.12-.501-1.12-1.12c0 0 0 0 0 0v-6.4c0-.619.501-1.12 1.12-1.12s1.12.501 1.12 1.12zm6.4 0c0 .619-.501 1.12-1.12 1.12s-1.12-.501-1.12-1.12v-6.4c0 0 0 0 0 0 0-.619.501-1.12 1.12-1.12s1.12.501 1.12 1.12c0 0 0 0 0 0zm6.4 0c0 0 0 0 0 0 0 .619-.501 1.12-1.12 1.12s-1.12-.501-1.12-1.12c0 0 0 0 0 0v-6.4c0 0 0 0 0 0 0-.619.501-1.12 1.12-1.12s1.12.501 1.12 1.12c0 0 0 0 0 0z"/></symbol><symbol id="spa" viewBox="0 0 28 32"><path d="m6.606 17.306s-4.459-17.306 7.308-17.306 7.487 16.61 6.529 20.443-12.138 6.107-13.838-3.137z" fill="#ea4c89"/><path d="m27.764 30.62c0-.862 0-1.821-.064-2.792-.202-4.271-3.097-7.814-7.015-8.984-.638-.184-1.117-.331-1.443-.446-.97-.3-1.684-1.136-1.8-2.154-.909.905-2.168 1.472-3.559 1.472s-2.65-.567-3.558-1.483c-.117 1.029-.832 1.866-1.784 2.16-.344.12-.823.267-1.392.433-3.988 1.187-6.883 4.731-7.084 8.979-.065.993-.065 1.951-.065 2.814z" fill="#fff"/><path d="m19.804 7.513c-.313 4.657-2.555 9.282-5.954 9.282-3.194 0-5.366-4.069-5.877-8.42 4.197-.23 7.13-2.881 8.516-4.178.464 1.609 1.706 2.851 3.282 3.307z" fill="#fff"/><path d="m19.619 12.483c.373-1.052.637-2.273.738-3.539l.387-.051c.339.786.383 2.025-1.124 3.59z" fill="#fff"/><path d="m6.912 9.142l.498.083c.119 1.183.358 2.266.708 3.298-1.366-1.471-1.442-2.608-1.206-3.381z" fill="#fff"/><path d="m23.816 3.526c-.039-.415-.386-.737-.808-.737-.021 0-.043.001-.064.002-.26.01-.508.04-.75.088.243-.149.429-.296.603-.455.177-.147.291-.371.291-.622 0-.2-.073-.384-.193-.526-.138-.114-.319-.184-.515-.184-.245 0-.465.109-.613.28-.157.171-.304.357-.437.553.032-.194.062-.442.072-.696.004-.038.007-.072.007-.106 0-.409-.332-.741-.741-.741s-.741.332-.741.741c0 .034.002.068.007.101.01.259.04.507.088.749-.149-.243-.296-.429-.455-.603l.003.004c-.15-.173-.369-.281-.614-.281-.197 0-.377.07-.518.187-.121.14-.196.326-.196.53 0 .248.111.469.286.618.171.157.357.304.553.437-.194-.032-.442-.062-.696-.072-.028-.002-.049-.003-.07-.003-.422 0-.769.322-.808.734.039.418.386.74.808.74.021 0 .043-.001.064-.002.26-.01.508-.04.75-.088-.243.149-.429.296-.603.455-.165.146-.271.363-.271.605 0 .197.07.377.186.517.12.117.286.19.468.19.003 0 .007 0 .01 0h .089c.222-.03.416-.132.562-.281.157-.17.304-.356.437-.552-.032.194-.062.442-.072.696-.004.038-.007.072-.007.106 0 .409.332.741.741.741s.741-.332.741-.741c0-.034-.002-.068-.007-.101-.014-.254-.045-.495-.094-.73.149.244.296.429.456.603.143.146.337.248.554.277l.094.001c.003 0 .006 0 .01 0 .183 0 .349-.073.47-.192.115-.139.185-.319.185-.516 0-.245-.109-.465-.28-.614-.171-.157-.357-.304-.553-.437.194.032.442.062.696.072.027.002.048.003.069.003.426 0 .776-.329.809-.747z" fill="#fff"/><path d="m21.389 3.526c0 .399-.323.722-.722.722s-.722-.323-.722-.722c0-.399.323-.722.722-.722s.722.323.722.722z" fill="#3498db"/><path d="m3.437 32s-.415-1.501 2.14-8.062v5.909s1.118-11.122 8.305-1.15v0c7.187-9.979 8.305 1.15 8.305 1.15v-5.909c1.917 6.561 2.127 8.062 2.127 8.062z" fill="#3498db"/></symbol><symbol id="star" viewBox="0 0 34 32"><path d="m16.826 0l4.435 11.584 12.384.64-9.645 7.795 3.219 11.981-10.394-6.765-10.4 6.765 3.219-11.981-9.645-7.795 12.39-.64 4.435-11.584z" fill="#f1c40f"/></symbol><symbol id="transgender" viewBox="0 0 31 32"><path d="m20.371 9.115l8.526-8.526 1.256 1.256-8.526 8.526z" fill="#3498db"/><path d="m31.115 9.449h-1.783v-7.673h-7.667v-1.776h9.449v9.449z" fill="#3498db"/><path d="m .259 1.855l1.256-1.256 8.204 8.204-1.256 1.256z" fill="#fff"/><path d="m1.776 9.449h-1.776v-9.449h9.449v1.776h-7.673z" fill="#fff"/><path d="m24.294 15.538h-1.783c0-4.034-3.27-7.303-7.303-7.303s-7.303 3.27-7.303 7.303h-1.776c0-5.016 4.067-9.083 9.083-9.083s9.083 4.067 9.083 9.083z" fill="#3498db"/><path d="m15.188 24.624c-5.005-.019-9.056-4.079-9.06-9.086h1.796c0 4.034 3.27 7.303 7.303 7.303s7.303-3.27 7.303-7.303h1.776c-.004 5.019-4.073 9.086-9.093 9.086-.009 0-.019 0-.028 0z" fill="#ff0084"/><path d="m2.897 9.796l6.696-6.696 1.256 1.256-6.696 6.696z" fill="#fff"/><path d="m14.323 23.733h1.776v8.267h-1.776z" fill="#ff0084"/><path d="m10.222 27.675h9.971v1.776h-9.971z" fill="#ff0084"/></symbol><symbol id="view" viewBox="0 0 32 32"><path d="m16 32c-8.837 0-16-7.163-16-16s7.163-16 16-16c8.837 0 16 7.163 16 16-.011 8.832-7.168 15.989-15.999 16zm0-31.03c-8.301 0-15.03 6.729-15.03 15.03s6.729 15.03 15.03 15.03c8.301 0 15.03-6.729 15.03-15.03-.011-8.297-6.734-15.019-15.029-15.03z"/><path d="m23.457 8.31h-9.939c-.451.031-.806.405-.806.861 0 .014 0 .029.001.043v1.346c-.001.012-.001.026-.001.041 0 .457.354.83.803.861h9.942c.451-.031.806-.405.806-.861 0-.014 0-.029-.001-.043v-1.336c.001-.015.001-.033.001-.05 0-.457-.355-.831-.804-.861z"/><path d="m23.457 14.419h-9.939c-.451.031-.806.405-.806.861 0 .014 0 .029.001.043v1.346c-.001.012-.001.026-.001.041 0 .456.354.83.803.861h9.942c.451-.031.806-.405.806-.861 0-.014 0-.029-.001-.043v-1.336c.001-.015.001-.033.001-.05 0-.457-.355-.831-.804-.861z"/><path d="m23.457 20.529h-9.939c-.451.031-.806.405-.806.861 0 .014 0 .029.001.043v1.346c-.001.012-.001.026-.001.041 0 .456.354.83.803.861h9.942c.451-.031.806-.405.806-.861 0-.014 0-.029-.001-.043v-1.336c.001-.015.001-.033.001-.05 0-.457-.355-.831-.804-.861z"/><path d="m10.327 8.31h-1.784c-.443.04-.787.41-.787.86 0 .018.001.036.002.054v1.345c-.001.012-.001.026-.001.041 0 .457.354.83.803.861h1.787c.451-.031.806-.405.806-.861 0-.014 0-.029-.001-.043v-1.346c.001-.015.001-.032.001-.049 0-.463-.365-.842-.824-.862z"/><path d="m10.327 14.419h-1.784c-.451.031-.806.405-.806.861 0 .014 0 .029.001.043v1.346c-.001.012-.001.026-.001.041 0 .456.354.83.803.861h1.787c.451-.031.806-.405.806-.861 0-.014 0-.029-.001-.043v-1.336c.001-.015.001-.033.001-.05 0-.457-.355-.831-.804-.861z"/><path d="m10.327 20.529h-1.784c-.451.031-.806.405-.806.861 0 .014 0 .029.001.043v1.346c-.001.012-.001.026-.001.041 0 .456.354.83.803.861h1.787c.451-.031.806-.405.806-.861 0-.014 0-.029-.001-.043v-1.336c.001-.015.001-.033.001-.05 0-.457-.355-.831-.804-.861z"/></symbol><symbol id="vip2" viewBox="0 0 19 32"><path d="m18.919 2.76l-13.378-2.76c-.01-.002-.021-.003-.033-.003-.086 0-.157.069-.158.155v31.696c.002.086.072.155.158.155.012 0 .023-.001.034-.004l13.371-2.819c.071-.016.124-.077.125-.152v-26.11c0-.002 0-.003 0-.005 0-.073-.05-.135-.118-.153z" fill="#ea4c89"/><path d="m8.221 16c0 .474-.316.858-.707.858s-.707-.384-.707-.858c0-.474.316-.858.707-.858s.707.384.707.858z" fill="#fff"/><path d="m10.585 12.051h-2.272l-1.103-8.234 1.776.277.475 5.303.489-5.151 1.598.244-.964 7.561z" fill="#fff"/><path d="m11.965 12.051v-7.495l1.407.224v7.27h-1.407z" fill="#fff"/><path d="m17.09 6.412c-.052-.25-.149-.472-.281-.667-.108-.155-.249-.287-.412-.386-.171-.096-.006-.162-.211-.195l-1.38-.277v7.165h.66v-2.76h.475c.038.004.081.007.125.007.179 0 .35-.039.503-.109.16-.079.293-.212.373-.375.091-.181.156-.386.186-.602.028-.21.043-.441.043-.675 0-.05-.001-.099-.002-.148.001-.033.002-.08.002-.127 0-.3-.03-.594-.086-.878zm-1.136 1.182c-.004.086-.021.168-.048.244-.02.047-.044.093-.073.136-.024.031-.06.055-.103.063h-.272v-1.677h.099c.144.011.264.099.323.222.059.158.093.337.093.524 0 .049-.002.097-.007.144.014.126-.006.245-.013.344z" fill="#fff"/><path d="m0 2.905v26.189c0 .088.071.158.158.158 0 0 0 0 0 0h4.675v-1.895h-2.78c-.088 0-.158-.071-.158-.158 0 0 0 0 0 0v-22.399c-.001-.006-.001-.013-.001-.02 0-.088.071-.158.158-.158 0 0 .001 0 .001 0h2.78v-1.875h-4.675c-.088 0-.158.071-.158.158 0 0 0 0 0 0z" fill="#3498db"/><path d="m12.652 15.373l1.499 3.242 2.991.35-2.106 2.688.482 3.44-2.866-1.149-3.209 2.324.594-4.002-2.78-2.569 3.81-.885 1.585-3.44z" fill="#fff"/></symbol><symbol id="vip" viewBox="0 0 69 32"><path d="m26.73 28.85h-8.479l-3.837-27.074h6.273l1.75 18.648 1.856-18.648h6.267z" fill="#3498db"/><path d="m32.489 1.776h5.283v27.074h-5.283z" fill="#3498db"/><path d="m12.784 4.92c-.083.106-.199.184-.333.217-.062.014-.128.022-.196.022s-.134-.008-.197-.022c.011-.04.013-.089.013-.138s-.003-.097-.008-.145c.001-.003.001-.014.001-.024 0-.128-.017-.252-.049-.37l.174-.083-.178.073c-.031-.138-.075-.259-.13-.373-.073-.112-.158-.218-.253-.313l-.132-.132h.053c.276-.094.504-.273.657-.504-.17.173-.396.299-.65.344-.007-.091.046-.171.065-.27.017-.076.027-.164.027-.254 0-.32-.123-.612-.325-.829l-.098-.098v-.04l-.158-.112c0-.053 0-.099-.046-.152-.102-.307-.283-.564-.519-.757-.086-.066-.182-.12-.286-.158-.075-.055-.151-.101-.232-.138-.239-.252-.556-.419-.912-.458-.064-.012-.13-.019-.198-.019s-.134.007-.198.019c-.035-.009-.083-.014-.132-.014s-.097.005-.143.014c-.199.027-.377.115-.518.244-.085-.026-.184-.041-.286-.041-.015 0-.031 0-.046.001-.089.003-.175.025-.253.061-.076.037-.144.088-.2.15-.096.105-.168.234-.204.377-.089.05-.162.094-.232.142-.163.092-.304.218-.414.369-.106.149-.169.329-.174.524.03-.184.112-.347.232-.475.117-.121.261-.218.421-.281l.12-.003c-.002.032-.003.069-.003.106s.001.074.003.111c-.175.105-.321.241-.44.4-.148.202-.252.438-.299.694-.016.075-.024.149-.024.225s.008.15.024.221c-.071.07-.152.136-.241.189-.105.05-.223.079-.347.082.004 0 .009 0 .015 0 .128 0 .25-.027.36-.075.09-.042.173-.095.247-.158l-.002.067c.06.132.142.244.243.336-.002.037-.004.08-.004.123s.002.086.005.128c0-.002 0 .002 0 .006 0 .099.012.195.035.287-.115.095-.252.174-.404.221.153-.029.295-.091.418-.179.042.116.1.214.17.302-.032.082-.064.152-.099.219-.04.061-.084.121-.13.179-.141-.038-.266-.083-.384-.141-.269-.151-.493-.376-.645-.647.132.282.337.521.591.694.101.068.209.128.323.177-.077.106-.177.195-.285.272-.195.147-.433.235-.691.241.034.004.074.006.116.006.235 0 .454-.066.641-.18.14-.081.266-.178.378-.288l.178.046c.012.115.045.22.095.315.037.075.076.142.12.206l-.426.285c-.37.264-.707.555-1.063.832-.561.436-1.611 1.228-.726 1.941s1.948.891 2.912 1.36c.152.073.403.165.575.264-.155.607-.398 1.14-.718 1.617-.2.259-.972.701-1.309 1.097-1.407 1.644-.224 2.958.337 3.302.018 1.816.19 3.579.504 5.293-.953.208-2.142 1.211-2.895 1.548-.063.035-.135.064-.211.084-.059.001-.086-.084-.119-.117-.159-.186-.364-.327-.598-.407-.042-.01-.08-.014-.119-.014s-.076.004-.112.012-.056.032-.082.039-.066 0-.099 0c-.091.03-.169.08-.231.145-.101.091-.211.178-.326.257-.57.327-1.258.668-1.966.971-.126.117-.105.175-.077.228s1.451-.624 1.61-.664h.059c.053 0 .231-.046.258 0s-.112.198-.145.231c-.158.185-.416.416-.555.555-.264.264-.66.601-.66.984.145.557.372 1.046.671 1.482.026.045.07.097.121.142.107-.012.202-.055.279-.119-.001-.046-.001-.098-.04-.131l-.046-.119c.112-.059.185-.119.185-.244s-.04-.086-.033-.119.092-.192.099-.317c-.009-.052-.014-.111-.014-.172s.005-.12.015-.178c.039-.086.125-.099.171-.159s0-.04 0-.046.185 0 .251-.053 0-.086.066-.106.092.033.139 0 0-.046 0-.086h.073s.04.013.079.013c.012.004.026.006.041.006.05 0 .093-.026.117-.065s0-.001 0-.034c.01-.006.023-.01.036-.01s.026.004.037.01 0 0 0 0 .079 0 .119 0v0l .106-.04h.409c.106 0 .145-.092.244-.139s.211-.033.172-.185c0 0-.04 0 0-.046.074-.055.158-.107.247-.153.301-.17.612-.355.909-.487.442-.205.885-.37 1.321-.535-.013.167-.02.362-.02.558s.007.391.022.584c.131.978.573 2.503.606 3.005.012.105.019.227.019.35s-.007.245-.02.365c-.758.078-.784.553-.784.751-.032.022-.055.058-.059.098.019.153.061.291.122.418.162.732.258 1.582.261 2.454.026.011.055.016.086.016s.06-.005.088-.015-.068-1.525-.035-1.809c0-.119.046-.165.158-.073.164.234.314.501.437.782.236.545.302.988.751 1.087.123.014.264.022.408.022.365 0 .718-.051 1.051-.147.047-.016.111-.053.165-.1.011-.041.018-.089.018-.138s-.007-.097-.02-.142c-.039-.049-.118.004-.184-.036h-.073s0-.079 0-.119-.152-.046-.258-.086-.191-.211-.337-.277c-.12-.039-.224-.1-.311-.179-.065-.092.001-.165.001-.27s-.066-.119-.059-.178.073-.092.079-.172-.04-.053-.04-.079 0-.059 0-.099c-.004-.034-.006-.073-.006-.112s.002-.079.007-.117c.118.005.046-.088.059-.154.002-.195.021-.384.056-.568.004-.022.009-.07.009-.119s-.004-.097-.012-.144c.001-.101.001-.12-.138-.107-.053-.462-.132-.944-.158-1.466-.013-.316-.021-.687-.021-1.06 0-.938.048-1.866.143-2.779-.01-.038-.01-.183.03-.348.004-.114.018-.223.042-.328.051-.018.112-.042.177-.06.158-.034.323-.041.481-.061l.462-.059c.304-.046.607-.086.898-.158.262-.062.486-.194.66-.376.183-.183.306-.425.337-.695.003-.058.005-.119.005-.18 0-.252-.028-.497-.081-.732-.442-1.779-1.039-3.353-1.797-4.831-.086-.187-.231-.449-.393-.699.709-.589 1.165-1.883 1.607-2.84.099-.205.152-.469.231-.707.165-.482.39-.951.535-1.446.032-.102.07-.189.116-.271.539-.078.95-.542.95-1.102 0-.028-.001-.055-.003-.082-.063-.464-.306-.866-.656-1.136.038-.089.069-.19.081-.296.003-.032.005-.065.005-.097 0-.123-.023-.241-.066-.349-.047-.122-.105-.234-.173-.337-.021-.101-.057-.196-.105-.284l.003.006c.093.095.205.172.33.222.095.035.198.053.305.053.051 0 .1-.004.149-.012-.023.002-.044.003-.065.003-.134 0-.261-.03-.374-.084-.124-.062-.232-.151-.317-.26.068-.097.132-.206.185-.32.03-.066.055-.132.075-.2.037-.006.077-.004.118-.004.115 0 .225-.019.328-.055.138-.048.256-.143.335-.266.068-.114.108-.248.108-.392 0-.01 0-.019-.001-.028-.015.142-.067.268-.147.373zm-9.812 20.08c0-.053.073-.106.132-.073s-.073.066-.132.073zm3.962-19.651h-.033s0-.053 0-.086v0zm-.331-1.823c.023-.074.046-.133.071-.19-.007.036-.008.063-.008.091s.001.056.003.083 0 .036 0 .056zm.469.575v-.079l.086.04c-.03.01-.057.023-.08.04zm0 .607h-.04l-.046-.086c.028.034.061.062.097.085zm-.086-.086l.059.119v-.112zm-.422-.904v-.066l.04.132-.053.073c.002-.05.006-.098.014-.145zm.066-.093v0 .059zm.205.74v0s0 0 0 .046c-.001.018-.001.039-.001.059s.001.042.002.062v-.003l-.073-.099zm0 .297c0 .046 0 .092 0 .145h-.178c.024-.049.06-.09.104-.118l.067-.04zm1.584-4.358h.053c-.139.066-.264.145-.396.211v0c .092-.097.207-.17.338-.21zm-1.241.356c.096-.09.225-.146.367-.146.006 0 .011 0 .017 0 .029-.004.063-.006.098-.006s.069.002.103.006l-.037.145h-.119c-.186.011-.348.107-.448.249l-.173.068c.039-.124.105-.231.191-.317zm-.218.535l-.066.158c0-.053 0-.099 0-.152zm-.693 1.4c.073-.221.188-.411.337-.569l.065-.059-.132.343c-.095.203-.196.376-.311.539.007-.012.007-.013.007-.014 0-.086.012-.169.035-.248zm0 .495c-.001-.018-.002-.038-.002-.059s.001-.042.002-.062c.107-.108.205-.229.291-.358l.006-.009v.053c-.037.107-.059.231-.059.36 0 .041.002.081.006.12v.088.119c-.093-.07-.17-.155-.229-.254zm.297.872l.086-.086.04.112c0 .046 0 .086 0 .132s0 .086 0 .125c-.052-.082-.095-.176-.124-.276zm.039.7l.099-.125.099.086h-.059c-.046.033-.084.075-.111.124l-.001.035h-.092zm.099.568c-.04-.081-.068-.175-.079-.274l.191-.004c0 .112 0 .224 0 .33s0 .079 0 .119c-.028-.049-.057-.107-.082-.168zm0 2.853c.424-.211.785-.431 1.126-.677.036.459.425 1.997.425 1.997-.33-.33-1.156-1.01-1.539-1.327zm4.9-3.137l-.079-.132-.099-.192v-.125h.046c.058.02.125.031.195.031s.137-.011.199-.033c.037.098.067.209.081.326.005.041.007.083.007.124s-.002.083-.007.124c-.095-.036-.178-.077-.255-.126zm-.918-3.341l-.119-.112-.073-.106-.059-.066c.061.045.115.092.165.145.042.051.079.107.11.167zm.377.634l.066.053.053.046c.019.058.033.125.039.194l-.033-.036c-.038-.04-.079-.077-.123-.11l-.003-.002c0-.059 0-.106 0-.152zm0 .33l.046.04.092.092.04.046c.001.016.002.034.002.053s-.001.037-.002.055v-.002c-.033-.103-.088-.192-.159-.264z" fill="#ea4c89"/><path d="m57.258 30.693c.059.251.575.264.858.211.713-.132.878-.39.977-.726.04-.145.073-.284.112-.449.005-.079.032-.152.074-.213.003.061.005.13.005.2s-.002.139-.006.208c.04.016.089.031.141.031.008 0 .017 0 .025-.001.045-.185.098-.548.144-.885.014-.106.037-.202.069-.294.06-.107.124-.207.193-.301-.005-.046.054-.105.081-.158.067-.134.106-.292.106-.459 0-.238-.08-.457-.214-.633-.067-.055-.153-.093-.247-.103-.068 0-.147 0-.161 0-.009-.052-.014-.111-.014-.172s.005-.12.015-.178c-.001-.218.369-2.074.389-2.179.099-.296.157-.638.157-.993 0-.478-.104-.931-.29-1.339-.012-.02-.026-.067-.031-.117 0-.154.277-.332.66-.86.515-.66.99-1.413 1.492-2.1.159-.181.339-.338.538-.469.345-.298.64-.621.897-.973.051-.072.105-.115.168-.141-.045.4-.073.863-.073 1.333 0 1.049.136 2.066.391 3.034.028.128.061.353.107.578.06.186.111.409.143.639.002.484-.057.946-.037 1.395 0 .231 0 .456 0 .66.005.099.008.214.008.33s-.003.232-.009.346c-.016.789-.094 1.564-.231 2.318.013-.043.013.003-.026.049-.095.251-.153.54-.158.843.006.026.01.054.01.082s-.004.055-.01.082c.001.051-.079.077-.072.143s.106.092.125.158 0 .066 0 .139-.04.053 0 .139.079.086.053.165-.099.073-.125.132 0 .139 0 .211-.119.106-.178.231 0 .132 0 .185-.086.053-.119.099c-.067.093-.125.2-.168.314-.017.072-.033.125-.052.176-.044.084-.09.117-.103.236-.003.035-.005.075-.005.116s.002.081.005.121c0 .081.211.114.389.14.075.008.163.013.251.013s.176-.005.262-.014c.518.001.815-.138.953-.475.092-.33.162-.719.196-1.118.048-.255.088-.486.14-.684 0-.112.053-.224.073-.337.042-.15.067-.322.067-.5 0-.019 0-.039-.001-.058-.03-.251-.132-.477-.285-.659l-.084-.064s-.086 0-.092-.053c-.003-.029-.005-.062-.005-.096s.002-.067.005-.1c.244-1.422 1.419-2.776.759-4.962 0-.099-.092-.192-.119-.297s0-.125 0-.192c-.026-.168-.04-.362-.04-.559 0-.022 0-.044.001-.065.005-.275.038-.544.097-.802q.147-.727.312-1.414c.112-.482.211-.957.317-1.44.053-.244.125-.462.192-.66s.119-.462.178-.66c.462-1.875-.192-3.044-1.373-4.444-.16-.175-.265-.404-.284-.657.024-.318.092-.61.198-.883.066-.346.153-.658.259-.961.13-.286.328-.61.48-1.032.042-.136.084-.247.133-.356l-.008-.021c.033 0 0 0 .04.112s.125.297.139.324c.245.688.497 1.259.783 1.809.035.053.128.179.194.311s.158.363.251.528c.132.281.391.483.701.534.023.002.044.003.066.003.135 0 .263-.035.373-.097.246-.2.411-.497.438-.832 0-.143 0-.348 0-.499s.046-.258.066-.39c.007-.2.011-.435.011-.671 0-.51-.018-1.015-.054-1.515.004-.078.004-.223.004-.362.042-.169.066-.362.066-.561 0-.002 0-.005 0-.007-.025-.158-.094-.298-.192-.41-.101-.11-.218-.205-.349-.279-.127-.078-.23-.154-.327-.238-.055-.054-.118-.108-.183-.159-.121-.059-.255-.096-.397-.109-.117-.016-.246-.025-.378-.025s-.261.009-.388.027l-.282.051h-.092c-.014-.012-.026-.028-.033-.045.104-.086.194-.184.267-.293l.076-.117.079.04c.132.051.285.08.445.08.013 0 .026 0 .039-.001.17-.001.331-.045.472-.121.136-.074.24-.206.278-.363-.049.146-.159.264-.299.325-.113.049-.241.077-.375.077-.027 0-.054-.001-.081-.003-.157-.01-.305-.05-.439-.115l-.059-.037c.076-.15.127-.325.145-.509v-.085c.107-.096.194-.212.255-.343l.003-.053c.067.078.158.134.261.158.048.011.099.018.152.018s.104-.006.153-.018c-.047.011-.096.018-.146.018s-.099-.006-.146-.018c-.085-.033-.157-.093-.206-.169l-.001-.061c.032-.114.051-.245.051-.38 0-.064-.004-.127-.012-.189-.014-.219-.061-.431-.136-.628.032-.042.054-.108.07-.177.01-.05.016-.101.016-.153 0-.163-.052-.314-.141-.437l-.045-.064c-.016-.157-.063-.301-.135-.428-.118-.228-.323-.403-.571-.481-.087-.042-.18-.075-.278-.093-.074-.089-.163-.158-.267-.198-.037-.003-.075-.004-.113-.004s-.076.001-.114.003c-.034 0-.067-.04-.107-.053-.041-.005-.088-.007-.135-.007s-.095.003-.141.008l-.133-.001c-.019.001-.041.002-.063.002s-.044-.001-.066-.002-.089-.04-.136-.053c-.056-.009-.12-.014-.185-.014s-.129.005-.192.014c-.149.007-.296.041-.431.095l-.427-.003c-.009 0-.02 0-.032 0-.232 0-.449-.064-.634-.175-.183-.148-.313-.365-.35-.612.018.256.133.487.309.655.161.128.359.215.575.244l-.152.1c-.074.049-.139.102-.199.159l-.105-.08c-.726-.522-1.479-.991-2.021-1.281-.127-.076-.28-.122-.444-.122-.025 0-.05.001-.074.003-.128.002-.25.036-.358.094-.07.036-.134.085-.187.143-.062.069-.111.151-.144.24-.027.076-.046.159-.054.245.034.844.22 1.631.531 2.352.155.38.32.776.644 1.687.112.32.177.69.177 1.074 0 .161-.011.32-.033.476.002.127.002.279-.038.425-.007.149-.033.288-.076.421-.129.265-.278.504-.452.723-.165.232-.281.521-.317.836-.005.045-.007.087-.007.13 0 .408.199.769.504.992l.109.068c.004.037.006.079.006.122s-.002.086-.007.127c.043.563.125 1.087.245 1.595.046.209.125.48.178.764.057.273.091.588.092.91 0 .219.092 1.038.106 1.144.033.251.152.66-.04.806-.442.377-.81.825-1.09 1.329-.494.899-1.019 1.998-1.489 3.126-.148.372-.214.517-.28.669s-.112.297-.165.442-.132.271-.198.409c-.09.165-.142.36-.142.569 0 .032.001.064.004.096 0 .214.066.438.092.656.121.802.209 1.762.243 2.735.001.474.094.896.12 1.319.009.099.014.214.014.33s-.005.231-.015.345c.001.065-.039.131-.052.203s.033.218 0 .324-.132.178-.152.33c0 .033 0 .073 0 .112-.011.038-.017.081-.017.125s.006.088.018.129c.059.142.092.122.052.294 0 .066 0 .132 0 .198-.03.141-.088.265-.167.372-.064.063-.117.037-.196.077s-.079.066-.112.165-.059.086-.119.158c-.134.155-.233.344-.282.552-.027.076-.042.154-.042.235 0 .006 0 .013 0 .019zm9.436-24.017c.066 0 .158-.046.251-.053h.092c.029-.002.062-.004.096-.004s.067.001.1.004c.035 0 .108 0 .088.086-.125 0-.264 0-.284.092s.152.218.264.251.31 0 .449.066c.033 0 .073.046.125.073l.145.066c.077.017.141.035.204.057-.021.098-.035.19-.055.281-.103.647-.275 1.155-.407 1.783-.053 0-.073-.086-.092-.139-.198-.522-.277-.621-.588-1.545-.106-.343-.238-.693-.39-1.017zm-.125-.297c.022-.002.047-.003.073-.003s.051.001.076.003c.102 0 .215-.06.267 0s-.059 0-.119 0-.238.145-.284.112c-.007-.017-.011-.036-.011-.056s.004-.04.012-.057zm-4.907-3.077l-.04-.079.053.066zm.661-1.149l.158.066c-.045.107-.086.235-.116.368-.065.056-.119.098-.17.142-.084.078-.164.16-.239.246-.092-.029-.165-.084-.22-.154-.088-.127-.14-.283-.14-.451 0-.007 0-.013 0-.02-.008.045-.013.095-.013.147 0 .134.032.261.088.374.046.082.113.153.194.205l-.037.048-.086.079-.059-.053c-.114-.14-.193-.313-.217-.503-.016-.089-.025-.187-.025-.286s.009-.196.026-.29c-.038.14-.059.289-.059.443 0 .045.002.09.005.134-.086-.31-.152-.594-.225-.897v0c .244.099.442.158.766.284zm-.086.858l.073-.046v.033zm.086-.053v0 0l-.033.066zm.125-.409c.045-.112.092-.205.144-.294.041.01.08.057.08.07s-.046.099-.079.152zm-.554.753l.059-.046.119-.099h.191l-.086.165c-.026.003-.056.005-.086.005-.07 0-.138-.009-.203-.026zm4.034 2.8v0s .099-.139.066-.192.033 0 .04 0v .073l-.073.053zm.205-.212h.053l-.04.04c-.013-.02-.02-.053-.013-.053zm.799-3.07l-.073-.119c-.038-.138-.095-.259-.168-.368.083.049.152.099.215.157l.046.052c0 .011.001.024.001.037 0 .08-.007.159-.022.235zm-.535 1.981l.059-.086v.191s0 0 0 0v0c .009.054.014.115.014.178s-.005.125-.015.185l-.039.046-.04-.053c-.018-.036-.032-.079-.039-.123-.002-.024-.002-.05-.002-.075s.001-.051.002-.076c.059-.115.059-.168.059-.228zm0 .601c-.085.083-.183.154-.29.208.033-.126.078-.235.131-.339-.003-.008-.002-.031-.002-.054s-.001-.046-.004-.069c.02.046.042.082.067.117zm.502-3.177c-.131-.136-.278-.254-.439-.351l-.049-.005c-.029-.058-.062-.108-.1-.153.192.042.355.146.469.29.043.054.08.112.111.174zm.172.892q-.046-.119-.106-.231v0c .021-.071.038-.154.046-.239.059.087.094.2.094.321 0 .015-.001.03-.002.045-.014.025-.027.046-.041.067zm.046 1.076c0-.092-.053-.192-.073-.291s0-.165 0-.244c.021.048.044.109.063.172.009.058.012.111.012.165s-.003.106-.009.158zm-.218.621c.002-.029.003-.062.003-.096s-.001-.067-.003-.1c.007-.058.011-.13.011-.204s-.004-.146-.012-.217c.014-.024.028-.066.039-.109.045.111.096.213.157.309-.003.01-.002.028-.002.047s-.001.037-.001.055c-.054.102-.123.192-.204.268zm-.66 1.083v-.04l-.066-.092v-.04l.132-.059c.08-.042.15-.088.213-.14l-.035.088c-.072.094-.155.174-.248.242zm-.047.178l.079-.059c-.02.007-.046.033-.086.02zm-.152.086h.04zm-4.305-2.707h.04c.086.074.187.135.297.176-.014.045-.038.082-.066.115-.085.092-.085.065-.145-.04zm-3.533 25.132c-.046 0 0-.059 0-.073s0-.066.04-.053-.013.125-.04.125z" fill="#ea4c89"/><path d="m55.97 5.593c-.264-1.044-.757-1.948-1.425-2.694-.622-.654-1.315-.707-2.147-.985s-1.763-.132-2.846-.132h-7.158v27.074h5.943v-10.565h1.638c.039.001.084.001.13.001 1.105 0 2.157-.229 3.11-.641.784-.358 1.461-.961 1.919-1.711.474-.779.821-1.665 1-2.611.194-1.044.3-2.188.3-3.356 0-.093-.001-.187-.002-.28.003-.098.005-.23.005-.363 0-1.328-.17-2.615-.49-3.843z" fill="#3498db"/><path d="m51.625 10.321l1.162 4.114-3.553-2.377-3.553 2.377 1.162-4.114-3.355-2.641 4.272-.165 1.473-4.015 1.479 4.015 4.266.165-3.355 2.641z" fill="#fff"/></symbol><symbol id="webcam" viewBox="0 0 31 32"><path d="m15.333 0c-7.907 0-14.316 6.41-14.316 14.316s6.41 14.316 14.316 14.316c7.907 0 14.316-6.41 14.316-14.316s-6.41-14.316-14.316-14.316zm-9.595 8.974c0 0 0 0-.001 0-.394 0-.713-.319-.713-.713 0-.098.02-.191.055-.275.73-1.725 2.06-3.083 3.723-3.833.13-.056.229-.078.333-.078.398 0 .72.322.72.72 0 .294-.176.547-.428.659-1.379.616-2.449 1.708-3.021 3.061-.128.289-.377.461-.666.461-.001 0-.002 0-.003 0zm9.595 13.154c-4.314 0-7.812-3.497-7.812-7.812s3.497-7.812 7.812-7.812c4.314 0 7.812 3.497 7.812 7.812s-3.497 7.812-7.812 7.812z" fill="#ea4c89"/><path d="m15.333 7.449c-3.793 0-6.868 3.075-6.868 6.868s3.075 6.868 6.868 6.868c3.793 0 6.868-3.075 6.868-6.868s-3.075-6.868-6.868-6.868zm1.222 12.546c-.365.082-.784.128-1.213.128-3.198 0-5.791-2.593-5.791-5.791s2.593-5.791 5.791-5.791c2.76 0 5.069 1.93 5.65 4.515.09.405.137.826.137 1.258 0 2.767-1.941 5.081-4.535 5.655z" fill="#fff"/><path d="m14.527 10.645c-.254.059-.474.134-.684.227.255.23.397.556.397.915 0 .735-.596 1.331-1.331 1.331-.376 0-.715-.156-.957-.406-.238.477-.377 1.039-.377 1.634 0 2.064 1.673 3.738 3.738 3.738.288 0 .568-.033.837-.094 1.681-.376 2.937-1.876 2.937-3.67 0-2.077-1.684-3.761-3.761-3.761-.283 0-.559.031-.824.091z" fill="#fff"/><path d="m30.666 32c-.046-1.255-1.803-4.418-4.57-6.207-2.807 2.637-6.596 4.257-10.764 4.257s-7.957-1.62-10.772-4.265c-2.752 1.797-4.515 4.96-4.561 6.215z" fill="#3498db"/></symbol><symbol id="menu" viewBox="0 0 32 32"><path d="m16 32c-8.814 0-16-7.186-16-16s7.186-16 16-16 16 7.186 16 16-7.186 16-16 16zm0-30.877c-8.197 0-14.877 6.681-14.877 14.877s6.681 14.877 14.877 14.877 14.877-6.681 14.877-14.877-6.681-14.877-14.877-14.877z"/><path d="m25.825 21.446h-19.649c-.337 0-.561-.225-.561-.561s.225-.561.561-.561h19.649c.337 0 .561.225.561.561s-.225.561-.561.561z"/><path d="m25.825 16.561h-19.649c-.337 0-.561-.225-.561-.561s.225-.561.561-.561h19.649c.337 0 .561.225.561.561s-.225.561-.561.561z"/><path d="m25.825 11.677h-19.649c-.337 0-.561-.225-.561-.561s.225-.561.561-.561h19.649c.337 0 .561.225.561.561s-.225.561-.561.561z"/></symbol></defs></svg>
