<svg xmlns="http://www.w3.org/2000/svg" viewBox="0 0 64.27 48.67"><defs><style>.cls-1{fill:#3498db;}.cls-2{fill:#ea4c89;}</style></defs><title>apartments</title><g id="Layer_2" data-name="Layer 2"><g id="Graphics"><path class="cls-1" d="M30.94,16.74,27.4,19a2,2,0,0,0-1.19,1.58c-.15.94,1.2,2.91,1.2,2.91-.63.34-2.38,1.42-3.24,1.92l-1.51-.48a1.07,1.07,0,0,0-1.3.77l-.23,2.4a1.07,1.07,0,0,1-1.3.77L15.5,27.72,14.11,33.1,8.74,31.72,6.8,39.24,1.42,37.86.29,44.44,33.31,25l-.06-.09A17.26,17.26,0,0,1,30.94,16.74Z"/><path class="cls-1" d="M0,46.16a1.31,1.31,0,0,0,.84,1.28l6.38,1.13a2.63,2.63,0,0,0,1.93-.19L38.94,30.81A17.21,17.21,0,0,1,34,26.09Z"/><path class="cls-2" d="M52.56.2C31.2-2.54,24.11,23.91,44,32.22,65.33,35,72.42,8.51,52.56.2ZM56.45,26c-4.14,2.51-7.9-.5-11.16-1.94-3-1.32-6.41-1.93-7.47-1.61.78-.83,1.94-3.91,2.08-7.34s-.57-8.29,3.6-10.73c7.61-4.46,13.88,2.6,9,9.29C60.39,12.64,64,21.46,56.45,26Z"/></g></g></svg>