<svg xmlns="http://www.w3.org/2000/svg" viewBox="0 0 20 20"><defs><style>.cls-1{fill:#3498db;}</style></defs><title>erotic-calls</title><g id="Layer_2" data-name="Layer 2"><g id="Graphics"><path class="cls-1" d="M16.6,3.4A12.17,12.17,0,0,0,10.27,0a.68.68,0,0,0-.8.71h0a.68.68,0,0,0,.55.62,10.82,10.82,0,0,1,5.62,3,10.82,10.82,0,0,1,3,5.62.68.68,0,0,0,.62.55h0a.68.68,0,0,0,.71-.8A12.17,12.17,0,0,0,16.6,3.4Z"/><path class="cls-1" d="M9.66,3.54h0a.68.68,0,0,0,.5.6,8.43,8.43,0,0,1,5.69,5.69.68.68,0,0,0,.6.5h0a.68.68,0,0,0,.7-.86,9.78,9.78,0,0,0-6.63-6.63A.68.68,0,0,0,9.66,3.54Z"/><path class="cls-1" d="M9.87,6.5h0a.68.68,0,0,0,.39.56,5.88,5.88,0,0,1,2.68,2.68.68.68,0,0,0,.56.39h0a.67.67,0,0,0,.66-1,7.2,7.2,0,0,0-3.33-3.33A.67.67,0,0,0,9.87,6.5Z"/><path class="cls-1" d="M5,15c4.62,4.62,10.33,6.42,13.1,3.65A4.43,4.43,0,0,0,19,17.4a1.49,1.49,0,0,0,.12-.85l-.19-1.23a1.47,1.47,0,0,0-1.07-1.19l-3.57-1a1.47,1.47,0,0,0-1.43.38l-1,1a.93.93,0,0,1-1.19.11,21.55,21.55,0,0,1-2.86-2.41A21.55,21.55,0,0,1,5.35,9.39.93.93,0,0,1,5.45,8.2l1-1a1.47,1.47,0,0,0,.38-1.43l-1-3.57A1.47,1.47,0,0,0,4.69,1.12L3.46.92A1.49,1.49,0,0,0,2.6,1a4.43,4.43,0,0,0-1.29.89C-1.46,4.71.34,10.41,5,15Z"/></g></g></svg>