<svg xmlns="http://www.w3.org/2000/svg" xmlns:xlink="http://www.w3.org/1999/xlink" viewBox="0 0 40.42 57.56"><defs><style>.cls-1{fill:none;}.cls-2{fill:#ff0084;}.cls-3{fill:#fff;}.cls-4{clip-path:url(#clip-path);}</style><clipPath id="clip-path"><rect class="cls-1" x="7.29" y="9.7" width="22.07" height="28.11" transform="translate(-4.83 4.68) rotate(-12.87)"/></clipPath></defs><title>discreet-images</title><g id="Layer_2" data-name="Layer 2"><g id="Graphics"><polygon class="cls-2" points="40.42 0 10.96 0 10.96 6.19 12.8 5.77 12.8 1.87 38.58 1.87 38.58 37.42 37.48 37.42 37.91 39.29 40.42 39.29 40.42 0"/><polygon class="cls-3" points="14.65 5.35 21.75 3.73 14.65 3.73 14.65 5.35"/><polygon class="cls-3" points="36.73 3.73 29.78 3.73 36.21 31.84 36.73 31.84 36.73 3.73"/><path class="cls-2" d="M0,9.69H0L8.75,48l28.72-6.56,0-.1L28.72,3.14Zm10.1,36.07L2.21,11.11,27.35,5.37,35.26,40Z"/><g class="cls-4"><path class="cls-3" d="M17,57.38c.18.33.92.15,1.31,0,1-.47,1.1-.89,1.11-1.41,0-.22,0-.44,0-.69a.62.62,0,0,1,0-.33,5.21,5.21,0,0,1,.14.56.39.39,0,0,0,.25,0c0-.28-.07-.82-.13-1.31a2.08,2.08,0,0,1,0-.43,3.83,3.83,0,0,1,.15-.51c0-.09,0-.18.05-.27a1.54,1.54,0,0,0-.57-1.52.69.69,0,0,0-.4-.05c-.09,0-.21.05-.23,0s-.11-.37-.13-.49c-.06-.32-.28-3.11-.29-3.26a4.76,4.76,0,0,0-1.07-3.24.63.63,0,0,1-.11-.18c0-.22.27-.58.64-1.49.47-1.16.86-2.4,1.31-3.57a3.94,3.94,0,0,1,.6-.88,8.5,8.5,0,0,0,.9-1.75.53.53,0,0,1,.18-.24,17.52,17.52,0,0,0,2.08,6c.15.28.28.59.43.88a6.09,6.09,0,0,1,.45.84c.22.64.28,1.34.47,2l.29,1a9.74,9.74,0,0,1,.22,1,21.65,21.65,0,0,1,.56,3.29c0,.07,0,.14,0,.21a3.82,3.82,0,0,0,.1,1.26.48.48,0,0,1,.07.23c0,.08-.08.14,0,.23s.18.1.24.18,0,.1,0,.21,0,.09,0,.2.14.09.14.21-.11.14-.12.23.08.19.11.3-.12.2-.16.4.08.18.07.27-.1.11-.13.19a2.1,2.1,0,0,0-.12.53,1.75,1.75,0,0,1,0,.24.89.89,0,0,0-.06.39,2.16,2.16,0,0,0,.07.33c.07.11.35.09.61.06a3.6,3.6,0,0,0,.73-.15c.74-.25,1.12-.51,1.19-1a9.6,9.6,0,0,0-.11-1.77c0-.35-.06-.69-.07-1,0-.17,0-.34,0-.51a2.81,2.81,0,0,0-.13-.82,1.85,1.85,0,0,0-.67-.88l-.14-.06s-.13,0-.15,0a1.47,1.47,0,0,1,0-.28c-.21-2.13.94-4.51-.85-7.37-.08-.13-.2-.24-.28-.37s-.08-.17-.12-.26a5.77,5.77,0,0,1-.3-.87,5.69,5.69,0,0,1-.17-1.14q-.07-1.13-.11-2.17c0-.73-.07-1.45-.11-2.17,0-.36,0-.7,0-1s0-.7,0-1.06c-.06-2.85-1.45-4.27-3.68-5.8a1.62,1.62,0,0,1-.67-.88,4.52,4.52,0,0,1-.06-1.3,10.65,10.65,0,0,1,.09-1.21c.08-.53.24-1.08.28-1.73a4.41,4.41,0,0,1,0-.53.45.45,0,0,1,0-.07c.05,0,0,0,.1.15s.29.37.32.41a21,21,0,0,0,1.73,2.18c.16.16.34.3.48.46s.36.46.56.65a1.39,1.39,0,0,0,1.21.49,1.13,1.13,0,0,0,.58-.3,1.76,1.76,0,0,0,.3-1.37c0-.21-.15-.48-.19-.7s0-.38-.06-.58a30.73,30.73,0,0,0-.88-3c-.06-.21-.12-.41-.15-.62a3.57,3.57,0,0,0-.13-.83,1.2,1.2,0,0,0-.43-.51,2.13,2.13,0,0,0-.62-.27,3.73,3.73,0,0,1-.54-.21,3.09,3.09,0,0,0-.33-.17,1.75,1.75,0,0,0-.61,0,4.13,4.13,0,0,0-1.07.26l-.4.19-.13.07a.18.18,0,0,1-.09,0,2,2,0,0,0,.27-.53c0-.06,0-.12.06-.19l.13,0a1.89,1.89,0,0,0,.72-.07,1.49,1.49,0,0,0,.62-.35.83.83,0,0,0,.27-.63.8.8,0,0,1-.31.59,1.41,1.41,0,0,1-.61.28,1.75,1.75,0,0,1-.67,0l-.11,0a2.18,2.18,0,0,0,0-.78s0-.08,0-.13a1.55,1.55,0,0,0,.23-.6v-.08h0a.72.72,0,0,0,.44.12.94.94,0,0,0,.42-.14.91.91,0,0,1-.41.08A.63.63,0,0,1,21,16L20.94,16a2.12,2.12,0,0,0-.16-.81,3.19,3.19,0,0,0-.43-.83,1.43,1.43,0,0,0,0-.31,1.1,1.1,0,0,0-.41-.78l-.09-.07a1.6,1.6,0,0,0-.35-.55,1.44,1.44,0,0,0-1-.47,1.57,1.57,0,0,0-.45,0A.87.87,0,0,0,17.6,12a3.18,3.18,0,0,0-.33,0c-.06,0-.12,0-.18,0a1.85,1.85,0,0,0-.4.06l-.2,0c-.06,0-.11.07-.17.08s-.14,0-.22,0a1.87,1.87,0,0,0-.54.1,2,2,0,0,0-.58.3l-.61.21a1.83,1.83,0,0,1-1,0,1.44,1.44,0,0,1-.75-.75,1.5,1.5,0,0,0,.71.85,1.75,1.75,0,0,0,.92.12l-.15.15a2.08,2.08,0,0,0-.22.31l-.18-.07c-1.22-.42-2.51-.79-3.36-1a1.28,1.28,0,0,0-.78,0,1.16,1.16,0,0,0-.47.27,1,1,0,0,0-.21.28,1.11,1.11,0,0,0-.12.4,1.58,1.58,0,0,0,0,.36,9.72,9.72,0,0,0,1.63,3.09c.4.53.79,1,1.63,2.21a5,5,0,0,1,.8,2.13c0,.21.07.43.11.64a2.42,2.42,0,0,1,.05.61,5.59,5.59,0,0,1-.36,1.21A2.7,2.7,0,0,0,12.47,25a1.82,1.82,0,0,0,1.15,1.39l.17,0a1.73,1.73,0,0,1,.12.34,14.84,14.84,0,0,0,.92,2.1c.2.37.41.73.59,1.11a7,7,0,0,1,.49,1.27c.08.31.53,1.44.59,1.59.15.35.46.87.25,1.17a7.07,7.07,0,0,0-1,2.36,53.53,53.53,0,0,0-.94,5.37c0,.21-.07.44-.1.69s0,.46-.07.69-.08.44-.13.66a1.79,1.79,0,0,0,.07,1c.1.31.26.6.4.92a38.4,38.4,0,0,1,1.42,3.87c.2.6.46,1.18.66,1.77a5.64,5.64,0,0,1,.25.91c0,.11,0,.22,0,.33s.13.3.12.46-.12.31-.09.53c0,.05,0,.11,0,.16a.7.7,0,0,0,.1.36c.14.19.18.14.19.4,0,.1,0,.2,0,.29a1.43,1.43,0,0,1-.09.59c-.07.12-.15.1-.25.18s-.08.13-.1.28,0,.15-.11.28a2,2,0,0,0-.19.91A1,1,0,0,0,17,57.38Zm4.16-37.89c.1,0,.21-.13.34-.17l.14,0a1.8,1.8,0,0,1,.27-.06c.06,0,.17,0,.17.08-.19,0-.38.1-.37.24s.3.26.47.26.45-.1.67-.09c.05,0,.13,0,.21.06l.23,0a2.61,2.61,0,0,1,.29,0,3,3,0,0,1,0,.41c.11,1,.06,1.77.11,2.72-.09,0-.14-.09-.19-.16-.48-.67-.64-.78-1.44-2C21.81,20.35,21.48,19.9,21.17,19.49Zm-.29-.37a1.42,1.42,0,0,1,.2-.1c.14-.07.29-.17.39-.09,0,.05-.09,0-.16.06s-.28.3-.36.27A.22.22,0,0,1,20.87,19.12Zm-8.21-2.49-.09-.1.1.08Zm.53-1.9.25,0a3.42,3.42,0,0,0,0,.6,2.24,2.24,0,0,0-.19.25,5,5,0,0,0-.25.45.72.72,0,0,1-.37-.14,1.18,1.18,0,0,1-.38-.62,1.24,1.24,0,0,0,.3.71.86.86,0,0,0,.37.23l0,.08-.09.15-.11-.05a1.48,1.48,0,0,1-.53-.6,2.35,2.35,0,0,1-.23-.8,2.44,2.44,0,0,0,.13.74c-.24-.4-.45-.78-.67-1.19h0c.39,0,.69.05,1.2.11ZM13.41,16l.09-.1v.05Zm.1-.11,0,0,0,0,0,.11,0,0Zm0-.64a3.31,3.31,0,0,1,.09-.46c.08,0,.14,0,.15,0s0,.16-.05.25ZM13,16.53l.07-.09.12-.16h.29l-.06.27A1.2,1.2,0,0,1,13,16.53ZM19.82,19h0s.09-.23,0-.29,0,0,.06,0l.07.09,0,0-.08.1Zm.21-.38.08,0,0,.07S20,18.58,20,18.58ZM20,13.89l-.15-.14a1.84,1.84,0,0,0-.38-.45,1.58,1.58,0,0,1,.36.13l.08.06A1.89,1.89,0,0,1,20,13.89Zm0,3,.05-.14.07.1.05.09,0,.07s0,0,0,0v0a1.72,1.72,0,0,1,.17.5l0,.09-.08-.06a.63.63,0,0,1-.1-.16,1.78,1.78,0,0,1-.08-.2C20,17,20,17,20,16.89Zm.22.86a1.72,1.72,0,0,1-.34.42,3.18,3.18,0,0,1,.08-.46.88.88,0,0,0,0-.2.89.89,0,0,0,.13.13ZM19.68,13a3.15,3.15,0,0,0-.78-.33l-.07,0a1.2,1.2,0,0,0-.2-.18,1.19,1.19,0,0,1,.78.24A1.41,1.41,0,0,1,19.68,13Zm.59,1.2L20,13.94l0,0a2,2,0,0,0,0-.37.91.91,0,0,1,.27.49A1.25,1.25,0,0,1,20.27,14.23Zm.48,1.51c-.08-.12-.15-.25-.21-.39L20.4,15l.17.24A2.06,2.06,0,0,1,20.75,15.74Zm-.07,1a2.21,2.21,0,0,0,0-.28,2.9,2.9,0,0,0-.19-.58,1.65,1.65,0,0,0,0-.19,2.28,2.28,0,0,0,.33.38,1.5,1.5,0,0,1,0,.16A1.44,1.44,0,0,1,20.68,16.71Zm-.51,1.8-.05,0L20,18.35l0,0,.17-.14a1.77,1.77,0,0,0,.24-.28s0,.09,0,.14A1.8,1.8,0,0,1,20.17,18.51Zm0,.27.09-.11,0,0S20.23,18.79,20.17,18.78ZM20,19l0,0a.21.21,0,0,1,0,0ZM12.8,16.77l0-.06a1.47,1.47,0,0,0,.51.14.73.73,0,0,1-.06.19c-.09.17-.1.12-.23,0ZM17.53,54c-.06,0,0-.08,0-.1s0-.09,0-.09S17.57,54,17.53,54Z"/></g></g></g></svg>