<svg xmlns="http://www.w3.org/2000/svg" viewBox="0 0 72.67 44.8"><defs><style>.cls-1{fill:#ff0084;}.cls-2{fill:#3498db;}</style></defs><title>escort-service</title><g id="Layer_2" data-name="Layer 2"><g id="Graphics"><path class="cls-1" d="M19.05,4.6a14.55,14.55,0,0,1,20.67.17,14.83,14.83,0,0,1,.17,20.83,14.55,14.55,0,0,1-20.67-.17A14.83,14.83,0,0,1,19.05,4.6Zm3.63,3.66a9.62,9.62,0,0,0,.17,13.51,9.44,9.44,0,0,0,13.41.17,9.62,9.62,0,0,0-.17-13.51A9.44,9.44,0,0,0,22.68,8.26Z"/><polygon class="cls-1" points="0 24.12 20.52 44.8 24.89 40.4 4.37 19.72 0 24.12"/><polygon class="cls-1" points="19.57 20.32 0.59 39.44 5.32 44.2 24.3 25.07 19.57 20.32"/><path class="cls-2" d="M53.07,25a14.55,14.55,0,0,1-20.67.17,14.83,14.83,0,0,1,.17-20.83,14.55,14.55,0,0,1,20.67-.17A14.83,14.83,0,0,1,53.07,25Zm-16.87-17A9.62,9.62,0,0,0,36,21.56a9.44,9.44,0,0,0,13.41-.17,9.62,9.62,0,0,0,.17-13.51A9.44,9.44,0,0,0,36.21,8.05Z"/><polygon class="cls-2" points="52.72 19.94 70.61 37.97 71.04 39.73 67.67 43.13 66.02 42.85 48 24.7 52.72 19.94"/><polygon class="cls-2" points="72.67 44.8 55.66 40.96 68.86 27.66 72.67 44.8"/><path class="cls-1" d="M25.83,6.19A9.57,9.57,0,0,1,36.09,8.43a9.77,9.77,0,0,1,2.52,9.43,4.22,4.22,0,0,1,4.11,3.65,14.93,14.93,0,0,0-3-16.73A14.68,14.68,0,0,0,24.23,1.28,5.06,5.06,0,0,1,25.83,6.19Z"/></g></g></svg>