<svg xmlns="http://www.w3.org/2000/svg" viewBox="0 0 59.02 48.46"><defs><style>.cls-1{fill:#ea4c89;}.cls-2{fill:#3498db;}.cls-3{fill:#fff;}</style></defs><title>forum</title><g id="Layer_2" data-name="Layer 2"><g id="Graphics"><path class="cls-1" d="M53.2,48.19A1,1,0,0,0,53.34,47L50,40.09h4.68A4.36,4.36,0,0,0,59,35.73V15.93a4.36,4.36,0,0,0-4.37-4.37H43.77V24.16a8.31,8.31,0,0,1-8.3,8.3H22.54L19.18,34.7v1a4.37,4.37,0,0,0,4.37,4.37H37.68L52,48.3A1,1,0,0,0,53.2,48.19Z"/><path class="cls-2" d="M4.37,28.53H9L5.59,35.46A1,1,0,0,0,7,36.78l14.39-8.25H35.47a4.37,4.37,0,0,0,4.37-4.37V4.37A4.37,4.37,0,0,0,35.47,0H4.37A4.37,4.37,0,0,0,0,4.37V24.16A4.37,4.37,0,0,0,4.37,28.53Z"/><circle class="cls-3" cx="28.63" cy="14.26" r="3.27"/><circle class="cls-3" cx="19.92" cy="14.26" r="3.27"/><path class="cls-3" d="M11.21,11a3.27,3.27,0,1,1-3.26,3.27A3.26,3.26,0,0,1,11.21,11Z"/></g></g></svg>