<svg xmlns="http://www.w3.org/2000/svg" viewBox="0 0 33 33"><defs><style>.cls-1{opacity:0;}.cls-2{fill:#0a0a0a;}</style></defs><title>gallery</title><g id="Layer_2" data-name="Layer 2"><g id="Graphics"><g class="cls-1"><circle class="cls-2" cx="16.5" cy="16.5" r="16"/></g><path class="cls-2" d="M16.5,33A16.5,16.5,0,1,1,33,16.5,16.52,16.52,0,0,1,16.5,33Zm0-32A15.5,15.5,0,1,0,32,16.5,15.52,15.52,0,0,0,16.5,1Z"/><path class="cls-2" d="M14.86,8.49h-6A.89.89,0,0,0,8,9.42v5.35a.89.89,0,0,0,.83.93h6a.89.89,0,0,0,.83-.93V9.42A.89.89,0,0,0,14.86,8.49Z"/><path class="cls-2" d="M24.19,8.49h-6a.89.89,0,0,0-.83.93v5.35a.89.89,0,0,0,.83.93h6a.89.89,0,0,0,.83-.93V9.42A.89.89,0,0,0,24.19,8.49Z"/><path class="cls-2" d="M14.86,17.29h-6a.89.89,0,0,0-.83.93v5.35a.89.89,0,0,0,.83.93h6a.89.89,0,0,0,.83-.93V18.22A.89.89,0,0,0,14.86,17.29Z"/><path class="cls-2" d="M24.19,17.29h-6a.89.89,0,0,0-.83.93v5.35a.89.89,0,0,0,.83.93h6a.89.89,0,0,0,.83-.93V18.22A.89.89,0,0,0,24.19,17.29Z"/></g></g></svg>