<svg xmlns="http://www.w3.org/2000/svg" viewBox="0 0 49.78 48.46"><defs><style>.cls-1{fill:#3498db;}</style></defs><title>gays</title><g id="Layer_2" data-name="Layer 2"><g id="Graphics"><polygon class="cls-1" points="34.89 30.68 48.54 43.85 48.79 44.62 45.86 47.45 45.14 47.38 31.36 34.08 34.89 30.68"/><polygon class="cls-1" points="49.78 48.46 37.09 45.71 46.94 36.2 49.78 48.46"/><polygon class="cls-1" points="14.89 17.78 1.31 4.67 1.07 3.77 4.06 0.88 4.54 0.98 18.42 14.38 14.89 17.78"/><polygon class="cls-1" points="0 0 12.7 2.75 2.85 12.26 0 0"/><path class="cls-1" d="M35.28,19.44a10.56,10.56,0,0,0-1.5-1.19,11.22,11.22,0,0,1,.44,3.09,11.4,11.4,0,0,1-.31,2.59,6.74,6.74,0,0,1-1.48,7.79A7.34,7.34,0,0,1,24,32.94h0l-.2-.12a6.77,6.77,0,0,1-1.32-1,6.65,6.65,0,0,1-.59-.66L21.74,31a6.52,6.52,0,0,1-.45-.68l0,0a6.49,6.49,0,0,1-.73-2l-.24-1.09h.14a6.86,6.86,0,0,1,2.13-5,7.38,7.38,0,0,1,5.62-2,5.48,5.48,0,0,0-1.55-2.77,5.65,5.65,0,0,0-1-.76,11.19,11.19,0,0,0-5.77,3,10.58,10.58,0,0,0-3,5.24,10.38,10.38,0,0,0-.27,2.29c0,.06,0,.12,0,.18a10,10,0,0,0,.08,1.14l0,.26A10.43,10.43,0,0,0,17,29.93l.06.2a10.18,10.18,0,0,0,2.67,4.33,11.2,11.2,0,0,0,15.43-.12A10.29,10.29,0,0,0,35.28,19.44Z"/><path class="cls-1" d="M15.56,27.12a11.4,11.4,0,0,1,.31-2.59,6.74,6.74,0,0,1,1.48-7.79,7.34,7.34,0,0,1,8.5-1.21h.06v0a6.77,6.77,0,0,1,1.45,1.06,6.68,6.68,0,0,1-.13,9.66,7.37,7.37,0,0,1-5.62,2,5.47,5.47,0,0,0,1.55,2.77,5.75,5.75,0,0,0,1,.76,11.19,11.19,0,0,0,5.79-3A10.29,10.29,0,0,0,30.06,14a11.2,11.2,0,0,0-15.43.12A10.29,10.29,0,0,0,14.5,29,10.56,10.56,0,0,0,16,30.22,11.22,11.22,0,0,1,15.56,27.12Z"/></g></g></svg>