<svg xmlns="http://www.w3.org/2000/svg" viewBox="0 0 42.83 48.46"><defs><style>.cls-1{fill:#3498db;}.cls-2{fill:#ea4c89;}</style></defs><title>erotic-massage</title><g id="Layer_2" data-name="Layer 2"><g id="Graphics"><path class="cls-1" d="M1.6,48.46H15.93a1.6,1.6,0,0,0,1-.35l4-3.19a1.41,1.41,0,0,1,.88-.31H41.42a1.41,1.41,0,0,0,1.41-1.41V35.61a1.41,1.41,0,0,0-1.41-1.41H21.48a1.41,1.41,0,0,0-.94.36l-8.36,7.52a1.6,1.6,0,0,1-1.07.41H1.6A1.6,1.6,0,0,0,0,44.09v2.77A1.6,1.6,0,0,0,1.6,48.46Z"/><circle class="cls-1" cx="8.39" cy="33.27" r="5.72"/><path class="cls-2" d="M34.87,13.19a4.3,4.3,0,0,0-3.67,1.35l-11,11.9a1.88,1.88,0,0,0,0,2.53l.83.93a1.88,1.88,0,0,0,2.44.32l6.26-4.1v5H41.06a1.42,1.42,0,0,0,1.4-1.63,40.93,40.93,0,0,0-4.35-14.07A4.3,4.3,0,0,0,34.87,13.19Z"/><path class="cls-2" d="M25.46,1.14c.14-.06,6.44-3.69,10.87,2.37s4.94,14.2,4.94,14.2c-1.52-3.73-3.27-7.18-7.11-8l-3.22-.42Z"/><circle class="cls-2" cx="28.35" cy="6.71" r="6.18"/></g></g></svg>