<svg xmlns="http://www.w3.org/2000/svg" viewBox="0 0 43.79 48.46"><defs><style>.cls-1{fill:#3498db;}.cls-2{fill:#ea4c89;}.cls-3{fill:#fff;}</style></defs><title>porn</title><g id="Layer_2" data-name="Layer 2"><g id="Graphics"><path class="cls-1" d="M43.77,41.56,40.86,19.47a.56.56,0,0,0-.63-.48L5,23.63a.56.56,0,0,0-.48.63L7.44,46.34a2.43,2.43,0,0,0,2.73,2.1l31.51-4.15A2.43,2.43,0,0,0,43.77,41.56Zm-29.67-.87-1.9-3h0l-1,3.43-2.85.39,2.08-5.88L7.15,31l3.07-.42,1.56,2.49h0l.84-2.82,2.84-.39-1.89,5.26,3.57,5.09Zm13.28-.44-3.07-3.86h-.08l-1.92,4.54-4.87.67L21.3,33.8,16.07,28l5.25-.72,2.52,3.17h.08l1.59-3.73,4.85-.66-3.5,7,5.8,6.46Zm10.94-2.87-1.9-3h0l-1,3.43-2.85.39,2.08-5.88-3.22-4.55,3.07-.42L36,29.81h0L36.87,27l2.84-.39-1.89,5.26L41.4,37Z"/><polygon class="cls-2" points="32.55 17.2 31.7 22.41 36.37 21.79 37.21 16.58 32.55 17.2"/><polygon class="cls-2" points="23.22 18.43 22.37 23.64 27.04 23.02 27.88 17.81 23.22 18.43"/><polygon class="cls-2" points="13.89 19.66 13.05 24.86 17.71 24.25 18.55 19.04 13.89 19.66"/><path class="cls-2" d="M42.35,15.91l-.48.06L41,21.18l2-.26a.56.56,0,0,0,.48-.63L43,16.39A.56.56,0,0,0,42.35,15.91Z"/><path class="cls-2" d="M2.12,21.21a.56.56,0,0,0-.48.63l.51,3.9a.56.56,0,0,0,.63.48l5.6-.74.84-5.21Z"/><polygon class="cls-3" points="9.23 20.27 8.38 25.48 13.05 24.86 13.89 19.66 9.23 20.27"/><polygon class="cls-3" points="18.55 19.04 17.71 24.25 22.37 23.64 23.22 18.43 18.55 19.04"/><polygon class="cls-3" points="27.88 17.81 27.04 23.02 31.7 22.41 32.55 17.2 27.88 17.81"/><polygon class="cls-3" points="37.21 16.58 36.37 21.79 41.03 21.18 41.87 15.97 37.21 16.58"/><polygon class="cls-2" points="18.31 8.43 21.72 12.46 26.03 10.58 22.62 6.55 18.31 8.43"/><polygon class="cls-2" points="9.68 12.19 13.09 16.21 17.41 14.34 14 10.31 9.68 12.19"/><path class="cls-2" d="M.34,16.26A.56.56,0,0,0,0,17l1.57,3.6a.56.56,0,0,0,.74.29l6.42-2.8-3.41-4Z"/><path class="cls-2" d="M37.54,0,35.66.87l3.41,4,.49-.21a.56.56,0,0,0,.29-.74L38.28.34A.56.56,0,0,0,37.54,0Z"/><polygon class="cls-2" points="26.93 4.67 30.34 8.7 34.76 6.77 31.35 2.75 26.93 4.67"/><polygon class="cls-3" points="31.35 2.75 34.76 6.77 39.07 4.89 35.66 0.87 31.35 2.75"/><polygon class="cls-3" points="22.62 6.55 26.03 10.58 30.34 8.7 26.93 4.67 22.62 6.55"/><polygon class="cls-3" points="14 10.31 17.41 14.34 21.72 12.46 18.31 8.43 14 10.31"/><polygon class="cls-3" points="5.37 14.06 8.78 18.09 13.09 16.21 9.68 12.19 5.37 14.06"/><path d="M2.49,17.73c-.39.05-.67.32-.63.6l.82,6.24c0,.28.38.47.76.42l4.36-.57c.39-.05.67-.32.63-.6L8,20.69,5,17.41Z"/><circle class="cls-3" cx="3.32" cy="18.94" r="0.78" transform="translate(-2.45 0.6) rotate(-7.5)"/><circle cx="3.32" cy="18.94" r="0.26" transform="translate(-2.44 0.59) rotate(-7.5)"/><circle class="cls-3" cx="3.93" cy="23.61" r="0.78" transform="translate(-3.05 0.72) rotate(-7.5)"/><circle cx="3.93" cy="23.61" r="0.26" transform="translate(-3.05 0.71) rotate(-7.5)"/><circle class="cls-3" cx="7.04" cy="23.2" r="0.78" transform="translate(-2.97 1.12) rotate(-7.5)"/><circle cx="7.04" cy="23.2" r="0.26" transform="translate(-2.97 1.12) rotate(-7.5)"/></g></g></svg>