<svg xmlns="http://www.w3.org/2000/svg" viewBox="0 0 48.88 48.46"><defs><style>.cls-1{fill:#fff;}.cls-2{fill:#ea4c89;}.cls-3{fill:#3498db;}</style></defs><title>private-escort</title><g id="Layer_2" data-name="Layer 2"><g id="Graphics"><path class="cls-1" d="M32.89,15c-.41-.77-1.69-3.17-2.12-4a17.72,17.72,0,0,0-1.34-2.26l-.11-.1s0-.1-.08-.15-.22-.2-.33-.31-.42-.43-.65-.64a2.69,2.69,0,0,1-.38-.39,2.66,2.66,0,0,0,.22-.57l.07-.19s0,0,.07,0-.08.12,0,.16l.07-.12A1.65,1.65,0,0,1,28,7a1.81,1.81,0,0,0,.49-.9,3.1,3.1,0,0,0,.1-.33c0,.23-.09.47-.14.7a6.66,6.66,0,0,0,.45-1.95,3.61,3.61,0,0,0-.12-1.38A4.43,4.43,0,0,0,28.23,2,5,5,0,0,0,27.44.52a1.92,1.92,0,0,0-.24-.24A.63.63,0,0,0,27,.15,1.22,1.22,0,0,0,26.64,0c-.12,0-.26,0-.39,0l-.2,0a3.27,3.27,0,0,0-.47,0c-.11,0-.23,0-.34,0a1.06,1.06,0,0,0-.5.18c-.09.07-.2.13-.28.2a4.93,4.93,0,0,0-1.21,2.7,9,9,0,0,0-.16,1.16,3.33,3.33,0,0,0,0,.49s0,.11,0,.18,0,.37.08.54,0,.17.07.26A3.12,3.12,0,0,0,23.74,7a2.79,2.79,0,0,1-.25-.85l.12.16a1.62,1.62,0,0,0,.11.16,1.3,1.3,0,0,0,.42.53,1.13,1.13,0,0,1-.21-.4s.08,0,.08-.05.11.11.19.15a.72.72,0,0,0,.3.19.64.64,0,0,1-.19-.19l.09,0c.07,0,.14,0,.16,0a1.55,1.55,0,0,1,0,.2l-.2,0a4.31,4.31,0,0,1-.62.13c-.14,0-.31,0-.41,0l-.2,0a.92.92,0,0,0-.36.11.72.72,0,0,0-.28.23l0,0a1.08,1.08,0,0,0-.15.23,1,1,0,0,0-.13.36,1.61,1.61,0,0,0,0,.2c0,.13,0,.26,0,.39s0,.25,0,.37,0,.24,0,.29-.2.22-.29.29A10.5,10.5,0,0,0,20.17,11a1.53,1.53,0,0,0-.26,1.22,1.75,1.75,0,0,0,1.17,1.22s0,.23,0,.36a10.13,10.13,0,0,0,.1,1c.05.5.11,1,.13,1.38,0,.12,0,.27,0,.37,0,.33,0,.63,0,1s0,1,0,1.43A7.18,7.18,0,0,1,21,21.76c0,.11-.1.22-.15.33a3.56,3.56,0,0,0-.45,1.06c0,.17.07.24.09.23a4.8,4.8,0,0,0-.08,1.48c0,.22,0,.6,0,.7s0,.33.11.34a3,3,0,0,1-.08.42c-.32,1.59-.56,3.21-.73,4.9,0,.31-.06.62-.1.93a7.45,7.45,0,0,0-.1.93,2.33,2.33,0,0,0,.23.85,1.84,1.84,0,0,0,.28.46,4.78,4.78,0,0,0,.47.51l.07,0c.12.11.23.25.34.37a14.51,14.51,0,0,1,1.32,1.55c.48.7,1,1.39,1.47,2.13.26.45.51.91.78,1.37a1.76,1.76,0,0,1,.24.49,2.35,2.35,0,0,1-.08.49c0,.17,0,.34-.08.49s-.08.31-.11.46-.14.49-.18.74,0,.6,0,.9-.09.22,0,.41.09.07.1.2-.1.12-.1.2c0,.4.15.89-.2,1.24,0,0-.14,0-.19.06s-.06.13-.1.18c-.23.25-.49.37-.64.68a1.55,1.55,0,0,0-.08.16c0,.05,0,.11,0,.15s-.14.13-.16.2a1.22,1.22,0,0,0,0,.21.67.67,0,0,0,0,.23s.14.11.24.15a3.66,3.66,0,0,0,1,.18c.84,0,1.6,0,1.94-.7,0,0,.07-.23.11-.24s.06,0,.11,0c.22.06.16-.11.16-.28s0-.42,0-.67,0-.46.07-.65a3.12,3.12,0,0,1,.23-.68s.06.08.07.1a.83.83,0,0,0,0,.11s.06,0,.1,0l.08.08c.07.05.22.11.27.18s0,.19,0,.28.19.14.19.29c0,.37-.4.7-.53,1,0,.06,0,.14,0,.2s-.12.07-.16.11a.36.36,0,0,0-.11.16c0,.08,0,.17,0,.2s-.08.07-.11.1-.09.06-.1.13a.65.65,0,0,0,.1.23c.09.17.15.23.34.24a1.47,1.47,0,0,0,.59-.11c1.17-.37,2-1.06,1.94-2.3,0-.3-.08-.57-.13-.94,0-.15,0-.25-.07-.47s-.07-.45,0-.49,0,0,.08,0,.08.06.13.13c.23.33.44.74.62,1.06s.46.77.65,1.16c0,0,0,.07,0,.1s.11.07.2,0,.11-.06.11-.11-.12-.19-.16-.26c-.15-.27-.29-.57-.46-.88a16.34,16.34,0,0,1-.85-1.84,3.39,3.39,0,0,1-.15-.52,2.13,2.13,0,0,0-.13-.55c0-.09-.14-.1-.2-.16s-.07-.14-.11-.2a.82.82,0,0,0-.52-.29,2.09,2.09,0,0,0-.77,0c-.05,0-.2.08-.24.07s-.2-.37-.26-.5c-.15-.32-.33-.64-.46-.94a1.22,1.22,0,0,1-.08-.23,1.43,1.43,0,0,1,.08-.24c.18-.59.36-1.27.57-1.78a6.26,6.26,0,0,0,.34-1A6.48,6.48,0,0,0,27.75,36a5.64,5.64,0,0,0-.28-2.1c-.07-.22-.15-.43-.23-.65a4.14,4.14,0,0,1-.13-1.45,7,7,0,0,1,.1-.94c.12-.68.25-1.32.37-2,.17-.88.36-1.77.47-2.65a12.87,12.87,0,0,1,.23-1.32c.1-.42.22-.83.31-1.25a8.26,8.26,0,0,0,.39-2.7,2.14,2.14,0,0,0-.2-.72L28.71,20c0-.06-.1-.14-.1-.18s.16-.14.26-.21c.68-.5,3.3-2,3.94-2.88a1.92,1.92,0,0,0,.18-.31c0-.06,0-.14,0-.2a1.47,1.47,0,0,0,.08-.47A1.88,1.88,0,0,0,32.89,15ZM25.11,35.77c-.08,0-.11-.16-.16-.24l-.15-.24a4.38,4.38,0,0,0-.5-.68l-.15-.15a2.92,2.92,0,0,0-.46-.42c-.19-.13-.44-.26-.67-.41A1,1,0,0,1,22.5,33a.93.93,0,0,1,.1-.52c.5-.81.37-1.35,1.32-3.85,0,0,0,0,0,0s0,0,0,0a12.15,12.15,0,0,0,.6,3.82c0,.13.09.26.11.39s.11.53.2.8.08.25.11.37A6.52,6.52,0,0,1,25.11,35.77ZM27.87,6.65a2.5,2.5,0,0,1,0,.37.75.75,0,0,1-.16-.3A.44.44,0,0,0,27.87,6.65Zm.83-2s0,0,0,.07A.28.28,0,0,1,28.69,4.69Zm0,13.39a6.15,6.15,0,0,1-.59.47c-.11.07-.24.13-.29.08a2.64,2.64,0,0,1-.23-.37c-.22-.34-.61-.71-.85-1.09a1.53,1.53,0,0,1-.18-.91,2.64,2.64,0,0,1,.07-.34,9.53,9.53,0,0,1,.73-2.07c.29-.57.68-1,.94-1.66.06-.14.12-.26.2-.39l0,0c.09,0,.18.17.23.23l.1.11a11.39,11.39,0,0,1,.75,1.14l.29.54a10.88,10.88,0,0,0,1.37,2C30.55,16.09,29.52,17.41,28.74,18.08Z"/><path class="cls-2" d="M18.88,8.47a.9.9,0,0,1-.5.32,1.32,1.32,0,0,1-.57,0,1.93,1.93,0,0,0,0-.41,2.09,2.09,0,0,0-.07-.58L18,7.69l-.26.11a2.55,2.55,0,0,0-.23-.56,2.75,2.75,0,0,0-.38-.48L17,6.57l.08,0A1.88,1.88,0,0,0,18,5.79a1.78,1.78,0,0,1-1,.52c0-.13.08-.26.11-.4a1.81,1.81,0,0,0-.44-1.6l-.11-.11-.06-.05h0l0,0,0,0-.24-.16c0-.07,0-.15-.07-.22a2.4,2.4,0,0,0-.77-1.12A1.65,1.65,0,0,0,15,2.35a1.7,1.7,0,0,0-.24-.21,2.15,2.15,0,0,0-1.34-.63,1.52,1.52,0,0,0-.56,0,1.09,1.09,0,0,0-.41,0,1.41,1.41,0,0,0-.77.36,1.52,1.52,0,0,0-.48-.06,1,1,0,0,0-.37.09,1,1,0,0,0-.3.22,1.3,1.3,0,0,0-.3.57,2.78,2.78,0,0,0-.34.19,1.94,1.94,0,0,0-.62.56A1.4,1.4,0,0,0,9,4.21a1.34,1.34,0,0,1,.34-.7A1.76,1.76,0,0,1,10,3.09l.16,0a2.8,2.8,0,0,0,0,.31,2.39,2.39,0,0,0-.65.6A2.51,2.51,0,0,0,9,5a1.5,1.5,0,0,0,0,.63,1.54,1.54,0,0,1-.36.29,1.3,1.3,0,0,1-.52.16A1.33,1.33,0,0,0,8.7,6a1.6,1.6,0,0,0,.37-.23l0,.1a1.48,1.48,0,0,0,.36.5,2.41,2.41,0,0,0,0,.36,1.76,1.76,0,0,0,.05.42,1.57,1.57,0,0,1-.6.34,1.61,1.61,0,0,0,.62-.26,1.71,1.71,0,0,0,.21.46A2.63,2.63,0,0,1,9.6,8a2.93,2.93,0,0,1-.19.27A2.71,2.71,0,0,1,8.87,8a2.47,2.47,0,0,1-1-.94,2.53,2.53,0,0,0,.93,1,2.94,2.94,0,0,0,.49.26,2.62,2.62,0,0,1-.44.4,1.76,1.76,0,0,1-1.05.35,1.82,1.82,0,0,0,1.11-.25,2.79,2.79,0,0,0,.57-.43l.26.07A1.27,1.27,0,0,0,9.88,9a2.43,2.43,0,0,0,.18.3l-.62.43c-.54.39-1,.82-1.57,1.23-.83.65-2.38,1.81-1.08,2.87s2.88,1.32,4.3,2c.22.11.6.25.85.39a7.61,7.61,0,0,1-1,2.36c-.31.41-1.46,1.07-2,1.64-2.08,2.43-.34,4.36.5,4.85a45.41,45.41,0,0,0,.7,7.54C8.8,33.19,7,34.67,5.91,35.17a1.39,1.39,0,0,1-.32.13c-.07,0-.11-.13-.16-.18a2,2,0,0,0-.9-.61.76.76,0,0,0-.32,0s-.08.05-.13.05-.1,0-.14,0a.83.83,0,0,0-.34.22,4.59,4.59,0,0,1-.5.39A31.28,31.28,0,0,1,0,36.68a.92.92,0,0,0,.09.25s2.15-.92,2.38-1l.09,0c.08,0,.34-.07.38,0s-.17.29-.21.34c-.23.27-.61.61-.82.82-.39.39-1,.88-1,1.45a6.9,6.9,0,0,0,1,2.17,1,1,0,0,0,.2.23.79.79,0,0,0,.41-.18c0-.07,0-.14-.05-.2l-.07-.18c.16-.09.28-.17.27-.36s-.06-.13-.05-.18.14-.29.15-.47a1.54,1.54,0,0,1,0-.5c.05-.13.18-.15.25-.25s0-.05,0-.07.27,0,.37-.08,0-.12.1-.16.13,0,.21,0,0-.07,0-.13l.11,0s.06,0,.09.05a.21.21,0,0,0,.23-.09s0,0,0-.05a.11.11,0,0,1,.11,0s0,0,0,0,.12,0,.18,0l0,0,.15-.06h.17l.4,0c.16,0,.22-.13.36-.21s.31-.05.25-.27c0,0-.05,0,0-.07a2.93,2.93,0,0,1,.43-.25c.43-.24.89-.51,1.32-.72.66-.31,1.31-.54,1.93-.79a11.36,11.36,0,0,0,0,1.65c.2,1.48.85,3.74.89,4.48a4.92,4.92,0,0,1,0,1c-1.12.13-1.16.84-1.16,1.13a.2.2,0,0,0-.09.14,1.94,1.94,0,0,0,.18.61,17.6,17.6,0,0,1,.39,3.64.38.38,0,0,0,.25,0s-.09-2.26-.05-2.67c0-.18.07-.25.23-.11a6.92,6.92,0,0,1,.66,1.2c.33.76.43,1.41,1.09,1.56A5.61,5.61,0,0,0,14,48.24a.78.78,0,0,0,.29-.16.77.77,0,0,0,0-.41c-.06-.08-.18,0-.27-.05l-.11,0s0-.12,0-.18-.23-.07-.38-.13-.28-.31-.49-.41a1.23,1.23,0,0,1-.45-.26c-.1-.14,0-.25,0-.4s-.1-.18-.09-.26.11-.14.12-.25-.06-.08-.06-.12,0-.09,0-.14a1.52,1.52,0,0,1,0-.33c.17,0,.07-.13.08-.23a4.66,4.66,0,0,1,.13-.72,1.21,1.21,0,0,0,0-.41c0-.16,0-.19-.2-.16-.08-.68-.2-1.4-.23-2.17a39.42,39.42,0,0,1,.16-5.5c0-.22,0-.44.05-.68a2.55,2.55,0,0,1,.05-.47,1.24,1.24,0,0,1,.27-.11c.22,0,.47-.06.7-.09l.68-.09c.44-.07.9-.12,1.32-.23a2,2,0,0,0,1-.55,1.73,1.73,0,0,0,.5-1,4.84,4.84,0,0,0-.11-1.31,32.83,32.83,0,0,0-2.58-7,9.65,9.65,0,0,0-.63-1.23c1-.91,1.69-2.82,2.35-4.23.14-.31.22-.69.34-1,.24-.71.58-1.41.79-2.13a2.13,2.13,0,0,1,.17-.39,1.66,1.66,0,0,0,1.41-1.75,2.55,2.55,0,0,0-1-1.69,1.39,1.39,0,0,0,.12-.44,1.41,1.41,0,0,0-.09-.64,2.54,2.54,0,0,0-.26-.49,1.7,1.7,0,0,0-.15-.42v0a1.43,1.43,0,0,0,.5.33,1.32,1.32,0,0,0,.66.06,1.29,1.29,0,0,1-.63-.12,1.36,1.36,0,0,1-.48-.39,2.9,2.9,0,0,0,.29-.49A2.23,2.23,0,0,0,17.77,9a1.48,1.48,0,0,0,.65-.07,1,1,0,0,0,.51-.4,1.13,1.13,0,0,0,.15-.61A1.1,1.1,0,0,1,18.88,8.47ZM4.39,38.13c0-.08.11-.16.2-.11S4.48,38.12,4.39,38.13Zm5.85-29-.05,0s0-.08,0-.12h0Zm-.47-2.7a2.79,2.79,0,0,1,.1-.26,1.59,1.59,0,0,0,0,.23s0,.06,0,.08Zm.7.84,0-.11,0,0h0l.12.06A.41.41,0,0,0,10.46,7.26Zm0,.9-.06,0L10.32,8V8h0A.57.57,0,0,0,10.46,8.16ZM10.31,8l.09.18,0,0,0-.17ZM9.8,4.83l0,0ZM9.69,6.7l0-.1.06.19v0l-.08.11A1.6,1.6,0,0,1,9.69,6.7Zm.09-.14,0,0v.09l0,0Zm.3,1.1,0,0s0,0,0,.07a1.76,1.76,0,0,0,0,.18h0L10,7.82Zm0,.44c0,.07,0,.14,0,.21H9.86A.43.43,0,0,1,10,8.14l.1-.06Zm2.3-6.44h.08c-.21.09-.39.21-.58.31l0,0A1.14,1.14,0,0,1,12.44,1.66Zm-1.83.57A.79.79,0,0,1,11.17,2a1.23,1.23,0,0,1,.29,0l0,.08h-.18a.87.87,0,0,0-.66.37l-.26.1A1.13,1.13,0,0,1,10.6,2.22ZM10.28,3l-.1.23c0-.07,0-.15,0-.22Zm-1,2a2.21,2.21,0,0,1,.51-.83l.1-.09-.21.51a5.07,5.07,0,0,1-.45.78A1.32,1.32,0,0,1,9.25,5Zm0,.73a1.16,1.16,0,0,1,0-.18A3.71,3.71,0,0,0,9.66,5v0l0,.08a1.68,1.68,0,0,0-.08.7l0,.14,0,.17A1.29,1.29,0,0,1,9.27,5.76Zm.42,1.3.12-.13.06.17c0,.06,0,.13,0,.19s0,.12,0,.19A1.57,1.57,0,0,1,9.69,7.06Zm.1,1,.14-.19L10,8,10,8.07a.56.56,0,0,0-.17.19l0,.05-.14,0Zm.15.84a1.24,1.24,0,0,1-.12-.41l.28,0c0,.16,0,.33,0,.49s0,.12,0,.18A2.32,2.32,0,0,1,9.94,8.93Zm0,4.21a11.81,11.81,0,0,0,1.63-1c.09.66.66,2.95.66,2.95C11.7,14.6,10.48,13.6,9.92,13.14ZM17.15,8.5,17,8.31l-.17-.22V7.85l.06,0a.92.92,0,0,0,.57,0,1.77,1.77,0,0,1,.12.49,1.64,1.64,0,0,1,0,.35,1.59,1.59,0,0,1-.37-.18ZM15.77,3.57l-.15-.16,0,0-.11-.16-.07-.08a1.67,1.67,0,0,1,.25.22,1.44,1.44,0,0,1,.17.25Zm.87,7.61h0Zm-.31-6.67.1.08.08.07h0a1.4,1.4,0,0,1,.06.3l-.05-.06a1.59,1.59,0,0,0-.19-.17v0C16.33,4.64,16.33,4.57,16.33,4.51Zm0,.48.07.06.14.14.06.07a1.23,1.23,0,0,1,0,.15v0a1,1,0,0,0-.24-.39Zm-.09-.34v0A0,0,0,0,1,16.21,4.65Zm.84,4.89.07.1-.07-.08Zm.1-.13,0-.07a2.88,2.88,0,0,1-.17-.5l.08.06L17.1,9a1.41,1.41,0,0,1,.1.51Zm-.93-4.47h0s0,.05,0,.08S16.23,5,16.23,4.94Zm.69,6.33h0l0,.07Zm-.06-5-.14,0-.06-.18V6a2.19,2.19,0,0,0-.1-.54l0-.09s0-.07,0-.1v0a2,2,0,0,1,.18.35,1.82,1.82,0,0,1,.1.39Zm-.58-1.77V4.46h0ZM16.42,11v0a1.31,1.31,0,0,0,0-.16l.14.08,0,.11-.09.13Zm.81-3.5a2.19,2.19,0,0,1,.24.41A.82.82,0,0,1,17,7.78l-.12-.08c0-.2,0-.4,0-.6A2.51,2.51,0,0,1,17.24,7.46Zm-.29-2a1.45,1.45,0,0,1,0,.23V5.64a2.17,2.17,0,0,0-.16-.39l-.05-.09-.07-.09V5a1.48,1.48,0,0,0,0-.27A1.39,1.39,0,0,1,16.95,5.47ZM15.27,2.76a2.26,2.26,0,0,1,.81,1l0,.07L16,3.75l-.11-.08a1.52,1.52,0,0,0-.21-.37,1.89,1.89,0,0,0-.42-.41l-.07-.15ZM14,31.89a2,2,0,0,0-.93,0c.09-.38.16-.78.21-1.09A3.36,3.36,0,0,0,14,31.89Zm3.66-20-.28-.2-.07-.06a2.32,2.32,0,0,0,.17-.51v0l0-.11a1.42,1.42,0,0,0,0-.18,1.33,1.33,0,0,1,.2.69A1.26,1.26,0,0,1,17.63,11.87ZM17.4,9.44a1.61,1.61,0,0,0-.08-.56v0l.27.08A2.33,2.33,0,0,1,17.4,9.44Z"/><path class="cls-3" d="M31.63,46.53c.09.37.85.39,1.27.31,1.05-.2,1.3-.57,1.44-1.07.06-.22.11-.42.17-.67a.62.62,0,0,1,.11-.31,5.21,5.21,0,0,1,0,.58.39.39,0,0,0,.25.05c.07-.27.15-.81.22-1.3a2.08,2.08,0,0,1,.09-.42,3.83,3.83,0,0,1,.28-.45c0-.08.08-.16.12-.25a1.54,1.54,0,0,0-.16-1.61.69.69,0,0,0-.37-.16c-.09,0-.22,0-.23,0a1.57,1.57,0,0,1,0-.51c0-.33.54-3.07.57-3.23a4.76,4.76,0,0,0-.19-3.41.63.63,0,0,1-.06-.2c0-.22.41-.49,1-1.27.76-1,1.46-2.09,2.2-3.1a3.94,3.94,0,0,1,.81-.7,8.5,8.5,0,0,0,1.33-1.46.53.53,0,0,1,.23-.19,17.52,17.52,0,0,0,.44,6.33c.07.31.11.64.19,1a6.09,6.09,0,0,1,.22.93c0,.68-.09,1.37-.06,2,0,.34,0,.67,0,1a9.74,9.74,0,0,1,0,1,21.65,21.65,0,0,1-.33,3.32c0,.07,0,.14-.06.2a3.82,3.82,0,0,0-.23,1.25.48.48,0,0,1,0,.24c0,.08-.12.12-.1.21s.15.14.18.23,0,.1,0,.21-.06.07,0,.2.11.12.08.24-.15.11-.18.19,0,.21,0,.31-.17.16-.26.35,0,.19,0,.28-.13.08-.17.15a2.1,2.1,0,0,0-.25.48,1.75,1.75,0,0,1-.07.23c-.07.14-.14.18-.16.36a2.16,2.16,0,0,0,0,.34c0,.13.32.17.57.22a3.6,3.6,0,0,0,.74,0c.78,0,1.22-.2,1.43-.7A9.6,9.6,0,0,0,42.95,46c.06-.34.13-.68.2-1,0-.16.08-.33.11-.5a2.81,2.81,0,0,0,.09-.82,1.85,1.85,0,0,0-.42-1l-.12-.09s-.12,0-.14-.08a1.47,1.47,0,0,1,0-.28c.36-2.11,2.09-4.1,1.12-7.34,0-.15-.13-.28-.17-.43s0-.19,0-.28a5.77,5.77,0,0,1-.06-.92,5.69,5.69,0,0,1,.14-1.15q.23-1.11.47-2.12c.16-.71.31-1.42.47-2.12.08-.36.18-.68.28-1s.18-.68.26-1c.69-2.77-.28-4.5-2-6.56a1.62,1.62,0,0,1-.42-1A4.52,4.52,0,0,1,43,17a10.65,10.65,0,0,1,.4-1.15c.22-.49.51-1,.73-1.6a4.41,4.41,0,0,1,.19-.5l0-.06c.05,0,0,0,.06.17s.18.43.2.48a21,21,0,0,0,1.1,2.56c.11.2.24.38.34.57s.23.53.37.78a1.39,1.39,0,0,0,1,.79,1.13,1.13,0,0,0,.64-.14,1.76,1.76,0,0,0,.65-1.24c0-.21,0-.51,0-.73s.07-.38.09-.57a30.73,30.73,0,0,0-.06-3.13c0-.22,0-.43,0-.64a3.57,3.57,0,0,0,.09-.84,1.2,1.2,0,0,0-.28-.6,2.13,2.13,0,0,0-.53-.42,3.73,3.73,0,0,1-.47-.34,3.09,3.09,0,0,0-.28-.25,1.75,1.75,0,0,0-.59-.15,4.13,4.13,0,0,0-1.1,0L45.2,10l-.14,0A.18.18,0,0,1,45,10a2,2,0,0,0,.4-.44l.11-.16.12.05a1.89,1.89,0,0,0,.71.12A1.49,1.49,0,0,0,47,9.39a.83.83,0,0,0,.42-.54.8.8,0,0,1-.45.49,1.41,1.41,0,0,1-.66.11,1.75,1.75,0,0,1-.64-.17l-.1-.06a2.18,2.18,0,0,0,.21-.76l0-.12a1.55,1.55,0,0,0,.38-.52l0-.07h0a.72.72,0,0,0,.39.23.94.94,0,0,0,.44,0,.91.91,0,0,1-.42,0,.63.63,0,0,1-.31-.25l0-.09a2.12,2.12,0,0,0,.06-.82,3.19,3.19,0,0,0-.2-.92,1.43,1.43,0,0,0,.1-.3,1.1,1.1,0,0,0-.19-.86L46,4.62A1.6,1.6,0,0,0,45.8,4a1.44,1.44,0,0,0-.86-.72,1.57,1.57,0,0,0-.44-.07.87.87,0,0,0-.39-.3,3.18,3.18,0,0,0-.33,0c-.06,0-.11-.06-.17-.08a1.85,1.85,0,0,0-.4,0l-.2,0a1.88,1.88,0,0,1-.19,0s-.13-.06-.2-.08a1.87,1.87,0,0,0-.54,0,2,2,0,0,0-.64.14l-.64,0a1.83,1.83,0,0,1-1-.25,1.44,1.44,0,0,1-.53-.92,1.5,1.5,0,0,0,.46,1,1.75,1.75,0,0,0,.86.36l-.18.1a2.08,2.08,0,0,0-.29.24l-.16-.12c-1.07-.73-2.21-1.42-3-1.85a1.28,1.28,0,0,0-.76-.18,1.16,1.16,0,0,0-.53.14,1,1,0,0,0-.28.22,1.11,1.11,0,0,0-.22.36,1.58,1.58,0,0,0-.08.36,9.72,9.72,0,0,0,.76,3.4c.25.62.49,1.21,1,2.56a5,5,0,0,1,.22,2.26c0,.21,0,.44-.06.65a2.42,2.42,0,0,1-.11.6,5.59,5.59,0,0,1-.67,1.07,2.7,2.7,0,0,0-.48,1.26,1.82,1.82,0,0,0,.74,1.64l.15.09a1.73,1.73,0,0,1,0,.36A14.84,14.84,0,0,0,37,18.45c.09.41.2.81.28,1.23A7,7,0,0,1,37.44,21c0,.32.13,1.53.15,1.69.05.37.22,1-.06,1.19a7.07,7.07,0,0,0-1.63,2,53.53,53.53,0,0,0-2.31,4.93c-.09.2-.18.41-.28.64s-.16.43-.25.65-.19.4-.29.6a1.79,1.79,0,0,0-.2,1c0,.33.09.65.14,1a38.4,38.4,0,0,1,.36,4.11c0,.63.14,1.25.17,1.88a5.64,5.64,0,0,1,0,.94c0,.11-.06.21-.07.32s0,.32,0,.48-.2.26-.22.48c0,.05,0,.11,0,.16a.7.7,0,0,0,0,.37c.09.22.14.18.07.43,0,.09,0,.2,0,.29a1.43,1.43,0,0,1-.24.54c-.1.1-.17.06-.29.11s-.11.1-.17.25-.09.13-.18.24a2,2,0,0,0-.42.83A1,1,0,0,0,31.63,46.53Zm14-35.47c.1,0,.23-.07.37-.08l.14,0a1.8,1.8,0,0,1,.28,0c.06,0,.16,0,.14.12-.18,0-.39,0-.42.14s.22.33.39.37.46,0,.67.09c.05,0,.11.07.19.11l.22.09a2.61,2.61,0,0,1,.28.08,3,3,0,0,1-.06.4c-.16,1-.41,1.72-.6,2.65-.08,0-.11-.13-.14-.2-.29-.77-.41-.92-.87-2.28C46,12.06,45.78,11.54,45.59,11.07Zm-.19-.43a1.42,1.42,0,0,1,.22,0c.15,0,.32-.09.4,0s-.09,0-.17,0-.35.22-.42.17A.22.22,0,0,1,45.4,10.63ZM38.14,6.07,38.08,6l.08.1Zm1-1.69.23.09A3.42,3.42,0,0,0,39.2,5a2.24,2.24,0,0,0-.25.19,5,5,0,0,0-.36.37.72.72,0,0,1-.32-.24,1.18,1.18,0,0,1-.21-.7,1.24,1.24,0,0,0,.11.76.86.86,0,0,0,.3.31l-.06.07-.12.12-.09-.08a1.48,1.48,0,0,1-.35-.72,2.35,2.35,0,0,1,0-.83,2.44,2.44,0,0,0-.07.75c-.13-.44-.23-.87-.33-1.32h0c.36.15.65.23,1.13.42ZM39,5.65l.11-.07v.05Zm.13-.08,0,0,0,0,0,.1h0ZM39.33,5a3.31,3.31,0,0,1,.21-.42c.07,0,.12.07.13.09s-.07.14-.12.23Zm-.85,1.1L38.57,6l.16-.12.11,0,.18,0-.13.25A1.2,1.2,0,0,1,38.48,6.06Zm6,4.14v0s.14-.2.09-.28.05,0,.06,0l0,.11,0,.06-.11.08Zm.3-.31.08,0-.06.06C44.73,9.93,44.72,9.88,44.73,9.89Zm1.18-4.54-.1-.18a1.84,1.84,0,0,0-.25-.54,1.58,1.58,0,0,1,.32.22l.06.07A1.89,1.89,0,0,1,45.91,5.35Zm-.79,2.89.09-.12,0,.12,0,.1,0,.06s0,0,0,0l0,0a1.72,1.72,0,0,1,0,.52L45.26,9l-.06-.08a.63.63,0,0,1-.06-.18,1.78,1.78,0,0,1,0-.21C45.12,8.4,45.12,8.32,45.13,8.24Zm0,.88a1.72,1.72,0,0,1-.44.32,3.18,3.18,0,0,1,.2-.42.88.88,0,0,0,0-.19A.89.89,0,0,0,45,9Zm.74-4.69a3.15,3.15,0,0,0-.66-.53l-.06,0A1.2,1.2,0,0,0,45,3.65a1.19,1.19,0,0,1,.69.43A1.41,1.41,0,0,1,45.85,4.43Zm.25,1.32Q46,5.58,46,5.41l0,0A2,2,0,0,0,46,5a.91.91,0,0,1,.13.54A1.25,1.25,0,0,1,46.11,5.75Zm.06,1.59c0-.14-.07-.28-.11-.43s0-.24,0-.36a2.68,2.68,0,0,1,.1.28A2.06,2.06,0,0,1,46.17,7.34Zm-.33.92a2.21,2.21,0,0,0,0-.28,2.9,2.9,0,0,0,0-.61,1.65,1.65,0,0,0,.06-.18,2.28,2.28,0,0,0,.22.46,1.5,1.5,0,0,1,0,.16A1.44,1.44,0,0,1,45.85,8.25Zm-1,1.6,0-.06-.09-.14,0-.05.2-.09a1.77,1.77,0,0,0,.31-.21l-.05.13A1.8,1.8,0,0,1,44.88,9.85Zm-.07.27.11-.09,0,0C44.91,10.1,44.87,10.14,44.81,10.12Zm-.22.13.06,0v0Zm-6.36-4,.06,0a1.47,1.47,0,0,0,.45.26.73.73,0,0,1-.11.16c-.13.14-.13.09-.22-.06ZM33,43.42c-.06,0,0-.09,0-.11s0-.1.06-.08S33.06,43.42,33,43.42Z"/></g></g></svg>