<svg xmlns="http://www.w3.org/2000/svg" viewBox="0 0 72.04 45.33"><defs><style>.cls-1{fill:#fff;}.cls-2{fill:#ff0084;}</style></defs><title>real-images</title><g id="Layer_2" data-name="Layer 2"><g id="Graphics"><rect class="cls-1" x="47.92" y="13.14" width="7.33" height="5.32" rx="0.66" ry="0.66"/><path id="camera" class="cls-2" d="M54.37,45.07a38.53,38.53,0,0,1-4.53-3.56H7.14a3.33,3.33,0,0,1-3.32-3.32V13.47a3.33,3.33,0,0,1,3.32-3.32H20.87l3.45-6.33H37.94l3.45,6.33H55.12a3.33,3.33,0,0,1,3.32,3.32v9a9.73,9.73,0,0,1,1.92,1.12,9.78,9.78,0,0,1,1.9-1.11v-9a7.15,7.15,0,0,0-7.14-7.14H43.65L41.27,2A3.75,3.75,0,0,0,38,0H24.28A3.75,3.75,0,0,0,21,2L18.6,6.33H7.14A7.15,7.15,0,0,0,0,13.47V38.19a7.15,7.15,0,0,0,7.14,7.14H54.75Z"/><path id="lens" class="cls-1" d="M31.13,12.73a13.1,13.1,0,1,0,13.1,13.1A13.12,13.12,0,0,0,31.13,12.73Zm0,22.39a9.28,9.28,0,1,1,9.28-9.28A9.29,9.29,0,0,1,31.13,35.12Z"/><path class="cls-2" d="M49.39,28.83a9.28,9.28,0,0,0,1,8.92c2,3,9.71,7.58,9.92,7.58s8-4.59,10-7.58a9.28,9.28,0,0,0,1-8.92,6.55,6.55,0,0,0-4.89-4,6.66,6.66,0,0,0-1-.08c-2.38,0-4.1,1.78-5.09,2.83-1-1-2.71-2.83-5.09-2.83a6.66,6.66,0,0,0-1,.08A6.55,6.55,0,0,0,49.39,28.83Z"/><path class="cls-1" d="M54.58,27.05a4.63,4.63,0,0,1,.68-.05.85.85,0,1,1,0,1.69,2.61,2.61,0,0,0-2.51,1.84,4.4,4.4,0,0,0-.35,1.33.85.85,0,0,1-.84.76h-.09a.85.85,0,0,1-.76-.93,6.1,6.1,0,0,1,.49-1.85A4.56,4.56,0,0,1,54.58,27.05Z"/></g></g></svg>