<svg xmlns="http://www.w3.org/2000/svg" xmlns:xlink="http://www.w3.org/1999/xlink" viewBox="0 0 63.41 48.46"><defs><style>.cls-1,.cls-3,.cls-4,.cls-5{fill:#fff;fill-opacity:0.7;}.cls-2{fill:#3498db;}.cls-3{opacity:0.5;}.cls-4{opacity:0.2;}.cls-5{opacity:0.3;}.cls-6{fill:url(#linear-gradient);}</style><linearGradient id="linear-gradient" x1="-2.19" y1="8.85" x2="48.04" y2="59.08" gradientUnits="userSpaceOnUse"><stop offset="0" stop-color="#fff" stop-opacity="0"/><stop offset="0.07" stop-color="#fff" stop-opacity="0.01"/><stop offset="0.13" stop-color="#fff" stop-opacity="0.05"/><stop offset="0.17" stop-color="#fff" stop-opacity="0.11"/><stop offset="0.21" stop-color="#fff" stop-opacity="0.2"/><stop offset="0.25" stop-color="#fff" stop-opacity="0.3"/><stop offset="0.38" stop-color="#fff" stop-opacity="0.29"/><stop offset="0.43" stop-color="#fff" stop-opacity="0.27"/><stop offset="0.46" stop-color="#fff" stop-opacity="0.22"/><stop offset="0.48" stop-color="#fff" stop-opacity="0.18"/><stop offset="0.72" stop-color="#fff" stop-opacity="0.19"/><stop offset="0.81" stop-color="#fff" stop-opacity="0.22"/><stop offset="0.87" stop-color="#fff" stop-opacity="0.26"/><stop offset="0.93" stop-color="#fff" stop-opacity="0.33"/><stop offset="0.97" stop-color="#fff" stop-opacity="0.41"/><stop offset="1" stop-color="#fff" stop-opacity="0.5"/></linearGradient></defs><title>required</title><g id="Layer_2" data-name="Layer 2"><g id="Graphics"><path class="cls-1" d="M8,23c1,.18,2,.29,3,.54a7.72,7.72,0,0,1,2.23.93c4.64,2.78,7.86,8.05,11,12.36,2.77,3.76,4.59,10,9.63,11.25,3.46.82,7.77.22,11.34.18a101.84,101.84,0,0,0,11.1-1.06c1.14-.18,6.55-.44,7-2.38,0-.24.21-1.07,0-1.3-1.27,1.17-6,2.12-7,2.27a101.92,101.92,0,0,1-11.1,1.06c-3.58,0-7.89.64-11.34-.18-5-1.2-6.86-7.49-9.63-11.25-3.18-4.31-6.4-9.92-11-12.71A7.71,7.71,0,0,0,11,21.73c-1.05-.24-2.07-.36-3-.54Z"/><path class="cls-2" d="M58.9,40.65c-1.93-.9-10-3.5-12-4.2-1.56-.54-1.77.13-3,1.18a9.3,9.3,0,0,1-8.61,1.51c-3.59-1-5-3.76-6.55-6.88-1-2-5.42-12.1-7-14.93-2.1-3.75-4.46-7.43-6.83-11C13.44,4.17,11-.3,7.9,0,6.19.19,4.32,2.16,3.49,3.55A17.72,17.72,0,0,0,.25,11.43,10.42,10.42,0,0,0,.52,17a5.91,5.91,0,0,0,1.33,2,4.45,4.45,0,0,1,1.58,2.46c.33,1.64,2.63,26.82,2.63,26.82H7.36s1.8-24.68,1.82-24.87l0-.44c.1-1.11.95-.87,1.79-.68a7.8,7.8,0,0,1,2.23.91c4.64,2.72,7.86,8.21,11,12.42,2.77,3.68,4.59,9.83,9.63,11,3.46.8,7.77.21,11.34.17a104.21,104.21,0,0,0,11.1-1c1.14-.17,7-.63,7-2.33C63.27,42.22,59.81,41.08,58.9,40.65Z"/><path class="cls-3" d="M44.16,36.78l-.21,0-.25,0-.35,0a8.37,8.37,0,0,1-.94,0c-.36,0-.77,0-1.22-.09s-.93-.09-1.43-.16c-.25,0-.52-.05-.78-.11l-.81-.16c-.27-.06-.55-.14-.82-.22L36.93,36l-.41-.15a15.72,15.72,0,0,1-1.65-.68l-.79-.43c-.26-.14-.5-.32-.75-.47L33,34.08l-.35-.26-.34-.26-.17-.13-.16-.14c-.41-.38-.82-.73-1.17-1.11l-1-1.06c-.59-.67-1.08-1.23-1.43-1.61l-.55-.61.57.59c.36.37.87.91,1.48,1.57l1,1c.17.19.37.36.57.54l.61.55.15.14.17.13.34.26L33,34l.36.24c.25.15.49.33.75.46l.78.42a15.5,15.5,0,0,0,1.63.68l.41.15.41.12c.28.07.54.16.82.22l.8.17c.26.06.52.08.78.12.51.08,1,.13,1.43.18s.85.1,1.21.12a8.27,8.27,0,0,0,.94,0l.35,0,.25,0Z"/><path class="cls-1" d="M28.69,32.26c1.6,3.11,3,5.83,6.55,6.88a9.3,9.3,0,0,0,8.61-1.51,10,10,0,0,1,1.5-1.22h0c-1.62.77-3.38.44-5.1.27a14.91,14.91,0,0,1-8.12-3.29,59,59,0,0,1-4.33-4.48c-.34-.35-.75-1-1.22-1.15C27.53,29.81,28.32,31.54,28.69,32.26Z"/><path class="cls-4" d="M13.24,23.24c4.64,2.72,7.86,8.21,11,12.42,2.77,3.68,4.59,9.83,9.63,11,3.46.8,7.77.21,11.34.17,2.93,0,9.14-.72,12-1.15,1.14-.17-18.69-1.19-22.15-2S29.52,39.88,27.78,37c-2-3.25-3.73-6.19-6.77-8.57a66.58,66.58,0,0,0-7-4.62Z"/><path class="cls-1" d="M46.89,36.45l-.17-.05a3,3,0,0,0-.5-.11,1.49,1.49,0,0,0-.81.1,3.58,3.58,0,0,0-.89.68,12.11,12.11,0,0,1-1.06.91,8.35,8.35,0,0,1-1.42.84,9,9,0,0,1-3.85.82,10.77,10.77,0,0,1-2.25-.25,9.1,9.1,0,0,1-2.29-.81,7.88,7.88,0,0,1-2-1.55A12.1,12.1,0,0,1,30,34.87c-.47-.78-.89-1.6-1.32-2.42s-.8-1.69-1.21-2.55l-2.41-5.23L23.86,22l-.6-1.31c-.21-.43-.42-.85-.63-1.28L22,18.18a13.78,13.78,0,0,0-.65-1.24l-1.4-2.37-1.36-2.29c-.22-.38-.45-.74-.68-1.1l-.68-1.06L14.71,6.2c-.78-1.22-1.48-2.35-2.2-3.27A10.07,10.07,0,0,0,10.38.78,4,4,0,0,0,8.59,0a2.69,2.69,0,0,0-.51,0h0A2.7,2.7,0,0,1,8.6,0,4.06,4.06,0,0,1,10.4.74a10.13,10.13,0,0,1,2.17,2.13,38.91,38.91,0,0,1,2.23,3.26l2.54,3.92L18,11.11c.23.36.47.72.68,1.09l1.37,2.29,1.41,2.36a14,14,0,0,1,.66,1.24l.64,1.27c.21.43.43.85.64,1.28l.61,1.3,1.22,2.62,2.38,5.24c.4.86.8,1.72,1.2,2.55s.84,1.65,1.3,2.42a12,12,0,0,0,1.56,2.13,7.73,7.73,0,0,0,2,1.53,9,9,0,0,0,2.25.81,10.64,10.64,0,0,0,2.22.26A9.14,9.14,0,0,0,42,38.74a8.25,8.25,0,0,0,1.42-.81A12,12,0,0,0,44.5,37a3.6,3.6,0,0,1,.9-.67,1.51,1.51,0,0,1,.82-.09,3,3,0,0,1,.5.12Z"/><path class="cls-5" d="M11,22.33l.61.17a9,9,0,0,1,1.64.74,17,17,0,0,1,2.28,1.62,24.09,24.09,0,0,1,2.59,2.55c.88,1,1.77,2.13,2.68,3.36s1.83,2.54,2.81,3.88c.49.67,1,1.33,1.48,2.06s.9,1.47,1.34,2.22a34.44,34.44,0,0,0,2.85,4.43,10.54,10.54,0,0,0,1.85,1.86,3.9,3.9,0,0,0,.53.38l.55.34a7.59,7.59,0,0,0,1.2.49c.21.06.41.14.62.18l.64.12.64.11.63.06.63.06.63,0c.42,0,.84,0,1.25,0,1.66,0,3.26-.1,4.78-.16.76,0,1.51,0,2.22-.07l2.07-.09c.66,0,1.3-.1,1.9-.14s1.18-.08,1.71-.14l2.78-.29,2.42-.3-2.41.34-2.78.33c-1.07.11-2.29.23-3.62.32l-2.07.1c-.72,0-1.46,0-2.22.08-1.52.07-3.12.19-4.79.19a18.73,18.73,0,0,1-5.1-.56,7.8,7.8,0,0,1-1.23-.5l-.57-.35a4,4,0,0,1-.55-.39,10.67,10.67,0,0,1-1.9-1.88A34.59,34.59,0,0,1,26.27,39c-.43-.75-.86-1.51-1.33-2.22s-1-1.39-1.46-2.06c-1-1.35-1.89-2.67-2.79-3.9S18.92,28.47,18,27.48a26.71,26.71,0,0,0-2.55-2.57,17,17,0,0,0-2.25-1.65,9,9,0,0,0-1.62-.76Z"/><path class="cls-3" d="M3.42,21.51l.23,1.67.19,1.67.37,3.35.67,6.7L6.17,48.32l-.11-.1H7.36l-.11.1,1-12.66.48-6.33L9,26.17l.13-1.58c0-.53.08-1.05.14-1.58,0,.53-.07,1.06-.11,1.58L9,26.18l-.2,3.17-.44,6.33L7.47,48.33v.1H6v-.1L4.73,34.92,4.1,28.21l-.31-3.35-.16-1.68Z"/><path class="cls-1" d="M4.58,4.46s-.07.19-.22.51c-.07.16-.17.36-.27.6s-.22.5-.35.81-.26.65-.4,1L3.14,8l-.1.3-.09.32-.18.65c-.06.22-.1.45-.15.68a11.17,11.17,0,0,0-.21,1.43,11.18,11.18,0,0,0,0,1.45,10.75,10.75,0,0,0,.14,1.4,10,10,0,0,0,.31,1.28,10.07,10.07,0,0,0,.44,1.11,6.91,6.91,0,0,0,1,1.53,3.71,3.71,0,0,0,.37.38l.14.13-.19-.09a2.94,2.94,0,0,1-.5-.29,4,4,0,0,1-.66-.55,4.93,4.93,0,0,1-.68-.83,6,6,0,0,1-.58-1.1,6.61,6.61,0,0,1-.38-1.33A8,8,0,0,1,1.62,13a11.45,11.45,0,0,1,.11-1.55,12.77,12.77,0,0,1,.34-1.53,13.2,13.2,0,0,1,.48-1.42c.08-.23.17-.44.27-.65l.27-.6c.18-.38.37-.71.52-1s.31-.55.43-.78.22-.39.3-.53S4.58,4.46,4.58,4.46Z"/><path class="cls-3" d="M27.15,33.19l.24.38c.07.12.16.27.27.45l.37.6.48.74.29.41.15.21.16.22.34.45c.12.15.25.3.37.45.25.31.53.61.82.9s.59.58.9.86.63.53.95.76.64.44.94.63.61.35.89.48a7.76,7.76,0,0,0,1.38.52c.15,0,.3.07.45.1a3.18,3.18,0,0,1-1.88-.27,7.25,7.25,0,0,1-.94-.43,8.79,8.79,0,0,1-1-.63,11,11,0,0,1-1-.81c-.32-.3-.64-.61-.94-.94s-.58-.67-.83-1-.49-.68-.7-1c-.11-.16-.21-.32-.3-.47l-.26-.45c-.17-.29-.3-.55-.43-.78l-.32-.61c-.1-.18-.15-.31-.21-.42Z"/><ellipse class="cls-5" cx="49.23" cy="41.87" rx="2.56" ry="0.82"/><path class="cls-6" d="M58.9,40.65c-1.93-.9-10-3.5-12-4.2-1.56-.54-1.77.13-3,1.18a9.3,9.3,0,0,1-8.61,1.51c-3.59-1-5-3.76-6.55-6.88-1-2-5.42-12.1-7-14.93-2.1-3.75-4.46-7.43-6.83-11C13.44,4.17,11-.3,7.9,0,6.19.19,4.32,2.16,3.49,3.55A17.72,17.72,0,0,0,.25,11.43,10.42,10.42,0,0,0,.52,17a5.91,5.91,0,0,0,1.33,2,4.45,4.45,0,0,1,1.58,2.46c.33,1.64,2.63,26.82,2.63,26.82H7.36s1.8-24.68,1.82-24.87l0-.44c.1-1.11.95-.87,1.79-.68a7.8,7.8,0,0,1,2.23.91c4.64,2.72,7.86,8.21,11,12.42,2.77,3.68,4.59,9.83,9.63,11,3.46.8,7.77.21,11.34.17a104.21,104.21,0,0,0,11.1-1c1.14-.17,7-.63,7-2.33C63.27,42.22,59.81,41.08,58.9,40.65Z"/></g></g></svg>