<svg xmlns="http://www.w3.org/2000/svg" viewBox="0 0 20.01 20"><defs><style>.cls-1{fill:#3498db;}</style></defs><title>rooms-by-hour</title><g id="Layer_2" data-name="Layer 2"><g id="Graphics"><path class="cls-1" d="M11.21,17.91h0A8,8,0,1,1,15.68,4.37l-2,2c-.08.08-.05.14.06.14H19a.2.2,0,0,0,.2-.2V1c0-.11-.06-.14-.14-.06l-2,2A10,10,0,1,0,10,20h0a10,10,0,0,0,1.49-.11h0a9.7,9.7,0,0,0,1.22-.26h0l.06,0h.48l.24-.09-.71-1.88A7.91,7.91,0,0,1,11.21,17.91Z"/><path class="cls-1" d="M9.63,4H8.43a.4.4,0,0,0-.4.4v7.18a.4.4,0,0,0,.4.4h7.18a.4.4,0,0,0,.4-.4v-1.2a.4.4,0,0,0-.4-.4H10V4.4A.4.4,0,0,0,9.63,4Z"/><path class="cls-1" d="M16.69,14.38l1.68,1.1a10,10,0,0,0,1-1.87l-1.87-.72A8,8,0,0,1,16.69,14.38Z"/><path class="cls-1" d="M20,9.48l-2,.1q0,.21,0,.41a8.07,8.07,0,0,1-.1,1.27l2,.32A10,10,0,0,0,20,9.48Z"/><path class="cls-1" d="M14.32,16.73l1.08,1.69h0l.1-.07h.14l0,0H16l0,0h.09a10,10,0,0,0,.94-.82l-1.41-1.43A8,8,0,0,1,14.32,16.73Z"/></g></g></svg>