<svg xmlns="http://www.w3.org/2000/svg" viewBox="0 0 63.31 48.46"><defs><style>.cls-1{fill:#fff;}.cls-2{fill:#ea4c89;}.cls-3{fill:#3498db;}</style></defs><title>sado</title><g id="Layer_2" data-name="Layer 2"><g id="Graphics"><path class="cls-1" d="M14.14,14.91c1.15,1,2.66,1.23,3.36.55l3.29-3.18c.7-.68.34-2-.81-3S17.32,8,16.61,8.71l-3.29,3.18C12.62,12.57,13,13.93,14.14,14.91Zm3.37-5.44c.4-.39,1.26-.25,1.92.31s.86,1.33.46,1.72L16.6,14.7c-.4.39-1.26.25-1.92-.31s-.86-1.33-.46-1.72Z"/><path class="cls-1" d="M20.65,8.37c1.15,1,2.66,1.23,3.36.55L27.3,5.73c.7-.68.34-2-.81-3s-2.66-1.23-3.36-.55L19.84,5.34C19.13,6,19.49,7.38,20.65,8.37ZM24,2.93c.4-.39,1.26-.25,1.92.31S26.8,4.57,26.4,5L23.11,8.15c-.4.39-1.26.25-1.92-.31s-.86-1.33-.46-1.72Z"/><path class="cls-1" d="M27.84,2.6c0,1.48.83,2.71,1.83,2.75l4.68.18c1,0,1.81-1.13,1.8-2.6S35.33.22,34.33.19L29.65,0C28.64,0,27.84,1.13,27.84,2.6Zm6.49-1.27c.57,0,1,.72,1,1.57s-.46,1.51-1,1.48L29.67,4.2c-.57,0-1-.72-1-1.57s.46-1.51,1-1.48Z"/><path class="cls-1" d="M21.35,6.31c.17-.17.61,0,1,.27h0c.37.32.53.71.36.87l-4,3.85c-.17.17-.61,0-1-.27h0c-.37-.32-.53-.71-.36-.87Z"/><path class="cls-1" d="M30.32,1.94c.24-.05.54.28.67.74h0c.13.46,0,.87-.19.92L25.26,4.79c-.24.05-.54-.28-.67-.74h0c-.13-.46,0-.87.19-.92Z"/><path class="cls-1" d="M14.35,13.36c.11-.21.56-.23,1,0h0c.46.19.74.51.63.72L13.51,18.9c-.11.21-.56.23-1,0h0c-.46-.19-.74-.51-.63-.72Z"/><path class="cls-1" d="M48.7,15.62l-2.42-3.83c-.52-.82-2-.92-3.4-.21s-2,1.94-1.53,2.76l2.42,3.83c.52.82,2,.92,3.4.21S49.21,16.44,48.7,15.62Zm-1.06.55c.29.47-.1,1.17-.87,1.57s-1.65.35-1.94-.12l-2.42-3.83c-.29-.47.1-1.17.87-1.57s1.65-.35,1.94.12Z"/><path class="cls-1" d="M44,7.8,41.55,4c-.52-.82-2-.92-3.4-.21s-2,1.94-1.53,2.76L39,10.35c.52.82,2,.92,3.4.21S44.49,8.62,44,7.8Zm-1.06.55c.29.47-.1,1.17-.87,1.57s-1.65.35-1.94-.12L37.68,6c-.29-.47.1-1.17.87-1.57s1.65-.35,1.94.12Z"/><path class="cls-1" d="M42.25,8.41c-.13-.2-.58-.18-1,0h0c-.44.23-.69.57-.57.77l2.92,4.63c.13.2.58.18,1,0h0c.44-.23.69-.57.57-.77Z"/><path class="cls-1" d="M34.52,2.2c-.21-.12-.6.1-.88.5h0c-.28.39-.33.81-.13.93l4.85,2.81c.21.12.6-.1.88-.5h0c.28-.39.33-.81.12-.93Z"/><path class="cls-1" d="M46.8,16.21c-.05-.23-.49-.35-1-.26h0c-.49.08-.85.33-.79.56l1.23,5.28c.05.23.49.35,1,.26h0c.49-.08.85-.33.79-.56Z"/><path class="cls-2" d="M12.87,20.71A12.63,12.63,0,0,0,0,33.08,12.63,12.63,0,0,0,12.87,45.44,12.63,12.63,0,0,0,25.75,33.08,12.63,12.63,0,0,0,12.87,20.71Zm0,22.12a9.76,9.76,0,1,1,0-19.51,9.76,9.76,0,1,1,0,19.51Z"/><path class="cls-2" d="M19.26,17.88a1,1,0,0,1-1,1H7.48a1,1,0,0,1-1-1h0a1,1,0,0,1,1-1H18.3a1,1,0,0,1,1,1Z"/><path class="cls-2" d="M17.92,22.08c0,1.36-.87.65-1.94.65H9.79c-1.07,0-1.94.71-1.94-.65V17.91l10.07-.1Z"/><ellipse class="cls-1" cx="12.89" cy="18.91" rx="1" ry="0.92"/><path class="cls-1" d="M13.33,21.77a.4.4,0,0,1-.44.35h0a.4.4,0,0,1-.44-.35V18.65a.4.4,0,0,1,.44-.35h0a.4.4,0,0,1,.44.35Z"/><path class="cls-3" d="M47.79,24a12.63,12.63,0,0,0-9.91,14.85A12.88,12.88,0,0,0,63,33.3,12.63,12.63,0,0,0,47.79,24Zm4.77,21.6a9.76,9.76,0,1,1,7.64-11.67A9.88,9.88,0,0,1,52.56,45.6Z"/><path class="cls-3" d="M53.42,19.85A1,1,0,0,1,52.69,21L42.13,23.36A1,1,0,0,1,41,22.6h0a1,1,0,0,1,.72-1.17l10.56-2.33a1,1,0,0,1,1.15.76Z"/><path class="cls-3" d="M53,24.24c.29,1.33-.71.82-1.75,1l-6,1.33c-1,.23-1.74,1.11-2-.22l-.9-4.07,9.81-2.27Z"/><ellipse class="cls-1" cx="47.42" cy="22.23" rx="1" ry="0.92" transform="translate(-3.68 10.74) rotate(-12.44)"/><path class="cls-1" d="M48.47,24.93a.4.4,0,0,1-.35.44h0a.4.4,0,0,1-.5-.25l-.67-3a.4.4,0,0,1,.35-.44h0a.4.4,0,0,1,.5.25Z"/></g></g></svg>