<svg xmlns="http://www.w3.org/2000/svg" viewBox="0 0 21.51 20"><defs><style>.cls-1{fill:#3498db;}</style></defs><title>sex-shop</title><g id="Layer_2" data-name="Layer 2"><g id="Graphics"><path class="cls-1" d="M19.34,9.34h-1.1L13.3,1.9a1.27,1.27,0,0,0,.1-.6,1.3,1.3,0,0,0-2.6,0,1.32,1.32,0,0,0,1.3,1.3h.1l4.52,6.74h-12L9.28,2.6h.1a1.32,1.32,0,0,0,1.3-1.3,1.3,1.3,0,1,0-2.6,0c0,.2.1.4.1.6L3.26,9.34H2.16a2,2,0,0,0-2,2.72l2.52,6c.5,1.5,2.22,1.9,3.82,1.9h8.64c1.6,0,3.32-.5,3.82-1.9l2.52-6a2.18,2.18,0,0,0-2.12-2.72m-14,7.44a.7.7,0,1,1-1.4,0v-4a.7.7,0,0,1,1.4,0Zm4,0a.7.7,0,1,1-1.4,0v-4a.7.7,0,0,1,1.4,0Zm4,0a.7.7,0,0,1-1.4,0v-4a.7.7,0,1,1,1.4,0Zm4,0a.7.7,0,1,1-1.4,0v-4a.7.7,0,1,1,1.4,0Z"/></g></g></svg>