<svg xmlns="http://www.w3.org/2000/svg" xmlns:xlink="http://www.w3.org/1999/xlink" viewBox="0 0 43.46 50.09"><defs><style>.cls-1{fill:none;}.cls-2{fill:#ea4c89;}.cls-3{fill:#fff;}.cls-4{fill:#3498db;}.cls-5{clip-path:url(#clip-path);}</style><clipPath id="clip-path"><path class="cls-1" d="M43.46,47.93c0-1.35,0-2.85-.1-4.37A15.41,15.41,0,0,0,32.27,29.47c-.89-.26-1.64-.49-2.15-.67a4,4,0,0,1-2.82-3.39,7.84,7.84,0,0,1-11.14,0,4,4,0,0,1-2.82,3.39c-.51.18-1.26.41-2.15.67A15.41,15.41,0,0,0,.1,43.56C0,45.08,0,46.58,0,47.93Z"/></clipPath></defs><title>spa</title><g id="Layer_2" data-name="Layer 2"><g id="Graphics"><path class="cls-2" d="M10.34,27.09S3.36,0,21.78,0,33.5,26,32,32,13,41.56,10.34,27.09Z"/><path class="cls-3" d="M43.46,47.93c0-1.35,0-2.85-.1-4.37A15.41,15.41,0,0,0,32.27,29.47c-.89-.26-1.64-.49-2.15-.67a4,4,0,0,1-2.82-3.39,7.84,7.84,0,0,1-11.14,0,4,4,0,0,1-2.82,3.39c-.51.18-1.26.41-2.15.67A15.41,15.41,0,0,0,.1,43.56C0,45.08,0,46.58,0,47.93Z"/><path class="cls-3" d="M31,11.76c-.49,7.29-4,14.53-9.32,14.53-5,0-8.4-6.37-9.2-13.18,6.57-.36,11.16-4.51,13.33-6.54A7.51,7.51,0,0,0,31,11.76Z"/><path class="cls-3" d="M30.71,19.54a22.8,22.8,0,0,0,1.16-5.62l.6,0C33,15.15,33.07,17.09,30.71,19.54Z"/><path class="cls-3" d="M10.82,14.31l.78.13a23.14,23.14,0,0,0,1.06,5C10.57,17.3,10.45,15.52,10.82,14.31Z"/><path class="cls-3" d="M37.28,5.52a1.27,1.27,0,0,0-1.36-1.15,7.52,7.52,0,0,0-1.13.13,7.52,7.52,0,0,0,.89-.7A1.27,1.27,0,0,0,35.84,2a1.27,1.27,0,0,0-1.77.15,7.52,7.52,0,0,0-.7.89,7.52,7.52,0,0,0,.13-1.13,1.16,1.16,0,1,0-2.3,0,7.52,7.52,0,0,0,.13,1.13,7.53,7.53,0,0,0-.7-.89h0A1.27,1.27,0,0,0,28.86,2,1.27,1.27,0,0,0,29,3.8a7.52,7.52,0,0,0,.89.7,7.52,7.52,0,0,0-1.13-.13,1.27,1.27,0,0,0-1.36,1.15,1.27,1.27,0,0,0,1.36,1.15,7.52,7.52,0,0,0,1.13-.13,7.52,7.52,0,0,0-.89.7A1.27,1.27,0,0,0,28.86,9a1.05,1.05,0,0,0,.75.3h.14a1.5,1.5,0,0,0,.88-.44,7.52,7.52,0,0,0,.7-.89A7.52,7.52,0,0,0,31.2,9.1a1.16,1.16,0,1,0,2.3,0A7.52,7.52,0,0,0,33.36,8a7.52,7.52,0,0,0,.7.89,1.5,1.5,0,0,0,.88.44h.14a1.05,1.05,0,0,0,.75-.3,1.27,1.27,0,0,0-.15-1.77,7.52,7.52,0,0,0-.89-.7,7.52,7.52,0,0,0,1.13.13A1.27,1.27,0,0,0,37.28,5.52Z"/><circle class="cls-4" cx="32.35" cy="5.52" r="1.13"/><g class="cls-5"><path class="cls-4" d="M5.38,50.09s-.65-2.35,3.35-12.62v9.25s1.75-17.41,13-1.8h0c11.25-15.62,13,1.8,13,1.8V37.47c3,10.27,3.33,12.62,3.33,12.62Z"/></g></g></g></svg>