<svg xmlns="http://www.w3.org/2000/svg" viewBox="0 0 47.11 48.46"><defs><style>.cls-1{fill:#3498db;}.cls-2{fill:#fff;}.cls-3{fill:#ff0084;}</style></defs><title>transgender</title><g id="Layer_2" data-name="Layer 2"><g id="Graphics"><rect class="cls-1" x="29.13" y="6.96" width="18.26" height="2.69" transform="translate(5.33 29.48) rotate(-45)"/><polygon class="cls-1" points="47.12 14.31 44.42 14.31 44.42 2.69 32.81 2.69 32.81 0 47.12 0 47.12 14.31"/><rect class="cls-2" x="6.21" y="-0.72" width="2.69" height="17.57" transform="translate(-3.49 7.71) rotate(-45)"/><polygon class="cls-2" points="2.69 14.31 0 14.31 0 0 14.31 0 14.31 2.69 2.69 2.69 2.69 14.31"/><path class="cls-1" d="M36.79,23.53H34.09a11.06,11.06,0,1,0-22.12,0H9.28a13.75,13.75,0,1,1,27.51,0Z"/><path class="cls-3" d="M23,37.29A13.77,13.77,0,0,1,9.28,23.53H12a11.06,11.06,0,1,0,22.12,0h2.69A13.77,13.77,0,0,1,23,37.29Z"/><rect class="cls-2" x="3.24" y="9.37" width="14.34" height="2.69" transform="translate(-4.53 10.5) rotate(-45)"/><rect class="cls-3" x="21.69" y="35.94" width="2.69" height="12.52"/><rect class="cls-3" x="15.48" y="41.91" width="15.1" height="2.69"/></g></g></svg>