<svg xmlns="http://www.w3.org/2000/svg" viewBox="0 0 28.84 48.46"><defs><style>.cls-1{fill:#ea4c89;}.cls-2{fill:#fff;}.cls-3{fill:#3498db;}</style></defs><title>vip-escort-2</title><g id="Layer_2" data-name="Layer 2"><g id="Graphics"><path id="_Path_" data-name="&lt;Path&gt;" class="cls-1" d="M28.65,4.18,8.39,0a.24.24,0,0,0-.29.23v48a.24.24,0,0,0,.29.23l20.25-4.27a.24.24,0,0,0,.19-.23V4.42A.24.24,0,0,0,28.65,4.18Z"/><ellipse id="_Path_2" data-name="&lt;Path&gt;" class="cls-2" cx="11.38" cy="24.23" rx="1.07" ry="1.3"/><polygon class="cls-2" points="16.03 18.25 12.59 18.25 10.92 5.78 13.61 6.2 14.33 14.23 15.07 6.43 17.49 6.8 16.03 18.25"/><polygon class="cls-2" points="18.12 18.25 18.12 6.9 20.25 7.24 20.25 18.25 18.12 18.25"/><path class="cls-2" d="M25.88,9.71a2.78,2.78,0,0,0-.42-1,2.06,2.06,0,0,0-.64-.6c-.25-.14,0-.24-.31-.29L22.42,7.4V18.25h1V14.07l.72,0a1.84,1.84,0,0,0,.94-.15,1.24,1.24,0,0,0,.58-.58,3,3,0,0,0,.28-.92A8.09,8.09,0,0,0,26,11.2,6.78,6.78,0,0,0,25.88,9.71ZM24.16,11.5a1.27,1.27,0,0,1-.07.36,1.17,1.17,0,0,1-.11.21.26.26,0,0,1-.16.1l-.19,0h-.22V9.63l.15,0a.59.59,0,0,1,.49.34,2.31,2.31,0,0,1,.13,1C24.2,11.17,24.17,11.35,24.16,11.5Z"/><path id="_Path_3" data-name="&lt;Path&gt;" class="cls-3" d="M0,4.4V44.06a.24.24,0,0,0,.24.24H7.32V41.43H3.11a.24.24,0,0,1-.24-.24V7.27A.24.24,0,0,1,3.11,7H7.32V4.16H.24A.24.24,0,0,0,0,4.4Z"/><polygon class="cls-2" points="19.16 23.28 21.43 28.19 25.96 28.72 22.77 32.79 23.5 38 19.16 36.26 14.3 39.78 15.2 33.72 10.99 29.83 16.76 28.49 19.16 23.28"/></g></g></svg>