<svg xmlns="http://www.w3.org/2000/svg" viewBox="0 0 104.4 48.46"><defs><style>.cls-1{fill:#3498db;}.cls-2{fill:#ea4c89;}.cls-3{fill:#fff;}</style></defs><title>vip-escort</title><g id="Layer_2" data-name="Layer 2"><g id="Graphics"><polygon class="cls-1" points="40.48 43.69 27.64 43.69 21.83 2.69 31.33 2.69 33.98 30.93 36.79 2.69 46.28 2.69 40.48 43.69"/><rect class="cls-1" x="49.2" y="2.69" width="8" height="41"/><path class="cls-2" d="M19.36,7.45a.92.92,0,0,1-.51.33,1.35,1.35,0,0,1-.58,0,2,2,0,0,0,0-.42,2.14,2.14,0,0,0-.07-.59l.26-.14-.27.11A2.61,2.61,0,0,0,18,6.19a2.82,2.82,0,0,0-.39-.49l-.2-.2.08,0a1.93,1.93,0,0,0,1-.77,1.83,1.83,0,0,1-1,.53c0-.14.08-.26.11-.41a1.85,1.85,0,0,0-.45-1.64L17,3.06,17,3h0l0,0,0,0-.24-.17c0-.08,0-.15-.07-.23a2.46,2.46,0,0,0-.79-1.15,1.69,1.69,0,0,0-.44-.24A1.75,1.75,0,0,0,15.11,1,2.2,2.2,0,0,0,13.73.31a1.56,1.56,0,0,0-.58,0,1.11,1.11,0,0,0-.42,0,1.45,1.45,0,0,0-.79.37,1.56,1.56,0,0,0-.5-.06,1,1,0,0,0-.38.09,1,1,0,0,0-.31.23,1.33,1.33,0,0,0-.31.58,2.85,2.85,0,0,0-.34.2,2,2,0,0,0-.64.57,1.44,1.44,0,0,0-.26.79,1.37,1.37,0,0,1,.35-.72,1.81,1.81,0,0,1,.65-.43l.17,0a2.87,2.87,0,0,0,0,.32,2.45,2.45,0,0,0-.67.62,2.57,2.57,0,0,0-.45,1.06,1.54,1.54,0,0,0,0,.65,1.58,1.58,0,0,1-.37.3A1.33,1.33,0,0,1,8.36,5a1.36,1.36,0,0,0,.56-.11,1.64,1.64,0,0,0,.38-.24l0,.1a1.52,1.52,0,0,0,.37.51,2.47,2.47,0,0,0,0,.37,1.81,1.81,0,0,0,.05.44,1.61,1.61,0,0,1-.62.35,1.65,1.65,0,0,0,.64-.27A1.75,1.75,0,0,0,10,6.6a2.7,2.7,0,0,1-.14.32,3,3,0,0,1-.2.28A2.78,2.78,0,0,1,9.09,7a2.54,2.54,0,0,1-1-1A2.6,2.6,0,0,0,9,7.07a3,3,0,0,0,.5.27,2.68,2.68,0,0,1-.46.41A1.8,1.8,0,0,1,8,8.11a1.86,1.86,0,0,0,1.14-.26,2.86,2.86,0,0,0,.58-.44l.27.07a1.3,1.3,0,0,0,.14.47,2.49,2.49,0,0,0,.18.31l-.64.44c-.56.4-1.07.84-1.61,1.26-.85.66-2.44,1.86-1.1,2.94s2.95,1.35,4.41,2.06c.23.11.61.25.87.4a7.81,7.81,0,0,1-1.07,2.42c-.32.42-1.49,1.09-2,1.69-2.13,2.49-.34,4.48.51,5a46.58,46.58,0,0,0,.72,7.73C9,32.8,7.2,34.32,6.06,34.83a1.43,1.43,0,0,1-.33.13c-.08,0-.12-.13-.17-.18a2.05,2.05,0,0,0-.92-.62.78.78,0,0,0-.33,0s-.09.05-.13.06-.1,0-.15,0a.85.85,0,0,0-.35.22,4.7,4.7,0,0,1-.51.4A32.08,32.08,0,0,1,0,36.38a.94.94,0,0,0,.09.26s2.2-.94,2.44-1l.09,0c.08,0,.35-.07.39,0s-.17.3-.22.35c-.24.28-.63.63-.84.84-.4.4-1,.91-1,1.49a7.08,7.08,0,0,0,1,2.22,1,1,0,0,0,.2.24.81.81,0,0,0,.42-.18c0-.07,0-.15-.06-.2l-.07-.18c.17-.09.28-.18.28-.37s-.06-.13-.05-.18.14-.29.15-.48a1.58,1.58,0,0,1,0-.52c.06-.14.19-.16.26-.25s0-.06,0-.07.28,0,.38-.08,0-.13.1-.16.14.05.21,0,0-.07,0-.13l.11,0S3.94,38,4,38a.21.21,0,0,0,.24-.09s0,0,0-.05a.11.11,0,0,1,.11,0s0,0,0,0,.12,0,.18,0l0,0,.16-.06H4.9l.41,0c.16,0,.22-.14.37-.21s.32-.05.26-.28c0,0-.06,0,0-.07A3,3,0,0,1,6.33,37c.44-.25.91-.53,1.36-.73.67-.31,1.34-.56,2-.81a11.65,11.65,0,0,0,0,1.69c.2,1.52.87,3.83.92,4.59a5,5,0,0,1,0,1.06c-1.15.14-1.19.86-1.19,1.16a.21.21,0,0,0-.09.15,2,2,0,0,0,.18.62,18,18,0,0,1,.4,3.73.39.39,0,0,0,.26,0s-.1-2.31-.05-2.74c0-.18.07-.25.24-.11a7.1,7.1,0,0,1,.68,1.23c.34.78.44,1.45,1.12,1.6a5.75,5.75,0,0,0,2.17-.18.8.8,0,0,0,.29-.16.79.79,0,0,0,0-.42c-.06-.08-.18,0-.28-.06l-.11,0s0-.12,0-.18-.23-.07-.39-.13-.29-.32-.51-.42a1.26,1.26,0,0,1-.47-.27c-.1-.14,0-.25,0-.41s-.1-.18-.09-.27.11-.14.12-.26-.06-.08-.06-.12,0-.09,0-.15a1.56,1.56,0,0,1,0-.34c.18,0,.07-.14.09-.24A4.78,4.78,0,0,1,13,44a1.25,1.25,0,0,0,0-.42c0-.16,0-.19-.21-.17-.08-.7-.2-1.43-.24-2.22a40.43,40.43,0,0,1,.17-5.64c0-.23,0-.45.06-.7a2.61,2.61,0,0,1,.06-.48,1.27,1.27,0,0,1,.28-.11c.23-.05.48-.06.72-.09l.7-.09c.46-.07.92-.13,1.36-.24a2,2,0,0,0,1-.57,1.78,1.78,0,0,0,.51-1.06,5,5,0,0,0-.11-1.34,33.67,33.67,0,0,0-2.64-7.16A9.9,9.9,0,0,0,14,22.5c1.05-.93,1.74-2.89,2.41-4.34.15-.31.23-.71.35-1.07.25-.73.59-1.44.81-2.19a2.18,2.18,0,0,1,.17-.4,1.7,1.7,0,0,0,1.44-1.8,2.61,2.61,0,0,0-1-1.73,1.43,1.43,0,0,0,.13-.45,1.44,1.44,0,0,0-.09-.66,2.61,2.61,0,0,0-.26-.51,1.74,1.74,0,0,0-.16-.43l0,0a1.46,1.46,0,0,0,.51.34,1.36,1.36,0,0,0,.67.06,1.33,1.33,0,0,1-.65-.12,1.39,1.39,0,0,1-.49-.4,3,3,0,0,0,.29-.5,2.29,2.29,0,0,0,.11-.3,1.51,1.51,0,0,0,.66-.07,1,1,0,0,0,.52-.41,1.16,1.16,0,0,0,.16-.63A1.13,1.13,0,0,1,19.36,7.45ZM4.5,37.86c0-.08.11-.16.2-.11S4.59,37.85,4.5,37.86Zm6-29.76-.05,0s0-.08,0-.13h0ZM10,5.34a2.86,2.86,0,0,1,.1-.27,1.63,1.63,0,0,0,0,.24s0,.06,0,.09Zm.71.87,0-.12,0,0h0l.13.06A.42.42,0,0,0,10.72,6.21Zm0,.92-.06,0L10.58,7v0h0A.58.58,0,0,0,10.73,7.13ZM10.58,7l.09.18,0,0,0-.17ZM10,3.71l0,0ZM9.94,5.63l0-.1.06.2v0l-.08.11A1.64,1.64,0,0,1,9.94,5.63Zm.1-.14,0,0v.09l0,0Zm.31,1.12,0,0s0,0,0,.07a1.81,1.81,0,0,0,0,.18h0l-.11-.15Zm0,.45c0,.07,0,.14,0,.22h-.27a.44.44,0,0,1,.16-.18l.1-.06ZM12.75.46h.08c-.21.1-.4.22-.6.32l0,0A1.17,1.17,0,0,1,12.75.46ZM10.87,1a.81.81,0,0,1,.58-.22,1.26,1.26,0,0,1,.3,0L11.7,1l-.18,0a.89.89,0,0,0-.68.38l-.26.1A1.16,1.16,0,0,1,10.87,1Zm-.33.81-.1.24c0-.08,0-.15,0-.23ZM9.49,3.93A2.26,2.26,0,0,1,10,3.07l.1-.09L9.9,3.5a5.2,5.2,0,0,1-.46.8A1.36,1.36,0,0,1,9.49,3.93Zm0,.75a1.19,1.19,0,0,1,0-.18,3.81,3.81,0,0,0,.45-.56v0l0,.08a1.72,1.72,0,0,0-.08.72l0,.14,0,.18A1.32,1.32,0,0,1,9.51,4.67ZM9.94,6l.13-.13.06.17c0,.07,0,.13,0,.2s0,.13,0,.19A1.61,1.61,0,0,1,9.94,6ZM10,7.06l.15-.19L10.3,7,10.21,7a.58.58,0,0,0-.17.19l0,.05-.14,0Zm.15.86a1.27,1.27,0,0,1-.12-.42l.29,0c0,.17,0,.34,0,.5s0,.12,0,.18A2.38,2.38,0,0,1,10.19,7.91Zm0,4.32a12.11,12.11,0,0,0,1.67-1c.09.67.68,3,.68,3C12,13.74,10.75,12.71,10.17,12.23Zm7.42-4.75-.12-.2L17.3,7V6.81l.07,0a.94.94,0,0,0,.59,0,1.82,1.82,0,0,1,.13.5,1.68,1.68,0,0,1,0,.36,1.63,1.63,0,0,1-.38-.18ZM16.18,2.43,16,2.26l0,0-.11-.16L15.8,2a1.71,1.71,0,0,1,.25.22,1.48,1.48,0,0,1,.17.26Zm.89,7.8h0Zm-.32-6.84.1.08.08.07h0a1.44,1.44,0,0,1,.06.3l-.05-.06a1.63,1.63,0,0,0-.19-.17v0C16.75,3.52,16.75,3.45,16.75,3.38Zm0,.5.07.06.14.14.06.07a1.26,1.26,0,0,1,0,.16v0a1,1,0,0,0-.24-.4Zm-.09-.35v0A0,0,0,0,1,16.63,3.53Zm.87,5,.07.1-.07-.08Zm.1-.13,0-.07a3,3,0,0,1-.18-.52l.08.06.07.08a1.44,1.44,0,0,1,.1.52Zm-1-4.58h0s0,.06,0,.08S16.64,3.85,16.64,3.82Zm.71,6.49h0l0,.07Zm-.06-5.1-.14,0L17.08,5V5a2.24,2.24,0,0,0-.1-.55l0-.09s0-.07,0-.11v0a2.07,2.07,0,0,1,.18.36,1.86,1.86,0,0,1,.1.4ZM16.69,3.4V3.33h0ZM16.84,10v0a1.34,1.34,0,0,0,0-.16L17,9.9l0,.11-.09.13Zm.84-3.59a2.24,2.24,0,0,1,.25.42.84.84,0,0,1-.51-.09l-.12-.08c0-.2,0-.41,0-.62A2.58,2.58,0,0,1,17.68,6.41Zm-.3-2a1.49,1.49,0,0,1,0,.24V4.55a2.23,2.23,0,0,0-.17-.4l-.05-.09L17.09,4v0a1.51,1.51,0,0,0,0-.28A1.42,1.42,0,0,1,17.38,4.37ZM15.66,1.59a2.31,2.31,0,0,1,.83,1l0,.07-.06-.06-.11-.08a1.56,1.56,0,0,0-.22-.38,1.94,1.94,0,0,0-.43-.42l-.08-.15ZM14.32,31.46a2,2,0,0,0-1,0c.09-.39.17-.79.21-1.12A3.44,3.44,0,0,0,14.32,31.46Zm3.75-20.53-.29-.2-.07-.06a2.38,2.38,0,0,0,.17-.53v0l0-.11a1.46,1.46,0,0,0,0-.19,1.37,1.37,0,0,1,.21.7A1.29,1.29,0,0,1,18.08,10.93Zm-.24-2.49a1.65,1.65,0,0,0-.09-.58v0l.28.09A2.39,2.39,0,0,1,17.84,8.45Z"/><path class="cls-2" d="M86.71,46.48c.09.38.87.4,1.3.32,1.08-.2,1.33-.59,1.48-1.1.06-.22.11-.43.17-.68a.64.64,0,0,1,.11-.32,5.35,5.35,0,0,1,0,.6.4.4,0,0,0,.25.06c.07-.28.15-.83.22-1.34a2.13,2.13,0,0,1,.1-.43,3.93,3.93,0,0,1,.29-.46c0-.08.09-.17.13-.25a1.58,1.58,0,0,0-.16-1.65.71.71,0,0,0-.38-.16c-.1,0-.22,0-.24,0a1.61,1.61,0,0,1,0-.52c0-.34.56-3.15.59-3.31a4.88,4.88,0,0,0-.19-3.5.65.65,0,0,1-.06-.21c0-.23.42-.5,1-1.3.78-1,1.5-2.14,2.26-3.18a4,4,0,0,1,.83-.72,8.72,8.72,0,0,0,1.36-1.49.54.54,0,0,1,.24-.19,18,18,0,0,0,.45,6.49c.07.32.12.66.19,1a6.25,6.25,0,0,1,.22,1c0,.7-.09,1.4-.06,2.08,0,.35,0,.69,0,1a10,10,0,0,1,0,1,22.2,22.2,0,0,1-.33,3.4c0,.07,0,.14-.06.21a3.92,3.92,0,0,0-.24,1.28.5.5,0,0,1,0,.24c0,.08-.12.12-.11.22s.16.14.19.24,0,.1,0,.21-.06.08,0,.21.12.13.08.25-.15.11-.19.2,0,.21,0,.32-.18.16-.27.35,0,.2,0,.28-.13.08-.18.15a2.15,2.15,0,0,0-.26.49,1.8,1.8,0,0,1-.07.24c-.07.14-.14.19-.16.37a2.21,2.21,0,0,0,0,.35c0,.13.32.18.59.22a3.69,3.69,0,0,0,.76,0c.8,0,1.25-.21,1.46-.72A9.85,9.85,0,0,0,98.32,46c.07-.35.13-.7.21-1,0-.17.08-.34.11-.51a2.88,2.88,0,0,0,.1-.84,1.9,1.9,0,0,0-.43-1l-.13-.1s-.13,0-.14-.08a1.51,1.51,0,0,1,0-.29c.37-2.16,2.15-4.21,1.15-7.52,0-.15-.14-.29-.18-.45s0-.19,0-.29a5.92,5.92,0,0,1-.06-.94,5.84,5.84,0,0,1,.14-1.18q.23-1.14.48-2.18c.17-.73.32-1.45.48-2.18.08-.37.19-.7.29-1s.18-.7.27-1c.7-2.84-.29-4.61-2.08-6.73a1.66,1.66,0,0,1-.43-1,4.63,4.63,0,0,1,.29-1.3A10.92,10.92,0,0,1,98.77,15c.22-.51.52-1,.75-1.64a4.52,4.52,0,0,1,.19-.51l0-.06c.05,0,0,0,.06.17s.19.45.21.49a21.51,21.51,0,0,0,1.13,2.62c.11.2.25.39.35.59s.24.55.38.8a1.43,1.43,0,0,0,1.07.81,1.16,1.16,0,0,0,.65-.14,1.81,1.81,0,0,0,.67-1.27c0-.21,0-.52,0-.75s.07-.39.1-.59a31.52,31.52,0,0,0-.06-3.21c0-.22,0-.44,0-.65a3.66,3.66,0,0,0,.1-.86,1.23,1.23,0,0,0-.29-.62,2.18,2.18,0,0,0-.54-.43,3.82,3.82,0,0,1-.48-.35,3.17,3.17,0,0,0-.29-.25,1.79,1.79,0,0,0-.6-.16,4.23,4.23,0,0,0-1.13,0l-.45.08-.14,0A.18.18,0,0,1,100.4,9a2,2,0,0,0,.41-.45l.11-.17.12.06a1.94,1.94,0,0,0,.73.12,1.53,1.53,0,0,0,.71-.18.86.86,0,0,0,.43-.56.82.82,0,0,1-.46.5,1.44,1.44,0,0,1-.68.11,1.79,1.79,0,0,1-.66-.17l-.1-.06a2.23,2.23,0,0,0,.22-.78l0-.12a1.59,1.59,0,0,0,.39-.53l0-.07h0a.74.74,0,0,0,.4.24,1,1,0,0,0,.45,0,.93.93,0,0,1-.43,0,.64.64,0,0,1-.32-.26l0-.09a2.17,2.17,0,0,0,.06-.85,3.27,3.27,0,0,0-.2-.94,1.46,1.46,0,0,0,.1-.3,1.13,1.13,0,0,0-.19-.88l-.07-.1a1.64,1.64,0,0,0-.2-.64,1.47,1.47,0,0,0-.88-.74A1.61,1.61,0,0,0,99.92,2a.9.9,0,0,0-.4-.3,3.26,3.26,0,0,0-.33,0c-.06,0-.11-.06-.17-.08a1.9,1.9,0,0,0-.41,0l-.21,0a1.93,1.93,0,0,1-.19,0s-.14-.06-.21-.08a1.92,1.92,0,0,0-.56,0,2.08,2.08,0,0,0-.65.14l-.66,0a1.87,1.87,0,0,1-1-.26,1.48,1.48,0,0,1-.54-.94,1.53,1.53,0,0,0,.47,1,1.79,1.79,0,0,0,.88.37L95.7,2a2.13,2.13,0,0,0-.3.24l-.16-.12C94.14,1.33,93,.62,92.18.18A1.32,1.32,0,0,0,91.4,0a1.19,1.19,0,0,0-.54.14,1,1,0,0,0-.29.22,1.14,1.14,0,0,0-.22.37,1.62,1.62,0,0,0-.08.37,10,10,0,0,0,.78,3.49c.26.64.51,1.24,1,2.62a5.08,5.08,0,0,1,.22,2.32c0,.22,0,.45-.06.67a2.48,2.48,0,0,1-.11.62,5.73,5.73,0,0,1-.68,1.1,2.77,2.77,0,0,0-.49,1.29,1.86,1.86,0,0,0,.76,1.69l.16.1a1.77,1.77,0,0,1,0,.37,15.22,15.22,0,0,0,.35,2.32c.09.42.21.83.29,1.26a7.21,7.21,0,0,1,.14,1.38c0,.33.14,1.57.16,1.73.05.38.23,1-.06,1.22a7.26,7.26,0,0,0-1.67,2.05,54.9,54.9,0,0,0-2.37,5.06c-.09.2-.19.42-.29.65s-.17.45-.25.67-.2.41-.3.62a1.83,1.83,0,0,0-.21,1c0,.33.1.67.14,1a39.38,39.38,0,0,1,.37,4.21c0,.65.14,1.29.18,1.93a5.78,5.78,0,0,1,0,1c0,.12-.06.22-.08.33s.05.33,0,.49-.2.27-.23.5c0,.05,0,.11,0,.17a.72.72,0,0,0,0,.38c.09.22.14.19.08.45,0,.1,0,.2,0,.3a1.46,1.46,0,0,1-.25.56c-.1.1-.18.06-.3.12s-.12.1-.17.25-.09.13-.18.24a2,2,0,0,0-.43.85A1,1,0,0,0,86.71,46.48ZM101,10.11c.1,0,.24-.07.38-.08l.14,0a1.84,1.84,0,0,1,.29,0c.06,0,.17,0,.14.13-.19,0-.4,0-.43.14s.23.33.4.38.47,0,.68.1c.05,0,.11.07.19.11l.22.1a2.68,2.68,0,0,1,.29.08,3.1,3.1,0,0,1-.06.41c-.16,1-.42,1.77-.62,2.72-.08,0-.11-.13-.14-.21-.3-.79-.42-.94-.89-2.34C101.43,11.13,101.23,10.6,101,10.11Zm-.19-.45a1.45,1.45,0,0,1,.22,0c.16,0,.33-.09.41,0s-.09,0-.18,0-.36.22-.43.17A.22.22,0,0,1,100.83,9.66ZM93.38,5l-.06-.12.08.1Zm1-1.74.24.1a3.5,3.5,0,0,0-.18.58,2.3,2.3,0,0,0-.25.19,5.07,5.07,0,0,0-.37.38.74.74,0,0,1-.33-.24,1.21,1.21,0,0,1-.21-.71,1.27,1.27,0,0,0,.11.78.88.88,0,0,0,.3.32l-.06.07-.13.12-.09-.08A1.52,1.52,0,0,1,93.08,4a2.41,2.41,0,0,1,0-.85A2.5,2.5,0,0,0,93,4c-.13-.46-.23-.89-.34-1.35h0c.37.15.67.24,1.16.43Zm-.13,1.3.11-.07v.05Zm.13-.08,0,0,0,0-.05.1h0Zm.19-.62a3.39,3.39,0,0,1,.21-.43c.07,0,.13.07.13.09s-.07.15-.12.23ZM93.73,5l.09-.07L94,4.78l.11,0,.18,0-.13.25A1.23,1.23,0,0,1,93.73,5Zm6.11,4.24v0s.15-.21.1-.29.05,0,.06,0L100,9l0,.06-.11.08Zm.31-.32.08,0-.06.06C100.15,8.95,100.14,8.9,100.15,8.9Zm1.21-4.65-.11-.18a1.88,1.88,0,0,0-.25-.55,1.62,1.62,0,0,1,.32.23l.07.08A1.93,1.93,0,0,1,101.36,4.25Zm-.81,3,.09-.13,0,.12,0,.11,0,.06s0,0,0,0l0,0a1.77,1.77,0,0,1,0,.54l-.06.08-.06-.08a.65.65,0,0,1-.06-.19,1.82,1.82,0,0,1,0-.22C100.55,7.38,100.55,7.3,100.55,7.21Zm0,.91a1.76,1.76,0,0,1-.45.32A3.26,3.26,0,0,1,100.3,8a.9.9,0,0,0,0-.2.91.91,0,0,0,.1.17Zm.76-4.81a3.23,3.23,0,0,0-.68-.54l-.06,0a1.23,1.23,0,0,0-.15-.23,1.22,1.22,0,0,1,.71.44A1.44,1.44,0,0,1,101.3,3.31Zm.26,1.35q-.07-.18-.16-.35l0,0a2,2,0,0,0,.07-.37.93.93,0,0,1,.14.56A1.28,1.28,0,0,1,101.56,4.66Zm.07,1.63c0-.14-.08-.29-.11-.44s0-.25,0-.37a2.74,2.74,0,0,1,.1.28A2.12,2.12,0,0,1,101.63,6.28Zm-.33.94a2.27,2.27,0,0,0,0-.29,3,3,0,0,0,0-.63,1.69,1.69,0,0,0,.06-.19,2.34,2.34,0,0,0,.23.47,1.54,1.54,0,0,1,0,.16A1.48,1.48,0,0,1,101.29,7.22Zm-1,1.64,0-.06-.1-.14,0-.06.2-.09a1.82,1.82,0,0,0,.32-.21l-.05.13A1.84,1.84,0,0,1,100.3,8.87Zm-.07.27.12-.09,0,0C100.33,9.12,100.29,9.16,100.23,9.14Zm-.23.13.06,0v0Zm-6.52-4.1.06,0a1.5,1.5,0,0,0,.46.27.75.75,0,0,1-.11.17c-.13.14-.13.1-.22-.06ZM88.14,43.29c-.07,0,0-.09,0-.11s0-.1.06-.08S88.18,43.29,88.14,43.29Z"/><path class="cls-1" d="M84.76,8.47A9.56,9.56,0,0,0,82.61,4.4c-.95-1-2-1.08-3.26-1.5s-2.67-.2-4.31-.2H64.2v41h9v-16h2.48a11.87,11.87,0,0,0,4.83-.94,6.67,6.67,0,0,0,3-2.65,12,12,0,0,0,1.51-4,28.54,28.54,0,0,0,.44-5.41A23,23,0,0,0,84.76,8.47Z"/><polygon class="cls-3" points="78.18 15.63 79.94 21.86 74.56 18.26 69.18 21.86 70.94 15.63 65.86 11.63 72.33 11.38 74.56 5.3 76.8 11.38 83.26 11.63 78.18 15.63"/></g></g></svg>