<svg xmlns="http://www.w3.org/2000/svg" viewBox="0 0 46.44 48.46"><defs><style>.cls-1{fill:#ea4c89;}.cls-2{fill:#fff;}.cls-3{fill:#3498db;}</style></defs><title>webcam</title><g id="Layer_2" data-name="Layer 2"><g id="Graphics"><path class="cls-1" d="M23.22,0A21.68,21.68,0,1,0,44.9,21.68,21.68,21.68,0,0,0,23.22,0ZM8.69,13.59a1.08,1.08,0,0,1-1-1.49A11,11,0,0,1,13.4,6.26a1.08,1.08,0,1,1,.87,2,8.8,8.8,0,0,0-4.59,4.69A1.08,1.08,0,0,1,8.69,13.59ZM23.22,33.51A11.83,11.83,0,1,1,35.05,21.68,11.83,11.83,0,0,1,23.22,33.51Z"/><path class="cls-2" d="M23.22,11.28a10.4,10.4,0,1,0,10.4,10.4A10.4,10.4,0,0,0,23.22,11.28Zm1.85,19A8.77,8.77,0,1,1,31.8,19.83,8.77,8.77,0,0,1,25.07,30.25Z"/><path class="cls-2" d="M22,16.12a5.7,5.7,0,0,0-1,.33,2,2,0,1,1-2.9,2.8,5.66,5.66,0,0,0,6.32,8A5.69,5.69,0,1,0,22,16.12Z"/><path class="cls-3" d="M46.44,48.46c-.07-1.9-2.73-6.69-6.92-9.4a23.83,23.83,0,0,1-32.6,0C2.74,41.77.07,46.56,0,48.46Z"/></g></g></svg>