<?xml version="1.0" encoding="UTF-8" standalone="no"?>
<svg
   xmlns:dc="http://purl.org/dc/elements/1.1/"
   xmlns:cc="http://creativecommons.org/ns#"
   xmlns:rdf="http://www.w3.org/1999/02/22-rdf-syntax-ns#"
   xmlns:svg="http://www.w3.org/2000/svg"
   xmlns="http://www.w3.org/2000/svg"
   xmlns:xlink="http://www.w3.org/1999/xlink"
   height="24"
   width="48"
   id="svg39"
   version="1.1"
   viewBox="0 0 48.000001 24"
   enable-background="new 0 0 246.7 162.5">
  <metadata
     id="metadata43">
    <rdf:RDF>
      <cc:Work
         rdf:about="">
        <dc:format>image/svg+xml</dc:format>
        <dc:type
           rdf:resource="http://purl.org/dc/dcmitype/StillImage" />
        <dc:title></dc:title>
      </cc:Work>
    </rdf:RDF>
  </metadata>
  <defs
     id="defs21">
    <path
       d="m 164,86.3 c 0,-3.2 2,-4.8 6,-4.8 2,0 3.5,0.9 4.7,2.6 1.2,1.7 1.8,3.6 1.8,5.6 0,3.6 -1.1,7.2 -3.3,10.8 -2.2,3.7 -5.9,8.3 -11.1,13.9 l 0.9,4.9 c 0.2,0.9 0.4,1.9 0.6,3 0.8,3.9 2.6,5.9 5.3,5.9 2,0 3.8,-0.8 5.5,-2.5 1.7,-1.7 2.9,-3.8 3.6,-6.3 h 4.2 c -3.2,9.2 -8,15 -14.2,17.4 -2.2,0.8 -4.2,1.3 -5.9,1.3 -1.7,0 -3.3,-0.3 -4.7,-0.9 -2.4,-1 -4.3,-3.2 -5.7,-6.7 -0.7,-1.8 -1.4,-3.9 -2,-6.5 -6.4,6.5 -14.1,10.8 -23.2,12.9 -2.9,0.7 -5.6,1 -8.2,1 -5.6,0 -10,-1.3 -13.3,-3.9 -3.3,-2.6 -4.9,-6.8 -4.9,-12.5 0,-7.4 1.9,-14.6 5.8,-21.8 3,-5.5 7,-9.3 12.2,-11.7 2.6,-1.2 5.4,-1.9 8.2,-1.9 4.6,0 7.8,0.9 9.5,2.6 1.7,1.7 2.5,4.1 2.5,7 0,5.8 -2.3,10.6 -6.9,14.6 -4.6,4 -10,6.2 -16.3,6.6 -0.1,0.5 -0.1,1 -0.1,1.4 v 1.3 c 0,3.7 1,6.3 2.9,7.7 2,1.4 4.1,2.2 6.4,2.2 4.4,0 8.7,-1 13,-3 4.3,-2 8.1,-4.8 11.3,-8.4 L 142.9,87 h 14.2 l 3.9,21.7 c 6.4,-6.8 9.6,-12.1 9.6,-15.9 0,-0.5 0,-0.9 -0.1,-1.2 -0.6,0.1 -1.2,0.2 -1.8,0.2 -3.2,0.1 -4.7,-1.8 -4.7,-5.5 z m -33.4,8.9 c 0,-2.4 -0.8,-3.6 -2.5,-3.6 -2.4,0 -4.8,2.2 -7.1,6.5 -2.3,4.3 -4,9.1 -5,14.1 3.9,-0.1 7.3,-1.9 10.2,-5.2 2.9,-3.3 4.4,-7.3 4.4,-11.8 z"
       id="SVGID_1_" />
    <clipPath
       id="clipPath5">
      <use
         height="100%"
         width="100%"
         y="0"
         x="0"
         style="overflow:visible"
         id="use3"
         xlink:href="#SVGID_1_"
         overflow="visible" />
    </clipPath>
    <linearGradient
       y2="112.2613"
       y1="112.2613"
       x2="224.1445"
       x1="0"
       gradientUnits="userSpaceOnUse"
       id="SVGID_3_">
      <stop
         id="stop7"
         stop-color="#ff0084"
         offset="0" />
      <stop
         id="stop9"
         stop-color="#ff7bac"
         offset="1" />
    </linearGradient>
    <clipPath
       id="SVGID_5_">
      <use
         height="100%"
         width="100%"
         y="0"
         x="0"
         style="overflow:visible"
         id="use12"
         xlink:href="#SVGID_4_"
         overflow="visible" />
    </clipPath>
    <clipPath
       id="clipPath17">
      <use
         height="100%"
         width="100%"
         y="0"
         x="0"
         style="overflow:visible"
         id="use15"
         xlink:href="#SVGID_7_"
         overflow="visible" />
    </clipPath>
    <path
       d="m 164,86.3 c 0,-3.2 2,-4.8 6,-4.8 2,0 3.5,0.9 4.7,2.6 1.2,1.7 1.8,3.6 1.8,5.6 0,3.6 -1.1,7.2 -3.3,10.8 -2.2,3.7 -5.9,8.3 -11.1,13.9 l 0.9,4.9 c 0.2,0.9 0.4,1.9 0.6,3 0.8,3.9 2.6,5.9 5.3,5.9 2,0 3.8,-0.8 5.5,-2.5 1.7,-1.7 2.9,-3.8 3.6,-6.3 h 4.2 c -3.2,9.2 -8,15 -14.2,17.4 -2.2,0.8 -4.2,1.3 -5.9,1.3 -1.7,0 -3.3,-0.3 -4.7,-0.9 -2.4,-1 -4.3,-3.2 -5.7,-6.7 -0.7,-1.8 -1.4,-3.9 -2,-6.5 -6.4,6.5 -14.1,10.8 -23.2,12.9 -2.9,0.7 -5.6,1 -8.2,1 -5.6,0 -10,-1.3 -13.3,-3.9 -3.3,-2.6 -4.9,-6.8 -4.9,-12.5 0,-7.4 1.9,-14.6 5.8,-21.8 3,-5.5 7,-9.3 12.2,-11.7 2.6,-1.2 5.4,-1.9 8.2,-1.9 4.6,0 7.8,0.9 9.5,2.6 1.7,1.7 2.5,4.1 2.5,7 0,5.8 -2.3,10.6 -6.9,14.6 -4.6,4 -10,6.2 -16.3,6.6 -0.1,0.5 -0.1,1 -0.1,1.4 v 1.3 c 0,3.7 1,6.3 2.9,7.7 2,1.4 4.1,2.2 6.4,2.2 4.4,0 8.7,-1 13,-3 4.3,-2 8.1,-4.8 11.3,-8.4 L 142.9,87 h 14.2 l 3.9,21.7 c 6.4,-6.8 9.6,-12.1 9.6,-15.9 0,-0.5 0,-0.9 -0.1,-1.2 -0.6,0.1 -1.2,0.2 -1.8,0.2 -3.2,0.1 -4.7,-1.8 -4.7,-5.5 z m -33.4,8.9 c 0,-2.4 -0.8,-3.6 -2.5,-3.6 -2.4,0 -4.8,2.2 -7.1,6.5 -2.3,4.3 -4,9.1 -5,14.1 3.9,-0.1 7.3,-1.9 10.2,-5.2 2.9,-3.3 4.4,-7.3 4.4,-11.8 z"
       id="SVGID_4_" />
    <path
       d="m 164,86.3 c 0,-3.2 2,-4.8 6,-4.8 2,0 3.5,0.9 4.7,2.6 1.2,1.7 1.8,3.6 1.8,5.6 0,3.6 -1.1,7.2 -3.3,10.8 -2.2,3.7 -5.9,8.3 -11.1,13.9 l 0.9,4.9 c 0.2,0.9 0.4,1.9 0.6,3 0.8,3.9 2.6,5.9 5.3,5.9 2,0 3.8,-0.8 5.5,-2.5 1.7,-1.7 2.9,-3.8 3.6,-6.3 h 4.2 c -3.2,9.2 -8,15 -14.2,17.4 -2.2,0.8 -4.2,1.3 -5.9,1.3 -1.7,0 -3.3,-0.3 -4.7,-0.9 -2.4,-1 -4.3,-3.2 -5.7,-6.7 -0.7,-1.8 -1.4,-3.9 -2,-6.5 -6.4,6.5 -14.1,10.8 -23.2,12.9 -2.9,0.7 -5.6,1 -8.2,1 -5.6,0 -10,-1.3 -13.3,-3.9 -3.3,-2.6 -4.9,-6.8 -4.9,-12.5 0,-7.4 1.9,-14.6 5.8,-21.8 3,-5.5 7,-9.3 12.2,-11.7 2.6,-1.2 5.4,-1.9 8.2,-1.9 4.6,0 7.8,0.9 9.5,2.6 1.7,1.7 2.5,4.1 2.5,7 0,5.8 -2.3,10.6 -6.9,14.6 -4.6,4 -10,6.2 -16.3,6.6 -0.1,0.5 -0.1,1 -0.1,1.4 v 1.3 c 0,3.7 1,6.3 2.9,7.7 2,1.4 4.1,2.2 6.4,2.2 4.4,0 8.7,-1 13,-3 4.3,-2 8.1,-4.8 11.3,-8.4 L 142.9,87 h 14.2 l 3.9,21.7 c 6.4,-6.8 9.6,-12.1 9.6,-15.9 0,-0.5 0,-0.9 -0.1,-1.2 -0.6,0.1 -1.2,0.2 -1.8,0.2 -3.2,0.1 -4.7,-1.8 -4.7,-5.5 z m -33.4,8.9 c 0,-2.4 -0.8,-3.6 -2.5,-3.6 -2.4,0 -4.8,2.2 -7.1,6.5 -2.3,4.3 -4,9.1 -5,14.1 3.9,-0.1 7.3,-1.9 10.2,-5.2 2.9,-3.3 4.4,-7.3 4.4,-11.8 z"
       id="SVGID_7_" />
    <linearGradient
       y2="112.2613"
       x2="224.1445"
       y1="112.2613"
       x1="0"
       gradientUnits="userSpaceOnUse"
       id="linearGradient4552"
       xlink:href="#SVGID_3_" />
    <linearGradient
       y2="112.2613"
       x2="224.1445"
       y1="112.2613"
       x1="0"
       gradientUnits="userSpaceOnUse"
       id="linearGradient4554"
       xlink:href="#SVGID_3_" />
  </defs>
  <g
     transform="matrix(0.09726801,0,0,0.09726801,0,4.0839649)"
     id="g4528">
    <path
       style="fill:#ffffff"
       d="m 219.3,41.8 c -0.4,0.7 -1.1,1.2 -1.9,1.6 -0.9,0.4 -1.6,0.6 -2.3,0.7 l -0.5,2.1 c 1.3,-0.1 2.4,-0.5 3.5,-1 l -2.1,8.8 2.3,0.6 3,-12.3 z"
       id="path23" />
    <path
       style="fill:#ffffff"
       d="m 228.9,56.2 c 0.9,-0.5 1.5,-1.4 1.7,-2.5 0.2,-0.7 0.1,-1.3 -0.1,-1.9 -0.2,-0.6 -0.6,-1.1 -1.3,-1.6 0.6,-0.1 1.1,-0.3 1.5,-0.7 0.4,-0.4 0.7,-0.8 0.8,-1.4 0.2,-0.9 0.1,-1.7 -0.4,-2.5 -0.5,-0.7 -1.3,-1.3 -2.5,-1.5 -1.2,-0.3 -2.1,-0.2 -2.9,0.2 -0.8,0.4 -1.3,1.1 -1.5,2 -0.1,0.5 -0.1,1.1 0.1,1.6 0.2,0.5 0.5,1 1.1,1.4 -0.8,0.1 -1.4,0.4 -1.9,0.9 -0.5,0.5 -0.8,1 -0.9,1.7 -0.3,1.2 -0.1,2.3 0.6,3.1 0.6,0.8 1.5,1.3 2.6,1.5 1.2,0.3 2.2,0.2 3.1,-0.3 z M 227.1,46 c 0.3,-0.2 0.7,-0.2 1.2,-0.1 0.4,0.1 0.8,0.3 1,0.6 0.2,0.3 0.2,0.7 0.1,1.2 -0.1,0.5 -0.3,0.8 -0.7,1 -0.3,0.2 -0.7,0.2 -1.2,0.1 -0.4,-0.1 -0.8,-0.3 -1,-0.6 -0.2,-0.3 -0.2,-0.7 -0.1,-1.2 0.1,-0.5 0.3,-0.8 0.7,-1 z m -2,7.8 c -0.2,-0.4 -0.3,-1 -0.1,-1.6 0.1,-0.5 0.4,-0.9 0.7,-1.2 0.4,-0.3 0.8,-0.4 1.4,-0.3 0.5,0.1 0.9,0.4 1.1,0.8 0.2,0.4 0.3,0.9 0.2,1.5 -0.2,0.7 -0.4,1.1 -0.8,1.4 -0.4,0.3 -0.8,0.3 -1.3,0.2 -0.6,-0.1 -1,-0.4 -1.2,-0.8 z"
       id="path25" />
    <path
       style="fill:#ffffff"
       d="m 232.4,52.7 3.2,0.8 -0.7,3.1 2.1,0.5 0.8,-3.1 3.2,0.7 0.5,-2.1 -3.2,-0.8 0.8,-3.2 -2.2,-0.5 -0.7,3.2 -3.2,-0.8 z"
       id="path27" />
    <path
       style="fill:#ffffff"
       d="m 245.4,58.1 c 3.9,-9.9 -1,-21.1 -10.9,-25 -9.9,-3.9 -21.1,1 -25,10.9 -3.9,9.9 1,21.1 10.9,25 9.8,3.9 21.1,-1 25,-10.9 z M 210.3,44.4 C 214,35 224.6,30.3 234,34 c 9.4,3.7 14.1,14.3 10.4,23.7 -3.7,9.4 -14.3,14.1 -23.7,10.4 -9.4,-3.7 -14.1,-14.3 -10.4,-23.7 z"
       id="path29" />
    <path
       style="fill:none;stroke:#ffffff;stroke-miterlimit:10"
       d="m 221.2,23.8 c 0,0 3.5,2.3 3.8,8.4"
       stroke-miterlimit="10"
       id="path31" />
    <path
       style="fill:#4d4d4d"
       d="m 209.6,86.8 -6.8,32.4 c -1.8,5.9 -4.5,9 -8,9 -2,0 -3,-1.4 -3,-4.4 0,-0.8 0.1,-1.9 0.3,-2.7 l 7.2,-34.3 h -14.5 l -6.6,32.6 v 0 c -1,2.5 -2,4.6 -3.7,6.3 -1.7,1.7 -3.6,2.5 -5.5,2.5 -2.7,0 -4.5,-2 -5.3,-5.9 -0.2,-1 -0.4,-2 -0.7,-3 l -0.9,-4.9 c 5.2,-5.6 8.9,-10.3 11.1,-13.9 2.2,-3.7 3.3,-7.3 3.3,-10.8 0,-2 -0.6,-3.9 -1.8,-5.6 -1.2,-1.7 -2.7,-2.6 -4.7,-2.6 -4,0 -6,1.6 -6,4.8 0,3.7 1.5,5.6 4.6,5.6 0.7,0 1.3,-0.1 1.8,-0.2 0.1,0.3 0.1,0.7 0.1,1.2 0,3.8 -3.2,9 -9.6,15.8 L 157,86.9 h -14.2 l 5.7,31.3 c -3.3,3.6 -7.1,6.4 -11.3,8.5 -4.3,2 -8.6,3.1 -13,3.1 -2.3,0 -4.3,-0.7 -6.3,-2.1 -2,-1.4 -2.8,-4 -2.8,-7.7 v -1.3 c 0,-0.5 -0.1,-0.9 0,-1.4 6.3,-0.4 11.7,-2.6 16.2,-6.6 4.6,-4 6.9,-8.9 6.9,-14.6 0,-2.9 -0.8,-5.2 -2.5,-7 -1.7,-1.7 -4.8,-2.6 -9.5,-2.6 -2.8,0 -5.6,0.6 -8.2,1.9 -5.1,2.3 -9.2,6.2 -12.2,11.7 -3.7,6.8 -5.6,13.7 -5.8,20.6 -1.6,1.3 -3.6,2.6 -5.9,4 0.3,-1.1 0.4,-2.5 0.4,-4 0,-1.5 -0.1,-3.1 -0.2,-4.7 L 93.1,100.1 C 92.8,95.9 92.6,90.6 92.3,84.4 l -14.9,2 c -3.5,11.4 -7.6,21.3 -12.4,29.8 -1.3,0.7 -2.6,1.8 -3.7,3.4 -1.1,1.6 -1.7,3.8 -1.7,6.7 0,2.9 1.3,5.6 3.8,8.2 2.5,2.6 6.2,3.8 10.9,3.8 6.7,0 12,-2 15.8,-6 3.7,-2.1 7,-4.5 10,-7.2 0.5,4.1 2.1,7.2 4.7,9.3 3.3,2.6 7.7,3.9 13.3,3.9 2.6,0 5.4,-0.3 8.2,-1 9.1,-2.1 16.8,-6.4 23.2,-12.9 0.6,2.5 1.3,4.7 2,6.5 1.4,3.5 3.3,5.7 5.7,6.7 1.4,0.6 2.9,0.9 4.7,0.9 1.7,0 3.7,-0.4 5.9,-1.3 3.6,-1.4 6.8,-4 9.4,-7.7 0.4,2.6 1.4,4.7 2.9,6.1 2.1,1.9 4.6,2.8 7.6,2.8 4.8,0 8.9,-1.9 12.3,-5.8 l -1,4.4 c -5.9,1.8 -9.9,3.3 -11.8,4.7 -1.9,1.3 -3.3,2.8 -4.2,4.4 -0.9,1.6 -1.3,3.8 -1.3,6.5 0,2.7 1.2,5.1 3.5,7.2 2.4,2 5.4,3 9.1,3 3.7,0 6.9,-1 9.8,-3.1 3.9,-2.9 6.5,-7.7 7.7,-14.1 l 12.3,-58.4 h -14.5 z m -88.7,11.3 c 2.4,-4.4 4.7,-6.5 7.1,-6.5 1.7,0 2.5,1.2 2.5,3.6 0,4.5 -1.5,8.5 -4.4,11.8 -2.9,3.3 -6.4,5.1 -10.2,5.2 1,-5 2.7,-9.7 5,-14.1 z M 70.5,130 c -3.5,0 -5.2,-2.3 -5.2,-7 0.4,0.9 1.3,1.3 2.7,1.3 1.4,0 2.4,-0.5 3.2,-1.5 0.8,-1 1.2,-2.3 1.2,-3.7 0,-1.4 -0.8,-2.5 -2.3,-3.2 3.7,-7.2 6.4,-13.5 8.1,-19 0.3,4.3 0.6,8.3 0.9,11.9 l 0.6,5.7 c 0.3,2.4 0.4,4.4 0.4,6.1 0,6.3 -3.2,9.4 -9.6,9.4 z m 126.7,15.7 c -0.6,2.9 -1.5,5 -2.6,6.1 -1.1,1.1 -2.2,1.7 -3.3,1.7 -1.1,0 -2,-0.4 -2.8,-1.1 -0.8,-0.7 -1.2,-1.5 -1.2,-2.2 0,-2.5 1.2,-4.8 3.7,-6.9 1.4,-1.1 3.9,-2.3 7.5,-3.6 z M 47.7,94 c 3.3,-1.9 5.8,-4.2 7.5,-7.1 1.7,-2.9 2.5,-5.8 2.5,-8.8 0,-4.5 -1.8,-8.3 -5.4,-11.3 -3.6,-3.1 -8.9,-4.6 -15.9,-4.6 -9.4,0 -17.9,2.7 -25.4,8.1 -3.4,2.5 -6,5.3 -8,8.5 -2,3.2 -3,6.5 -3,10 0,1.7 0.2,3.1 0.7,4.3 1.4,3.3 4.7,4.9 10,4.9 0,-0.2 -0.1,-0.4 -0.2,-0.7 -0.8,-1.4 -1.2,-3.5 -1.2,-6.1 0,-5.2 1.2,-9.6 3.6,-13.3 2.4,-3.7 5.7,-6.5 9.8,-8.5 1.8,-0.9 3.8,-1.5 5.8,-2 2,-0.5 4.1,-0.7 6.3,-0.7 2.2,0 4.1,0.3 5.8,0.9 4.7,1.7 7.1,5 7.1,10 0,3.9 -1.4,7.6 -4.3,11.1 -2.9,3.5 -6.3,5.2 -10.1,5.2 H 32.7 L 37.4,71.6 22.5,73.3 8.8,136.8 h 14.5 l 8.2,-38.2 c 1.6,-0.2 3.1,-0.2 4.6,-0.2 6.3,0 9.5,4.3 9.5,12.9 0,4.6 -0.7,8.6 -2.2,11.9 -1.8,4.1 -4.5,6.2 -8,6.2 -2.1,0 -4.2,-1.2 -6.5,-3.6 -0.9,2.3 -1.3,4.2 -1.3,5.8 0,1.6 0.3,2.9 1,3.8 1.6,2.5 4.5,3.7 8.8,3.7 4.3,0 7.9,-1 10.7,-3.1 5.4,-4.1 8.8,-9.8 10.4,-17.2 0.7,-3.3 1,-6.2 1,-8.6 0,-4.1 -1,-7.6 -2.9,-10.5 -1.8,-3 -4.8,-4.9 -8.9,-5.7 z"
       id="path33" />
    <path
       style="fill:#ffffff"
       d="m 65.4,40.6 c -4,1.2 2.8,0 3.8,-2.3 0.5,-1.1 1,-1.3 1.4,-1.2 0,0.1 0,0.2 -0.1,0.3 -0.3,0 -0.6,0.2 -0.8,0.8 -0.5,1.4 -2.2,4.2 -3.3,3.8 -1.1,-0.3 -1.2,-1 -1.2,-1 0,0 -0.1,0.5 0.7,1 0.8,0.5 3.3,-0.6 3.5,-1.4 0.2,-0.8 0.3,1.2 -1.7,1.9 -1.9,0.7 -1.7,2.6 -2.5,2.8 -0.8,0.2 -2.5,2.4 -1.6,3.8 0.6,1.1 1.7,1.8 2.7,2 -0.1,0.4 0,0.6 0.5,0.6 0.1,0 0.1,0 0.2,0 -0.1,0 -0.3,-0.2 -0.3,-0.6 0.2,0 0.4,0 0.6,0 0.5,-0.2 0.1,0 -0.6,-0.2 0,-0.2 0.1,-0.5 0.3,-0.8 0.9,-2 1.7,-5 1.8,-2.9 0,1 -0.6,1.2 -1.2,2.4 -0.2,0.5 0,1 0.1,1.5 -0.2,0.2 -0.4,0.4 -0.6,0.7 0.1,0 0.1,0 0,0 -0.2,0.3 -0.4,0.5 -0.5,0.8 -1.6,0.3 -0.8,-0.3 -0.8,-0.3 0,0 -1,0.7 0.2,0.7 0.1,0 0.2,0 0.3,0 -0.2,0.6 -0.3,1.2 -0.1,1.7 0.8,2.1 2.2,1.3 2.2,1.3 0,0 -2.1,0.4 -2.2,-1.9 0,-0.4 0.1,-0.8 0.3,-1.1 0.6,-0.1 1.2,-0.4 1.4,-0.9 0.7,-0.2 1.5,-0.2 1.8,-0.3 -0.6,0.3 -2.3,1.2 -2,1.8 0.1,0.2 0.1,0.5 0.2,0.8 -0.9,-0.2 -0.7,-0.1 0,0.1 0,0.1 0.1,0.3 0.1,0.4 0,0.9 1.4,2 2.5,2.1 0,0 0.1,-0.1 0.1,-0.1 -0.5,-0.2 -1.6,-0.7 -2,-1.4 0.3,0.1 0.6,0.2 1.1,0.1 1.7,-0.2 -0.4,0.2 -1.2,-0.6 0,-0.1 0,-0.2 0.1,-0.3 1.2,0.3 2.7,0.6 3.6,0.6 1.1,-1 2.2,-2.1 3.3,-3 1.1,0.6 2.4,0.9 3.8,0.8 1.5,-0.2 3.5,1.4 3.5,1.4 0,0.1 0.3,0.7 0.5,0.9 -1,5.4 -3.7,10.5 -3.9,16.1 -0.3,0.7 -1.7,7.1 -2.1,9.5 -0.4,1.2 -1.1,4.4 -0.4,5.7 -0.3,1 0.3,2 1.2,2.6 0.2,0.2 1.5,0.6 1.9,0.7 4.7,0.6 15.3,0.9 15.7,0.9 0.1,0 0.3,0 0.3,0 0.1,0 13.4,-0.4 14.8,-0.5 1.7,-0.1 3.5,0.2 5.2,0.4 l 0.2,0.1 c 0.3,0.2 3.8,1.3 5.5,1.5 0.7,0 1.4,0 2.1,0 0.7,-0.1 1.4,-0.1 2.2,-0.3 1.1,-0.4 1.7,-1.2 2.1,-2.1 0.1,-0.3 0.1,-0.7 0.2,-1 0,0 2.1,-0.5 2.1,-1.5 1.6,0.5 3.1,1.2 4.6,1.9 3.2,3.1 8.4,5.3 14.5,5.7 10.2,0.7 18.9,-4.1 19.3,-10.6 0.1,-1.1 -0.1,-2.2 -0.5,-3.2 0.3,-1.8 0.6,-3.8 1.4,-5.5 4.6,-5.8 7.9,-26.6 8.1,-26.6 -0.2,0.4 0.6,1.7 0.9,2 0.1,1.1 6.6,8.1 8.2,8.9 2.1,1.9 4,4 6.1,5.9 0.8,1 1.7,1.9 2.7,2.7 0.5,0.4 1,1.1 1.4,1.6 0.6,0.6 1.1,1.1 1.6,1.7 0.7,0.9 1.8,2.2 1.3,3.4 -0.1,0.4 -0.4,0.7 -0.6,1 -0.5,0.7 -0.8,1.5 -1,2.3 -0.2,0.7 -0.5,1.4 -0.4,2.2 0,0.7 0.4,1.5 0.8,2.1 0.6,0.8 1.5,1.4 2.3,2.1 0.8,0.6 1.6,1.3 2.3,2.1 1.4,1.5 2.6,3.2 3.5,5.1 0.2,0.3 0.3,0.7 0.5,0.9 0.2,0.3 0.6,0.4 0.9,0.4 0,0 0.1,0 0.1,-0.1 0,0 0,-0.1 0,-0.1 -0.5,-1.4 -1.2,-2.7 -1.9,-4 -0.4,-0.9 -0.9,-1.8 -1,-2.8 -0.1,-0.7 -0.2,-1.9 0.5,-2.3 0.3,-0.2 0.7,-0.1 1,0 3.7,1.1 6.7,3.6 10.2,5.3 0.7,0.4 1.6,0.3 2.3,0.1 2.3,-0.5 10.3,-4 9.8,-5.5 -0.3,-0.9 -6.7,-1.5 -9.5,-3 -3.2,-1.8 -8.4,-9.3 -11.2,-12.2 -4.5,-5.7 -8.3,-11.9 -11.4,-18.4 -3.3,-6.6 -15.8,-21.7 -16.7,-22.1 -0.1,-0.1 -1.2,-1 -1.3,-1.1 h 0.3 c 0.6,-0.1 14,-3.8 20.4,-4.7 1.2,-0.4 3,0 3.5,0.7 0.2,0.3 0.6,0.6 0.9,0.8 0.3,0.3 0.7,0.6 1.1,0.9 0.8,0.6 1.6,1.1 2.5,1.5 0.8,0.4 1.8,0.6 2.7,0.6 0.5,0 0.9,-0.1 1.3,-0.2 0.2,-0.1 0.4,-0.1 0.6,-0.3 0.2,-0.1 3.8,-1.7 4.3,-1.8 1,-0.3 7.8,-0.6 8,-0.6 0.4,0 0.9,-0.9 0.8,-1 -0.1,-0.2 -0.3,-0.2 -0.5,-0.2 -0.2,0 -5.9,0 -6.8,-0.2 -1,-0.2 -1.9,-0.3 -2.9,-0.4 -0.5,-0.1 -1.1,-0.4 -0.9,-1 0.2,-0.5 0.8,-0.9 1.2,-1.3 2.4,-2 8,-6.1 8.1,-6.4 0.4,-0.9 0.8,-1.9 0.8,-2.9 -0.4,-3.6 -0.1,-7.3 -1.1,-10.9 -1,-0.6 -4.8,7.3 -4.9,7.7 -1.1,0.5 -2.3,1 -3.6,1 -6.7,0.3 -12.4,3.6 -18.9,4.9 -9.1,3 -19.1,2.7 -28.6,3.9 -4.5,0.9 -9.1,1.3 -13.6,2.3 -3.6,0.7 -8.7,1 -10.9,3.9 -0.3,0.1 -2.6,5.9 -2.7,8.6 v 0.2 c -0.1,2.6 -1.9,35.1 1.6,36 -0.2,0 -6.5,-1.4 -8.5,-1.2 C 132.2,67 129.5,66 129.5,65.9 129,65 128,64.5 127.1,64 c -1.1,-1.5 -5.7,-4.4 -6.6,-4.7 -1.1,-2.4 -1.7,-5.2 -3.7,-7.2 -0.2,-0.4 -0.5,-0.7 -0.9,-1 l 0.2,-0.1 -0.5,-0.6 -0.4,0.3 c -1.1,-0.7 -2.4,-1 -3.7,-1.1 -0.1,-0.4 -9.3,-0.4 -12,-2.1 -0.3,-0.4 -0.5,-0.8 -0.8,-1.1 0.8,-0.1 1.6,-0.3 2.1,-0.9 0,0 0.1,-0.1 0.1,-0.1 l 0.1,-0.6 c 0,0.1 0,0.3 0,0.3 0.1,-0.2 0.6,-3.8 0.6,-3.8 0.1,-0.1 0.1,-0.1 0.2,-0.2 0.3,-0.1 0.4,-0.2 0.4,-0.4 0,-0.3 -0.2,-0.8 -0.2,-1.2 l 0.1,-0.4 c 0,0 0.1,0 0.1,0 0.4,-0.1 0.7,-0.3 1.1,-0.4 0.6,-0.2 1.2,-0.5 1,-1.1 -0.3,-0.6 -1,-1 -1.4,-1.5 0,0 -0.1,-0.1 -0.1,-0.1 0,0 -0.1,0 -0.1,0 v -0.1 c -0.5,-0.7 -1,-1.4 -1.2,-2.1 -0.1,-0.4 0.3,-0.3 0.7,-0.3 0.2,0 0.4,-0.1 0.5,-0.3 0,0 0,-0.1 -0.1,-0.1 -0.4,0 -0.8,0 -0.9,-0.3 -0.1,-0.3 0,-0.5 0.2,-0.7 0,0 -0.1,-0.2 -0.1,-0.3 0.1,0.1 0.1,0.1 0.2,0.2 0.4,-0.4 0.9,-0.7 0.8,-1.3 0,-0.2 -0.1,-0.4 -0.1,-0.5 -0.1,0 -0.2,0.1 -0.2,0.1 -0.1,0 -0.1,0 -0.2,0.1 0.1,-0.1 0.2,-0.2 0.3,-0.2 0,0 -0.3,-1 -0.5,-1.7 0.5,-0.7 0.7,-1.6 0.3,-2.5 -0.9,-2 -2.5,-2.9 -2.8,-4.1 -0.3,-1.1 -7.1,-4.5 -11.1,-3.9 -4,0.6 -7.1,-0.7 -8.8,0.1 -1.7,0.8 -2.4,2.7 -4.7,3.2 -1.9,0.3 -2.9,1.6 -2.4,1.3 1.2,-0.9 2.7,-0.8 3.2,-0.9 0,0 0,0 0.1,0 -0.2,0 -1.9,0.1 -3.7,1.3 -2.1,1.4 -2.2,2.4 -1.8,3.9 0.4,1.4 -1,2.7 -1.9,2.1 -0.9,-0.6 -0.3,-1.4 -0.3,-1.4 0,0 -0.9,1 0,1.5 0.9,0.5 3.3,-0.6 2.7,-2.1 -0.6,-1.5 1.7,2.4 -2.3,3.2 -4.1,0.8 -2.6,4.8 -2.5,5.2 0.1,0.3 -1,-3.9 2,-4.6 1.3,-0.3 2.2,-0.9 2.9,-1.6 -0.1,0.1 -0.1,0.3 -0.1,0.4 -0.3,1.6 -4.1,1.6 -4.4,4.1 -0.3,2.5 0.8,4.6 -1,5.5 -0.8,0.4 -1.1,0.4 -1.2,0.2 0,0.3 0.2,0.5 1.1,0.1 1.7,-0.7 1.6,-1.6 1.5,-1.9 -0.1,-0.3 0.8,1.7 -2.2,2.6 -2.9,0.9 2.4,0.1 2.8,-2.1 0.5,-2.6 1.9,1.3 -2.1,2.5 z m 91.5,-7 c 0,-0.6 6.7,-1.2 9.1,-2.2 l 0.3,-0.1 c 0.4,0.3 -0.8,1.9 -1.1,2.4 -1.9,3.5 -4.5,6.6 -6.3,10.1 -2.2,-2.9 -2.3,-6.8 -2,-10.2 z m -69.2,48 c 0.3,-2.2 1.7,-4 2.2,-6.1 l 0.1,0.2 c 0.9,-2.3 1.9,-4.5 3.1,-6.6 1.5,0.5 2.8,1.6 4,2.6 1.4,1.5 13.6,8 14.1,8.2 0.9,0.1 1.5,1.1 0.2,1.2 -3.5,2.1 -18.3,1.9 -18.7,1.8 -1.7,-0.4 -3.5,-0.5 -5,-1.3 z M 66.8,49.4 c -0.1,0.6 -0.2,1.1 -0.3,1.5 -0.5,-0.2 -1,-0.6 -1.4,-1.4 -1,-2.2 0.7,-3.1 0.7,-3.1 0,0 1.2,1.5 1,3 z m 9.3,-26.2 c -0.7,0.2 -1.7,0.6 -2,1.6 -0.4,1.1 -1.6,2.1 -2.4,3.1 0.3,-0.7 0.4,-1.4 0.2,-2.1 -0.3,-1.7 3.2,-2.6 4.4,-2.7 -0.1,0 -0.1,0.1 -0.2,0.1 z m -3.9,29.5 c -0.3,0.4 -0.7,0.8 -1.2,1 0.5,0.1 0.9,0.1 1.8,-1.2 0.2,-0.3 0,0.6 -0.2,1.3 -0.3,0.8 -0.7,1.5 -3.4,0.9 -0.1,0 -0.2,0 -0.3,-0.1 0.1,-0.1 0.1,-0.2 0.2,-0.3 0.1,-0.1 0.2,-0.2 0.3,-0.3 -0.4,0.1 -0.7,0.2 -0.9,0.3 0,0 0,-0.1 0,-0.1 0.1,-1.4 2.6,-0.7 3.7,-1.5 z m -4.3,-0.5 c -0.1,0.2 -0.4,0.4 -0.9,0.5 0.2,-0.3 0.5,-0.4 0.9,-0.5 z m 3.4,-4.5 c 0.2,-0.5 0.4,1.7 -0.8,1.9 -0.8,0.2 -1.7,0.6 -2.5,1.3 -0.3,-1.1 0.3,-1.6 1.5,-1.8 1.2,-0.1 1.4,-0.4 1.8,-1.4 z"
       id="path35" />
    <path
       style="fill:#4d4d4d"
       clip-path="url(#SVGID_5_)"
       d="m 209.6,86.8 -6.8,32.4 c -1.8,5.9 -4.5,9 -8,9 -2,0 -3,-1.4 -3,-4.4 0,-0.8 0.1,-1.9 0.3,-2.7 l 7.2,-34.3 h -14.5 l -6.6,32.6 v 0 c -1,2.5 -2,4.6 -3.7,6.3 -1.7,1.7 -3.6,2.5 -5.5,2.5 -2.7,0 -4.5,-2 -5.3,-5.9 -0.2,-1 -0.4,-2 -0.7,-3 l -0.9,-4.9 c 5.2,-5.6 8.9,-10.3 11.1,-13.9 2.2,-3.7 3.3,-7.3 3.3,-10.8 0,-2 -0.6,-3.9 -1.8,-5.6 -1.2,-1.7 -2.7,-2.6 -4.7,-2.6 -4,0 -6,1.6 -6,4.8 0,3.7 1.5,5.6 4.6,5.6 0.7,0 1.3,-0.1 1.8,-0.2 0.1,0.3 0.1,0.7 0.1,1.2 0,3.8 -3.2,9 -9.6,15.8 L 157,86.9 h -14.2 l 5.7,31.3 c -3.3,3.6 -7.1,6.4 -11.3,8.5 -4.3,2 -8.6,3.1 -13,3.1 -2.3,0 -4.3,-0.7 -6.3,-2.1 -2,-1.4 -2.8,-4 -2.8,-7.7 v -1.3 c 0,-0.5 -0.1,-0.9 0,-1.4 6.3,-0.4 11.7,-2.6 16.2,-6.6 4.6,-4 6.9,-8.9 6.9,-14.6 0,-2.9 -0.8,-5.2 -2.5,-7 -1.7,-1.7 -4.8,-2.6 -9.5,-2.6 -2.8,0 -5.6,0.6 -8.2,1.9 -5.1,2.3 -9.2,6.2 -12.2,11.7 -3.7,6.8 -5.6,13.7 -5.8,20.6 -1.6,1.3 -3.6,2.6 -5.9,4 0.3,-1.1 0.4,-2.5 0.4,-4 0,-1.5 -0.1,-3.1 -0.2,-4.7 L 93.1,100.1 C 92.8,95.9 92.6,90.6 92.3,84.4 l -14.9,2 c -3.5,11.4 -7.6,21.3 -12.4,29.8 -1.3,0.7 -2.6,1.8 -3.7,3.4 -1.1,1.6 -1.7,3.8 -1.7,6.7 0,2.9 1.3,5.6 3.8,8.2 2.5,2.6 6.2,3.8 10.9,3.8 6.7,0 12,-2 15.8,-6 3.7,-2.1 7,-4.5 10,-7.2 0.5,4.1 2.1,7.2 4.7,9.3 3.3,2.6 7.7,3.9 13.3,3.9 2.6,0 5.4,-0.3 8.2,-1 9.1,-2.1 16.8,-6.4 23.2,-12.9 0.6,2.5 1.3,4.7 2,6.5 1.4,3.5 3.3,5.7 5.7,6.7 1.4,0.6 2.9,0.9 4.7,0.9 1.7,0 3.7,-0.4 5.9,-1.3 3.6,-1.4 6.8,-4 9.4,-7.7 0.4,2.6 1.4,4.7 2.9,6.1 2.1,1.9 4.6,2.8 7.6,2.8 4.8,0 8.9,-1.9 12.3,-5.8 l -1,4.4 c -5.9,1.8 -9.9,3.3 -11.8,4.7 -1.9,1.3 -3.3,2.8 -4.2,4.4 -0.9,1.6 -1.3,3.8 -1.3,6.5 0,2.7 1.2,5.1 3.5,7.2 2.4,2 5.4,3 9.1,3 3.7,0 6.9,-1 9.8,-3.1 3.9,-2.9 6.5,-7.7 7.7,-14.1 l 12.3,-58.4 h -14.5 z m -88.7,11.3 c 2.4,-4.4 4.7,-6.5 7.1,-6.5 1.7,0 2.5,1.2 2.5,3.6 0,4.5 -1.5,8.5 -4.4,11.8 -2.9,3.3 -6.4,5.1 -10.2,5.2 1,-5 2.7,-9.7 5,-14.1 z M 70.5,130 c -3.5,0 -5.2,-2.3 -5.2,-7 0.4,0.9 1.3,1.3 2.7,1.3 1.4,0 2.4,-0.5 3.2,-1.5 0.8,-1 1.2,-2.3 1.2,-3.7 0,-1.4 -0.8,-2.5 -2.3,-3.2 3.7,-7.2 6.4,-13.5 8.1,-19 0.3,4.3 0.6,8.3 0.9,11.9 l 0.6,5.7 c 0.3,2.4 0.4,4.4 0.4,6.1 0,6.3 -3.2,9.4 -9.6,9.4 z m 126.7,15.7 c -0.6,2.9 -1.5,5 -2.6,6.1 -1.1,1.1 -2.2,1.7 -3.3,1.7 -1.1,0 -2,-0.4 -2.8,-1.1 -0.8,-0.7 -1.2,-1.5 -1.2,-2.2 0,-2.5 1.2,-4.8 3.7,-6.9 1.4,-1.1 3.9,-2.3 7.5,-3.6 z M 47.7,94 c 3.3,-1.9 5.8,-4.2 7.5,-7.1 1.7,-2.9 2.5,-5.8 2.5,-8.8 0,-4.5 -1.8,-8.3 -5.4,-11.3 -3.6,-3.1 -8.9,-4.6 -15.9,-4.6 -9.4,0 -17.9,2.7 -25.4,8.1 -3.4,2.5 -6,5.3 -8,8.5 -2,3.2 -3,6.5 -3,10 0,1.7 0.2,3.1 0.7,4.3 1.4,3.3 4.7,4.9 10,4.9 0,-0.2 -0.1,-0.4 -0.2,-0.7 -0.8,-1.4 -1.2,-3.5 -1.2,-6.1 0,-5.2 1.2,-9.6 3.6,-13.3 2.4,-3.7 5.7,-6.5 9.8,-8.5 1.8,-0.9 3.8,-1.5 5.8,-2 2,-0.5 4.1,-0.7 6.3,-0.7 2.2,0 4.1,0.3 5.8,0.9 4.7,1.7 7.1,5 7.1,10 0,3.9 -1.4,7.6 -4.3,11.1 -2.9,3.5 -6.3,5.2 -10.1,5.2 H 32.7 L 37.4,71.6 22.5,73.3 8.8,136.8 h 14.5 l 8.2,-38.2 c 1.6,-0.2 3.1,-0.2 4.6,-0.2 6.3,0 9.5,4.3 9.5,12.9 0,4.6 -0.7,8.6 -2.2,11.9 -1.8,4.1 -4.5,6.2 -8,6.2 -2.1,0 -4.2,-1.2 -6.5,-3.6 -0.9,2.3 -1.3,4.2 -1.3,5.8 0,1.6 0.3,2.9 1,3.8 1.6,2.5 4.5,3.7 8.8,3.7 4.3,0 7.9,-1 10.7,-3.1 5.4,-4.1 8.8,-9.8 10.4,-17.2 0.7,-3.3 1,-6.2 1,-8.6 0,-4.1 -1,-7.6 -2.9,-10.5 -1.8,-3 -4.8,-4.9 -8.9,-5.7 z"
       id="path37" />
  </g>
  <g
     id="g4550"
     transform="matrix(0.09726801,0,0,0.09726801,24,4.0839649)">
    <path
       id="path4534"
       d="m 219.3,41.8 c -0.4,0.7 -1.1,1.2 -1.9,1.6 -0.9,0.4 -1.6,0.6 -2.3,0.7 l -0.5,2.1 c 1.3,-0.1 2.4,-0.5 3.5,-1 l -2.1,8.8 2.3,0.6 3,-12.3 z"
       style="fill:#ffffff" />
    <path
       id="path4536"
       d="m 228.9,56.2 c 0.9,-0.5 1.5,-1.4 1.7,-2.5 0.2,-0.7 0.1,-1.3 -0.1,-1.9 -0.2,-0.6 -0.6,-1.1 -1.3,-1.6 0.6,-0.1 1.1,-0.3 1.5,-0.7 0.4,-0.4 0.7,-0.8 0.8,-1.4 0.2,-0.9 0.1,-1.7 -0.4,-2.5 -0.5,-0.7 -1.3,-1.3 -2.5,-1.5 -1.2,-0.3 -2.1,-0.2 -2.9,0.2 -0.8,0.4 -1.3,1.1 -1.5,2 -0.1,0.5 -0.1,1.1 0.1,1.6 0.2,0.5 0.5,1 1.1,1.4 -0.8,0.1 -1.4,0.4 -1.9,0.9 -0.5,0.5 -0.8,1 -0.9,1.7 -0.3,1.2 -0.1,2.3 0.6,3.1 0.6,0.8 1.5,1.3 2.6,1.5 1.2,0.3 2.2,0.2 3.1,-0.3 z M 227.1,46 c 0.3,-0.2 0.7,-0.2 1.2,-0.1 0.4,0.1 0.8,0.3 1,0.6 0.2,0.3 0.2,0.7 0.1,1.2 -0.1,0.5 -0.3,0.8 -0.7,1 -0.3,0.2 -0.7,0.2 -1.2,0.1 -0.4,-0.1 -0.8,-0.3 -1,-0.6 -0.2,-0.3 -0.2,-0.7 -0.1,-1.2 0.1,-0.5 0.3,-0.8 0.7,-1 z m -2,7.8 c -0.2,-0.4 -0.3,-1 -0.1,-1.6 0.1,-0.5 0.4,-0.9 0.7,-1.2 0.4,-0.3 0.8,-0.4 1.4,-0.3 0.5,0.1 0.9,0.4 1.1,0.8 0.2,0.4 0.3,0.9 0.2,1.5 -0.2,0.7 -0.4,1.1 -0.8,1.4 -0.4,0.3 -0.8,0.3 -1.3,0.2 -0.6,-0.1 -1,-0.4 -1.2,-0.8 z"
       style="fill:#ffffff" />
    <path
       id="path4538"
       d="m 232.4,52.7 3.2,0.8 -0.7,3.1 2.1,0.5 0.8,-3.1 3.2,0.7 0.5,-2.1 -3.2,-0.8 0.8,-3.2 -2.2,-0.5 -0.7,3.2 -3.2,-0.8 z"
       style="fill:#ffffff" />
    <path
       id="path4540"
       d="m 245.4,58.1 c 3.9,-9.9 -1,-21.1 -10.9,-25 -9.9,-3.9 -21.1,1 -25,10.9 -3.9,9.9 1,21.1 10.9,25 9.8,3.9 21.1,-1 25,-10.9 z M 210.3,44.4 C 214,35 224.6,30.3 234,34 c 9.4,3.7 14.1,14.3 10.4,23.7 -3.7,9.4 -14.3,14.1 -23.7,10.4 -9.4,-3.7 -14.1,-14.3 -10.4,-23.7 z"
       style="fill:#ffffff" />
    <path
       id="path4542"
       stroke-miterlimit="10"
       d="m 221.2,23.8 c 0,0 3.5,2.3 3.8,8.4"
       style="fill:none;stroke:#ffffff;stroke-miterlimit:10" />
    <path
       id="path4544"
       d="m 209.6,86.8 -6.8,32.4 c -1.8,5.9 -4.5,9 -8,9 -2,0 -3,-1.4 -3,-4.4 0,-0.8 0.1,-1.9 0.3,-2.7 l 7.2,-34.3 h -14.5 l -6.6,32.6 v 0 c -1,2.5 -2,4.6 -3.7,6.3 -1.7,1.7 -3.6,2.5 -5.5,2.5 -2.7,0 -4.5,-2 -5.3,-5.9 -0.2,-1 -0.4,-2 -0.7,-3 l -0.9,-4.9 c 5.2,-5.6 8.9,-10.3 11.1,-13.9 2.2,-3.7 3.3,-7.3 3.3,-10.8 0,-2 -0.6,-3.9 -1.8,-5.6 -1.2,-1.7 -2.7,-2.6 -4.7,-2.6 -4,0 -6,1.6 -6,4.8 0,3.7 1.5,5.6 4.6,5.6 0.7,0 1.3,-0.1 1.8,-0.2 0.1,0.3 0.1,0.7 0.1,1.2 0,3.8 -3.2,9 -9.6,15.8 L 157,86.9 h -14.2 l 5.7,31.3 c -3.3,3.6 -7.1,6.4 -11.3,8.5 -4.3,2 -8.6,3.1 -13,3.1 -2.3,0 -4.3,-0.7 -6.3,-2.1 -2,-1.4 -2.8,-4 -2.8,-7.7 v -1.3 c 0,-0.5 -0.1,-0.9 0,-1.4 6.3,-0.4 11.7,-2.6 16.2,-6.6 4.6,-4 6.9,-8.9 6.9,-14.6 0,-2.9 -0.8,-5.2 -2.5,-7 -1.7,-1.7 -4.8,-2.6 -9.5,-2.6 -2.8,0 -5.6,0.6 -8.2,1.9 -5.1,2.3 -9.2,6.2 -12.2,11.7 -3.7,6.8 -5.6,13.7 -5.8,20.6 -1.6,1.3 -3.6,2.6 -5.9,4 0.3,-1.1 0.4,-2.5 0.4,-4 0,-1.5 -0.1,-3.1 -0.2,-4.7 L 93.1,100.1 C 92.8,95.9 92.6,90.6 92.3,84.4 l -14.9,2 c -3.5,11.4 -7.6,21.3 -12.4,29.8 -1.3,0.7 -2.6,1.8 -3.7,3.4 -1.1,1.6 -1.7,3.8 -1.7,6.7 0,2.9 1.3,5.6 3.8,8.2 2.5,2.6 6.2,3.8 10.9,3.8 6.7,0 12,-2 15.8,-6 3.7,-2.1 7,-4.5 10,-7.2 0.5,4.1 2.1,7.2 4.7,9.3 3.3,2.6 7.7,3.9 13.3,3.9 2.6,0 5.4,-0.3 8.2,-1 9.1,-2.1 16.8,-6.4 23.2,-12.9 0.6,2.5 1.3,4.7 2,6.5 1.4,3.5 3.3,5.7 5.7,6.7 1.4,0.6 2.9,0.9 4.7,0.9 1.7,0 3.7,-0.4 5.9,-1.3 3.6,-1.4 6.8,-4 9.4,-7.7 0.4,2.6 1.4,4.7 2.9,6.1 2.1,1.9 4.6,2.8 7.6,2.8 4.8,0 8.9,-1.9 12.3,-5.8 l -1,4.4 c -5.9,1.8 -9.9,3.3 -11.8,4.7 -1.9,1.3 -3.3,2.8 -4.2,4.4 -0.9,1.6 -1.3,3.8 -1.3,6.5 0,2.7 1.2,5.1 3.5,7.2 2.4,2 5.4,3 9.1,3 3.7,0 6.9,-1 9.8,-3.1 3.9,-2.9 6.5,-7.7 7.7,-14.1 l 12.3,-58.4 h -14.5 z m -88.7,11.3 c 2.4,-4.4 4.7,-6.5 7.1,-6.5 1.7,0 2.5,1.2 2.5,3.6 0,4.5 -1.5,8.5 -4.4,11.8 -2.9,3.3 -6.4,5.1 -10.2,5.2 1,-5 2.7,-9.7 5,-14.1 z M 70.5,130 c -3.5,0 -5.2,-2.3 -5.2,-7 0.4,0.9 1.3,1.3 2.7,1.3 1.4,0 2.4,-0.5 3.2,-1.5 0.8,-1 1.2,-2.3 1.2,-3.7 0,-1.4 -0.8,-2.5 -2.3,-3.2 3.7,-7.2 6.4,-13.5 8.1,-19 0.3,4.3 0.6,8.3 0.9,11.9 l 0.6,5.7 c 0.3,2.4 0.4,4.4 0.4,6.1 0,6.3 -3.2,9.4 -9.6,9.4 z m 126.7,15.7 c -0.6,2.9 -1.5,5 -2.6,6.1 -1.1,1.1 -2.2,1.7 -3.3,1.7 -1.1,0 -2,-0.4 -2.8,-1.1 -0.8,-0.7 -1.2,-1.5 -1.2,-2.2 0,-2.5 1.2,-4.8 3.7,-6.9 1.4,-1.1 3.9,-2.3 7.5,-3.6 z M 47.7,94 c 3.3,-1.9 5.8,-4.2 7.5,-7.1 1.7,-2.9 2.5,-5.8 2.5,-8.8 0,-4.5 -1.8,-8.3 -5.4,-11.3 -3.6,-3.1 -8.9,-4.6 -15.9,-4.6 -9.4,0 -17.9,2.7 -25.4,8.1 -3.4,2.5 -6,5.3 -8,8.5 -2,3.2 -3,6.5 -3,10 0,1.7 0.2,3.1 0.7,4.3 1.4,3.3 4.7,4.9 10,4.9 0,-0.2 -0.1,-0.4 -0.2,-0.7 -0.8,-1.4 -1.2,-3.5 -1.2,-6.1 0,-5.2 1.2,-9.6 3.6,-13.3 2.4,-3.7 5.7,-6.5 9.8,-8.5 1.8,-0.9 3.8,-1.5 5.8,-2 2,-0.5 4.1,-0.7 6.3,-0.7 2.2,0 4.1,0.3 5.8,0.9 4.7,1.7 7.1,5 7.1,10 0,3.9 -1.4,7.6 -4.3,11.1 -2.9,3.5 -6.3,5.2 -10.1,5.2 H 32.7 L 37.4,71.6 22.5,73.3 8.8,136.8 h 14.5 l 8.2,-38.2 c 1.6,-0.2 3.1,-0.2 4.6,-0.2 6.3,0 9.5,4.3 9.5,12.9 0,4.6 -0.7,8.6 -2.2,11.9 -1.8,4.1 -4.5,6.2 -8,6.2 -2.1,0 -4.2,-1.2 -6.5,-3.6 -0.9,2.3 -1.3,4.2 -1.3,5.8 0,1.6 0.3,2.9 1,3.8 1.6,2.5 4.5,3.7 8.8,3.7 4.3,0 7.9,-1 10.7,-3.1 5.4,-4.1 8.8,-9.8 10.4,-17.2 0.7,-3.3 1,-6.2 1,-8.6 0,-4.1 -1,-7.6 -2.9,-10.5 -1.8,-3 -4.8,-4.9 -8.9,-5.7 z"
       style="fill:url(#linearGradient4552)" />
    <path
       id="path4546"
       d="m 65.4,40.6 c -4,1.2 2.8,0 3.8,-2.3 0.5,-1.1 1,-1.3 1.4,-1.2 0,0.1 0,0.2 -0.1,0.3 -0.3,0 -0.6,0.2 -0.8,0.8 -0.5,1.4 -2.2,4.2 -3.3,3.8 -1.1,-0.3 -1.2,-1 -1.2,-1 0,0 -0.1,0.5 0.7,1 0.8,0.5 3.3,-0.6 3.5,-1.4 0.2,-0.8 0.3,1.2 -1.7,1.9 -1.9,0.7 -1.7,2.6 -2.5,2.8 -0.8,0.2 -2.5,2.4 -1.6,3.8 0.6,1.1 1.7,1.8 2.7,2 -0.1,0.4 0,0.6 0.5,0.6 0.1,0 0.1,0 0.2,0 -0.1,0 -0.3,-0.2 -0.3,-0.6 0.2,0 0.4,0 0.6,0 0.5,-0.2 0.1,0 -0.6,-0.2 0,-0.2 0.1,-0.5 0.3,-0.8 0.9,-2 1.7,-5 1.8,-2.9 0,1 -0.6,1.2 -1.2,2.4 -0.2,0.5 0,1 0.1,1.5 -0.2,0.2 -0.4,0.4 -0.6,0.7 0.1,0 0.1,0 0,0 -0.2,0.3 -0.4,0.5 -0.5,0.8 -1.6,0.3 -0.8,-0.3 -0.8,-0.3 0,0 -1,0.7 0.2,0.7 0.1,0 0.2,0 0.3,0 -0.2,0.6 -0.3,1.2 -0.1,1.7 0.8,2.1 2.2,1.3 2.2,1.3 0,0 -2.1,0.4 -2.2,-1.9 0,-0.4 0.1,-0.8 0.3,-1.1 0.6,-0.1 1.2,-0.4 1.4,-0.9 0.7,-0.2 1.5,-0.2 1.8,-0.3 -0.6,0.3 -2.3,1.2 -2,1.8 0.1,0.2 0.1,0.5 0.2,0.8 -0.9,-0.2 -0.7,-0.1 0,0.1 0,0.1 0.1,0.3 0.1,0.4 0,0.9 1.4,2 2.5,2.1 0,0 0.1,-0.1 0.1,-0.1 -0.5,-0.2 -1.6,-0.7 -2,-1.4 0.3,0.1 0.6,0.2 1.1,0.1 1.7,-0.2 -0.4,0.2 -1.2,-0.6 0,-0.1 0,-0.2 0.1,-0.3 1.2,0.3 2.7,0.6 3.6,0.6 1.1,-1 2.2,-2.1 3.3,-3 1.1,0.6 2.4,0.9 3.8,0.8 1.5,-0.2 3.5,1.4 3.5,1.4 0,0.1 0.3,0.7 0.5,0.9 -1,5.4 -3.7,10.5 -3.9,16.1 -0.3,0.7 -1.7,7.1 -2.1,9.5 -0.4,1.2 -1.1,4.4 -0.4,5.7 -0.3,1 0.3,2 1.2,2.6 0.2,0.2 1.5,0.6 1.9,0.7 4.7,0.6 15.3,0.9 15.7,0.9 0.1,0 0.3,0 0.3,0 0.1,0 13.4,-0.4 14.8,-0.5 1.7,-0.1 3.5,0.2 5.2,0.4 l 0.2,0.1 c 0.3,0.2 3.8,1.3 5.5,1.5 0.7,0 1.4,0 2.1,0 0.7,-0.1 1.4,-0.1 2.2,-0.3 1.1,-0.4 1.7,-1.2 2.1,-2.1 0.1,-0.3 0.1,-0.7 0.2,-1 0,0 2.1,-0.5 2.1,-1.5 1.6,0.5 3.1,1.2 4.6,1.9 3.2,3.1 8.4,5.3 14.5,5.7 10.2,0.7 18.9,-4.1 19.3,-10.6 0.1,-1.1 -0.1,-2.2 -0.5,-3.2 0.3,-1.8 0.6,-3.8 1.4,-5.5 4.6,-5.8 7.9,-26.6 8.1,-26.6 -0.2,0.4 0.6,1.7 0.9,2 0.1,1.1 6.6,8.1 8.2,8.9 2.1,1.9 4,4 6.1,5.9 0.8,1 1.7,1.9 2.7,2.7 0.5,0.4 1,1.1 1.4,1.6 0.6,0.6 1.1,1.1 1.6,1.7 0.7,0.9 1.8,2.2 1.3,3.4 -0.1,0.4 -0.4,0.7 -0.6,1 -0.5,0.7 -0.8,1.5 -1,2.3 -0.2,0.7 -0.5,1.4 -0.4,2.2 0,0.7 0.4,1.5 0.8,2.1 0.6,0.8 1.5,1.4 2.3,2.1 0.8,0.6 1.6,1.3 2.3,2.1 1.4,1.5 2.6,3.2 3.5,5.1 0.2,0.3 0.3,0.7 0.5,0.9 0.2,0.3 0.6,0.4 0.9,0.4 0,0 0.1,0 0.1,-0.1 0,0 0,-0.1 0,-0.1 -0.5,-1.4 -1.2,-2.7 -1.9,-4 -0.4,-0.9 -0.9,-1.8 -1,-2.8 -0.1,-0.7 -0.2,-1.9 0.5,-2.3 0.3,-0.2 0.7,-0.1 1,0 3.7,1.1 6.7,3.6 10.2,5.3 0.7,0.4 1.6,0.3 2.3,0.1 2.3,-0.5 10.3,-4 9.8,-5.5 -0.3,-0.9 -6.7,-1.5 -9.5,-3 -3.2,-1.8 -8.4,-9.3 -11.2,-12.2 -4.5,-5.7 -8.3,-11.9 -11.4,-18.4 -3.3,-6.6 -15.8,-21.7 -16.7,-22.1 -0.1,-0.1 -1.2,-1 -1.3,-1.1 h 0.3 c 0.6,-0.1 14,-3.8 20.4,-4.7 1.2,-0.4 3,0 3.5,0.7 0.2,0.3 0.6,0.6 0.9,0.8 0.3,0.3 0.7,0.6 1.1,0.9 0.8,0.6 1.6,1.1 2.5,1.5 0.8,0.4 1.8,0.6 2.7,0.6 0.5,0 0.9,-0.1 1.3,-0.2 0.2,-0.1 0.4,-0.1 0.6,-0.3 0.2,-0.1 3.8,-1.7 4.3,-1.8 1,-0.3 7.8,-0.6 8,-0.6 0.4,0 0.9,-0.9 0.8,-1 -0.1,-0.2 -0.3,-0.2 -0.5,-0.2 -0.2,0 -5.9,0 -6.8,-0.2 -1,-0.2 -1.9,-0.3 -2.9,-0.4 -0.5,-0.1 -1.1,-0.4 -0.9,-1 0.2,-0.5 0.8,-0.9 1.2,-1.3 2.4,-2 8,-6.1 8.1,-6.4 0.4,-0.9 0.8,-1.9 0.8,-2.9 -0.4,-3.6 -0.1,-7.3 -1.1,-10.9 -1,-0.6 -4.8,7.3 -4.9,7.7 -1.1,0.5 -2.3,1 -3.6,1 -6.7,0.3 -12.4,3.6 -18.9,4.9 -9.1,3 -19.1,2.7 -28.6,3.9 -4.5,0.9 -9.1,1.3 -13.6,2.3 -3.6,0.7 -8.7,1 -10.9,3.9 -0.3,0.1 -2.6,5.9 -2.7,8.6 v 0.2 c -0.1,2.6 -1.9,35.1 1.6,36 -0.2,0 -6.5,-1.4 -8.5,-1.2 C 132.2,67 129.5,66 129.5,65.9 129,65 128,64.5 127.1,64 c -1.1,-1.5 -5.7,-4.4 -6.6,-4.7 -1.1,-2.4 -1.7,-5.2 -3.7,-7.2 -0.2,-0.4 -0.5,-0.7 -0.9,-1 l 0.2,-0.1 -0.5,-0.6 -0.4,0.3 c -1.1,-0.7 -2.4,-1 -3.7,-1.1 -0.1,-0.4 -9.3,-0.4 -12,-2.1 -0.3,-0.4 -0.5,-0.8 -0.8,-1.1 0.8,-0.1 1.6,-0.3 2.1,-0.9 0,0 0.1,-0.1 0.1,-0.1 l 0.1,-0.6 c 0,0.1 0,0.3 0,0.3 0.1,-0.2 0.6,-3.8 0.6,-3.8 0.1,-0.1 0.1,-0.1 0.2,-0.2 0.3,-0.1 0.4,-0.2 0.4,-0.4 0,-0.3 -0.2,-0.8 -0.2,-1.2 l 0.1,-0.4 c 0,0 0.1,0 0.1,0 0.4,-0.1 0.7,-0.3 1.1,-0.4 0.6,-0.2 1.2,-0.5 1,-1.1 -0.3,-0.6 -1,-1 -1.4,-1.5 0,0 -0.1,-0.1 -0.1,-0.1 0,0 -0.1,0 -0.1,0 v -0.1 c -0.5,-0.7 -1,-1.4 -1.2,-2.1 -0.1,-0.4 0.3,-0.3 0.7,-0.3 0.2,0 0.4,-0.1 0.5,-0.3 0,0 0,-0.1 -0.1,-0.1 -0.4,0 -0.8,0 -0.9,-0.3 -0.1,-0.3 0,-0.5 0.2,-0.7 0,0 -0.1,-0.2 -0.1,-0.3 0.1,0.1 0.1,0.1 0.2,0.2 0.4,-0.4 0.9,-0.7 0.8,-1.3 0,-0.2 -0.1,-0.4 -0.1,-0.5 -0.1,0 -0.2,0.1 -0.2,0.1 -0.1,0 -0.1,0 -0.2,0.1 0.1,-0.1 0.2,-0.2 0.3,-0.2 0,0 -0.3,-1 -0.5,-1.7 0.5,-0.7 0.7,-1.6 0.3,-2.5 -0.9,-2 -2.5,-2.9 -2.8,-4.1 -0.3,-1.1 -7.1,-4.5 -11.1,-3.9 -4,0.6 -7.1,-0.7 -8.8,0.1 -1.7,0.8 -2.4,2.7 -4.7,3.2 -1.9,0.3 -2.9,1.6 -2.4,1.3 1.2,-0.9 2.7,-0.8 3.2,-0.9 0,0 0,0 0.1,0 -0.2,0 -1.9,0.1 -3.7,1.3 -2.1,1.4 -2.2,2.4 -1.8,3.9 0.4,1.4 -1,2.7 -1.9,2.1 -0.9,-0.6 -0.3,-1.4 -0.3,-1.4 0,0 -0.9,1 0,1.5 0.9,0.5 3.3,-0.6 2.7,-2.1 -0.6,-1.5 1.7,2.4 -2.3,3.2 -4.1,0.8 -2.6,4.8 -2.5,5.2 0.1,0.3 -1,-3.9 2,-4.6 1.3,-0.3 2.2,-0.9 2.9,-1.6 -0.1,0.1 -0.1,0.3 -0.1,0.4 -0.3,1.6 -4.1,1.6 -4.4,4.1 -0.3,2.5 0.8,4.6 -1,5.5 -0.8,0.4 -1.1,0.4 -1.2,0.2 0,0.3 0.2,0.5 1.1,0.1 1.7,-0.7 1.6,-1.6 1.5,-1.9 -0.1,-0.3 0.8,1.7 -2.2,2.6 -2.9,0.9 2.4,0.1 2.8,-2.1 0.5,-2.6 1.9,1.3 -2.1,2.5 z m 91.5,-7 c 0,-0.6 6.7,-1.2 9.1,-2.2 l 0.3,-0.1 c 0.4,0.3 -0.8,1.9 -1.1,2.4 -1.9,3.5 -4.5,6.6 -6.3,10.1 -2.2,-2.9 -2.3,-6.8 -2,-10.2 z m -69.2,48 c 0.3,-2.2 1.7,-4 2.2,-6.1 l 0.1,0.2 c 0.9,-2.3 1.9,-4.5 3.1,-6.6 1.5,0.5 2.8,1.6 4,2.6 1.4,1.5 13.6,8 14.1,8.2 0.9,0.1 1.5,1.1 0.2,1.2 -3.5,2.1 -18.3,1.9 -18.7,1.8 -1.7,-0.4 -3.5,-0.5 -5,-1.3 z M 66.8,49.4 c -0.1,0.6 -0.2,1.1 -0.3,1.5 -0.5,-0.2 -1,-0.6 -1.4,-1.4 -1,-2.2 0.7,-3.1 0.7,-3.1 0,0 1.2,1.5 1,3 z m 9.3,-26.2 c -0.7,0.2 -1.7,0.6 -2,1.6 -0.4,1.1 -1.6,2.1 -2.4,3.1 0.3,-0.7 0.4,-1.4 0.2,-2.1 -0.3,-1.7 3.2,-2.6 4.4,-2.7 -0.1,0 -0.1,0.1 -0.2,0.1 z m -3.9,29.5 c -0.3,0.4 -0.7,0.8 -1.2,1 0.5,0.1 0.9,0.1 1.8,-1.2 0.2,-0.3 0,0.6 -0.2,1.3 -0.3,0.8 -0.7,1.5 -3.4,0.9 -0.1,0 -0.2,0 -0.3,-0.1 0.1,-0.1 0.1,-0.2 0.2,-0.3 0.1,-0.1 0.2,-0.2 0.3,-0.3 -0.4,0.1 -0.7,0.2 -0.9,0.3 0,0 0,-0.1 0,-0.1 0.1,-1.4 2.6,-0.7 3.7,-1.5 z m -4.3,-0.5 c -0.1,0.2 -0.4,0.4 -0.9,0.5 0.2,-0.3 0.5,-0.4 0.9,-0.5 z m 3.4,-4.5 c 0.2,-0.5 0.4,1.7 -0.8,1.9 -0.8,0.2 -1.7,0.6 -2.5,1.3 -0.3,-1.1 0.3,-1.6 1.5,-1.8 1.2,-0.1 1.4,-0.4 1.8,-1.4 z"
       style="fill:#4d4d4d" />
    <path
       id="path4548"
       d="m 209.6,86.8 -6.8,32.4 c -1.8,5.9 -4.5,9 -8,9 -2,0 -3,-1.4 -3,-4.4 0,-0.8 0.1,-1.9 0.3,-2.7 l 7.2,-34.3 h -14.5 l -6.6,32.6 v 0 c -1,2.5 -2,4.6 -3.7,6.3 -1.7,1.7 -3.6,2.5 -5.5,2.5 -2.7,0 -4.5,-2 -5.3,-5.9 -0.2,-1 -0.4,-2 -0.7,-3 l -0.9,-4.9 c 5.2,-5.6 8.9,-10.3 11.1,-13.9 2.2,-3.7 3.3,-7.3 3.3,-10.8 0,-2 -0.6,-3.9 -1.8,-5.6 -1.2,-1.7 -2.7,-2.6 -4.7,-2.6 -4,0 -6,1.6 -6,4.8 0,3.7 1.5,5.6 4.6,5.6 0.7,0 1.3,-0.1 1.8,-0.2 0.1,0.3 0.1,0.7 0.1,1.2 0,3.8 -3.2,9 -9.6,15.8 L 157,86.9 h -14.2 l 5.7,31.3 c -3.3,3.6 -7.1,6.4 -11.3,8.5 -4.3,2 -8.6,3.1 -13,3.1 -2.3,0 -4.3,-0.7 -6.3,-2.1 -2,-1.4 -2.8,-4 -2.8,-7.7 v -1.3 c 0,-0.5 -0.1,-0.9 0,-1.4 6.3,-0.4 11.7,-2.6 16.2,-6.6 4.6,-4 6.9,-8.9 6.9,-14.6 0,-2.9 -0.8,-5.2 -2.5,-7 -1.7,-1.7 -4.8,-2.6 -9.5,-2.6 -2.8,0 -5.6,0.6 -8.2,1.9 -5.1,2.3 -9.2,6.2 -12.2,11.7 -3.7,6.8 -5.6,13.7 -5.8,20.6 -1.6,1.3 -3.6,2.6 -5.9,4 0.3,-1.1 0.4,-2.5 0.4,-4 0,-1.5 -0.1,-3.1 -0.2,-4.7 L 93.1,100.1 C 92.8,95.9 92.6,90.6 92.3,84.4 l -14.9,2 c -3.5,11.4 -7.6,21.3 -12.4,29.8 -1.3,0.7 -2.6,1.8 -3.7,3.4 -1.1,1.6 -1.7,3.8 -1.7,6.7 0,2.9 1.3,5.6 3.8,8.2 2.5,2.6 6.2,3.8 10.9,3.8 6.7,0 12,-2 15.8,-6 3.7,-2.1 7,-4.5 10,-7.2 0.5,4.1 2.1,7.2 4.7,9.3 3.3,2.6 7.7,3.9 13.3,3.9 2.6,0 5.4,-0.3 8.2,-1 9.1,-2.1 16.8,-6.4 23.2,-12.9 0.6,2.5 1.3,4.7 2,6.5 1.4,3.5 3.3,5.7 5.7,6.7 1.4,0.6 2.9,0.9 4.7,0.9 1.7,0 3.7,-0.4 5.9,-1.3 3.6,-1.4 6.8,-4 9.4,-7.7 0.4,2.6 1.4,4.7 2.9,6.1 2.1,1.9 4.6,2.8 7.6,2.8 4.8,0 8.9,-1.9 12.3,-5.8 l -1,4.4 c -5.9,1.8 -9.9,3.3 -11.8,4.7 -1.9,1.3 -3.3,2.8 -4.2,4.4 -0.9,1.6 -1.3,3.8 -1.3,6.5 0,2.7 1.2,5.1 3.5,7.2 2.4,2 5.4,3 9.1,3 3.7,0 6.9,-1 9.8,-3.1 3.9,-2.9 6.5,-7.7 7.7,-14.1 l 12.3,-58.4 h -14.5 z m -88.7,11.3 c 2.4,-4.4 4.7,-6.5 7.1,-6.5 1.7,0 2.5,1.2 2.5,3.6 0,4.5 -1.5,8.5 -4.4,11.8 -2.9,3.3 -6.4,5.1 -10.2,5.2 1,-5 2.7,-9.7 5,-14.1 z M 70.5,130 c -3.5,0 -5.2,-2.3 -5.2,-7 0.4,0.9 1.3,1.3 2.7,1.3 1.4,0 2.4,-0.5 3.2,-1.5 0.8,-1 1.2,-2.3 1.2,-3.7 0,-1.4 -0.8,-2.5 -2.3,-3.2 3.7,-7.2 6.4,-13.5 8.1,-19 0.3,4.3 0.6,8.3 0.9,11.9 l 0.6,5.7 c 0.3,2.4 0.4,4.4 0.4,6.1 0,6.3 -3.2,9.4 -9.6,9.4 z m 126.7,15.7 c -0.6,2.9 -1.5,5 -2.6,6.1 -1.1,1.1 -2.2,1.7 -3.3,1.7 -1.1,0 -2,-0.4 -2.8,-1.1 -0.8,-0.7 -1.2,-1.5 -1.2,-2.2 0,-2.5 1.2,-4.8 3.7,-6.9 1.4,-1.1 3.9,-2.3 7.5,-3.6 z M 47.7,94 c 3.3,-1.9 5.8,-4.2 7.5,-7.1 1.7,-2.9 2.5,-5.8 2.5,-8.8 0,-4.5 -1.8,-8.3 -5.4,-11.3 -3.6,-3.1 -8.9,-4.6 -15.9,-4.6 -9.4,0 -17.9,2.7 -25.4,8.1 -3.4,2.5 -6,5.3 -8,8.5 -2,3.2 -3,6.5 -3,10 0,1.7 0.2,3.1 0.7,4.3 1.4,3.3 4.7,4.9 10,4.9 0,-0.2 -0.1,-0.4 -0.2,-0.7 -0.8,-1.4 -1.2,-3.5 -1.2,-6.1 0,-5.2 1.2,-9.6 3.6,-13.3 2.4,-3.7 5.7,-6.5 9.8,-8.5 1.8,-0.9 3.8,-1.5 5.8,-2 2,-0.5 4.1,-0.7 6.3,-0.7 2.2,0 4.1,0.3 5.8,0.9 4.7,1.7 7.1,5 7.1,10 0,3.9 -1.4,7.6 -4.3,11.1 -2.9,3.5 -6.3,5.2 -10.1,5.2 H 32.7 L 37.4,71.6 22.5,73.3 8.8,136.8 h 14.5 l 8.2,-38.2 c 1.6,-0.2 3.1,-0.2 4.6,-0.2 6.3,0 9.5,4.3 9.5,12.9 0,4.6 -0.7,8.6 -2.2,11.9 -1.8,4.1 -4.5,6.2 -8,6.2 -2.1,0 -4.2,-1.2 -6.5,-3.6 -0.9,2.3 -1.3,4.2 -1.3,5.8 0,1.6 0.3,2.9 1,3.8 1.6,2.5 4.5,3.7 8.8,3.7 4.3,0 7.9,-1 10.7,-3.1 5.4,-4.1 8.8,-9.8 10.4,-17.2 0.7,-3.3 1,-6.2 1,-8.6 0,-4.1 -1,-7.6 -2.9,-10.5 -1.8,-3 -4.8,-4.9 -8.9,-5.7 z"
       clip-path="url(#SVGID_5_)"
       style="fill:url(#linearGradient4554)" />
  </g>
</svg>
